<?xml version="1.0" encoding="utf-8"?>
<!-- Generator: Adobe Illustrator 24.2.0, SVG Export Plug-In . SVG Version: 6.00 Build 0)  -->
<svg version="1.1" id="Ebene_1" xmlns="http://www.w3.org/2000/svg" xmlns:xlink="http://www.w3.org/1999/xlink" x="0px" y="0px"
	 viewBox="0 0 300 200" style="enable-background:new 0 0 300 200;" xml:space="preserve">
<style type="text/css">
	.st0{fill:#0A1227;}
</style>
<g>
	<polygon class="st0" points="89,102.9 96,102.9 92.6,94.5 	"/>
	<path class="st0" d="M256.7,99.6c-0.2-17.9-14.6-32.3-32.5-32.5H76.6c-18.2-0.2-33.1,14.4-33.3,32.5c-0.2,18.2,14.4,33.1,32.5,33.3
		h0.8h147.5C242.3,132.7,256.9,117.8,256.7,99.6z M250.5,101c-0.5,14.4-12,25.9-26.4,26.4H76.6c-15.1,0-27.4-12.3-27.4-27.4
		c0-15.1,12.3-27.4,27.4-27.4h147.5C239.2,73.2,251,85.9,250.5,101z"/>
	<path class="st0" d="M138.2,102.9h-5.7v7.7h5.7c0.4,0,0.7-0.3,0.7-0.7v-6.2C138.8,103.2,138.5,102.9,138.2,102.9z"/>
	<path class="st0" d="M138.2,89.5h-5.7v7.6h5.7v0c0.4,0,0.7-0.3,0.7-0.7v-6.2C138.8,89.8,138.5,89.5,138.2,89.5z"/>
	<path class="st0" d="M224.1,77.1H76.6C64,76.9,53.6,87,53.4,99.7c-0.2,12.6,9.9,23,22.6,23.2h0.7v0h147.5
		c12.6-0.2,22.8-10.6,22.6-23.2C246.5,87.2,236.5,77.3,224.1,77.1z M114.8,116.3h-13.3l-3.1-7.6H86.6l-3.2,7.6H73.2v-5.8h2.4l8.8-21
		H82v-5.9h19.4l11.1,26.9h2.4V116.3z M151.7,97.2c-0.1,1.5-1.3,2.7-2.9,2.7c1.6,0,2.9,1.3,2.9,3v10.5c0,1.6-1.3,2.9-2.9,2.9h-31.6
		v-5.8h2.4V89.5h-2.4v-5.8h31.6c1.6,0,2.9,1.3,2.9,2.9V97.2z M190.9,89.5h-2.4v23.9c0,1.6-1.3,2.9-2.9,2.9h-26.3
		c-1.6,0-2.9-1.3-2.9-2.9V89.5H154v-5.8h15.2v26.2c0,0.4,0.3,0.7,0.7,0.7h5c0.4,0,0.7-0.3,0.7-0.7V83.7h15.2V89.5z M225.4,91.8
		h-12.8v-1.6c0-0.4-0.3-0.7-0.7-0.7h-5c-0.4,0-0.7,0.3-0.7,0.7v6.9l19.3,0v16.3c0,1.6-1.3,2.9-2.9,2.9h-26.3c-1.6,0-2.9-1.3-2.9-2.9
		v-5.2h12.8v1.7c0,0.4,0.3,0.7,0.7,0.7h5c0.4,0,0.7-0.4,0.7-0.7v-6.9h-19.3V86.6c0-1.6,1.3-2.9,2.9-2.9h26.3c1.6,0,2.9,1.3,2.9,2.9
		V91.8z"/>
</g>
</svg>
