<?xml version="1.0" encoding="utf-8"?>
<!-- Generator: Adobe Illustrator 24.2.0, SVG Export Plug-In . SVG Version: 6.00 Build 0)  -->
<svg version="1.1" id="Ebene_1" xmlns="http://www.w3.org/2000/svg" xmlns:xlink="http://www.w3.org/1999/xlink" x="0px" y="0px"
	 viewBox="0 0 300 200" style="enable-background:new 0 0 300 200;" xml:space="preserve">
<style type="text/css">
	.st0{fill:#0A1227;}
	.st1{fill-rule:evenodd;clip-rule:evenodd;fill:#0A1227;}
	.st2{fill:url(#path58_2_);}
	.st3{fill-rule:evenodd;clip-rule:evenodd;fill:#194473;}
	.st4{fill:none;stroke:#194473;stroke-width:1.1801;stroke-miterlimit:5.3333;}
	.st5{fill-rule:evenodd;clip-rule:evenodd;}
	.st6{fill:#008948;}
	.st7{fill-rule:evenodd;clip-rule:evenodd;fill:#008948;}
	.st8{fill:#004E9E;}
	.st9{fill:#1A1A18;}
	.st10{fill:#FFFFFF;}
	.st11{fill:#76BC21;}
	.st12{fill:#1D1D1B;}
	.st13{fill-rule:evenodd;clip-rule:evenodd;fill:#1D1D1B;}
	.st14{fill:#E31513;}
	.st15{fill:#E60001;}
	.st16{fill:#333333;}
	.st17{fill:#BBBDC0;}
	.st18{fill:#1D3B6D;}
	.st19{fill-rule:evenodd;clip-rule:evenodd;fill:#1D3B6D;}
	.st20{fill:#FFFFFF;stroke:#BBBDC0;stroke-width:0.275;stroke-miterlimit:3.8637;}
	.st21{fill:#005B53;}
	.st22{fill:#FF6C0E;}
	.st23{fill:#134094;}
	.st24{fill:#D2022F;}
	.st25{fill:#9D9D9C;}
	.st26{fill:#93B894;}
	.st27{filter:url(#Adobe_OpacityMaskFilter);}
	.st28{fill-rule:evenodd;clip-rule:evenodd;fill:#FFFFFF;}
	.st29{mask:url(#logo-hagesued-b_2_);fill:#FF7200;}
	.st30{filter:url(#Adobe_OpacityMaskFilter_1_);}
	.st31{mask:url(#logo-hagesued-d_2_);fill:#7F3D39;}
	.st32{fill:#FEFEFE;}
	.st33{fill:#606060;}
	.st34{filter:url(#Adobe_OpacityMaskFilter_2_);}
	.st35{mask:url(#logo-hagesued-b_1_);fill:#606060;}
	.st36{fill:none;stroke:#000000;stroke-miterlimit:10;}
	.st37{fill:none;}
	.st38{clip-path:url(#SVGID_2_);fill:#444543;}
	.st39{clip-path:url(#SVGID_4_);}
	.st40{clip-path:url(#SVGID_6_);fill:#D0D0D0;}
	.st41{clip-path:url(#SVGID_8_);fill:#D0D0D0;}
	.st42{fill:#3F3E3C;}
	.st43{fill:#2374BA;}
	.st44{fill:#AEB2B5;}
	.st45{fill-rule:evenodd;clip-rule:evenodd;fill:#164194;}
	.st46{fill:#E30613;}
	.st47{fill-rule:evenodd;clip-rule:evenodd;fill:#DC911B;}
	.st48{fill:#DC911B;}
	.st49{fill:#FF0066;}
</style>
<g>
	<path class="st0" d="M259.7,87.8c0.5,1.3,1.3,2.8,0.5,4.1c-0.7,0.5-1.6,0.6-2.3,0.5c-1.1-0.5-2.4-1.1-3.1-2.1l0.2-2.1
		c1,0.6,1.8,2.4,3.2,2c0.2-1.6-1.1-2.9-2.1-4c-1-0.9-1.9-2.6-3.4-2.9c-0.6,1.4,0.2,3.2,0.5,4.7c0.3,1.6,1.3,4.3-0.1,5.8
		c-0.6,0.7-1.6,0.8-2.4,0.7c-4.8-1.1-8-6.1-8.8-10.7c0-1,0.3-2,1.3-2.4c3,0.1,4.8,2.3,6.5,4.4c-0.1,0.7-0.3,1.3-0.6,1.9
		c-1.4-1.6-2.8-3.7-4.8-4.1c-0.5,1.8,1,3.6,2.1,5.2c1.5,1.4,2.5,3.2,4.7,3.5c1.2-0.9,0.2-2.4,0.4-3.6c-0.1-2.6-3.2-6.1,0.2-8
		C255.5,81.3,257.7,84.6,259.7,87.8"/>
	<path class="st0" d="M263.6,103.6l-1.7,0.3l3.8,2.1c-0.1,0.5-0.4,1.4-1,1.7c-3.6-2.2-7.5-3.8-12-3.2c-0.2-0.6-0.5-1-0.4-2
		c3.3-0.4,7.6,0.1,10.9-0.8C263.6,102.1,263.5,103,263.6,103.6"/>
	<path class="st0" d="M267.1,107.4c0.1,0.8,0.3,1.1,0.2,2.1c-2.4,0.7-5.2,1-7.6,1.7c3.4,2.2,7.7,3,11.9,3.3
		c-0.9,0.9-1.7,2.7-3.3,1.8c-4.1-0.7-7.9-2.1-11.3-4.1c-1.8-3.6,2.8-2.4,4.3-3.5C263.4,108.4,265.1,107.7,267.1,107.4"/>
	<path class="st0" d="M274.8,118.5h-2.5l0.1-2l2.4-0.3C275.3,117.1,274.8,117.7,274.8,118.5"/>
	<path class="st0" d="M271.2,118.8l-10.4,0.8c-0.3-0.9-0.1-1.3,0-2.2c3.4-0.1,7.1-0.7,10.5-0.6L271.2,118.8"/>
	<path class="st0" d="M276.2,122.7c0.5,0.9,0.1,1.6-0.4,2.3c-0.3,0.4-0.7,0.6-1.3,0.6l-1.3-1.3c0.5-0.5,1-0.2,1-1
		c-1.8-1.6-5-1.7-7.2-1.4c-0.4,0.3-1.8,0.6-1.6,1.7c1.1,1,2.6,1.2,3.9,1.3l-0.1,1.8c-1.7,0.2-3.7-0.6-5.2-2c-0.7-0.9-0.8-2-0.4-3
		c1.7-2.3,5.2-2.5,7.5-1.8C273.1,120.4,275.2,120.7,276.2,122.7"/>
	<path class="st0" d="M245.9,111.4l-2.1,3.9l4.8,0.1C247.7,114,247.1,112.6,245.9,111.4 M169,107.4c-2.6,1.1-4.9,3.6-5.5,6.5
		c-0.5,2.9,0.2,5.9,2.2,8c2.4,2.8,6,3.4,9.5,2.6c2.3-0.8,4.6-2.5,5.6-4.8c1.4-2.5,1-6.1-0.4-8.5C178.1,107.3,173.1,105.7,169,107.4z
		 M186.7,106.2c1.7,2.6,2.6,5.5,2.8,8.7c3.1,0.1,7.1,0.8,10.1-0.6c1.4-1.2,2-3.2,1.6-4.8c-0.4-1.7-1.9-2.6-3.4-3.1L186.7,106.2z
		 M267.3,133.1c-2.5,0.2-5.7,0.1-8.8,0.1l-5.9-10.3c-4-0.1-9-0.1-12.5,0c-2.5,5.5-8.5,10.1-14.6,10.1c-6.3,0.1-12.7-3.2-15.9-8.9
		c-1.2-2.4-2-5.6-1.8-8.2c-1.4,2.1-4.1,3.5-6.6,4.4l7.1,12.5h-9l-9.8-16.6c-0.2,1-0.4,2.6-0.6,3.7c-1.3,5-5.2,9.6-10.1,11.6
		c-5.1,2.3-11.7,1.3-16.3-1.8c-5.7-4.2-8.3-11.4-6.5-18.3c1.5-5.7,7-11.1,12.8-12.1c6.7-1.4,13,1.4,17.2,6.5c0.4-2,0.1-4.4,0.2-6.8
		h14.5c3.8,0.9,7.6,4.3,8.3,8l0.3,1.7c1.4-2.1,3.2-4.8,5.7-6.6c4.9-3.6,11.8-3.3,17.2-1c-1.1,2.2-2.5,4.5-3.7,6.6
		c-2.1-0.2-5-1.3-7.2-0.3c-2.9,1-5.1,4-5.9,6.8c-0.5,3,0.2,6.8,3.3,9c2.8,2.2,6.9,3.1,10.3,1l1.4-1.1c-3.3-0.4-7.4-0.1-10.2-0.3
		l0.1-7.4l14.1,0.1c3.7-6.3,7.5-12.8,11.1-19.4C253.2,108.8,260.2,120.6,267.3,133.1z"/>
	<path class="st0" d="M256.2,96.9l0.3,0.5c1.1,0.5,2.2,1.5,3.4,1.1C259,97.6,257.5,97.2,256.2,96.9 M262.1,98.1
		c0.2,0.7,0.1,1.6-0.3,2.1c-1.6,1.2-3.3,0.5-4.9-0.2c-1-0.7-2-1.3-2.9-2.2c0.2-0.3,0.5-0.7,0.7-1c-1.1,0-2.5-0.2-3.3,0.9
		c0,0.7,0.7,1.1,1.2,1.4l2.6,0.7l-0.2,1.7c-2.3,0.1-4.7-1.1-5.7-3.1c-0.5-1.3,0.3-2.2,1.1-3c3.3-1.7,7.8-0.6,10.7,1.4L262.1,98.1z"
		/>
	<path class="st0" d="M274.3,128.9l1.6,1.3c0.6,0.2,1.6,0.8,2.1,0.3C277.3,129.3,275.6,129.2,274.3,128.9 M280,129.4
		c0.5,0.8,0.5,2,0,2.7c-2,1.7-4.4,0-6.2-0.9c-0.7-0.5-0.9-0.9-1.6-1.4l0.4-1c-1-0.3-2,0.1-2.8,0.5c-0.2,0.3-0.5,0.8,0,1.1
		c1,0.9,2.3,1.1,3.5,1.4l-0.2,1.7c-2.2,0.1-4.5-1.1-5.6-3c-0.4-0.6-0.2-1.5,0.1-2.1c2.8-3.2,6.5-1.9,10.1-0.7L280,129.4z"/>
	<path class="st0" d="M285.7,130.9c0.3,0,0.7,0,0.7-0.4c0-0.3-0.3-0.4-0.6-0.4h-0.6v0.8H285.7 M285.2,132.4h-0.4v-2.7h1
		c0.6,0,0.9,0.2,0.9,0.8c0,0.5-0.3,0.7-0.7,0.7l0.8,1.2h-0.5l-0.7-1.2h-0.5V132.4z M285.7,133c1,0,1.9-0.8,1.9-1.9
		c0-1.1-0.8-1.9-1.9-1.9c-1.1,0-1.9,0.8-1.9,1.9C283.8,132.2,284.6,133,285.7,133z M283.3,131c0-1.3,1.1-2.3,2.4-2.3
		c1.3,0,2.3,1,2.3,2.3c0,1.3-1.1,2.3-2.3,2.3C284.4,133.4,283.3,132.4,283.3,131z"/>
	<polyline class="st0" points="17.2,89.1 17.2,79.5 25.2,79.5 25.2,76.5 17.2,76.5 17.2,69.9 25.2,69.9 25.2,66.9 14,66.9 14,89.1 
		17.2,89.1 	"/>
	<polyline class="st0" points="58,89.1 58,66.9 54.8,66.9 54.8,76.5 45.6,76.5 45.6,66.9 42.3,66.9 42.3,89.1 45.6,89.1 45.6,79.5 
		54.8,79.5 54.8,89.1 58,89.1 	"/>
	<path class="st1" d="M65,69.9h3.4c3.7,0,4.9,2.3,4.9,4.2c0,4.3-4.8,4.4-6.1,4.4H65V69.9 M76.5,89.1l-6.2-8.3c1.4,0,6.4-0.9,6.4-6.8
		c0-1.9-0.6-3.9-2-5.3c-1.2-1.1-2.8-1.9-5.9-1.9h-6.9v22.3H65V78.8h0.1l7.3,10.3H76.5z"/>
	<polyline class="st0" points="90.8,89.1 90.8,86.2 82.1,86.2 82.1,79.4 90.8,79.4 90.8,76.4 82.1,76.4 82.1,69.9 90.8,69.9 
		90.8,66.9 78.8,66.9 78.8,89.1 90.8,89.1 	"/>
	<polyline class="st0" points="111.1,89.1 111.1,66.9 107.9,66.9 107.9,83.8 107.8,83.8 97,66.9 93.4,66.9 93.4,89.1 96.7,89.1 
		96.7,71.9 96.7,71.9 107.8,89.1 111.1,89.1 	"/>
	<path class="st1" d="M118.1,69.9h2.5c0.7,0,3.8,0,3.8,3.2c0,1.3-0.5,3.1-3.6,3.1h-2.6V69.9 M118.1,79.1h3.1c1.1,0,2.6,0,3.6,1.4
		c0.5,0.6,0.8,1.4,0.8,2.2c0,1.1-0.8,3.5-4,3.5h-3.5V79.1z M114.9,89.1h6.6c6.1,0,7.4-4.2,7.4-6.5c0-3.5-2.4-4.9-3.3-5.4
		c0.8-0.7,2-1.7,2-4.2c0-1.6-0.7-6.2-6.9-6.2h-5.8V89.1z"/>
	<polyline class="st0" points="142.4,89.1 142.4,86.2 133.7,86.2 133.7,79.4 142.4,79.4 142.4,76.4 133.7,76.4 133.7,69.9 
		142.4,69.9 142.4,66.9 130.4,66.9 130.4,89.1 142.4,89.1 	"/>
	<path class="st1" d="M148.1,69.9h3.4c3.7,0,4.9,2.3,4.9,4.2c0,4.3-4.8,4.4-6.1,4.4h-2.2V69.9 M159.5,89.1l-6.2-8.3
		c1.4,0,6.4-0.9,6.4-6.8c0-1.9-0.6-3.9-2-5.3c-1.2-1.1-2.8-1.9-5.9-1.9h-6.9v22.3h3.3V78.8h0.1l7.3,10.3H159.5z"/>
	<path class="st0" d="M182.7,72.5c-2.2-4-6.2-6-10-6c-6.4,0-11.4,5.2-11.4,11.6c0,6.2,4.9,11.5,11.4,11.5c5.4,0,11.4-4,11.5-11.5
		h-14.1v3h10.4c-2.1,5.5-7,5.5-7.7,5.5c-4.2,0-8.3-3.6-8.3-8.5c0-4.7,3.6-8.6,8.2-8.6c3.3,0,5.1,2,6.1,3H182.7"/>
	<polyline class="st0" points="198.6,89.1 198.6,86.2 189.9,86.2 189.9,79.4 198.6,79.4 198.6,76.4 189.9,76.4 189.9,69.9 
		198.6,69.9 198.6,66.9 186.6,66.9 186.6,89.1 198.6,89.1 	"/>
	<path class="st1" d="M204.3,69.9h3.4c3.7,0,4.9,2.3,4.9,4.2c0,4.3-4.8,4.4-6.1,4.4h-2.2V69.9 M215.8,89.1l-6.2-8.3
		c1.4,0,6.4-0.9,6.4-6.8c0-1.9-0.6-3.9-2-5.3c-1.2-1.1-2.8-1.9-5.9-1.9h-6.9v22.3h3.2V78.8h0.1l7.3,10.3H215.8z"/>
	<path class="st1" d="M30.7,79.6l5.4-8.2v8.2H30.7 M38.9,89.1V66.9h-3.3L20.9,89.1h3.5l4.3-6.6h7.4v6.6H38.9z"/>
</g>
</svg>
