<?xml version="1.0" encoding="utf-8"?>
<!-- Generator: Adobe Illustrator 24.2.0, SVG Export Plug-In . SVG Version: 6.00 Build 0)  -->
<svg version="1.1" id="Ebene_1" xmlns="http://www.w3.org/2000/svg" xmlns:xlink="http://www.w3.org/1999/xlink" x="0px" y="0px"
	 viewBox="0 0 300 200" style="enable-background:new 0 0 300 200;" xml:space="preserve">
<style type="text/css">
	.st0{fill:#0A1227;}
	.st1{fill-rule:evenodd;clip-rule:evenodd;fill:#0A1227;}
	.st2{fill:url(#path58_2_);}
	.st3{fill-rule:evenodd;clip-rule:evenodd;fill:#194473;}
	.st4{fill:none;stroke:#194473;stroke-width:1.1801;stroke-miterlimit:5.3333;}
	.st5{fill-rule:evenodd;clip-rule:evenodd;}
	.st6{fill:#008948;}
	.st7{fill-rule:evenodd;clip-rule:evenodd;fill:#008948;}
	.st8{fill:#004E9E;}
	.st9{fill:#1A1A18;}
	.st10{fill:#FFFFFF;}
	.st11{fill:#76BC21;}
	.st12{fill:#1D1D1B;}
	.st13{fill-rule:evenodd;clip-rule:evenodd;fill:#1D1D1B;}
	.st14{fill:#E31513;}
	.st15{fill:#E60001;}
	.st16{fill:#333333;}
	.st17{fill:#BBBDC0;}
	.st18{fill:#1D3B6D;}
	.st19{fill-rule:evenodd;clip-rule:evenodd;fill:#1D3B6D;}
	.st20{fill:#FFFFFF;stroke:#BBBDC0;stroke-width:0.275;stroke-miterlimit:3.8637;}
	.st21{fill:#005B53;}
	.st22{fill:#FF6C0E;}
	.st23{fill:#134094;}
	.st24{fill:#D2022F;}
	.st25{fill:#9D9D9C;}
	.st26{fill:#93B894;}
	.st27{filter:url(#Adobe_OpacityMaskFilter);}
	.st28{fill-rule:evenodd;clip-rule:evenodd;fill:#FFFFFF;}
	.st29{mask:url(#logo-hagesued-b_2_);fill:#FF7200;}
	.st30{filter:url(#Adobe_OpacityMaskFilter_1_);}
	.st31{mask:url(#logo-hagesued-d_2_);fill:#7F3D39;}
	.st32{fill:#FEFEFE;}
	.st33{fill:#606060;}
	.st34{filter:url(#Adobe_OpacityMaskFilter_2_);}
	.st35{mask:url(#logo-hagesued-b_1_);fill:#606060;}
	.st36{fill:none;stroke:#000000;stroke-miterlimit:10;}
	.st37{fill:none;}
	.st38{clip-path:url(#SVGID_2_);fill:#444543;}
	.st39{clip-path:url(#SVGID_4_);}
	.st40{clip-path:url(#SVGID_6_);fill:#D0D0D0;}
	.st41{clip-path:url(#SVGID_8_);fill:#D0D0D0;}
	.st42{fill:#3F3E3C;}
	.st43{fill:#2374BA;}
	.st44{fill:#AEB2B5;}
	.st45{fill-rule:evenodd;clip-rule:evenodd;fill:#164194;}
	.st46{fill:#E30613;}
	.st47{fill-rule:evenodd;clip-rule:evenodd;fill:#DC911B;}
	.st48{fill:#DC911B;}
	.st49{fill:#FF0066;}
</style>
<g>
	<g>
		<polygon class="st0" points="39.1,111.8 47.9,111.8 47.9,113.8 41.4,113.8 41.4,118.3 47.3,118.3 47.3,120.3 41.4,120.3 
			41.4,125.5 47.9,125.5 47.9,127.4 39.1,127.4 		"/>
		<path class="st0" d="M51.3,116h2v1.8h0c0.6-1.3,2.2-2.1,3.7-2.1c3,0,4.3,1.8,4.3,4.9v6.8h-2.1v-5.9c0-2.7-0.6-4-2.4-4.1
			c-2.4,0-3.5,1.9-3.5,4.7v5.3h-2.1V116z"/>
		<path class="st0" d="M73.2,116v1.7h0c-0.6-1.2-1.7-2-3.8-2c-3.5,0-5.1,3.1-5.1,6.1c0,3,1.6,5.6,4.9,5.6c1.5,0,2.9-0.6,3.8-1.8h0
			v1.1c0,2.4-1.3,3.9-3.5,3.9c-1.5,0-2.5-0.3-4.1-1l-0.2,1.9c1.8,0.6,2.9,0.8,4.1,0.8c4.1,0,5.9-2,5.9-5.5V116H73.2z M69.7,125.7
			c-2,0-3.2-1.9-3.2-4c0-2,1.1-4.3,3.2-4.3c2.2,0,3.3,2,3.3,4.4C73,124,71.6,125.7,69.7,125.7z"/>
		<path class="st0" d="M81.2,113.4h-2.4v-2.4h2.4V113.4z M79,116h2.1v11.4H79V116z"/>
		<path class="st0" d="M84.9,116h2v1.8h0c0.6-1.3,2.2-2.1,3.7-2.1c3,0,4.3,1.8,4.3,4.9v6.8h-2.1v-5.9c0-2.7-0.6-4-2.4-4.1
			c-2.4,0-3.5,1.9-3.5,4.7v5.3h-2.1V116z"/>
		<path class="st0" d="M107.4,127c-0.8,0.3-1.7,0.7-3.6,0.7c-4.1,0-5.9-2.5-5.9-6.2c0-3.4,2.1-5.8,5.4-5.8c3.8,0,5,2.8,5,6.5h-8.2
			c0,2.3,1.8,3.8,3.8,3.8c1.4,0,3-0.7,3.5-1.1V127z M106,120.6c0-1.7-1-3.2-2.8-3.2c-2.1,0-2.9,1.7-3.1,3.2H106z"/>
		<path class="st0" d="M119.9,127c-0.8,0.3-1.7,0.7-3.6,0.7c-4.1,0-5.9-2.5-5.9-6.2c0-3.4,2.1-5.8,5.4-5.8c3.8,0,5,2.8,5,6.5h-8.2
			c0,2.3,1.8,3.8,3.8,3.8c1.4,0,3-0.7,3.5-1.1V127z M118.5,120.6c0-1.7-1-3.2-2.8-3.2c-2.1,0-2.9,1.7-3.1,3.2H118.5z"/>
		<path class="st0" d="M123.6,116h2v1.8h0c0.6-1.2,1.8-2,3-2c0.6,0,0.9,0.1,1.4,0.2v1.9c-0.4-0.2-0.8-0.2-1.2-0.2
			c-1.9,0-3.1,1.8-3.1,4.7v5.2h-2.1V116z"/>
		<path class="st0" d="M141.1,127c-0.8,0.3-1.7,0.7-3.6,0.7c-4.1,0-5.9-2.5-5.9-6.2c0-3.4,2.1-5.8,5.4-5.8c3.8,0,5,2.8,5,6.5h-8.2
			c0,2.3,1.8,3.8,3.8,3.8c1.4,0,3-0.7,3.5-1.1V127z M139.7,120.6c0-1.7-1-3.2-2.8-3.2c-2.1,0-2.9,1.7-3.1,3.2H139.7z"/>
		<path class="st0" d="M152.8,110.6v7h0c-0.7-1.1-1.8-1.8-3.8-1.8c-3.3,0-4.9,2.7-4.9,5.8c0,3.1,1.5,6.2,4.9,6.2c2,0,3.3-1,3.9-1.9
			h0v1.6h2v-16.8H152.8z M149.4,126c-2.3,0-3.2-2.5-3.2-4.3c0-2.1,0.9-4.2,3.1-4.2c2.3,0,3.4,2.2,3.4,4.3
			C152.8,123.6,151.8,126,149.4,126z"/>
		<polygon class="st0" points="164.8,111.8 173.1,111.8 173.1,113.8 167,113.8 167,118.3 172.8,118.3 172.8,120.3 167,120.3 
			167,127.4 164.8,127.4 		"/>
		<path class="st0" d="M176.4,116.8c1.1-0.6,2.3-1.1,3.8-1.1c3.3,0,4.6,1.6,4.6,4.7v4.7c0,1.3,0,1.9,0.1,2.2h-2V126h0
			c-0.5,0.7-1.6,1.7-3.5,1.7c-2.5,0-4.2-1.1-4.2-3.6c0-2.9,3.1-3.8,5.3-3.8c0.8,0,1.4,0,2.2,0c0-2-0.7-3-2.8-3
			c-1.2,0-2.5,0.4-3.3,1.2L176.4,116.8z M182.7,122c-0.4,0-0.9,0-1.3,0c-1.1,0-4,0.2-4,2.2c0,1.2,1.2,1.9,2.1,1.9
			c2.1,0,3.2-1.3,3.2-3V122z"/>
		<path class="st0" d="M187.5,125.2c0.8,0.5,2,0.8,2.6,0.8c1,0,2.2-0.4,2.2-1.6c0-2.1-5-1.9-5-5.1c0-2.4,1.8-3.5,4-3.5
			c1,0,1.8,0.2,2.6,0.4l-0.2,1.8c-0.5-0.3-1.7-0.6-2.2-0.6c-1.1,0-2,0.4-2,1.4c0,2.3,5,1.7,5,5.3c0,2.4-1.9,3.6-4,3.6
			c-1.1,0-2.2-0.1-3.1-0.6L187.5,125.2z"/>
		<path class="st0" d="M203.2,117.7h-3v6.3c0,1.3,0.8,2,1.8,2c0.7,0,1.1-0.2,1.4-0.4v1.8c-0.5,0.1-1.1,0.3-1.8,0.3
			c-2.2,0-3.5-1-3.5-3.3v-6.7h-2.6V116h2.6v-2.6l2.1-0.7v3.3h3V117.7z"/>
		<path class="st0" d="M214.6,127c-0.8,0.3-1.7,0.7-3.6,0.7c-4.1,0-5.9-2.5-5.9-6.2c0-3.4,2.1-5.8,5.4-5.8c3.8,0,5,2.8,5,6.5h-8.2
			c0,2.3,1.8,3.8,3.8,3.8c1.4,0,3-0.7,3.5-1.1V127z M213.2,120.6c0-1.7-1-3.2-2.8-3.2c-2.1,0-2.9,1.7-3.1,3.2H213.2z"/>
		<path class="st0" d="M218.3,116h2v1.8h0c0.6-1.3,2.2-2.1,3.7-2.1c3,0,4.3,1.8,4.3,4.9v6.8h-2.1v-5.9c0-2.7-0.6-4-2.4-4.1
			c-2.4,0-3.5,1.9-3.5,4.7v5.3h-2.1V116z"/>
		<path class="st0" d="M234.5,113.4h-2.4v-2.4h2.4V113.4z M232.2,116h2.1v11.4h-2.1V116z"/>
		<path class="st0" d="M238.2,116h2v1.8h0c0.6-1.3,2.2-2.1,3.7-2.1c3,0,4.3,1.8,4.3,4.9v6.8h-2.1v-5.9c0-2.7-0.6-4-2.4-4.1
			c-2.4,0-3.5,1.9-3.5,4.7v5.3h-2.1V116z"/>
		<path class="st0" d="M260.1,116v1.7h0c-0.6-1.2-1.7-2-3.8-2c-3.5,0-5.1,3.1-5.1,6.1c0,3,1.6,5.6,4.9,5.6c1.5,0,2.9-0.6,3.8-1.8h0
			v1.1c0,2.4-1.3,3.9-3.5,3.9c-1.5,0-2.5-0.3-4.1-1l-0.2,1.9c1.8,0.6,2.9,0.8,4.1,0.8c4.1,0,5.9-2,5.9-5.5V116H260.1z M256.6,125.7
			c-2,0-3.2-1.9-3.2-4c0-2,1.1-4.3,3.2-4.3c2.2,0,3.3,2,3.3,4.4C259.9,124,258.5,125.7,256.6,125.7z"/>
	</g>
	<g>
		<path class="st0" d="M39,93c2.3,1.2,5.7,2.4,9.8,2.4c2.8,0,6.1-0.6,6.1-3.1c0-5.9-16.8-2.5-16.8-14.6c0-8,7.4-10.1,14.1-10.1
			c4.3,0,7.6,0.7,10.2,1.5l-0.8,7.1c-2.3-1-5.3-1.9-8.6-1.9c-2.2,0-5.7,0.1-5.7,3.1c0,5.2,16.9,2.5,16.9,14.2
			c0,8.6-7.8,10.6-15.2,10.6c-4.5,0-8.6-0.9-10.8-1.6L39,93z M94.3,68.2H66.3V75h9.5v26.5h8.9V75h9.5V68.2z M251.3,68.2l-6.4,13.3
			l-6.5-13.3h-10.2L240.4,89v12.5h8.9V89l12.2-20.7H251.3z M132.5,68.2v33.3h8.5V83.6l14.5,17.9h7.3v-5l-23-28.3H132.5z M162.7,85.1
			V68.2h-13.6L162.7,85.1z M208.9,88h14v-6.6h-14v-6.6h15.4v-6.5h-24.5v33.3h25v-6.6h-15.9V88z M179.9,68.2h-9.1v33.3h23.6v-6.9
			h-14.5V68.2z M116.1,94.8h-12.4l-2.3,6.6h-8.7l12.2-33.3h10.3l12.4,33.3h-9.3L116.1,94.8z M114.1,88.6L110,75.2l-4.3,13.4H114.1z"
			/>
		<g>
			<path class="st0" d="M258.8,95.9c-1.6,0-2.8,1.3-2.8,2.8c0,1.6,1.3,2.8,2.8,2.8c1.6,0,2.8-1.3,2.8-2.8
				C261.6,97.2,260.4,95.9,258.8,95.9z M258.8,101c-1.2,0-2.2-1-2.2-2.3c0-1.3,1-2.3,2.2-2.3c1.2,0,2.2,1,2.2,2.3
				C260.9,100.1,260,101,258.8,101z"/>
			<path class="st0" d="M259.2,98.9c0.5,0,0.8-0.3,0.8-0.9c0-0.7-0.4-0.9-1.2-0.9h-1.2v3.2h0.6V99h0.4l0.8,1.4h0.6L259.2,98.9z
				 M258.3,98.5v-0.9h0.5c0.3,0,0.7,0.1,0.7,0.4c0,0.4-0.3,0.5-0.7,0.5H258.3z"/>
		</g>
	</g>
</g>
</svg>
