<?xml version="1.0" encoding="utf-8"?>
<!-- Generator: Adobe Illustrator 24.2.0, SVG Export Plug-In . SVG Version: 6.00 Build 0)  -->
<svg version="1.1" id="Ebene_1" xmlns="http://www.w3.org/2000/svg" xmlns:xlink="http://www.w3.org/1999/xlink" x="0px" y="0px"
	 viewBox="0 0 300 200" style="enable-background:new 0 0 300 200;" xml:space="preserve">
<style type="text/css">
	.st0{fill:#0A1227;}
	.st1{fill-rule:evenodd;clip-rule:evenodd;fill:#0A1227;}
	.st2{fill:url(#path58_2_);}
	.st3{fill-rule:evenodd;clip-rule:evenodd;fill:#194473;}
	.st4{fill:none;stroke:#194473;stroke-width:1.1801;stroke-miterlimit:5.3333;}
	.st5{fill-rule:evenodd;clip-rule:evenodd;}
	.st6{fill:#008948;}
	.st7{fill-rule:evenodd;clip-rule:evenodd;fill:#008948;}
	.st8{fill:#004E9E;}
	.st9{fill:#1A1A18;}
	.st10{fill:#FFFFFF;}
	.st11{fill:#76BC21;}
	.st12{fill:#1D1D1B;}
	.st13{fill-rule:evenodd;clip-rule:evenodd;fill:#1D1D1B;}
	.st14{fill:#E31513;}
	.st15{fill:#E60001;}
	.st16{fill:#333333;}
	.st17{fill:#BBBDC0;}
	.st18{fill:#1D3B6D;}
	.st19{fill-rule:evenodd;clip-rule:evenodd;fill:#1D3B6D;}
	.st20{fill:#FFFFFF;stroke:#BBBDC0;stroke-width:0.275;stroke-miterlimit:3.8637;}
	.st21{fill:#005B53;}
	.st22{fill:#FF6C0E;}
	.st23{fill:#134094;}
	.st24{fill:#D2022F;}
	.st25{fill:#9D9D9C;}
	.st26{fill:#93B894;}
	.st27{filter:url(#Adobe_OpacityMaskFilter);}
	.st28{fill-rule:evenodd;clip-rule:evenodd;fill:#FFFFFF;}
	.st29{mask:url(#logo-hagesued-b_2_);fill:#FF7200;}
	.st30{filter:url(#Adobe_OpacityMaskFilter_1_);}
	.st31{mask:url(#logo-hagesued-d_2_);fill:#7F3D39;}
	.st32{fill:#FEFEFE;}
	.st33{fill:#606060;}
	.st34{filter:url(#Adobe_OpacityMaskFilter_2_);}
	.st35{mask:url(#logo-hagesued-b_1_);fill:#606060;}
	.st36{fill:none;stroke:#000000;stroke-miterlimit:10;}
	.st37{fill:none;}
	.st38{clip-path:url(#SVGID_2_);fill:#444543;}
	.st39{clip-path:url(#SVGID_4_);}
	.st40{clip-path:url(#SVGID_6_);fill:#D0D0D0;}
	.st41{clip-path:url(#SVGID_8_);fill:#D0D0D0;}
	.st42{fill:#3F3E3C;}
	.st43{fill:#2374BA;}
	.st44{fill:#AEB2B5;}
	.st45{fill-rule:evenodd;clip-rule:evenodd;fill:#164194;}
	.st46{fill:#E30613;}
	.st47{fill-rule:evenodd;clip-rule:evenodd;fill:#DC911B;}
	.st48{fill:#DC911B;}
	.st49{fill:#FF0066;}
</style>
<g>
	<g>
		<path class="st0" d="M92.3,142.6h1.5v3.4h3.9v-3.4h1.5v8.6h-1.5v-3.9h-3.9v3.9h-1.5V142.6z"/>
		<path class="st0" d="M101.9,142.6h6.2v1.3h-4.7v2.3h4.4v1.2h-4.4v2.5h4.8v1.3h-6.3V142.6z"/>
		<path class="st0" d="M112.4,142.6h1.6l3.3,8.6h-1.6l-0.8-2.3h-3.4l-0.8,2.3h-1.6L112.4,142.6z M111.9,147.8h2.6l-1.3-3.7h0
			L111.9,147.8z"/>
		<path class="st0" d="M118.8,142.6h1.5v7.3h4.4v1.3h-5.9L118.8,142.6L118.8,142.6z"/>
		<path class="st0" d="M124.1,142.6h7v1.3h-2.7v7.3h-1.5v-7.3h-2.7V142.6z"/>
		<path class="st0" d="M132.6,142.6h1.5v3.4h3.9v-3.4h1.5v8.6h-1.5v-3.9h-3.9v3.9h-1.5V142.6z"/>
		<path class="st0" d="M150.6,150.3c-0.6,0.8-1.4,1.1-2.4,1.1c-1.6,0-2.7-0.9-2.7-2.6c0-1.2,1-2,2-2.5c-0.4-0.6-0.9-1.1-0.9-1.9
			c0-1.2,0.9-2.1,2.1-2.1c1.1,0,2.2,0.7,2.2,2.1c0,1-0.7,1.7-1.6,2.2l1.3,1.6c0.1-0.3,0.2-0.6,0.3-1.2h1.2c-0.1,0.7-0.3,1.5-0.7,2.1
			l1.7,2h-1.7L150.6,150.3z M148.2,147.3c-0.5,0.3-1.3,0.6-1.3,1.6c0,0.9,0.6,1.5,1.4,1.5c1,0,1.4-0.6,1.6-1L148.2,147.3z
			 M147.8,144.4c0,0.6,0.5,1,0.8,1.4c0.5-0.4,1-0.7,1-1.4c0-0.6-0.3-1-0.9-1C148.2,143.4,147.8,143.8,147.8,144.4z"/>
		<path class="st0" d="M158.1,142.6h4.2c1.5,0,2.6,0.7,2.6,2.1c0,0.9-0.4,1.5-1.2,1.8v0c1.1,0.2,1.6,1,1.6,2.2
			c0,1.4-0.9,2.4-3.2,2.4h-4L158.1,142.6L158.1,142.6z M159.7,146.2h2.5c0.7,0,1.3-0.4,1.3-1.2c0-0.9-0.4-1.2-1.3-1.2h-2.5V146.2z
			 M159.7,150h2.7c0.9,0,1.5-0.5,1.5-1.4c0-0.8-0.5-1.3-1.5-1.3h-2.7V150z"/>
		<path class="st0" d="M167.3,142.6h6.2v1.3h-4.7v2.3h4.4v1.2h-4.4v2.5h4.8v1.3h-6.3V142.6z"/>
		<path class="st0" d="M177.7,142.6h1.6l3.3,8.6H181l-0.8-2.3h-3.4l-0.8,2.3h-1.6L177.7,142.6z M177.2,147.8h2.6l-1.3-3.7h0
			L177.2,147.8z"/>
		<path class="st0" d="M183.7,142.6h1.5v5c0,1.2,0.1,2.5,2,2.5c2,0,2-1.3,2-2.5v-5h1.5v5.5c0,2.2-1.4,3.3-3.5,3.3
			c-2.1,0-3.5-1.1-3.5-3.3V142.6z"/>
		<path class="st0" d="M192.1,142.6h7v1.3h-2.7v7.3h-1.5v-7.3h-2.7V142.6z"/>
		<path class="st0" d="M202.9,147.9l-3.2-5.3h1.8l2.3,3.9l2.2-3.9h1.7l-3.2,5.3v3.4h-1.5L202.9,147.9L202.9,147.9z"/>
	</g>
	<g>
		<path class="st0" d="M169.4,124.9l-53.6,0V48.5h9.2v68.2h40.8L169.4,124.9z"/>
		<path class="st0" d="M177,124.9l-14.7-34.3h-20.4v19.4h-9.2V48.7h27.6c6,0,11.8,0.8,16.8,4.5c4.9,3.8,7.8,9.9,7.8,16.1
			c0,8.7-5.2,16.5-13.8,18.9l15.5,36.6L177,124.9L177,124.9z M159.2,83c4.9,0,9-0.3,12.7-4.1c2.6-2.6,3.8-6.1,3.8-9.7
			c0-4.3-1.6-7.8-5.2-10.2c-3.2-2.3-6.3-2.4-10.2-2.4h-18.4V83L159.2,83L159.2,83z"/>
	</g>
</g>
</svg>
