<?xml version="1.0" encoding="utf-8"?>
<!-- Generator: Adobe Illustrator 24.2.0, SVG Export Plug-In . SVG Version: 6.00 Build 0)  -->
<svg version="1.1" id="Ebene_1" xmlns="http://www.w3.org/2000/svg" xmlns:xlink="http://www.w3.org/1999/xlink" x="0px" y="0px"
	 viewBox="0 0 300 200" style="enable-background:new 0 0 300 200;" xml:space="preserve">
<style type="text/css">
	.st0{fill:#0A1227;}
	.st1{fill-rule:evenodd;clip-rule:evenodd;fill:#0A1227;}
	.st2{fill:url(#path58_2_);}
	.st3{fill-rule:evenodd;clip-rule:evenodd;fill:#194473;}
	.st4{fill:none;stroke:#194473;stroke-width:1.1801;stroke-miterlimit:5.3333;}
	.st5{fill-rule:evenodd;clip-rule:evenodd;}
	.st6{fill:#008948;}
	.st7{fill-rule:evenodd;clip-rule:evenodd;fill:#008948;}
	.st8{fill:#004E9E;}
	.st9{fill:#1A1A18;}
	.st10{fill:#FFFFFF;}
	.st11{fill:#76BC21;}
	.st12{fill:#1D1D1B;}
	.st13{fill-rule:evenodd;clip-rule:evenodd;fill:#1D1D1B;}
	.st14{fill:#E31513;}
	.st15{fill:#E60001;}
	.st16{fill:#333333;}
	.st17{fill:#BBBDC0;}
	.st18{fill:#1D3B6D;}
	.st19{fill-rule:evenodd;clip-rule:evenodd;fill:#1D3B6D;}
	.st20{fill:#FFFFFF;stroke:#BBBDC0;stroke-width:0.275;stroke-miterlimit:3.8637;}
	.st21{fill:#005B53;}
	.st22{fill:#FF6C0E;}
	.st23{fill:#134094;}
	.st24{fill:#D2022F;}
	.st25{fill:#9D9D9C;}
	.st26{fill:#93B894;}
	.st27{filter:url(#Adobe_OpacityMaskFilter);}
	.st28{fill-rule:evenodd;clip-rule:evenodd;fill:#FFFFFF;}
	.st29{mask:url(#logo-hagesued-b_2_);fill:#FF7200;}
	.st30{filter:url(#Adobe_OpacityMaskFilter_1_);}
	.st31{mask:url(#logo-hagesued-d_2_);fill:#7F3D39;}
	.st32{fill:#FEFEFE;}
	.st33{fill:#606060;}
	.st34{filter:url(#Adobe_OpacityMaskFilter_2_);}
	.st35{mask:url(#logo-hagesued-b_1_);fill:#606060;}
	.st36{fill:none;stroke:#000000;stroke-miterlimit:10;}
	.st37{fill:none;}
	.st38{clip-path:url(#SVGID_2_);fill:#444543;}
	.st39{clip-path:url(#SVGID_4_);}
	.st40{clip-path:url(#SVGID_6_);fill:#D0D0D0;}
	.st41{clip-path:url(#SVGID_8_);fill:#D0D0D0;}
	.st42{fill:#3F3E3C;}
	.st43{fill:#2374BA;}
	.st44{fill:#AEB2B5;}
	.st45{fill-rule:evenodd;clip-rule:evenodd;fill:#164194;}
	.st46{fill:#E30613;}
	.st47{fill-rule:evenodd;clip-rule:evenodd;fill:#DC911B;}
	.st48{fill:#DC911B;}
	.st49{fill:#FF0066;}
</style>
<g>
	<g>
		<path class="st0" d="M251.7,119.7l-7.4-15.4c4-1.6,5.7-5.2,5.7-9.2c0-9.7-6.3-12.3-14.9-12.3h-9.6v36.9h10v-9.8
			c0-1.8-0.1-3.6-0.1-5.4l0.1-0.1l5.5,15.4H251.7 M235,99.8v-9.1c2.9,0,4.7,1.4,4.7,4.4c0,2.4-1.4,4.7-4.1,4.7L235,99.8z"/>
		<polyline class="st0" points="103.2,119.7 103.2,91.8 108.9,91.8 108.9,82.8 87.8,82.8 87.8,91.8 93.2,91.8 93.2,119.7 
			103.2,119.7 		"/>
		<polyline class="st0" points="204.3,119.7 222.9,119.7 222.9,110.9 214.3,110.9 214.3,105.3 222,105.3 222,96.6 214.3,96.6 
			214.3,91.5 222.9,91.5 222.9,82.8 204.3,82.8 204.3,119.7 		"/>
		<path class="st0" d="M137.1,119.7l-7.4-15.4c4-1.6,5.7-5.2,5.7-9.2c0-9.7-6.3-12.3-14.9-12.3h-9.6v36.9h10v-9.8
			c0-1.8-0.1-3.6-0.1-5.4l0.1-0.1l5.5,15.4H137.1 M120.8,99.8v-9.1c2.9,0,4.7,1.4,4.7,4.4c0,2.4-1.4,4.7-4.1,4.7L120.8,99.8z"/>
		<path class="st0" d="M177,119.7h13.4c8.9,0,11.6-6,11.6-10.5c0-4.9-2.6-8-7.5-8.4v-0.1c4.2,0,6.9-3.2,6.9-7.4
			c0-8-6.8-10.5-12.7-10.5H177L177,119.7 M187,111.7v-7.1h0.8c2.3,0,4.2,1,4.2,3.5s-2,3.6-4.2,3.6H187z M187,97.1v-6.4h1
			c2.1,0,3.6,0.9,3.6,3.1c0,2.4-1.9,3.2-4,3.2L187,97.1z"/>
		<path class="st0" d="M136.1,101.2c0-10.8,8.7-19.5,19.5-19.5c10.8,0,19.5,8.7,19.5,19.5s-8.7,19.5-19.5,19.5
			C144.9,120.8,136.1,112,136.1,101.2 M155.7,111c5.4,0,9.8-4.4,9.8-9.8c0-5.4-4.4-9.8-9.8-9.8c-5.4,0-9.8,4.4-9.8,9.8
			C145.9,106.6,150.3,111,155.7,111z"/>
		<path class="st0" d="M150.4,80.8c2.2,0,4-1.8,4-4c0-2.3-1.9-4-4.1-4c-2.1,0-4,1.8-4,3.9C146.3,79,148.2,80.8,150.4,80.8"/>
		<path class="st0" d="M161,80.8c2.2,0,4-1.8,4-4c0-2.3-1.9-4-4.1-4c-2.1,0-4,1.8-4,3.9C157,79,158.8,80.8,161,80.8"/>
	</g>
	<g>
		<g>
			<rect x="39.9" y="126" class="st0" width="220.3" height="1.2"/>
		</g>
	</g>
	<g>
		<path class="st0" d="M49,119.7c0-20.4,16.4-36.9,36.9-36.9v36.9H49"/>
	</g>
</g>
</svg>
