<?xml version="1.0" encoding="utf-8"?>
<!-- Generator: Adobe Illustrator 24.2.0, SVG Export Plug-In . SVG Version: 6.00 Build 0)  -->
<svg version="1.1" id="Ebene_1" xmlns="http://www.w3.org/2000/svg" xmlns:xlink="http://www.w3.org/1999/xlink" x="0px" y="0px"
	 viewBox="0 0 300 200" style="enable-background:new 0 0 300 200;" xml:space="preserve">
<style type="text/css">
	.st0{fill:#0A1227;}
	.st1{fill-rule:evenodd;clip-rule:evenodd;fill:#0A1227;}
	.st2{fill:url(#path58_2_);}
	.st3{fill-rule:evenodd;clip-rule:evenodd;fill:#194473;}
	.st4{fill:none;stroke:#194473;stroke-width:1.1801;stroke-miterlimit:5.3333;}
	.st5{fill-rule:evenodd;clip-rule:evenodd;}
	.st6{fill:#008948;}
	.st7{fill-rule:evenodd;clip-rule:evenodd;fill:#008948;}
	.st8{fill:#004E9E;}
	.st9{fill:#1A1A18;}
	.st10{fill:#FFFFFF;}
	.st11{fill:#76BC21;}
	.st12{fill:#1D1D1B;}
	.st13{fill-rule:evenodd;clip-rule:evenodd;fill:#1D1D1B;}
	.st14{fill:#E31513;}
	.st15{fill:#E60001;}
	.st16{fill:#333333;}
	.st17{fill:#BBBDC0;}
	.st18{fill:#1D3B6D;}
	.st19{fill-rule:evenodd;clip-rule:evenodd;fill:#1D3B6D;}
	.st20{fill:#FFFFFF;stroke:#BBBDC0;stroke-width:0.275;stroke-miterlimit:3.8637;}
	.st21{fill:#005B53;}
	.st22{fill:#FF6C0E;}
	.st23{fill:#134094;}
	.st24{fill:#D2022F;}
	.st25{fill:#9D9D9C;}
	.st26{fill:#93B894;}
	.st27{filter:url(#Adobe_OpacityMaskFilter);}
	.st28{fill-rule:evenodd;clip-rule:evenodd;fill:#FFFFFF;}
	.st29{mask:url(#logo-hagesued-b_2_);fill:#FF7200;}
	.st30{filter:url(#Adobe_OpacityMaskFilter_1_);}
	.st31{mask:url(#logo-hagesued-d_2_);fill:#7F3D39;}
	.st32{fill:#FEFEFE;}
	.st33{fill:#606060;}
	.st34{filter:url(#Adobe_OpacityMaskFilter_2_);}
	.st35{mask:url(#logo-hagesued-b_1_);fill:#606060;}
	.st36{fill:none;stroke:#000000;stroke-miterlimit:10;}
	.st37{fill:none;}
	.st38{clip-path:url(#SVGID_2_);fill:#444543;}
	.st39{clip-path:url(#SVGID_4_);}
	.st40{clip-path:url(#SVGID_6_);fill:#D0D0D0;}
	.st41{clip-path:url(#SVGID_8_);fill:#D0D0D0;}
	.st42{fill:#3F3E3C;}
	.st43{fill:#2374BA;}
	.st44{fill:#AEB2B5;}
	.st45{fill-rule:evenodd;clip-rule:evenodd;fill:#164194;}
	.st46{fill:#E30613;}
	.st47{fill-rule:evenodd;clip-rule:evenodd;fill:#DC911B;}
	.st48{fill:#DC911B;}
	.st49{fill:#FF0066;}
</style>
<g id="layer1_1_" transform="translate(-310.7725,-517.59843)">
	<path id="path2845_1_" class="st0" d="M418.9,605.2l-0.5-0.1c-0.4,0.8-0.5,1-0.9,1.8l-0.5,1l-5.1,9.2l-1.1,1.9l-0.9,1.7h9.9
		L418.9,605.2z M375.1,593.4h17.3l-13.6,33.7c-0.4,0.9-0.5,1.2-1.2,2.1l0.2,0.2c0.9-0.1,1.2-0.2,1.5-0.2h9.3
		c0.7-1.3,0.9-1.6,1.6-2.8l21.3-33.1h19.8l3.4,33.6l0.2,3.8l0.2,1.6h0.6c0.7-2.8,1.1-4,1.8-5.8l13.2-33.2h24.2l-2,21l-0.2,2.2
		l-0.2,2.6l0.5,0.1c1.4-2.6,2-3.6,2.9-5l13.7-20.9H527l3,13c0.3,1.2,0.5,1.9,0.6,3.6h0.4c1.1-1.6,1.5-2.2,2.9-3.7l12-12.9h20.1
		l-31.4,30.9l-7,17.5h-16.5l8.2-20.6l-4-16.2c-0.2-1.1-0.4-1.8-0.6-3.8l-0.3,0.1l-1.6,4.3l-1.3,3.6l-13.1,32.7h-15.8l10.9-26.6
		c1.2-2.9,1.3-3.2,2.4-5.1l-1-0.2l-1.2,1.8l-1.4,2l-20.3,28.2h-14.2l2.3-27.7c0.1-1.3,0.2-2.2,0.4-4.2h-0.8c-1,3.1-1.5,4.4-2.3,6.5
		l-9.8,25.4h-26.5l-0.5-7.8l-0.2-2.3h-16.1l-5.7,10.1h-42.8L375.1,593.4z"/>
</g>
</svg>
