<svg id="Ebene_1" data-name="Ebene 1" xmlns="http://www.w3.org/2000/svg" viewBox="0 0 300 200">
  <defs>
    <style>
      .cls-1 {
        fill: #0a1227;
      }
    </style>
  </defs>
  <g id="layer1">
    <path id="path2396" class="cls-1" d="M203.8,146.3h-3.1l-4-.2h-1.9l-2-.2c-2.7-.1-10-.8-12.7-1.1l-1.3-.2h-1.3l-4-.5-3.9-.5h-1l-2.7-.4-4.4-.6-2.6-.4-2.9-.4-1.9-.3-1.8-.3-3.9-.6-5.7-.8-3.8-.6-3-.4-3.6-.6-2.5-.3-4.3-.6-3.7-.4-2.2-.3h-1.2l-1.5,1.2a25.9,25.9,0,0,1-8.2,4.6,19.7,19.7,0,0,1-5.5.8h-1.3a4.8,4.8,0,0,1-3-1.1,3.4,3.4,0,0,1-1.4-3.6q.6-2.7,5.1-3.9c2.6-.6,4.6-.8,9.7-.7h4.6l1.7-2.2a35.4,35.4,0,0,0,2.3-3l3.1-4.9a10,10,0,0,1,1-1.7c1.6-2.8,6.5-12.9,8.9-18.2s5.2-11.7,6.1-13.6l1.4-3c.7-1.5,3.1-6.2,3.3-6.6a10.2,10.2,0,0,0,1.1-1.8c5-8.6,11-15.8,16.4-19.8a26.6,26.6,0,0,1,9.5-4.5,21.2,21.2,0,0,1,7.1,0,11.7,11.7,0,0,1,6.5,3.4,12.6,12.6,0,0,1,3.6,6.1c0,.7,0,.8-.5,1.1a14.4,14.4,0,0,1-2.9,1.7c-.4,0-.6-.2-.7-.9-.6-3.5-1.6-5.7-3.3-7.2s-3.5-2-6.4-2a13.7,13.7,0,0,0-8,2.7c-5.3,3.6-11.4,12-17.3,24.1l-1.5,3.1a3.5,3.5,0,0,1-.4,1l-3,6.6-.6,1.3-2.5,5.7c0,.1-3.9,8.1-5.3,10.7a119.8,119.8,0,0,1-6.3,10.7,125.1,125.1,0,0,1-7.9,10.1,8,8,0,0,0-1.2,1.5h2.3l2.1.3,2.9.2,1.4.2H131l1.2.2,2.1.2,1.7.2,5.9.7,3.5.5,2.2.3,8,1,10.3,1.2,3.2.4h1.5l1.9.2,2.1.3h1.6l2.4.2,2.3.2,2.1.3,2.3.2h2.1l2.7.2h2.3l4.7.3a200.5,200.5,0,0,0,25.8-.2l5.5-.8a67.7,67.7,0,0,0,8.2-1.5c2-.5,7.1-2.3,9.4-3.2a58.6,58.6,0,0,0,19.6-13.7c1.7-1.6,2.1-1.8,2.4-1.2s0,1.3-1.7,3.2a64.4,64.4,0,0,1-20.2,14.8l-2.7,1.2-1.8.7a75.4,75.4,0,0,1-16.1,4.2l-3.9.6h-3.1l-1.9.2Zm-96.5-6.6a21.7,21.7,0,0,0,3.8-1.6,23.2,23.2,0,0,0,3-2.2H110c-4.2.1-4.9.1-7.4.8s-2.2,1.1-2.2,2,.4.9,1.2,1.3A14.1,14.1,0,0,0,107.3,139.7ZM34,127.2c-1.3-.4-2.1-2-2.1-4.3s.1-2.8,1.8-11,1.6-8.6,1.1-10.5a2.2,2.2,0,0,1,0-1.2,3.9,3.9,0,0,1,1.3-1.1L38,97.9c1.3-.8,1.8-.9,2.3-.1s.7,1.9.7,4-.3,4.7-2.1,11.5c-1.3,4.8-2,8.2-1.8,9.4s.3,1.2.6,1.3,2.7-1.6,5-4.9c3.4-5,6.4-11.9,8.6-20.3.2-.8.6-.9,3.5-.9s3,.1,3,.5-.9,3.2-1.6,5.2a61,61,0,0,1-2.9,6.4,48.5,48.5,0,0,1-8.6,11.7c-3.6,3.6-6.6,5.4-9.3,5.5Zm26.9-.1c-2-.4-3.3-1.9-3.7-4.3s.1-7.6,2.4-12.2a29.4,29.4,0,0,1,9.5-11.1,12,12,0,0,1,6.2-2.2c1.8,0,2.6.3,3.5,1.2a7,7,0,0,1,1,1.6l.2.7.4-.9c.7-1.4.8-1.6,1.2-1.8a19.8,19.8,0,0,1,4.9-.1c.4.1.4.6-.1,1.6s-.8,1.9-1.4,3.1l-1.2,2.9c-1.5,3.4-3.9,9.2-4.3,10.6l-.5,2.3a11.4,11.4,0,0,0,0,5.2c.1.6.1.9,0,1a40.9,40.9,0,0,1-4.3,2.5c-.5.2-.9-.1-1.2-1a11.6,11.6,0,0,1-.7-4.7,13.6,13.6,0,0,1-.1-1.5l-1.4,1.6c-2.2,2.4-5.1,4.6-7,5.2A8.3,8.3,0,0,1,60.9,127.1Zm5.8-4.8a16.3,16.3,0,0,0,4.4-4.1c4.3-5.5,7.2-12.4,6.6-16a2.5,2.5,0,0,0-1.2-2.1c-.6-.5-1.8-.3-3.1.3-4.3,2.1-9.5,11.9-10.1,18.9a3.7,3.7,0,0,0,.7,3.2c.4.4.5.4,1.2.3A3,3,0,0,0,66.7,122.3Zm36.6,4.7c-.6-.3-1.3-2.5-1.3-4.3s1-6,4.4-14.7c1.7-4.2,1.9-5.7,1-6.5s-1.8-.5-2.9,0a17,17,0,0,0-6.2,6.1c-.9,1.4-1.1,1.8-3.7,8-4.9,11.3-4.6,10.7-5.2,10.9H86.8c-1.7,0-2.2-.1-2.4-.3s-.2-.3-.1-.4,1.7-4,2.1-5.1l1.3-2.9,1.2-2.9.4-.8c0-.1.7-1.9,1.7-4.1l3.1-7.4c1.8-4.3,2-4.6,2.6-4.7a24.6,24.6,0,0,1,4.7,0c.4.2.4.3-.1,1.4s-.9,2-.8,2.1l.9-.8a16.5,16.5,0,0,1,5.8-3.1c2.1-.6,4.5-.3,5.5.7a4.7,4.7,0,0,1,1.3,3.2c.1,2.3-.7,4.9-3.3,10.6a39.8,39.8,0,0,0-2.5,7.6,9.7,9.7,0,0,0-.1,3.8c.2,1.2.1,1.4-2,2.5S103.7,127.3,103.3,127Zm56.5.1a7.9,7.9,0,0,1-1-2.6,17.2,17.2,0,0,1-.2-2.6,13.3,13.3,0,0,0-.1-1.7l-2.2,2.1c-3.4,3.5-5.8,4.8-8.5,4.8a3.3,3.3,0,0,1-2.1-.4c-1.6-.7-2.4-2-2.8-4.3a15.3,15.3,0,0,1,.2-5.2,32.3,32.3,0,0,1,3.7-9.3c2.9-4.4,7.4-8.5,10.8-9.9a8.6,8.6,0,0,1,5.6-.4,3.9,3.9,0,0,1,2.3,2.4c.1.5.3.8.4.7s.3-.6.5-1.1.5-1.6,3.3-1.7,3.1.1,2.9.7a11,11,0,0,1-.9,2.1c-.4,1-1.2,2.9-1.9,4.3s-1.4,3.2-1.7,4.1-.8,2-1,2.5a32.8,32.8,0,0,0-2.3,6.6,13.1,13.1,0,0,0-.1,5.2c.4,1.2.2,1.4-1,2.1S160.2,127.4,159.8,127.1Zm-7.3-4.7a25.9,25.9,0,0,0,4.8-4.7,34.4,34.4,0,0,0,6-12.2,10.9,10.9,0,0,0-.1-4.5,1.9,1.9,0,0,0-2-1.1c-2.6,0-5.4,2.6-8.1,7.4-1.6,2.9-3.5,7.8-3.7,9.9l-.3,2.1a4,4,0,0,0,.7,3.3,1.6,1.6,0,0,0,1.2.3Zm24.3,4.7a4.1,4.1,0,0,1-3.1-2c-1-1.5-1.3-3.9-1-6.4a24,24,0,0,1,2.7-8.2,27.3,27.3,0,0,1,6.2-8.4c4.9-4.7,10.4-6.2,13-3.5a10.5,10.5,0,0,1,.8,1.3l.4.9.5-1.1c.7-1.8.6-1.7,3.1-1.8s3.1,0,3.1.5-.8,2.1-1.7,4.2l-2.2,5.1c-2.2,5.2-3.2,7.8-3.5,8.9a16.7,16.7,0,0,0-.7,5.8c.5,2,.5,2.1.2,2.4a22.5,22.5,0,0,1-4.3,2.3c-.6.1-.7,0-1-.6a14.4,14.4,0,0,1-.9-5V120l-1.3,1.4C183.7,125.4,179.8,127.5,176.8,127.1Zm5.6-4.8c1.4-.7,4.4-3.9,5.9-6.1a31,31,0,0,0,4.9-10.9,12.7,12.7,0,0,0,0-3.9c-.8-2.5-4-1.9-7,1.3a30.3,30.3,0,0,0-5.1,8.5,23.4,23.4,0,0,0-2.1,8.4c-.1,1.7-.1,2,.5,2.7S181,123.1,182.4,122.3Zm26.4,4.9h-.7a5.4,5.4,0,0,1-2.7-.9,5.5,5.5,0,0,1-2.4-3.7,8,8,0,0,1-.3-2.9,17.1,17.1,0,0,1,1.3-6.5l.6-2c.8-2.5,3.5-6.5,6.1-9.2s6.3-4.6,10-4.6a4,4,0,0,1,2.4.4,5.8,5.8,0,0,1,2.9,4,2.6,2.6,0,0,1-.1,2.2,13.4,13.4,0,0,1-3.7,1.7c-.2,0-.2-.2-.2-2.1s0-2.1-.3-2.7a1.7,1.7,0,0,0-1.8-1.2c-2.1,0-4.9,2.8-7.2,7.4a14.4,14.4,0,0,0-1.2,2.6c-.3.6-.5,1.2-.6,1.3a53.2,53.2,0,0,0-1.4,5.3c-.6,2.7-.5,4.2.1,5.5a3,3,0,0,0,3.3,1.4,14.1,14.1,0,0,0,5.2-3.4,4.6,4.6,0,0,1,1.2-1.1c.4,0,1.5,1,1.5,1.4s-3.1,3.5-4.5,4.5a22.8,22.8,0,0,1-4.6,2.4A11.7,11.7,0,0,1,208.8,127.2Zm32.3-.3a18,18,0,0,1-2.4-5.7c-.2-.9-.7-4-.8-4.8s-.1-.8-.1-1a20.9,20.9,0,0,1-.2-2.3c0-1.1-.1-2-.1-2L235,113l-2.3,2-2.3,5.4c-1.3,3-2.4,5.6-2.6,5.8s-.3.3-2.6.3-3,0-3-.4a12.4,12.4,0,0,1,.7-1.9l2-4.6,4.8-11.4,6.2-14.4c.9-2.2,2.5-6.1,3.7-8.8,4.4-10.3,4.2-9.9,4.7-10.2a36.7,36.7,0,0,1,5.3-.9.5.5,0,0,1,.3.4c0,.3-1.5,3.9-2.4,5.9l-.4.8c0,.1-1.3,3.2-2.1,5s-2.2,5.3-4.6,10.7c-.8,2.1-2,4.8-2.4,5.9l-1.6,3.8-1.1,2.5a4.4,4.4,0,0,0-.3.8l6.7-5.7c4.8-4.3,6.7-5.9,7.1-6h1.9c1.1,0,1.3,0,1.5.3s.4,0-7,6.3l-2.5,2v2.2a46.1,46.1,0,0,0,1.1,9,26.2,26.2,0,0,0,1.6,5.5c.7,1.5.6,1.6-2.3,3.3a4.3,4.3,0,0,1-1.5.8Z"/>
  </g>
</svg>
