<svg id="Ebene_1" data-name="Ebene 1" xmlns="http://www.w3.org/2000/svg" viewBox="0 0 300 200">
  <defs>
    <style>
      .cls-1 {
        fill: #0a1227;
      }
    </style>
  </defs>
  <g id="Ebene_1-2" data-name="Ebene_1">
    <path id="path10" class="cls-1" d="M197,80l15.6,39.8h-6.7l-2.7-6.7H189.6l-2.9,6.7H176.4l-8.8-13.2v13.2H161V83.5h12.2c4.1,0,10.5,3.1,10.5,11.2s-6.7,11-9,11.5l6.7,9.5L196.8,80ZM167.6,99.8H173c3.4,0,4.1-2.7,4.1-5.1s-1.1-4.6-4-4.6h-5.5v9.7Zm24.8,6.8h8.3l-4-10.1-4.3,10.1Z"/>
    <path id="path12" class="cls-1" d="M60.4,119.6,51,129.5l-7.9-29.2-18-19.9,26,2.7L70.5,96.3l8.2,12.8L48.9,88.7l-9.6-1.2,27.5,29.9,2.4-7.3c3.3,3.2,8.2,4.8,12.7,3.2a13,13,0,0,0,8.3-9.3,12.4,12.4,0,0,0-4.4-12.2,11.1,11.1,0,0,0-10.1-2.7,15,15,0,0,0-6.9,4.1l-5.7-3.8a19.4,19.4,0,0,1,20.6-6.6c6.8,2.1,12.8,9,13.4,16,.8,8.9-3.1,16.5-11.2,20.1-3.8,1.8-9,2.6-13.2,1l-3.2,9.6-9.1-9.9Zm-7.2-.6,3.1-4.1-6-6.6L53.2,119Z"/>
    <path id="path14" class="cls-1" d="M46.3,92.2a1.8,1.8,0,0,1,3.6,0,1.8,1.8,0,1,1-3.6,0Z"/>
    <polygon id="polygon16" class="cls-1" points="220.5 124.3 198.8 70.5 205.7 70.5 220.5 107.3 230.2 83.5 237.2 83.5 220.5 124.3"/>
    <polygon id="polygon18" class="cls-1" points="246.9 119.8 240.4 119.8 240.4 83.5 246.9 83.5 246.9 119.8"/>
    <polygon id="polygon20" class="cls-1" points="274.9 90.1 265.8 90.1 265.8 119.8 259.3 119.8 259.3 90.1 250.4 90.1 250.4 83.5 274.9 83.5 274.9 90.1"/>
    <path id="path22" class="cls-1" d="M137.6,100.8c0,5.8-.8,12.3,6.3,12.3s6.2-6.5,6.2-12.3V83.5h6.5v23.1c0,4.8-3.4,13.2-12.7,13.2s-12.8-8.4-12.8-13.2V83.5h6.5v17.3Z"/>
    <path id="path24" class="cls-1" d="M111.7,113.2a17.6,17.6,0,0,1-3.9.2V90a26.8,26.8,0,0,1,3.9.2c7.6,1.4,9.5,8,9.5,11.8a11,11,0,0,1-9.5,11.2Zm-4.2-29.7H101v36.3h6c10.4,0,20.5-5.5,20.5-18.1,0-10.8-6.6-18.2-20-18.2Z"/>
  </g>
</svg>
