<?xml version="1.0" encoding="utf-8"?>
<!-- Generator: Adobe Illustrator 24.2.0, SVG Export Plug-In . SVG Version: 6.00 Build 0)  -->
<svg version="1.1" id="Ebene_1" xmlns="http://www.w3.org/2000/svg" xmlns:xlink="http://www.w3.org/1999/xlink" x="0px" y="0px"
	 viewBox="0 0 300 200" style="enable-background:new 0 0 300 200;" xml:space="preserve">
<style type="text/css">
	.st0{fill:#0A1227;}
	.st1{fill-rule:evenodd;clip-rule:evenodd;fill:#0A1227;}
	.st2{fill:url(#path58_2_);}
	.st3{fill-rule:evenodd;clip-rule:evenodd;fill:#194473;}
	.st4{fill:none;stroke:#194473;stroke-width:1.1801;stroke-miterlimit:5.3333;}
	.st5{fill-rule:evenodd;clip-rule:evenodd;}
	.st6{fill:#008948;}
	.st7{fill-rule:evenodd;clip-rule:evenodd;fill:#008948;}
	.st8{fill:#004E9E;}
	.st9{fill:#1A1A18;}
	.st10{fill:#FFFFFF;}
	.st11{fill:#76BC21;}
	.st12{fill:#1D1D1B;}
	.st13{fill-rule:evenodd;clip-rule:evenodd;fill:#1D1D1B;}
	.st14{fill:#E31513;}
	.st15{fill:#E60001;}
	.st16{fill:#333333;}
	.st17{fill:#BBBDC0;}
	.st18{fill:#1D3B6D;}
	.st19{fill-rule:evenodd;clip-rule:evenodd;fill:#1D3B6D;}
	.st20{fill:#FFFFFF;stroke:#BBBDC0;stroke-width:0.275;stroke-miterlimit:3.8637;}
	.st21{fill:#005B53;}
	.st22{fill:#FF6C0E;}
	.st23{fill:#134094;}
	.st24{fill:#D2022F;}
	.st25{fill:#9D9D9C;}
	.st26{fill:#93B894;}
	.st27{filter:url(#Adobe_OpacityMaskFilter);}
	.st28{fill-rule:evenodd;clip-rule:evenodd;fill:#FFFFFF;}
	.st29{mask:url(#logo-hagesued-b_2_);fill:#FF7200;}
	.st30{filter:url(#Adobe_OpacityMaskFilter_1_);}
	.st31{mask:url(#logo-hagesued-d_2_);fill:#7F3D39;}
	.st32{fill:#FEFEFE;}
	.st33{fill:#606060;}
	.st34{filter:url(#Adobe_OpacityMaskFilter_2_);}
	.st35{mask:url(#logo-hagesued-b_1_);fill:#606060;}
	.st36{fill:none;stroke:#000000;stroke-miterlimit:10;}
	.st37{fill:none;}
	.st38{clip-path:url(#SVGID_2_);fill:#444543;}
	.st39{clip-path:url(#SVGID_4_);}
	.st40{clip-path:url(#SVGID_6_);fill:#D0D0D0;}
	.st41{clip-path:url(#SVGID_8_);fill:#D0D0D0;}
	.st42{fill:#1C1C1C;}
	.st43{fill-rule:evenodd;clip-rule:evenodd;fill:#1C1C1C;}
	.st44{fill:#3F3E3C;}
	.st45{fill:#2374BA;}
	.st46{fill:#AEB2B5;}
	.st47{fill-rule:evenodd;clip-rule:evenodd;fill:#164194;}
	.st48{fill:#E30613;}
	.st49{fill-rule:evenodd;clip-rule:evenodd;fill:#DC911B;}
	.st50{fill:#DC911B;}
	.st51{fill:#FF0066;}
</style>
<g>
	<polygon class="st42" points="44.5,123.6 50.7,88.6 47.9,88.6 41.2,126.4 115.2,126.4 115.7,123.6 	"/>
	<polygon class="st42" points="255.5,68.9 247.6,113.8 250.4,113.8 258.8,66.1 190.8,66.1 189.3,68.9 	"/>
	<path class="st42" d="M231.5,78.7L219.7,103l-3.3-24.3h-10.7l-6,34.4l-6.4-34.4h-7.8l-15.1,28.5H155l1.5-8.4h12.9l1.1-6.3h-12.9
		l1.3-7.4h15.2l1.2-6.5h-51.7c0,0.5,0,1.1,0,1.7c-0.1,1.7-0.5,3.3-1.1,4.8v0.1h10l-5.1,28.5h8.3l5-28.5h9.9l-5,28.5H176l3.1-6.5
		h11.2l0.9,6.5h16.7l1.4-7.8l2.2-17.6l4,25.3h5.5l12.3-24.4l-3.6,15.8l-1.5,8.6h8.2l6.2-35L231.5,78.7L231.5,78.7z M182.2,100.7
		l5.7-12.1l1.5,12.1H182.2z"/>
	<path class="st42" d="M73.4,74.9l-7.6,0l-2.4,13.7H70c1.8,0,3.3-0.9,4.7-1.8c1.3-0.9,2.3-2.1,2.8-3.6c0.6-1.4,0.7-2.9,0.5-4.4
		C77.6,76.3,76,75.1,73.4,74.9z"/>
	<polygon class="st42" points="61.9,96.9 58.9,113.8 73.4,113.8 68.2,96.9 	"/>
	<path class="st42" d="M116.9,69.9c-2.9-2.5-7.1-3.8-12.5-3.8H72.9l0,0h0c5.4,0,9.5,1.3,12.5,3.8c2.9,2.5,4.2,6,3.9,10.3
		c-0.2,3.5-1.8,6.3-3.6,8.6c-1.9,2.4-4.5,4.2-7.3,5.4l6.7,19.7h5.3l3-16.9h6.3l5.2,16.9h11.6l-6.6-19.7c2.9-1.1,5.4-3,7.3-5.4
		c1.8-2.3,3.3-5.1,3.6-8.6C121.1,75.8,119.8,72.4,116.9,69.9z M109,83.2c-0.5,1.5-1.5,2.7-2.8,3.6c-1.3,0.9-2.9,1.8-4.7,1.8h-6.7
		l2.4-13.7l7.6,0c2.7,0.1,4.2,1.4,4.7,3.8C109.8,80.3,109.6,81.8,109,83.2z"/>
	<path class="st42" d="M127.5,126.5c0.1-0.3-0.1-0.6-0.5-0.8l-0.8-0.3c-1-0.4-1.5-1-1.4-1.8c0-0.3,0.1-0.7,0.3-0.9
		c0.2-0.3,0.5-0.5,0.9-0.6c0.4-0.2,0.8-0.2,1.2-0.2c0.5,0,1.1,0.2,1.5,0.5c0.4,0.4,0.6,0.9,0.6,1.4H128c0-0.2,0-0.5-0.2-0.7
		c-0.2-0.2-0.4-0.3-0.7-0.2c-0.3,0-0.5,0.1-0.8,0.2c-0.2,0.1-0.3,0.3-0.4,0.6c-0.1,0.3,0.2,0.6,0.6,0.8l0.6,0.2l0.3,0.2
		c0.9,0.4,1.3,1,1.2,1.8c0,0.4-0.1,0.7-0.4,1c-0.2,0.3-0.5,0.5-0.9,0.6c-0.4,0.1-0.8,0.2-1.2,0.2c-0.4,0-0.8-0.1-1.2-0.3
		c-0.3-0.2-0.6-0.4-0.8-0.8c-0.2-0.3-0.3-0.7-0.2-1h1.3c0,0.7,0.3,1,1,1.1c0.3,0,0.5-0.1,0.8-0.2
		C127.3,126.9,127.4,126.7,127.5,126.5z"/>
	<path class="st42" d="M133.9,125.4h-2.4l-0.3,1.7h2.9l-0.2,1.1h-4.1l1.1-6.4h4.1l-0.2,1.1h-2.9l-0.3,1.5h2.4L133.9,125.4z"/>
	<path class="st42" d="M137.7,125.8h-1.1l-0.4,2.3H135l1.1-6.4h2.1c0.6,0,1.2,0.1,1.6,0.5c0.4,0.4,0.6,0.9,0.5,1.4
		c0,0.8-0.6,1.6-1.4,1.8l0.9,2.6v0.1h-1.4L137.7,125.8z M136.9,124.8h1c0.3,0,0.6-0.1,0.8-0.3c0.2-0.2,0.4-0.4,0.4-0.7
		c0.1-0.2,0-0.5-0.1-0.7c-0.2-0.2-0.4-0.3-0.6-0.3h-1.1L136.9,124.8z"/>
	<path class="st42" d="M143.4,126.6l2.1-4.8h1.5l-3.1,6.4h-1.3l-1.1-6.4h1.4L143.4,126.6z"/>
	<path class="st42" d="M148.3,128.2H147l1.1-6.4h1.3L148.3,128.2z"/>
	<path class="st42" d="M155,126c0,0.4-0.2,0.8-0.5,1.2c-0.3,0.3-0.6,0.6-1,0.8c-0.4,0.2-0.8,0.3-1.3,0.3c-0.4,0-0.8-0.1-1.1-0.3
		c-0.3-0.2-0.6-0.5-0.7-0.8c-0.2-0.4-0.3-0.8-0.3-1.2c0-0.5,0-0.9,0.1-1.3c0.1-0.5,0.2-1,0.5-1.4c0.2-0.4,0.5-0.7,0.9-1
		c0.5-0.3,1-0.5,1.6-0.5c0.6,0,1.1,0.2,1.6,0.6c0.4,0.5,0.6,1,0.6,1.6h-1.3c0-0.3-0.1-0.6-0.2-0.9c-0.2-0.2-0.5-0.3-0.7-0.3
		c-0.4,0-0.8,0.1-1.1,0.5c-0.3,0.4-0.5,0.9-0.6,1.4c-0.1,0.5-0.1,0.9-0.1,1.4c0,0.3,0.1,0.6,0.3,0.8c0.2,0.2,0.4,0.3,0.7,0.3
		c0.3,0,0.7-0.1,0.9-0.3c0.2-0.2,0.4-0.5,0.5-0.9L155,126z"/>
	<path class="st42" d="M160.1,125.4h-2.4l-0.3,1.7h2.9l-0.2,1.1h-4.1l1.1-6.4h4.1l-0.2,1.1h-2.9l-0.3,1.5h2.4L160.1,125.4z"/>
	<path class="st42" d="M165.1,128.2h-1.3l1.1-6.4h1.3L165.1,128.2z"/>
	<path class="st42" d="M171.7,128.2h-1.2l-1.8-4.2l-0.7,4.2h-1.3l1.1-6.4h1.2l1.8,4.2l0.7-4.2h1.3L171.7,128.2z"/>
	<path class="st42" d="M178.3,126.6l2.1-4.8h1.5l-3.1,6.4h-1.3l-1.1-6.4h1.4L178.3,126.6z"/>
	<path class="st42" d="M184.3,128.2c-0.4,0-0.8-0.1-1.1-0.3c-0.3-0.2-0.6-0.5-0.8-0.8c-0.2-0.4-0.3-0.8-0.3-1.2c0-0.5,0-1,0.2-1.5
		c0.1-0.5,0.3-1,0.6-1.4c0.3-0.4,0.6-0.7,1-0.9c0.4-0.2,0.8-0.3,1.3-0.3c0.4,0,0.8,0.1,1.1,0.3c0.3,0.2,0.6,0.5,0.8,0.8
		c0.2,0.4,0.3,0.8,0.3,1.2c0,0.5,0,1.1-0.2,1.6c-0.1,0.5-0.3,1-0.6,1.4c-0.3,0.4-0.6,0.7-1,0.9C185.2,128.2,184.8,128.3,184.3,128.2
		z M186.2,124.8l0-0.4c0.1-0.4,0-0.8-0.2-1.2c-0.2-0.3-0.4-0.4-0.8-0.4c-0.5,0-1,0.3-1.3,0.7c-0.3,0.6-0.5,1.3-0.5,2
		c0,0.4,0,0.8,0.2,1.2c0.2,0.3,0.5,0.4,0.8,0.4c0.4,0,0.9-0.2,1.1-0.5c0.3-0.5,0.5-1,0.6-1.6L186.2,124.8z"/>
	<path class="st42" d="M189.6,127.1h2.7l-0.2,1.1h-4l1.1-6.4h1.3L189.6,127.1z"/>
	<path class="st42" d="M194.7,127.1h2.7l-0.2,1.1h-4l1.1-6.4h1.3L194.7,127.1z"/>
	<path class="st42" d="M202.6,125.4h-2.4l-0.3,1.7h2.9l-0.2,1.1h-4.1l1.1-6.4h4.1l-0.2,1.1h-2.8l-0.3,1.5h2.4L202.6,125.4z"/>
	<path class="st42" d="M208.7,128.2h-1.2l-1.8-4.2l-0.7,4.2h-1.3l1.1-6.4h1.2l1.8,4.2l0.7-4.2h1.3L208.7,128.2z"/>
	<path class="st42" d="M210.2,128.2l1.1-6.4h1.8c0.4,0,0.8,0.1,1.2,0.3c0.3,0.2,0.6,0.5,0.8,0.8c0.2,0.4,0.3,0.8,0.4,1.2
		c0,0.3,0,0.5,0,0.8l0,0.2c-0.1,0.9-0.5,1.6-1.1,2.2c-0.6,0.6-1.4,0.9-2.2,0.8L210.2,128.2z M212.4,122.9l-0.7,4.2h0.5
		c0.5,0,1.1-0.2,1.4-0.7c0.4-0.6,0.6-1.3,0.6-1.9v-0.1c0-0.4-0.1-0.8-0.3-1.1c-0.2-0.3-0.5-0.4-0.9-0.4L212.4,122.9L212.4,122.9z"/>
	<path class="st42" d="M222,121.8l-0.7,4.2c-0.1,0.6-0.4,1.2-0.9,1.7c-0.5,0.4-1.1,0.6-1.8,0.6c-0.4,0-0.8-0.1-1.2-0.3
		c-0.3-0.2-0.6-0.5-0.7-0.8c-0.2-0.4-0.2-0.8-0.2-1.2l0.7-4.2h1.3l-0.7,4.2c0,0.2,0,0.3,0,0.5c0,0.4,0.4,0.8,0.8,0.7c0,0,0,0,0,0
		c0.3,0,0.6-0.1,0.9-0.3c0.2-0.2,0.4-0.6,0.4-0.9l0.7-4.2L222,121.8L222,121.8z"/>
	<path class="st42" d="M227.4,128.2h-1.2l-1.8-4.2l-0.7,4.2h-1.3l1.1-6.4h1.2l1.8,4.2l0.7-4.2h1.3L227.4,128.2z"/>
	<path class="st42" d="M233.9,127.4c-0.3,0.3-0.6,0.5-1,0.7c-0.5,0.2-1,0.2-1.5,0.2c-0.4,0-0.8-0.1-1.1-0.3
		c-0.3-0.2-0.6-0.5-0.8-0.8c-0.2-0.4-0.3-0.8-0.3-1.2c0-0.5,0-1,0.1-1.5c0.1-0.5,0.3-1,0.6-1.5c0.3-0.4,0.6-0.7,1-1
		c0.4-0.2,0.9-0.3,1.3-0.3c0.6,0,1.1,0.2,1.6,0.6c0.4,0.4,0.6,1,0.6,1.6h-1.2c0-0.3-0.1-0.6-0.3-0.8c-0.2-0.2-0.4-0.3-0.7-0.3
		c-0.5,0-1,0.2-1.3,0.7c-0.3,0.7-0.5,1.4-0.5,2.1c0,0.4,0,0.8,0.2,1.2c0.2,0.3,0.5,0.4,0.8,0.4c0.4,0,0.8-0.1,1.1-0.3l0.2-1.1h-1.2
		l0.2-1h2.4L233.9,127.4z"/>
</g>
</svg>
