<?xml version="1.0" encoding="utf-8"?>
<svg version="1.1" id="Ebene_1" xmlns="http://www.w3.org/2000/svg" xmlns:xlink="http://www.w3.org/1999/xlink" x="0px" y="0px"
	 viewBox="0 0 300 200" style="enable-background:new 0 0 300 200;" xml:space="preserve">
<style type="text/css">
	.st0{fill:#0A1227;}
</style>
<g>
	<path class="st0" d="M210.2,69.3H89.6l-3.2,0.2l-3,0.5l-3,0.7l-2.7,1L75.1,73l-2.4,1.6l-2.3,1.7c-6.8,5.5-10.8,15.1-10.6,23.7
		c-0.1,17.3,12.3,30.6,29.8,30.6l120.7,0.1l3.1-0.2l3.1-0.5l2.8-0.7l2.7-1l2.6-1.3l2.5-1.5l2.3-1.8c6.9-5.9,10.9-14.7,10.7-23.7
		C240.3,83.1,227.3,69.4,210.2,69.3z M227.4,121.5l-2,1.6l-2.3,1.4l-2.4,1.1l-2.5,1l-2.5,0.7l-2.7,0.3l-2.7,0.2H89.6
		c-15.5-0.1-27-12.5-26.8-27.8c-0.2-8.1,3.6-16,9.6-21.3l2.2-1.6l2.2-1.4l2.4-1.3l2.4-0.9l2.6-0.7l2.7-0.5l2.7-0.1l120.6,0.1
		c15.4,0,27,12.5,27,27.6C237.2,108.1,233.6,116.2,227.4,121.5z"/>
	<path class="st0" d="M89.4,101.5c0,1.8-0.5,2.7-2,2.7c-0.9,0.1-1.6,0-2.5-0.5c-1.2-0.5-2.9-1.9-3.6-2.3c-0.3-0.4-3.8-3.2-3.8-3.2
		c0,4.7,0,9.3,0,13.7c2.4,2.5,7.1,5.2,10.3,5.4c2.2,0.2,3.4,0.2,5.5,0c4.6-0.4,9.7-3.7,9.6-8.8l0-25.6l-13.6,0.1V101.5z"/>
	<path class="st0" d="M128.2,83l0,20.5c0.1,3.2-7.8,3.4-7.8,0c0-6.5,0-20.4,0-20.4l-13-0.1c0,0-0.1,14.8,0,23.5
		c0.1,12,11,10.6,11.7,11c3.1,0,6.2,0,9.6,0c0.2-0.2,12.4,0.5,12.5-11.1l0-23.3L128.2,83z"/>
	<path class="st0" d="M164.9,95.5c-2.6-4.2-8.1-12.5-8.1-12.5h-11v34.1c0,0,9.2,0,12.9,0c0.1-2.8,0-10.1,0-10.1s6.1,10.2,6.3,10.3
		l6.3-10.2v10.1l13.1,0V83h-10.9C173.2,83.3,165,95.6,164.9,95.5z"/>
	<path class="st0" d="M222.5,100.1c0-7.1,1.1-17.8-16.5-17.8c-18.3,0-17.4,9.5-17.4,18.5c0,8.4-1.3,17.2,17.1,17.2
		C223.9,117.9,222.5,109.7,222.5,100.1z M205.7,108.2c-4.4,0-4-5.1-4-8.1c0-2.6-0.5-8.4,3.9-8.4c4.8,0,4.2,4.5,4.2,8.3
		C209.8,103.6,210.4,108.2,205.7,108.2z"/>
</g>
</svg>
