<?xml version="1.0" encoding="utf-8"?>
<!-- Generator: Adobe Illustrator 24.2.0, SVG Export Plug-In . SVG Version: 6.00 Build 0)  -->
<svg version="1.1" id="Ebene_1" xmlns="http://www.w3.org/2000/svg" xmlns:xlink="http://www.w3.org/1999/xlink" x="0px" y="0px"
	 viewBox="0 0 300 200" style="enable-background:new 0 0 300 200;" xml:space="preserve">
<style type="text/css">
	.st0{fill:#0A1227;}
	.st1{fill-rule:evenodd;clip-rule:evenodd;fill:#0A1227;}
	.st2{fill:url(#path58_2_);}
	.st3{fill-rule:evenodd;clip-rule:evenodd;fill:#194473;}
	.st4{fill:none;stroke:#194473;stroke-width:1.1801;stroke-miterlimit:5.3333;}
	.st5{fill-rule:evenodd;clip-rule:evenodd;}
	.st6{fill:#008948;}
	.st7{fill-rule:evenodd;clip-rule:evenodd;fill:#008948;}
	.st8{fill:#004E9E;}
	.st9{fill:#1A1A18;}
	.st10{fill:#FFFFFF;}
	.st11{fill:#76BC21;}
	.st12{fill:#1D1D1B;}
	.st13{fill-rule:evenodd;clip-rule:evenodd;fill:#1D1D1B;}
	.st14{fill:#E31513;}
	.st15{fill:#E60001;}
	.st16{fill:#333333;}
	.st17{fill:#BBBDC0;}
	.st18{fill:#1D3B6D;}
	.st19{fill-rule:evenodd;clip-rule:evenodd;fill:#1D3B6D;}
	.st20{fill:#FFFFFF;stroke:#BBBDC0;stroke-width:0.275;stroke-miterlimit:3.8637;}
	.st21{fill:#005B53;}
	.st22{fill:#FF6C0E;}
	.st23{fill:#134094;}
	.st24{fill:#D2022F;}
	.st25{fill:#9D9D9C;}
	.st26{fill:#93B894;}
	.st27{filter:url(#Adobe_OpacityMaskFilter);}
	.st28{fill-rule:evenodd;clip-rule:evenodd;fill:#FFFFFF;}
	.st29{mask:url(#logo-hagesued-b_2_);fill:#FF7200;}
	.st30{filter:url(#Adobe_OpacityMaskFilter_1_);}
	.st31{mask:url(#logo-hagesued-d_2_);fill:#7F3D39;}
	.st32{fill:#FEFEFE;}
	.st33{fill:#606060;}
	.st34{filter:url(#Adobe_OpacityMaskFilter_2_);}
	.st35{mask:url(#logo-hagesued-b_1_);fill:#606060;}
	.st36{fill:none;stroke:#000000;stroke-miterlimit:10;}
	.st37{fill:none;}
	.st38{clip-path:url(#SVGID_2_);fill:#444543;}
	.st39{clip-path:url(#SVGID_4_);}
	.st40{clip-path:url(#SVGID_6_);fill:#D0D0D0;}
	.st41{clip-path:url(#SVGID_8_);fill:#D0D0D0;}
	.st42{fill:#1C1C1C;}
	.st43{fill-rule:evenodd;clip-rule:evenodd;fill:#1C1C1C;}
	.st44{fill:#3F3E3C;}
	.st45{fill:#2374BA;}
	.st46{fill:#AEB2B5;}
	.st47{fill-rule:evenodd;clip-rule:evenodd;fill:#164194;}
	.st48{fill:#E30613;}
	.st49{fill-rule:evenodd;clip-rule:evenodd;fill:#DC911B;}
	.st50{fill:#DC911B;}
	.st51{fill:#FF0066;}
</style>
<g>
	<path class="st0" d="M116.3,95.2c0,2.2-0.9,3.8-2.7,4.7c-1.3,0.7-3.2,1-5.7,1c-2.4,0-4.3-0.4-5.8-1.2c-1.9-1-2.8-2.6-2.8-4.7V83.9
		h4.3v10.6c0,1.3,0.5,2.3,1.5,2.9c0.7,0.5,1.5,0.7,2.6,0.7c1.8,0,3-0.4,3.6-1.1c0.5-0.6,0.9-1.5,0.9-2.6V83.9h4.2L116.3,95.2
		L116.3,95.2z"/>
	<polygon class="st0" points="134.1,86.8 127.8,86.8 127.8,101 123.8,101 123.8,86.8 117.6,86.8 117.6,83.9 134.1,83.9 	"/>
	<polygon class="st0" points="150.8,86.8 144.3,86.8 144.3,101 140.4,101 140.4,86.8 134.1,86.8 134.1,83.9 150.8,83.9 	"/>
	<g>
		<path class="st0" d="M47.7,85.7h-1.3v13.7h10c-0.1-3.6-0.7-6.5-1.8-8.9C53,87.3,50.7,85.7,47.7,85.7z"/>
		<path class="st0" d="M46.3,74.7V78h1.2c2.6,0,5.1,0.5,7.7,1.4c3.4,1.3,6.1,3.9,8.1,8C65,91,66,94.9,66,99.4h5V74.7H46.3z"/>
	</g>
	<path class="st0" d="M166.8,100.9h-8.4c-1.3,0-2.6-0.3-3.7-0.9c-1.3-0.6-2.2-1.6-2.9-3c-0.7-1.4-1-2.9-1-4.6c0-1.6,0.3-3.1,1-4.5
		c0.7-1.5,1.7-2.5,3-3.2c0.7-0.4,1.4-0.6,2-0.8c0.6-0.2,1.4-0.2,2.2-0.2h7.7v3.1h-7.1c-0.6,0-1.2,0.1-1.6,0.2
		c-0.5,0.2-0.9,0.5-1.3,0.9c-0.4,0.5-0.7,0.9-0.9,1.2s-0.2,0.9-0.2,1.5h11.2v3h-11.2c0,0.5,0.1,1,0.2,1.5c0.2,0.4,0.4,0.9,0.8,1.3
		c0.4,0.5,0.8,0.8,1.2,1c0.4,0.2,0.9,0.3,1.5,0.3h7.5L166.8,100.9L166.8,100.9z"/>
	<polygon class="st0" points="187.5,100.9 182.1,100.9 173.8,88.3 173.8,100.9 169.7,100.9 169.7,83.9 175.2,83.9 183.3,96.7 
		183.3,83.9 187.5,83.9 	"/>
	<polygon class="st0" points="206.9,100.9 202.7,100.9 202.7,94 194.9,94 194.9,100.9 190.8,100.9 190.8,83.9 194.9,83.9 
		194.9,90.9 202.7,90.9 202.7,83.9 206.9,83.9 	"/>
	<path class="st1" d="M227.6,92.4c0,3.3-0.9,5.7-2.8,7.1c-1.5,1.2-3.7,1.7-6.6,1.7c-3.2,0-5.5-0.7-7-2c-1.6-1.5-2.5-3.8-2.5-7
		c0-2.6,0.8-4.7,2.2-6.2c1.6-1.6,4-2.4,7.2-2.4c3.6,0,6,0.8,7.5,2.3C227,87.2,227.6,89.4,227.6,92.4L227.6,92.4z M223.2,92.3
		c0-1.7-0.4-3-1.2-4c-0.9-1.1-2.2-1.7-3.9-1.7c-1.7,0-3,0.6-3.9,1.8c-0.7,1-1.1,2.3-1.1,3.9c0,1.9,0.3,3.2,0.9,4.1
		c0.9,1.2,2.3,1.9,4.5,1.9c1.9,0,3.2-0.6,3.9-1.8C222.9,95.5,223.2,94.1,223.2,92.3L223.2,92.3z"/>
	<path class="st0" d="M245.7,93.8h-11.8v7.1h-4.3V90.5c0-0.6,0.2-1.4,0.4-2.2c0.5-1.4,1.3-2.5,2.6-3.2c1.5-0.9,4-1.2,7.4-1.2h5.6
		v2.9h-5.8c-1.5,0-2.6,0.1-3.2,0.2c-1.1,0.3-1.9,0.9-2.3,1.8c-0.3,0.7-0.5,1.4-0.5,2.2h11.9L245.7,93.8L245.7,93.8z"/>
	<path class="st0" d="M263,100.9h-8.4c-1.3,0-2.6-0.3-3.7-0.9c-1.3-0.6-2.2-1.6-2.9-3c-0.7-1.4-1-2.9-1-4.6c0-1.6,0.3-3.1,1-4.5
		c0.7-1.5,1.7-2.5,3-3.2c0.7-0.4,1.4-0.6,2-0.8c0.6-0.2,1.4-0.2,2.2-0.2h7.7v3.1h-7.1c-0.6,0-1.2,0.1-1.6,0.2
		c-0.5,0.2-0.9,0.5-1.3,0.9c-0.4,0.5-0.7,0.9-0.9,1.2c-0.2,0.4-0.2,0.9-0.2,1.5h11.2v3h-11.2c0,0.5,0.1,1,0.2,1.5
		c0.2,0.4,0.4,0.9,0.8,1.3c0.4,0.5,0.8,0.8,1.2,1c0.4,0.2,0.9,0.3,1.5,0.3h7.5L263,100.9L263,100.9z"/>
	<path class="st1" d="M283.6,100.9h-4.8l-4.4-6.7h-4.6v6.7h-4v-17h12.5c1.4,0,2.6,0.5,3.5,1.6c0.9,1.1,1.4,2.4,1.4,3.9
		c0,1.2-0.4,2.2-1.2,3c-0.8,0.9-1.8,1.3-3,1.5L283.6,100.9L283.6,100.9z M278.1,89.2c0-0.8-0.3-1.4-0.9-1.9
		c-0.6-0.5-1.4-0.6-2.4-0.6h-5.1v4.8h5.3c0.8,0,1.5-0.2,2.1-0.5C277.8,90.6,278.1,90,278.1,89.2L278.1,89.2z"/>
	<path class="st0" d="M93.8,111.4h-6.6v1.2h5.2v1c0,0.7-0.2,1.2-0.6,1.5c-0.4,0.3-0.9,0.4-1.6,0.4h-5.4c-0.3,0-0.6,0-0.9-0.1
		c-0.3-0.1-0.5-0.2-0.8-0.3s-0.4-0.4-0.5-0.7s-0.2-0.6-0.2-1.1v-3.8c0-0.5,0.1-0.8,0.2-1.1c0.2-0.3,0.3-0.5,0.5-0.7
		c0.2-0.2,0.5-0.2,0.8-0.3c0.3-0.1,0.6-0.1,0.9-0.1h3.6c0.9,0,1.5,0,2.1,0.1c0.5,0.1,0.9,0.2,1.2,0.2c0.3,0.2,0.5,0.4,0.5,0.6
		c0.1,0.2,0.2,0.6,0.2,1.2h1.3v-0.4c0-0.6-0.1-1.1-0.3-1.5c-0.2-0.4-0.5-0.6-0.9-0.9c-0.4-0.2-0.8-0.3-1.2-0.4
		c-0.5-0.1-0.9-0.1-1.4-0.1h-5.2c-0.7,0-1.2,0.1-1.7,0.2c-0.5,0.2-0.9,0.4-1.2,0.7c-0.3,0.3-0.5,0.7-0.6,1.2c-0.2,0.5-0.2,1-0.2,1.7
		v2.8c0,0.6,0.1,1.2,0.2,1.7c0.1,0.5,0.3,0.9,0.6,1.2c0.3,0.3,0.7,0.5,1.2,0.7c0.5,0.2,1,0.2,1.7,0.2h5.6c0.6,0,1.2-0.1,1.6-0.2
		s0.8-0.3,1.1-0.6c0.2-0.3,0.5-0.7,0.6-1.2c0.2-0.5,0.2-1.1,0.2-1.8L93.8,111.4L93.8,111.4z M96.2,116.5h1.4v-4h6.7
		c0.3,0,0.6,0,0.9,0.1c0.2,0.1,0.5,0.1,0.6,0.2c0.2,0.2,0.3,0.3,0.4,0.5c0.1,0.2,0.2,0.5,0.2,0.9v2.2h1.3v-2.6c0-0.2,0-0.5-0.1-0.7
		s-0.2-0.4-0.2-0.5c-0.2-0.2-0.3-0.3-0.5-0.5c-0.2-0.1-0.5-0.2-0.9-0.2l0,0c0.2,0,0.5-0.1,0.8-0.2c0.2-0.1,0.4-0.2,0.6-0.3
		c0.2-0.2,0.3-0.3,0.4-0.5c0.1-0.2,0.2-0.5,0.2-0.9v-0.9c0-0.5-0.1-0.9-0.1-1.2c-0.1-0.4-0.2-0.6-0.5-0.9c-0.2-0.2-0.6-0.4-1-0.5
		c-0.5-0.2-1-0.2-1.8-0.2h-8.1v10.1H96.2z M97.6,111.4v-3.9h6.3c0.5,0,0.9,0,1.2,0.1c0.3,0.1,0.5,0.2,0.8,0.2
		c0.2,0.2,0.3,0.3,0.4,0.5c0.1,0.2,0.1,0.5,0.1,0.7v0.9c0,0.5-0.2,0.9-0.5,1.2s-0.9,0.3-1.7,0.3L97.6,111.4L97.6,111.4z
		 M121.8,113.3c0,0.5-0.1,0.8-0.2,1.1c-0.2,0.3-0.3,0.5-0.5,0.7c-0.2,0.2-0.5,0.2-0.8,0.3c-0.3,0.1-0.6,0.1-0.9,0.1h-5.6
		c-0.3,0-0.6,0-0.9-0.1c-0.3-0.1-0.5-0.2-0.8-0.3c-0.2-0.2-0.4-0.4-0.5-0.7c-0.2-0.3-0.2-0.6-0.2-1.1v-3.8c0-0.5,0.1-0.8,0.2-1.1
		c0.2-0.3,0.3-0.5,0.5-0.7c0.2-0.2,0.5-0.2,0.8-0.3c0.3-0.1,0.6-0.1,0.9-0.1h5.6c0.3,0,0.6,0,0.9,0.1c0.3,0.1,0.5,0.2,0.8,0.3
		c0.2,0.2,0.4,0.4,0.5,0.7c0.2,0.3,0.2,0.6,0.2,1.1V113.3z M110,112.8c0,0.6,0.1,1.2,0.2,1.7c0.1,0.5,0.3,0.9,0.6,1.2
		c0.3,0.3,0.7,0.5,1.2,0.7c0.5,0.2,1,0.2,1.7,0.2h5.9c0.7,0,1.2-0.1,1.7-0.2c0.5-0.2,0.9-0.4,1.1-0.7c0.3-0.3,0.5-0.7,0.6-1.2
		c0.2-0.5,0.2-1,0.2-1.7v-2.8c0-0.6-0.1-1.2-0.2-1.7c-0.2-0.5-0.3-0.9-0.6-1.2c-0.3-0.3-0.6-0.5-1.1-0.7c-0.5-0.2-1-0.2-1.7-0.2
		h-5.9c-0.7,0-1.2,0.1-1.7,0.2c-0.5,0.2-0.9,0.4-1.2,0.7c-0.3,0.3-0.5,0.7-0.6,1.2c-0.2,0.5-0.2,1-0.2,1.7V112.8z M125.6,113.9
		c0,0.5,0.1,0.9,0.2,1.3c0.2,0.4,0.3,0.6,0.6,0.9c0.3,0.2,0.7,0.4,1.2,0.5c0.5,0.1,1,0.2,1.6,0.2h4.7c0.6,0,1.2-0.1,1.6-0.2
		c0.5-0.1,0.9-0.2,1.2-0.5c0.3-0.2,0.5-0.5,0.6-0.9c0.2-0.3,0.2-0.8,0.2-1.3v-7.6h-1.4v7.6c0,0.2,0,0.5-0.1,0.7
		c-0.1,0.2-0.2,0.4-0.3,0.5c-0.2,0.2-0.4,0.2-0.7,0.3c-0.3,0.1-0.7,0.1-1.2,0.1h-4.8c-0.5,0-0.9-0.1-1.2-0.1
		c-0.3-0.1-0.5-0.2-0.7-0.3s-0.2-0.3-0.3-0.5c-0.1-0.2-0.1-0.4-0.1-0.7v-7.6h-1.4L125.6,113.9L125.6,113.9z M140.4,116.5h1.4v-4h6.7
		c0.8,0,1.3-0.1,1.8-0.2c0.4-0.2,0.8-0.4,0.9-0.6c0.2-0.3,0.3-0.6,0.4-1.1c0.1-0.4,0.1-0.9,0.1-1.5c0-0.6-0.1-1.1-0.2-1.5
		c-0.2-0.4-0.3-0.6-0.5-0.9c-0.2-0.2-0.5-0.3-0.9-0.4c-0.4-0.1-0.8-0.1-1.2-0.1h-8.4V116.5z M150.3,109.9c0,0.5-0.2,0.9-0.5,1.2
		c-0.3,0.2-0.8,0.3-1.3,0.3h-6.8v-3.9h6.7c0.3,0,0.5,0,0.8,0.1c0.2,0.1,0.4,0.2,0.5,0.2c0.2,0.1,0.3,0.2,0.4,0.5
		c0.1,0.2,0.1,0.5,0.1,0.8v0.9H150.3z"/>
	<path class="st0" d="M93.3,92.3c0-1.6-0.2-2.9-0.7-3.9C92,87,91,86.4,89.8,86.4H81v-3.1h8.7c1,0,2.1,0.2,3.1,0.5
		c1.4,0.5,2.5,1.6,3.2,3.2c0.8,1.5,1.1,3.2,1.1,5c0,2-0.4,3.8-1.2,5.3c-0.9,1.6-2.1,2.6-3.6,2.9c-0.6,0.1-1.3,0.2-2,0.2H81V89.9h4
		v7.6h5.1c1.1,0,1.9-0.6,2.5-1.8C93.1,94.9,93.3,93.7,93.3,92.3L93.3,92.3z"/>
	<polygon class="st0" points="45.2,113.5 45.2,100.5 35.7,100.5 35.7,113.5 	"/>
	<polygon class="st0" points="25.8,100.5 20.4,100.5 20.4,125.3 45.2,125.3 45.2,120.9 25.8,120.9 	"/>
	<g>
		<path class="st0" d="M54.7,109.2c1.1-2.3,1.6-5.2,1.6-8.7h-10v13l2.2,0C51.3,113.5,53.4,112.1,54.7,109.2z"/>
		<path class="st0" d="M66.1,100.5c-0.1,4.8-1.1,9-3.1,12.6c-2.2,4.1-5.3,6.5-9.1,7.3c-1.5,0.3-3.2,0.5-5.1,0.5h-2.4v4.4H71v-24.8
			H66.1z"/>
	</g>
	<polygon class="st0" points="45.2,78 45.2,74.7 20.4,74.7 20.4,99.4 25.8,99.4 25.8,94.5 35.7,94.5 35.7,99.4 45.2,99.4 45.2,85.7 
		25.7,85.7 25.7,78 	"/>
</g>
</svg>
