<?xml version="1.0" encoding="utf-8"?>
<!-- Generator: Adobe Illustrator 24.2.0, SVG Export Plug-In . SVG Version: 6.00 Build 0)  -->
<svg version="1.1" id="Ebene_1" xmlns="http://www.w3.org/2000/svg" xmlns:xlink="http://www.w3.org/1999/xlink" x="0px" y="0px"
	 viewBox="0 0 300 200" style="enable-background:new 0 0 300 200;" xml:space="preserve">
<style type="text/css">
	.st0{fill:#0A1227;}
</style>
<g id="layer1_1_" transform="translate(-310.7725,-517.59843)">
	<path id="path2845_1_" class="st0" d="M419.8,605.5l-0.5-0.1c-0.4,0.8-0.5,1-0.9,1.7l-0.5,1l-5,9.1l-1.1,1.9l-0.9,1.7h9.7
		L419.8,605.5z M376.8,593.9h17l-13.3,33c-0.4,0.9-0.5,1.2-1.1,2.1l0.2,0.2c0.9-0.1,1.1-0.2,1.4-0.2h9.1c0.7-1.3,0.9-1.6,1.6-2.7
		l20.9-32.4h19.4l3.3,32.9l0.2,3.7l0.2,1.6h0.6c0.7-2.7,1.1-3.9,1.7-5.7l12.9-32.6h23.7l-2,20.6l-0.2,2.1l-0.2,2.5l0.5,0.1
		c1.4-2.5,2-3.5,2.8-4.9l13.4-20.5h36.7l3,12.8c0.3,1.2,0.5,1.9,0.6,3.5h0.4c1.1-1.6,1.4-2.1,2.8-3.7l11.7-12.6h19.7l-30.8,30.3
		l-6.8,17.1h-16.1l8-20.2l-4-15.9c-0.2-1.1-0.4-1.7-0.6-3.7l-0.3,0.1l-1.5,4.3l-1.3,3.5l-12.9,32H482l10.7-26.1
		c1.1-2.8,1.3-3.1,2.4-5l-1-0.2l-1.1,1.7l-1.4,2l-19.9,27.6h-13.9l2.2-27.2c0.1-1.3,0.2-2.1,0.4-4.1h-0.8c-1,3-1.4,4.3-2.3,6.4
		l-9.6,24.9h-26l-0.5-7.6l-0.2-2.3h-15.8l-5.6,9.9h-42L376.8,593.9z"/>
</g>
</svg>
