<?xml version="1.0" encoding="utf-8"?>
<!-- Generator: Adobe Illustrator 24.2.0, SVG Export Plug-In . SVG Version: 6.00 Build 0)  -->
<svg version="1.1" id="Ebene_1" xmlns="http://www.w3.org/2000/svg" xmlns:xlink="http://www.w3.org/1999/xlink" x="0px" y="0px"
	 viewBox="0 0 300 200" style="enable-background:new 0 0 300 200;" xml:space="preserve">
<style type="text/css">
	.st0{fill:#0A1227;}
	.st1{fill-rule:evenodd;clip-rule:evenodd;fill:#0A1227;}
	.st2{fill:url(#path58_2_);}
	.st3{fill-rule:evenodd;clip-rule:evenodd;fill:#194473;}
	.st4{fill:none;stroke:#194473;stroke-width:1.1801;stroke-miterlimit:5.3333;}
	.st5{fill-rule:evenodd;clip-rule:evenodd;}
	.st6{fill:#008948;}
	.st7{fill-rule:evenodd;clip-rule:evenodd;fill:#008948;}
	.st8{fill:#004E9E;}
	.st9{fill:#1A1A18;}
	.st10{fill:#FFFFFF;}
	.st11{fill:#76BC21;}
	.st12{fill:#1D1D1B;}
	.st13{fill-rule:evenodd;clip-rule:evenodd;fill:#1D1D1B;}
	.st14{fill:#E31513;}
	.st15{fill:#E60001;}
	.st16{fill:#333333;}
	.st17{fill:#BBBDC0;}
	.st18{fill:#1D3B6D;}
	.st19{fill-rule:evenodd;clip-rule:evenodd;fill:#1D3B6D;}
	.st20{fill:#FFFFFF;stroke:#BBBDC0;stroke-width:0.275;stroke-miterlimit:3.8637;}
	.st21{fill:#005B53;}
	.st22{fill:#FF6C0E;}
	.st23{fill:#134094;}
	.st24{fill:#D2022F;}
	.st25{fill:#9D9D9C;}
	.st26{fill:#93B894;}
	.st27{filter:url(#Adobe_OpacityMaskFilter);}
	.st28{fill-rule:evenodd;clip-rule:evenodd;fill:#FFFFFF;}
	.st29{mask:url(#logo-hagesued-b_2_);fill:#FF7200;}
	.st30{filter:url(#Adobe_OpacityMaskFilter_1_);}
	.st31{mask:url(#logo-hagesued-d_2_);fill:#7F3D39;}
	.st32{fill:#FEFEFE;}
	.st33{fill:#606060;}
	.st34{filter:url(#Adobe_OpacityMaskFilter_2_);}
	.st35{mask:url(#logo-hagesued-b_1_);fill:#606060;}
	.st36{fill:none;stroke:#000000;stroke-miterlimit:10;}
	.st37{fill:none;}
	.st38{clip-path:url(#SVGID_2_);fill:#444543;}
	.st39{clip-path:url(#SVGID_4_);}
	.st40{clip-path:url(#SVGID_6_);fill:#D0D0D0;}
	.st41{clip-path:url(#SVGID_8_);fill:#D0D0D0;}
	.st42{fill:#1C1C1C;}
	.st43{fill-rule:evenodd;clip-rule:evenodd;fill:#1C1C1C;}
	.st44{fill:#3F3E3C;}
	.st45{fill:#2374BA;}
	.st46{fill:#AEB2B5;}
	.st47{fill-rule:evenodd;clip-rule:evenodd;fill:#164194;}
	.st48{fill:#E30613;}
	.st49{fill-rule:evenodd;clip-rule:evenodd;fill:#DC911B;}
	.st50{fill:#DC911B;}
	.st51{fill:#FF0066;}
</style>
<g>
	<path class="st0" d="M131.3,73.2h-4.8v4.3h-6.7v-4.3h-3.8v4.3h-6.7v-4.3h-4.8c-2.6,0-4.8,2.4-4.8,4.8v30.8c0,2.9,1.9,4.8,4.8,4.8
		h26.9c2.9,0,4.8-2,4.8-4.8V78C136.1,75.6,133.7,73.2,131.3,73.2z M120.7,101.1c0,0.5-0.4,0.9-1,1h-3.8c-0.5,0-0.9-0.4-1-1
		c0-0.5,0-15.4,0-15.8c0-0.5,0.4-0.9,1-1h3.8c0.5,0,0.9,0.5,1,1C120.7,85.8,120.7,100.6,120.7,101.1z"/>
	<polyline class="st0" points="109.1,66.9 109.1,73.2 114.9,73.2 115.9,73.2 115.9,66.9 109.1,66.9 	"/>
	<rect x="119.7" y="66.9" class="st0" width="6.7" height="6.2"/>
	<path class="st0" d="M144.2,73.2H176v11.1h-21.6v16.3c0,0.7,0.5,1.4,1.3,1.4c0.1,0,0.1,0,0.2,0h3.8c0.8,0,1.4-0.7,1.4-1.4v-1.9
		c0-0.3-0.2-0.5-0.5-0.5c0,0,0,0,0,0h-2.9V87.6H176v21.1c0,2.5-2.4,4.8-4.8,4.8h-26.9c-2.7,0-4.8-2.2-4.8-4.8V78
		C139.4,75.6,141.8,73.2,144.2,73.2z"/>
	<polygon class="st0" points="179.8,73.2 210.1,73.2 210.1,83.8 194.2,83.8 194.2,87.6 210.1,87.6 210.1,97.8 194.2,97.8 194.2,102 
		210.1,102 210.1,113.6 179.8,113.6 	"/>
	<polygon class="st0" points="214.4,73.2 214.6,73.2 228.3,73.2 228.3,102 239.4,102 239.4,108.5 239.4,113.6 228.1,113.6 
		214.4,113.6 	"/>
	<polygon class="st0" points="60.6,73.2 74.5,73.2 80.8,84.2 80.8,73.2 95.7,73.2 95.7,113.6 81.8,113.6 75.5,102 75.5,113.6 
		60.6,113.6 	"/>
	<path class="st0" d="M118.4,127.4v-2.1h1.2v2.1L118.4,127.4z"/>
	<path class="st0" d="M121.7,127.4v-2.1h1.2v2.1L121.7,127.4z"/>
	<path class="st0" d="M125.1,127.4v-2.1h1.2v2.1L125.1,127.4z"/>
	<path class="st0" d="M132.6,127.4h-1.1v-1.1c-0.1,0.4-0.4,0.7-0.7,1c-0.2,0.2-0.5,0.3-0.8,0.3c-0.5,0-1-0.4-1.4-1.1s-0.6-1.7-0.6-3
		c0-1.3,0.2-2.3,0.6-3c0.4-0.7,0.8-1,1.4-1c0.3,0,0.5,0.1,0.7,0.3c0.3,0.2,0.5,0.5,0.6,0.8v-3.9h1.2V127.4z M129.3,123.4
		c0,0.5,0,1,0.1,1.6c0.1,0.3,0.2,0.5,0.4,0.8c0.1,0.2,0.3,0.3,0.6,0.3c0.3,0,0.5-0.2,0.7-0.6c0.2-0.6,0.3-1.2,0.3-1.8
		c0-0.6-0.1-1.3-0.3-1.9c-0.2-0.4-0.4-0.6-0.7-0.6s-0.5,0.2-0.7,0.6C129.4,122.2,129.3,122.8,129.3,123.4L129.3,123.4z"/>
	<path class="st0" d="M134.6,118.7v-1.9h1.2v1.9H134.6z M134.6,127.4v-7.7h1.2v7.7H134.6z"/>
	<path class="st0" d="M140.7,125l1.2,0.3c-0.1,0.6-0.4,1.2-0.8,1.7c-0.3,0.4-0.8,0.6-1.3,0.6c-0.7,0-1.3-0.3-1.6-0.9
		c-0.4-0.7-0.7-1.7-0.7-3c0-1.1,0.2-2.1,0.7-3.1c0.3-0.6,0.8-1,1.5-1c0.7,0,1.3,0.4,1.6,1c0.4,0.8,0.7,1.9,0.7,3.4v0.2h-3.1
		c0,0.5,0.1,1,0.3,1.4c0.1,0.3,0.4,0.5,0.7,0.5C140.3,126.1,140.6,125.7,140.7,125z M140.8,122.9c0-0.5-0.1-0.9-0.3-1.3
		c-0.1-0.3-0.4-0.4-0.7-0.5c-0.3,0-0.6,0.2-0.7,0.5c-0.2,0.4-0.3,0.9-0.3,1.3L140.8,122.9z"/>
	<path class="st0" d="M185.2,127.4l-2.3-10.7h1.4l1.6,7.9l1.6-7.9h1.4l-2.3,10.7H185.2z"/>
	<path class="st0" d="M192.6,125l1.2,0.3c-0.1,0.6-0.4,1.2-0.8,1.7c-0.3,0.4-0.8,0.6-1.3,0.6c-0.7,0-1.3-0.3-1.6-0.9
		c-0.4-0.7-0.7-1.7-0.7-3c0-1.1,0.2-2.1,0.7-3.1c0.3-0.6,0.8-1,1.5-1c0.7,0,1.3,0.4,1.6,1c0.4,0.8,0.7,1.9,0.7,3.4v0.2h-3.1
		c0,0.5,0.1,1,0.3,1.4c0.1,0.3,0.4,0.5,0.7,0.5C192.2,126.1,192.5,125.7,192.6,125z M192.7,122.9c0-0.5-0.1-0.9-0.3-1.3
		c-0.1-0.3-0.4-0.4-0.6-0.5c-0.3,0-0.6,0.2-0.7,0.5c-0.2,0.4-0.3,0.9-0.3,1.3H192.7z"/>
	<path class="st0" d="M196.8,127.4h-1.2v-7.7h1.1v1.1c0.1-0.4,0.3-0.7,0.5-1c0.1-0.2,0.3-0.2,0.5-0.3c0.3,0,0.6,0.1,0.8,0.4
		l-0.4,1.8c-0.1-0.2-0.4-0.3-0.6-0.3c-0.2,0-0.4,0.1-0.5,0.3c-0.2,0.3-0.3,0.6-0.3,0.9c-0.1,0.8-0.1,1.7-0.1,2.5V127.4z"/>
	<path class="st0" d="M199.9,127.4v-10.7h1.2v3.9c0.1-0.3,0.4-0.6,0.6-0.8c0.2-0.2,0.5-0.3,0.7-0.3c0.5,0,1,0.3,1.4,1
		c0.4,0.7,0.6,1.7,0.6,3c0,1.3-0.2,2.3-0.6,3s-0.8,1.1-1.4,1.1c-0.3,0-0.6-0.1-0.8-0.4c-0.3-0.3-0.5-0.6-0.7-1v1.1L199.9,127.4z
		 M201.1,123.4c0,0.5,0,1,0.1,1.5c0.1,0.3,0.2,0.6,0.4,0.8c0.1,0.2,0.3,0.3,0.5,0.3c0.3,0,0.5-0.2,0.7-0.6c0.2-0.6,0.3-1.2,0.3-1.8
		c0-0.6-0.1-1.3-0.3-1.9c-0.2-0.4-0.4-0.6-0.8-0.6c-0.3,0-0.5,0.2-0.7,0.6C201.2,122.2,201.1,122.8,201.1,123.4L201.1,123.4z"/>
	<path class="st0" d="M206.2,118.7v-1.9h1.2v1.9H206.2z M206.2,127.4v-7.7h1.2v7.7H206.2z"/>
	<path class="st0" d="M213.8,127.4h-1.2v-3.9c0-0.5,0-1.1-0.1-1.6c0-0.2-0.1-0.4-0.3-0.6c-0.1-0.1-0.3-0.2-0.4-0.2
		c-0.2,0-0.4,0.1-0.6,0.3c-0.2,0.2-0.3,0.5-0.4,0.8c-0.1,0.6-0.1,1.2-0.1,1.8v3.5h-1.2v-7.7h1.1v1.1c0.2-0.4,0.4-0.7,0.7-1
		c0.2-0.2,0.5-0.3,0.8-0.3c0.3,0,0.7,0.1,0.9,0.4c0.3,0.3,0.4,0.6,0.5,1c0.1,0.6,0.2,1.2,0.1,1.7L213.8,127.4z"/>
	<path class="st0" d="M220.1,127.4H219v-1.1c-0.1,0.4-0.4,0.7-0.7,1c-0.2,0.2-0.5,0.3-0.8,0.3c-0.5,0-1-0.4-1.4-1.1
		c-0.4-0.7-0.6-1.7-0.6-3c0-1.3,0.2-2.3,0.6-3c0.4-0.7,0.8-1,1.4-1c0.3,0,0.5,0.1,0.7,0.3c0.3,0.2,0.5,0.5,0.6,0.8v-3.9h1.2
		L220.1,127.4z M216.8,123.4c0,0.5,0,1,0.1,1.6c0.1,0.3,0.2,0.5,0.4,0.8c0.1,0.2,0.3,0.3,0.5,0.3c0.3,0,0.5-0.2,0.7-0.6
		c0.2-0.6,0.3-1.2,0.3-1.8c0-0.6-0.1-1.3-0.3-1.9c-0.2-0.4-0.4-0.6-0.7-0.6s-0.5,0.2-0.7,0.6C216.9,122.2,216.8,122.8,216.8,123.4
		L216.8,123.4z"/>
	<path class="st0" d="M225.2,127.4v-1.2c-0.1,0.4-0.4,0.7-0.7,1c-0.2,0.2-0.5,0.3-0.9,0.4c-0.3,0-0.6-0.1-0.8-0.3
		c-0.3-0.3-0.5-0.6-0.5-0.9c-0.1-0.6-0.2-1.2-0.2-1.8v-4.9h1.2v3.5c0,0.6,0,1.3,0.1,1.9c0,0.2,0.1,0.5,0.3,0.6
		c0.1,0.1,0.3,0.2,0.5,0.2c0.2,0,0.4-0.1,0.6-0.3c0.2-0.2,0.3-0.5,0.3-0.8c0.1-0.7,0.1-1.4,0.1-2v-3.3h1.2v7.7L225.2,127.4z"/>
	<path class="st0" d="M232.7,127.4h-1.2v-3.9c0-0.5,0-1.1-0.1-1.6c0-0.2-0.1-0.4-0.3-0.6c-0.1-0.1-0.3-0.2-0.4-0.2
		c-0.2,0-0.4,0.1-0.6,0.3c-0.2,0.2-0.3,0.5-0.4,0.8c-0.1,0.6-0.1,1.2-0.1,1.8v3.5h-1.2v-7.7h1.1v1.1c0.2-0.4,0.4-0.7,0.7-1
		c0.2-0.2,0.5-0.3,0.8-0.3c0.3,0,0.7,0.1,0.9,0.4c0.3,0.3,0.4,0.6,0.5,1c0.1,0.6,0.2,1.2,0.1,1.7L232.7,127.4z"/>
	<path class="st0" d="M234.6,127.9l1.4,0.3c0,0.2,0.1,0.4,0.2,0.6c0.1,0.1,0.3,0.2,0.5,0.2c0.2,0,0.5-0.1,0.7-0.2
		c0.1-0.1,0.2-0.3,0.3-0.4c0.1-0.4,0.1-0.7,0.1-1.1v-1.1c-0.1,0.4-0.4,0.7-0.6,1c-0.2,0.2-0.5,0.3-0.8,0.3c-0.5,0-1-0.3-1.3-1
		c-0.4-0.9-0.7-1.9-0.6-3c0-1.3,0.2-2.3,0.6-3c0.4-0.7,0.8-1,1.4-1c0.3,0,0.6,0.1,0.8,0.3c0.3,0.3,0.5,0.6,0.6,0.9v-1.1h1.1v6.9
		c0,0.8,0,1.6-0.2,2.4c-0.1,0.4-0.4,0.8-0.7,1.1c-0.4,0.3-0.8,0.4-1.3,0.4c-0.4,0-0.8-0.1-1.2-0.3c-0.3-0.2-0.6-0.5-0.7-0.8
		c-0.2-0.4-0.3-0.8-0.2-1.3L234.6,127.9z M235.7,123.4c0,0.6,0.1,1.2,0.3,1.8c0.2,0.4,0.4,0.6,0.7,0.6c0.3,0,0.6-0.3,0.8-0.6
		c0.2-0.5,0.4-1.1,0.3-1.7c0-0.6-0.1-1.2-0.3-1.8c-0.2-0.4-0.5-0.6-0.8-0.6c-0.3,0-0.6,0.2-0.7,0.6
		C235.8,122.2,235.7,122.8,235.7,123.4L235.7,123.4z"/>
	<path class="st0" d="M168,119.8c-0.1-0.1-0.3-0.2-0.5-0.2c-0.3,0.1-0.6,0.3-0.8,0.5c-0.5,0.6-1.1,1.1-1.7,1.5
		c-0.5,0.3-1.5,1.1-2.2,1.5c-0.8,0.5-1.7,0.9-2.6,1.3c-0.6,0.2-1.2,0.5-1.7,0.6s-0.9,0.2-1,0s0.1-0.5,0.3-0.8s1.1-1.1,1.4-1.4
		s2.8-2.8,2.9-2.9c0.1-0.1,0,0,0.1-0.3s-0.5-0.5-0.6-0.6c-0.1-0.1-0.2,0-0.5,0.2c-0.3,0.2-1.9,1.7-2.4,2c-0.5,0.3-1.3,0.8-1.5,1
		c-0.3,0.2-1.1,0.7-1.1,0.7c0.5-0.5,1-1.1,1.4-1.6c0.3-0.4,0.5-0.7,0.7-1.1c0-0.1,0-0.5-0.2-0.5c-0.2-0.1-0.4-0.2-0.6-0.2
		c-0.2,0-0.4,0.1-0.6,0.1c-0.1,0.2-0.3,0.4-0.5,0.6c-0.3,0.4-1.1,1.4-1.6,1.9c-0.9,0.9-1.9,1.6-2.9,2.3c-0.8,0.5-1.7,0.9-2.6,0.9
		c0,0-1.1,0.1-1.4-0.3c-0.5-0.5-0.5-1.2-0.2-1.8c0.6-0.8,1.3-1.5,2.1-2.1c1.1-0.7,2.3-1.3,3.6-1.7c0.8-0.2,1.7-0.4,2.5-0.5
		c0.5,0,1.1-0.1,1.6-0.2c0.1-0.1,0.1-0.2,0.1-0.3l-0.2-0.3c-0.2-0.1,0.1-0.2-0.7-0.3s-1.7,0.1-2.5,0.3c-3.3,0.8-4.5,1.4-5.8,2.3
		c-0.8,0.6-1.5,1.4-2.1,2.4c-0.4,0.7-0.4,1.6-0.1,2.3c0.3,0.7,0.8,1.2,2.2,1.2c0.5,0,1,0,1.6-0.1l-1,0.6c-0.3,0.2-0.5,0.3-0.8,0.4
		c-0.5,0.2-1.2,0.4-1.8,0.6c-0.5,0.2-0.9,0.5-1.2,1c-0.3,0.5-0.5,1.2-0.3,1.8c0.2,0.7,0.2,0.8,0.5,1c0.2,0.2,0.7,0.3,1.4,0.1
		c0.6-0.2,1.1-0.5,1.5-0.9c0.7-0.7,1.4-1.5,2-2.3c0.5-0.7,1.1-1.8,1.6-2c0.4-0.3,1.5-0.9,2-1.2c0.5-0.3,1.5-0.8,1.5-0.8l0.4-0.1
		c0,0,0.1,0.7,0.1,1c0,0.3,0.2,0.6,0.5,0.8c0.3,0.2,0.7,0.3,1.1,0.2c1,0,1.9-0.3,2.7-0.8c0.4-0.2,1.6-1,1.6-1s-0.4,0.9-0.3,1.4
		c0.1,0.4,0.4,0.5,0.8,0.5c0.4,0,0.9-0.1,1.3-0.3c0.5-0.2,0.9-0.6,1.3-1c0.3-0.4,0.3-0.5,0.2-0.6c-0.1-0.2-0.3-0.2-0.5-0.1
		c0,0,0,0,0,0c-0.2,0.2-0.5,0.5-0.7,0.5s-0.3-0.2-0.2-0.5c0.1-0.3,0.3-0.6,0.6-0.9c0.2-0.1,0.9-0.7,1.6-1.3c0.6-0.5,1.4-1.1,1.7-1.4
		c0.3-0.3,0.5-0.5,0.5-0.6C168.2,120.1,168.1,119.9,168,119.8z M147.9,130c-0.5,0.3-1,0.5-1.6,0.5c-0.1-0.3-0.1-0.6,0-0.9
		c0.3-0.5,0.7-0.9,1.3-1.1c0.6-0.3,1.3-0.4,2-0.5C148.9,128.8,148.5,129.5,147.9,130z"/>
	<path class="st0" d="M164.6,116.3c0.5,0.1,1,0.1,1.5-0.1c0.8-0.1,1.5-0.3,2.3-0.6l2.1-0.7c0.2-0.1,0.5-0.1,0.7-0.1
		c0.2,0,0.3,0.1,0.4,0.3c0,0.2-0.3,0.4-0.5,0.6c-0.4,0.2-0.7,0.4-1.1,0.5c-0.4,0.2-0.9,0.3-1.4,0.5c-0.5,0.2-1,0.3-1.5,0.4
		c-0.5,0.1-1,0.1-1.4,0.1c-0.4,0-0.7,0-1.1-0.1c-0.3,0-0.6-0.1-0.9-0.3c-0.2-0.2-0.3-0.4-0.3-0.6c0-0.1,0.2-0.2,0.3-0.2
		c0,0,0,0,0.1,0C163.9,116.1,164.6,116.3,164.6,116.3z"/>
	<path class="st0" d="M165.3,126.5c0.1-0.2,1-1.5,1.2-1.9c0.2-0.4,0.9-1.3,0.9-1.4c0-0.1,0-0.2,0-0.2c0,0-0.2-0.1-0.3-0.1
		c-0.1-0.1-0.2-0.2-0.3-0.3c-0.1-0.1-0.1-0.3,0-0.4c0.1-0.2,0.2-0.3,0.5-0.3h0.6c0.1,0,0.3,0,0.4,0c0.2-0.1,0.3-0.2,0.5-0.3
		c0.1-0.1,1.5-1.6,1.6-1.8c0.1-0.2,2.1-2.4,2.6-3c0.5-0.6,1.2-1.4,1.4-1.6c0.2-0.2,0.3-0.4,0.5-0.5c0.2,0,0.3,0,0.4,0.1
		c0.1,0.1,0.3,0.2,0.3,0.3c0,0.1,0,0.3,0,0.4c-0.1,0.1-1.4,1.8-2,2.5s-1.8,2.2-2,2.5s-0.6,0.8-0.6,0.9c-0.2,0.2,0.1,0.2,0.1,0.3
		c0.1,0.1,0.1,0.3,0,0.4c-0.1,0.2-0.3,0.3-0.4,0.4c-0.2,0-0.3,0.1-0.5,0.1c-0.1,0-0.3,0-0.4,0c-0.1,0-1.2,1.9-1.6,2.3
		c-0.3,0.4-0.6,0.8-1,1.3c-0.3,0.3-0.5,0.7-0.8,1c-0.1,0.2-0.3,0.3-0.5,0.4c-0.2,0-0.4,0-0.6-0.1c-0.2,0-0.3-0.2-0.3-0.4
		C165,126.9,165.1,126.7,165.3,126.5z"/>
	<path class="st0" d="M178.7,123.1c-0.1-0.2-0.2-0.3-0.4-0.4c-0.1-0.1-0.3,0-0.5,0c-0.2,0.1-0.3,0.3-0.5,0.4
		c-0.2,0.2-0.7,0.7-1.2,1.1c-0.5,0.4-1,0.7-1.6,1c-0.4,0.3-0.9,0.4-1.4,0.5c-0.6,0.1-0.9,0-1.2-0.2c-0.3-0.2-0.3-0.3-0.3-0.8
		c0.1-0.7,0.2-1.3,0.5-1.9c0.3-0.6,0.8-1.1,1.3-1.5c0.3,0.1,0.6,0.2,0.9,0.1c0.5-0.1,1.1-0.2,1.6-0.4c0.5-0.2,1.1-0.5,1.6-0.8
		c0.4-0.3,0.7-0.8,0.8-1.3c0.1-0.4,0.1-0.8-0.1-1.1c-0.3-0.3-0.7-0.4-1.1-0.5c-0.4-0.1-0.7,0-1.1,0.1c-0.7,0.2-1.3,0.5-1.8,0.9
		c-0.7,0.7-1.4,1.5-2,2.3c-0.5,0.8-1,1.6-1.4,2.5c-0.3,0.6-0.4,1.2-0.3,1.8c0,0.5,0.2,1,0.6,1.4c0.4,0.4,1,0.6,1.5,0.6
		c0.7,0,1.3-0.1,2-0.3c0.6-0.2,1.1-0.5,1.7-0.8c0.6-0.4,1.3-0.9,1.8-1.5C178.1,124.1,178.8,123.3,178.7,123.1z M174.8,119.4
		c0.3-0.4,0.6-0.7,1.1-0.9c0.3-0.1,0.6-0.2,0.9-0.1c0.2,0,0.6,0.2,0.5,0.5c0,0.3-0.4,0.6-0.9,0.8c-0.3,0.2-0.7,0.3-1,0.4
		C175,120.3,174.4,120,174.8,119.4z"/>
	<path class="st0" d="M180.9,127.9c0.2,0.3,0.3,0.7,0.3,1.1c-0.1,0.2-0.4,0.1-0.4,0.1s-8-0.3-10.5,0c-2.5,0.3-8.5,0.8-10.5,1.3
		c-1.9,0.5-4.5,1.1-5.3,1.3s-2.8,0.7-3.5,0.9c-0.5,0.2-0.9,0.3-1.4,0.4c-0.3,0-0.3,0-0.4-0.1c-0.1-0.1-0.2-0.2-0.1-0.4
		s0.1-0.3,0.3-0.4c0.3-0.1,4.6-1.6,5.9-1.9c1.3-0.3,5.3-1.1,6.6-1.4c1.3-0.2,5.7-0.7,7-0.8c1.2-0.1,3.7-0.2,5.6-0.3
		C176.3,127.8,180.9,127.9,180.9,127.9z"/>
</g>
</svg>
