<?xml version="1.0" encoding="utf-8"?>
<!-- Generator: Adobe Illustrator 24.2.0, SVG Export Plug-In . SVG Version: 6.00 Build 0)  -->
<svg version="1.1" id="Ebene_1" xmlns="http://www.w3.org/2000/svg" xmlns:xlink="http://www.w3.org/1999/xlink" x="0px" y="0px"
	 viewBox="0 0 300 200" style="enable-background:new 0 0 300 200;" xml:space="preserve">
<style type="text/css">
	.st0{fill:#0A1227;}
	.st1{fill-rule:evenodd;clip-rule:evenodd;fill:#0A1227;}
	.st2{fill:url(#path58_2_);}
	.st3{fill-rule:evenodd;clip-rule:evenodd;fill:#194473;}
	.st4{fill:none;stroke:#194473;stroke-width:1.1801;stroke-miterlimit:5.3333;}
	.st5{fill-rule:evenodd;clip-rule:evenodd;}
	.st6{fill:#008948;}
	.st7{fill-rule:evenodd;clip-rule:evenodd;fill:#008948;}
	.st8{fill:#004E9E;}
	.st9{fill:#1A1A18;}
	.st10{fill:#FFFFFF;}
	.st11{fill:#76BC21;}
	.st12{fill:#1D1D1B;}
	.st13{fill-rule:evenodd;clip-rule:evenodd;fill:#1D1D1B;}
	.st14{fill:#E31513;}
	.st15{fill:#E60001;}
	.st16{fill:#333333;}
	.st17{fill:#BBBDC0;}
	.st18{fill:#1D3B6D;}
	.st19{fill-rule:evenodd;clip-rule:evenodd;fill:#1D3B6D;}
	.st20{fill:#FFFFFF;stroke:#BBBDC0;stroke-width:0.275;stroke-miterlimit:3.8637;}
	.st21{fill:#005B53;}
	.st22{fill:#FF6C0E;}
	.st23{fill:#134094;}
	.st24{fill:#D2022F;}
	.st25{fill:#9D9D9C;}
	.st26{fill:#93B894;}
	.st27{filter:url(#Adobe_OpacityMaskFilter);}
	.st28{fill-rule:evenodd;clip-rule:evenodd;fill:#FFFFFF;}
	.st29{mask:url(#logo-hagesued-b_2_);fill:#FF7200;}
	.st30{filter:url(#Adobe_OpacityMaskFilter_1_);}
	.st31{mask:url(#logo-hagesued-d_2_);fill:#7F3D39;}
	.st32{fill:#FEFEFE;}
	.st33{fill:#606060;}
	.st34{filter:url(#Adobe_OpacityMaskFilter_2_);}
	.st35{mask:url(#logo-hagesued-b_1_);fill:#606060;}
	.st36{fill:none;stroke:#000000;stroke-miterlimit:10;}
	.st37{fill:none;}
	.st38{clip-path:url(#SVGID_2_);fill:#444543;}
	.st39{clip-path:url(#SVGID_4_);}
	.st40{clip-path:url(#SVGID_6_);fill:#D0D0D0;}
	.st41{clip-path:url(#SVGID_8_);fill:#D0D0D0;}
	.st42{fill:#3F3E3C;}
	.st43{fill:#2374BA;}
	.st44{fill:#AEB2B5;}
	.st45{fill-rule:evenodd;clip-rule:evenodd;fill:#164194;}
	.st46{fill:#E30613;}
	.st47{fill-rule:evenodd;clip-rule:evenodd;fill:#DC911B;}
	.st48{fill:#DC911B;}
	.st49{fill:#FF0066;}
</style>
<g>
	<path class="st0" d="M92.6,143.5h-8.8l-7.6-25.4h7.9l4.2,15.4h0.1l4.1-15.4h8.1L92.6,143.5z M102.4,118.1h21v6.5h-13.2v3.2h12v6.1
		h-12v3.2h13.6v6.5h-21.4L102.4,118.1L102.4,118.1z M126.4,118.1h14.9c4.4,0,8.3,2.4,8.3,7.3c0,2.6-1.2,5.4-3.8,6.4
		c2.1,0.8,3.4,3.2,3.7,6.3c0.1,1.2,0.1,4.3,0.9,5.4h-7.8c-0.4-1.3-0.5-2.6-0.6-3.9c-0.2-2.4-0.4-4.9-3.5-4.9h-4.2v8.9h-7.8
		L126.4,118.1L126.4,118.1z M134.2,129.2h4.1c1.5,0,3.4-0.2,3.4-2.5c0-1.6-0.9-2.5-3.9-2.5h-3.7L134.2,129.2L134.2,129.2z
		 M152.2,118.1h7.8V137h11.2v6.5h-19.1V118.1z M182.5,118.1h7.7l9.3,25.4h-8.1l-1.1-3.6h-8.1l-1.1,3.6h-7.9L182.5,118.1z
		 M188.6,134.5l-2.3-7.8h-0.1l-2.4,7.8H188.6z M217.6,140.9c-1.7,2.2-4.4,3.2-7.2,3.2c-7.5,0-12.1-5.8-12.1-13.1
		c0-9.7,6.8-13.6,12.5-13.6c6.5,0,10.6,3.5,11.7,9.5h-7.5c-0.3-1.9-1.9-3.2-3.7-3.2c-5.4,0-5.2,5.6-5.2,7.4c0,2.4,1,6.6,5.7,6.6
		c1.8,0,3.7-0.9,4.1-2.8h-3.4v-5.4h10.4v14h-4.9L217.6,140.9z"/>
	<path class="st0" d="M222.4,103.5h-8.9l-0.1-0.1l-17-22.4l-7.5,6.6v15.9h-7.1V57.8h7.1v22l23.6-22h9.3l-20.5,18.5L222.4,103.5z
		 M175.6,80.6c0,11.5-7.3,23.9-23.2,23.9c-15.9,0-23.2-12.4-23.2-23.9c0-11.5,7.3-23.9,23.2-23.9S175.6,69.1,175.6,80.6z
		 M168.5,80.6c0-13.4-8.7-18.2-16.1-18.2c-7.4,0-16.1,4.8-16.1,18.2s8.7,18.2,16.1,18.2C159.8,98.8,168.5,94,168.5,80.6z M123,57.7
		v45.6h-7V90.1H95.4l-11,13.5h-7.8L114,57.8l0.2,0L123,57.7L123,57.7z M100.3,84.2H116V64.9L100.3,84.2z"/>
</g>
</svg>
