<?xml version="1.0" encoding="utf-8"?>
<!-- Generator: Adobe Illustrator 24.2.0, SVG Export Plug-In . SVG Version: 6.00 Build 0)  -->
<svg version="1.1" id="Ebene_1" xmlns="http://www.w3.org/2000/svg" xmlns:xlink="http://www.w3.org/1999/xlink" x="0px" y="0px"
	 viewBox="0 0 300 200" style="enable-background:new 0 0 300 200;" xml:space="preserve">
<style type="text/css">
	.st0{fill:#0A1227;}
	.st1{fill-rule:evenodd;clip-rule:evenodd;fill:#0A1227;}
	.st2{fill:url(#path58_2_);}
	.st3{fill-rule:evenodd;clip-rule:evenodd;fill:#194473;}
	.st4{fill:none;stroke:#194473;stroke-width:1.1801;stroke-miterlimit:5.3333;}
	.st5{fill-rule:evenodd;clip-rule:evenodd;}
	.st6{fill:#008948;}
	.st7{fill-rule:evenodd;clip-rule:evenodd;fill:#008948;}
	.st8{fill:#004E9E;}
	.st9{fill:#1A1A18;}
	.st10{fill:#FFFFFF;}
	.st11{fill:#76BC21;}
	.st12{fill:#1D1D1B;}
	.st13{fill-rule:evenodd;clip-rule:evenodd;fill:#1D1D1B;}
	.st14{fill:#E31513;}
	.st15{fill:#E60001;}
	.st16{fill:#333333;}
	.st17{fill:#BBBDC0;}
	.st18{fill:#1D3B6D;}
	.st19{fill-rule:evenodd;clip-rule:evenodd;fill:#1D3B6D;}
	.st20{fill:#FFFFFF;stroke:#BBBDC0;stroke-width:0.275;stroke-miterlimit:3.8637;}
	.st21{fill:#005B53;}
	.st22{fill:#FF6C0E;}
	.st23{fill:#134094;}
	.st24{fill:#D2022F;}
	.st25{fill:#9D9D9C;}
	.st26{fill:#93B894;}
	.st27{filter:url(#Adobe_OpacityMaskFilter);}
	.st28{fill-rule:evenodd;clip-rule:evenodd;fill:#FFFFFF;}
	.st29{mask:url(#logo-hagesued-b_2_);fill:#FF7200;}
	.st30{filter:url(#Adobe_OpacityMaskFilter_1_);}
	.st31{mask:url(#logo-hagesued-d_2_);fill:#7F3D39;}
	.st32{fill:#FEFEFE;}
	.st33{fill:#606060;}
	.st34{filter:url(#Adobe_OpacityMaskFilter_2_);}
	.st35{mask:url(#logo-hagesued-b_1_);fill:#606060;}
	.st36{fill:none;stroke:#000000;stroke-miterlimit:10;}
	.st37{fill:none;}
	.st38{clip-path:url(#SVGID_2_);fill:#444543;}
	.st39{clip-path:url(#SVGID_4_);}
	.st40{clip-path:url(#SVGID_6_);fill:#D0D0D0;}
	.st41{clip-path:url(#SVGID_8_);fill:#D0D0D0;}
	.st42{fill:#1C1C1C;}
	.st43{fill-rule:evenodd;clip-rule:evenodd;fill:#1C1C1C;}
	.st44{fill:#3F3E3C;}
	.st45{fill:#2374BA;}
	.st46{fill:#AEB2B5;}
	.st47{fill-rule:evenodd;clip-rule:evenodd;fill:#164194;}
	.st48{fill:#E30613;}
	.st49{fill-rule:evenodd;clip-rule:evenodd;fill:#DC911B;}
	.st50{fill:#DC911B;}
	.st51{fill:#FF0066;}
</style>
<g>
	<g>
		<path d="M65.7,128.9c-0.2-1.8-1.4-2.6-3.1-2.6c-1.4,0-2.8,0.5-2.8,2.2c0,3.1,8.1,0.9,8.1,5.9c0,2.7-2.6,3.8-5,3.8
			c-2.8,0-5.2-1.4-5.2-4.5h1.6c0,2.1,1.8,3.1,3.7,3.1c1.5,0,3.2-0.5,3.2-2.3c0-3.5-8.1-1.2-8.1-5.8c0-2.6,2.3-3.7,4.6-3.7
			c2.6,0,4.6,1.2,4.7,4H65.7z"/>
		<path d="M72.2,125.2h1.5v4.8h0c0.5-1.1,1.8-1.6,2.9-1.6c2.4,0,3.2,1.4,3.2,3.4v6h-1.5v-6.2c0-1.1-0.7-1.8-1.9-1.8
			c-1.8,0-2.7,1.2-2.7,2.9v5.2h-1.5L72.2,125.2L72.2,125.2z"/>
		<path d="M88.7,128.5c2.9,0,4.5,2.1,4.5,4.8c0,2.7-1.5,4.8-4.5,4.8s-4.5-2.1-4.5-4.8C84.3,130.6,85.8,128.5,88.7,128.5z
			 M88.7,136.8c1.6,0,2.9-1.2,2.9-3.5c0-2.2-1.3-3.5-2.9-3.5c-1.6,0-2.9,1.3-2.9,3.5C85.9,135.5,87.1,136.8,88.7,136.8z"/>
		<path d="M105.4,135c-0.4,2-1.8,3.1-3.9,3.1c-2.9,0-4.3-2-4.4-4.8c0-2.8,1.8-4.8,4.3-4.8c3.2,0,4.2,3,4.2,5.3h-6.9
			c-0.1,1.6,0.9,3,2.9,3c1.3,0,2.1-0.6,2.4-1.8L105.4,135L105.4,135z M104,132.4c-0.1-1.4-1.1-2.6-2.6-2.6c-1.6,0-2.5,1.2-2.6,2.6
			H104z"/>
		<path d="M110.7,135c0.1,1.3,1.2,1.8,2.5,1.8c0.9,0,2.2-0.2,2.2-1.4c0-2.4-6-0.8-6-4.3c0-1.8,1.8-2.6,3.4-2.6
			c2.1,0,3.6,0.6,3.8,2.9h-1.5c-0.1-1.2-1.2-1.5-2.1-1.5c-0.9,0-2,0.2-2,1.2c0,1.1,1.6,1.3,3,1.6c1.5,0.3,3,0.9,3,2.6
			c0,2.2-2,2.9-3.9,2.9c-2.1,0-3.8-0.8-3.9-3.1L110.7,135L110.7,135z"/>
		<path d="M129.2,125.2h8.3v1.4h-6.6v4h5.8v1.4h-5.8v5.8h-1.7L129.2,125.2L129.2,125.2z"/>
		<path d="M145.7,128.5c2.9,0,4.5,2.1,4.5,4.8c0,2.7-1.5,4.8-4.5,4.8s-4.5-2.1-4.5-4.8C141.3,130.6,142.8,128.5,145.7,128.5z
			 M145.7,136.8c1.6,0,2.9-1.2,2.9-3.5c0-2.2-1.3-3.5-2.9-3.5s-2.9,1.3-2.9,3.5C142.9,135.5,144.2,136.8,145.7,136.8z"/>
		<path d="M154.6,128.7h1.4v1.9h0c0.7-1.5,1.7-2.2,3.4-2.1v1.6c-2.4,0-3.3,1.4-3.3,3.7v4.1h-1.5L154.6,128.7L154.6,128.7z"/>
		<path d="M174,125.2h1.9l5,12.7h-1.9l-1.4-3.8h-5.4l-1.4,3.8H169L174,125.2z M172.7,132.7h4.3l-2.1-5.9h0L172.7,132.7z"/>
		<path d="M190.7,131.7c-0.2-1.2-1-1.8-2.3-1.8c-2.2,0-2.9,1.7-2.9,3.6c0,1.7,0.8,3.4,2.7,3.4c1.5,0,2.3-0.8,2.5-2.2h1.5
			c-0.3,2.3-1.7,3.6-4,3.6c-2.8,0-4.3-1.9-4.3-4.7c0-2.8,1.4-4.9,4.3-4.9c2.1,0,3.7,1,4,3.2H190.7z"/>
		<path d="M198.7,128.7h1.8v1.3h-1.8v5.7c0,0.7,0.2,0.8,1.1,0.8h0.7v1.3h-1.2c-1.6,0-2.2-0.3-2.2-2v-5.8h-1.6v-1.3h1.6V126h1.5
			V128.7z"/>
		<path d="M206.5,127.1H205v-1.8h1.5V127.1z M205,128.7h1.5v9.2H205V128.7z"/>
		<path d="M215.6,137.9H214l-3.4-9.2h1.7l2.6,7.7h0l2.5-7.7h1.6L215.6,137.9z"/>
		<path d="M230.8,135c-0.4,2-1.8,3.1-3.9,3.1c-2.9,0-4.3-2-4.4-4.8c0-2.8,1.8-4.8,4.3-4.8c3.2,0,4.2,3,4.2,5.3h-6.9
			c-0.1,1.6,0.9,3,2.9,3c1.3,0,2.1-0.6,2.4-1.8L230.8,135L230.8,135z M229.4,132.4c-0.1-1.4-1.1-2.6-2.6-2.6c-1.6,0-2.5,1.2-2.6,2.6
			H229.4z"/>
		<path d="M236.1,135c0.1,1.3,1.2,1.8,2.5,1.8c0.9,0,2.2-0.2,2.2-1.4c0-2.4-6-0.8-6-4.3c0-1.8,1.8-2.6,3.4-2.6
			c2.1,0,3.6,0.6,3.8,2.9h-1.5c-0.1-1.2-1.2-1.5-2.1-1.5c-0.9,0-2,0.2-2,1.2c0,1.1,1.6,1.3,3,1.6c1.5,0.3,3,0.9,3,2.6
			c0,2.2-2,2.9-3.9,2.9c-2.1,0-3.8-0.8-3.9-3.1L236.1,135L236.1,135z"/>
	</g>
	<path class="st28" d="M232.9,96V63.5l-2.7,0.3l-0.4,0l-0.4,0l-0.4,0l-0.4,0l-0.4,0l-0.4,0l-0.4,0l-0.4,0l-0.4,0l-0.4,0l-0.4,0
		l-0.4,0l-0.4,0l-0.4,0l-0.4,0l-0.4,0l-0.4,0l-0.4,0l-0.4,0l-0.4,0l-0.4,0l-0.4,0l-0.4,0l-0.4,0l-0.4,0l-0.4,0l-0.4,0l-0.4,0l-0.4,0
		l-0.4,0l-2.4,0.2v4.9l-1.4-1l-1.8-1l-2-0.8l-2.1-0.6l-2.3-0.4l-2.5-0.2l-0.5,0l-0.4,0l-0.4,0l-0.4,0l-0.4,0l-0.4,0l-0.4,0l-0.4,0
		l-0.4,0l-0.4,0l-0.4,0l-0.4,0l-0.4,0l-0.4,0l-0.4,0l-0.4,0l-0.4,0l-0.4,0l-0.4,0l-0.4,0l-0.4,0l-0.4,0l-0.4,0l-0.4,0l-0.4,0l-0.4,0
		l-0.4,0l-0.4,0l-0.8,0l-0.4,0l-2.4,0.1l0,0l-2.3,0.1l-0.4,0l-0.4,0l-0.4,0l-0.4,0l-0.4,0l-0.4,0l-0.4,0l-0.4,0l-0.4,0l-0.4,0
		l-0.4,0l-0.4,0l-0.4,0l-0.4,0l-0.4,0l-0.4,0l-0.4,0l-0.4,0l-0.4,0l-0.4,0l-0.4,0l-0.4,0l-0.4,0l-0.7,0l-0.4,0l-0.4,0l-0.4,0l-0.4,0
		l-0.4,0l-2.4,0.1v9.9l-6.1-9.8l-1.7,0l-0.5,0l-0.5,0l-0.5,0l-0.5,0l-0.5,0l-0.5,0l-0.5,0l-0.5,0l-0.5,0l-0.9,0l-0.5,0l-0.5,0
		l-0.5,0l-0.5,0l-0.5,0l-0.5,0l-0.5,0l-0.5,0l-0.5,0l-0.5,0l-1,0l-1,0h-0.5h-0.5h-0.5h-0.5h-0.5l-2.1,0l-1.9,0h-0.4H147h-0.4l-0.4,0
		h-0.4l-0.4,0H145h-0.4l-0.4,0h-0.4l-0.4,0l-0.4,0l-0.4,0l-0.4,0h-0.4l-0.4,0l-0.4,0l-0.4,0l-0.4,0l-0.4,0l-0.4,0l-0.4,0l-0.4,0
		l-0.4,0l-0.4,0l-0.4,0l-0.4,0l-0.4,0l-0.4,0l-0.4,0l-1.6,0l-2.2,0l-0.8,0l-1.6,0l-0.8,0l-0.8,0l-0.8,0l-0.8,0l-1.6,0l-0.8,0l-0.8,0
		l-0.8,0l-0.8,0l-1.5,0l-0.8,0l-0.8,0l-0.8,0l-0.8,0l-0.8,0l-0.8,0l-0.8,0l-0.8,0l-0.8,0l-0.8,0l-0.8,0l-0.8,0l-0.8,0l-0.8,0l-0.8,0
		l-2.5-0.1l-2.1-0.1l-0.5,0l-0.5,0l-0.5,0l-0.5,0l-0.5,0l-0.5,0l-0.5,0l-0.5,0l-0.5,0l-0.5,0l-0.5,0l-0.5,0l-0.5,0l-0.5,0l-0.5,0
		l-0.5,0l-0.5,0l-0.5,0l-0.5,0l-0.5,0l-0.5,0l-0.5,0l-0.5,0l-0.5,0l-0.5,0l-0.5,0l-0.5,0l-0.5,0l-0.5,0l-0.5,0l-1.9-0.1l-4.2,9.2
		l-3.9-9.8l-1.9-0.2l-0.5,0l-0.5,0l-0.5,0l-0.5,0l-0.5,0l-0.5,0l-0.5,0L73,64l-0.5-0.1l-0.5-0.1l-0.5-0.1l-0.5-0.1l-0.5-0.1
		l-0.5-0.1l-0.5-0.1l-0.5-0.1l-1-0.1l-0.5-0.1l-0.5-0.1l-0.5-0.1l-0.5-0.1l-0.5-0.1l-0.5-0.1L64,63l-0.9-0.1l-0.5-0.1l-2.7-0.3
		l-3.9,49.7l3-0.4l0.4-0.1l0.4-0.1l0.4-0.1l0.4-0.1l0.4-0.1l0.4-0.1l0.4-0.1l0.5-0.1l0.5-0.1l0.5-0.1l0.5-0.1l0.5-0.1l0.5-0.1
		l0.5-0.1l0.5-0.1l0.5-0.1l0.5-0.1l0.5-0.1l0.5-0.1l0.5-0.1l0.5-0.1l0.5-0.1l0.5-0.1l0.5-0.1l0.5,0l0.5-0.1l0.5,0l0.5,0l0.5,0l0.5,0
		l2.2-0.2l1.3-12.9l6.8,12.3L89.9,97l1.3,11.8l2.5-0.2l0.9-0.1l0.5,0l0.5,0l0.5,0l0.5,0l0.5,0l0.5,0l0.5,0l0.5,0l0.5,0l0.5,0l0.5,0
		l0.5,0l0.5,0l0.5,0l0.5,0l0.5,0l1,0l0.5,0l0.5,0l0.5,0l0.5,0l0.9,0l0.5,0l0.5,0l0.5,0l0.5,0l2.3-0.1l2.1-0.1l1.3,0l1.2,0l0.7,0
		l0.6,0l1.3,0l0.7,0l0.7,0l0.7,0l0.7,0l0.7,0l0.7,0l1.3,0l0.7,0l0.7,0l0.7,0l0.7,0l0.7,0l0.7,0l1.3,0l0.7,0l0.7,0l1.3,0l0.7,0l0.7,0
		l1.9,0l1.8,0l0.8,0l0.4,0l0.4,0l0.8,0l0.4,0l0.4,0l0.8,0l0.4,0l0.4,0l0.8,0l0.4,0l0.4,0l0.4,0h0.4l0.4,0l0.4,0l0.8,0h0.4l0.4,0
		l0.8,0h0.4h0.4h0.4l2.1,0h2.2h0.8h0.4h0.4h0.8l0.4,0h0.4l0.8,0l0.4,0h0.4l0.8,0l0.4,0h0.4l0.4,0l0.4,0l0.8,0l0.4,0l0.4,0l1.1,0
		l0.4,0l0.4,0l0.4,0l0.8,0l2.5,0l-0.1-11l6.7,11.1l1.6,0l0.9,0l0.5,0l0.5,0l0.5,0l0.5,0l0.9,0l0.5,0l0.5,0l0.5,0l0.5,0l0.9,0l0.5,0
		l0.5,0l0.9,0l0.9,0l0.4,0l0.4,0l0.9,0l0.4,0l0.4,0l0.9,0l0.4,0l0.4,0l2.2,0.1l2.4,0.1l0.4,0l0.4,0l0.8,0l0.8,0l0.4,0l0.4,0l0.4,0
		l0.4,0l0.8,0l0.4,0l0.4,0l0.4,0l0.4,0l0.7,0l0.9,0l0.7,0l0.4,0l0.4,0l0.4,0l0.4,0l0.7,0l0.4,0l0.4,0l0.5,0l2.4-0.2l2.2-0.5l2.1-0.7
		l1.9-0.8l1.8-1l1.3-0.9v4.9l2.8,0.2l0.8,0.1l0.8,0.1l0.8,0.1l0.8,0.1l0.8,0.1l0.8,0.1l0.8,0.1l0.8,0.1l0.8,0.1l0.8,0.1l0.8,0.1
		l0.8,0.1l0.8,0.1l0.8,0.1l0.7,0.1l0.7,0.1l0.7,0.1l0.7,0.1l0.7,0.1l0.7,0.1l0.7,0.1l0.7,0.1l0.7,0.1l0.7,0.1l0.7,0.1l0.7,0.1
		l0.7,0.1l0.7,0.1l0.7,0.1l0.6,0.1l3,0.4V95.9L232.9,96L232.9,96z M205.7,90l-0.5,0.3v-7.1l0.5,0.2c1,0.4,2.2,1.2,2.3,3.2v0
		C208,88.1,207.2,89.2,205.7,90z"/>
	<g>
		<path class="st5" d="M230.8,65.8v32.3h11v11.8c-6.9-0.9-14.9-1.8-23.8-2.5v-4.9l1-1.1l1.2-1.6l1-1.7l0.9-1.7l0.7-1.8l0.5-1.8
			l0.4-1.9L224,89l0.1-1.9l-0.1-1.9l-0.2-1.9l-0.4-1.9l-0.5-1.8l-0.7-1.8l-0.9-1.7l-1-1.7l-1.2-1.5l-1-1.1v-4.8
			C222.6,66.6,226.8,66.2,230.8,65.8 M202.9,92.8c10.3,0,9.4-12.2,0-12.2V92.8z M191.9,68.5l-0.1,37.3c4.2,0.2,8.3,0.4,12.3,0.6
			c23.5-1.2,24-37.5-0.3-38.5C200,68.1,196,68.3,191.9,68.5 M151.4,104.9V69.3c5.2,0,10.4,0,15.5-0.1l9.4,15.1V69
			c4-0.1,7.9-0.2,11.8-0.4v37c-4.7-0.2-9.5-0.3-14.4-0.4l-10-16.8l0.1,16.6C159.6,105,155.5,104.9,151.4,104.9 M135.7,69.2V105
			c4.1-0.1,8.3-0.1,12.6-0.1V69.3C144,69.3,139.8,69.3,135.7,69.2 M106.5,68.4l4.3,37.2c7.1-0.3,14.6-0.5,22.2-0.6v-8.5h-14.4v-4.9
			h11.9v-8.3h-11.9v-4.6h14.4v-9.7C123.8,69,115,68.8,106.5,68.4 M61.9,64.9l-3.5,44.9c4.6-0.6,9.6-1.2,15.1-1.7l1.7-17.9l8.2,14.8
			l7.8-15.1l1.9,16.8c4.9-0.3,10-0.6,15.3-0.8l-4.1-37.5c-5.3-0.3-10.5-0.5-15.3-0.9l-5.6,12.4l-5.2-13.3
			C72.3,66.1,66.8,65.5,61.9,64.9 M164.4,67.1l0.5,0l0.5,0l0.5,0l0.5,0l1.7,0l6.1,9.8V67l2.4-0.1l0.4,0l0.4,0l0.4,0l0.4,0l0.4,0
			l0.7,0l0.4,0l0.4,0l0.4,0l0.4,0l0.4,0l0.4,0l0.4,0l0.4,0l0.4,0l0.4,0l0.4,0l0.4,0l0.4,0l0.4,0l0.4,0l0.4,0l0.4,0l0.4,0l0.4,0
			l0.4,0l0.4,0l0.4,0l0.4,0l2.3-0.1l0,0l2.4-0.1l0.4,0l0.8,0l0.4,0l0.4,0l0.4,0l0.4,0l0.4,0l0.4,0l0.4,0l0.4,0l0.4,0l0.4,0l0.4,0
			l0.4,0l0.4,0l0.4,0l0.4,0l0.4,0l0.4,0l0.4,0l0.4,0l0.4,0l0.4,0l0.4,0l0.4,0l0.4,0l0.4,0l0.4,0l0.4,0l0.5,0l2.5,0.2l2.3,0.4
			l2.1,0.6l2,0.8l1.8,1l1.4,1V65l2.4-0.2l0.4,0l0.4,0l0.4,0l0.4,0l0.4,0l0.4,0l0.4,0l0.4,0l0.4,0l0.4,0l0.4,0l0.4,0l0.4,0l0.4,0
			l0.4,0l0.4,0l0.4,0l0.4,0l0.4,0l0.4,0l0.4,0l0.4,0l0.4,0l0.4,0l0.4,0l0.4,0l0.4,0l0.4,0l0.4,0l0.4,0l2.7-0.3V96h11v16.3l-3-0.4
			l-0.6-0.1l-0.7-0.1l-0.7-0.1l-0.7-0.1l-0.7-0.1l-0.7-0.1l-0.7-0.1l-0.7-0.1l-0.7-0.1l-0.7-0.1l-0.7-0.1l-0.7-0.1l-0.7-0.1
			l-0.7-0.1l-0.7-0.1l-0.7-0.1l-0.8-0.1l-0.8-0.1l-0.8-0.1l-0.8-0.1l-0.8-0.1l-0.8-0.1l-0.8-0.1l-0.8-0.1l-0.8-0.1l-0.8-0.1
			l-0.8-0.1l-0.8-0.1l-0.8-0.1l-0.8-0.1l-2.8-0.2v-4.9l-1.3,0.9l-1.8,1l-1.9,0.8l-2.1,0.7l-2.2,0.5l-2.4,0.2l-0.5,0l-0.4,0l-0.4,0
			l-0.7,0l-0.4,0l-0.4,0l-0.4,0l-0.4,0l-0.7,0l-0.9,0l-0.7,0l-0.4,0l-0.4,0l-0.4,0l-0.4,0l-0.8,0l-0.4,0l-0.4,0l-0.4,0l-0.4,0
			l-0.8,0l-0.8,0l-0.4,0l-0.4,0l-2.4-0.1l-2.2-0.1l-0.4,0l-0.4,0l-0.9,0l-0.4,0l-0.4,0l-0.9,0l-0.4,0l-0.4,0l-0.9,0l-0.9,0l-0.5,0
			l-0.5,0l-0.9,0l-0.5,0l-0.5,0l-0.5,0l-0.5,0l-0.9,0l-0.5,0l-0.5,0l-0.5,0l-0.5,0l-0.9,0l-1.6,0l-6.7-11.2l0.1,11l-2.5,0l-0.8,0
			l-0.4,0l-0.4,0l-0.4,0l-1.1,0l-0.4,0l-0.4,0l-0.8,0l-0.4,0l-0.4,0h-0.4l-0.4,0l-0.8,0H156l-0.4,0l-0.8,0h-0.4l-0.4,0h-0.8h-0.4
			h-0.4h-0.8h-2.2l-2.1,0H147h-0.4h-0.4l-0.8,0l-0.4,0h-0.4l-0.8,0l-0.4,0l-0.4,0h-0.4l-0.4,0l-0.4,0l-0.4,0l-0.8,0l-0.4,0l-0.4,0
			l-0.8,0l-0.4,0l-0.4,0l-0.8,0l-0.4,0l-0.4,0l-0.8,0l-1.8,0l-1.9,0l-0.7,0l-0.7,0l-1.3,0l-0.7,0l-0.7,0l-1.3,0l-0.7,0l-0.7,0
			l-0.7,0l-0.7,0l-0.7,0l-0.7,0l-1.3,0l-0.7,0l-0.7,0l-0.7,0l-0.7,0l-0.7,0l-0.7,0l-1.3,0l-0.6,0l-0.7,0l-1.2,0l-1.3,0l-2.1,0.1
			l-2.3,0.1l-0.5,0l-0.5,0l-0.5,0l-0.5,0l-0.9,0l-0.5,0l-0.5,0l-0.5,0l-0.5,0l-1,0l-0.5,0l-0.5,0l-0.5,0l-0.5,0l-0.5,0l-0.5,0
			l-0.5,0l-0.5,0l-0.5,0l-0.5,0l-0.5,0l-0.5,0l-0.5,0l-0.5,0l-0.5,0l-0.5,0l-0.9,0.1l-2.5,0.2L90,97l-6.5,12.5l-6.8-12.3L75.5,110
			l-2.2,0.2l-0.5,0l-0.5,0l-0.5,0l-0.5,0l-0.5,0.1l-0.5,0l-0.5,0.1l-0.5,0.1l-0.5,0.1l-0.5,0.1l-0.5,0.1l-0.5,0.1l-0.5,0.1l-0.5,0.1
			l-0.5,0.1l-0.5,0.1l-0.5,0.1l-0.4,0l-0.5,0.1l-0.5,0.1l-0.5,0.1l-0.5,0.1l-0.5,0.1l-0.4,0.1l-0.4,0.1l-0.4,0.1l-0.4,0.1l-0.4,0.1
			l-0.4,0.1l-0.4,0.1l-3,0.4L60,62.5l2.7,0.3l0.5,0.1L64,63l0.9,0.1l0.5,0.1l0.5,0.1l0.5,0.1l0.5,0.1l0.5,0.1l0.5,0.1l1,0.1l0.5,0.1
			l0.5,0.1l0.5,0.1l0.5,0.1l0.5,0.1l0.5,0.1l0.5,0.1L73,64l1.1,0.1l0.5,0l0.5,0l0.5,0l0.5,0l0.5,0l0.5,0l0.5,0l1.9,0.2l3.9,9.8
			l4.1-9.2l1.9,0.1l0.5,0l0.5,0l0.5,0l0.5,0l0.5,0l0.5,0l0.5,0l0.5,0l0.5,0l0.5,0l0.5,0l0.5,0l0.5,0l0.5,0l0.5,0l0.5,0l0.5,0l0.5,0
			l0.5,0l0.5,0l0.5,0l0.5,0l0.5,0l0.5,0l0.5,0l0.5,0l0.5,0l0.5,0l0.5,0l0.5,0l2.1,0.1l2.5,0.1l0.8,0l0.8,0l0.8,0l0.8,0l0.8,0l0.8,0
			l0.8,0l0.8,0l0.8,0l0.8,0l0.8,0l0.8,0l0.8,0l0.8,0l0.8,0l1.5,0l0.8,0l0.8,0l0.8,0l0.8,0l1.6,0l0.8,0l0.8,0l0.8,0l0.8,0l1.6,0
			l0.8,0l2.2,0l1.6,0l0.4,0l0.4,0l0.4,0l0.4,0l0.4,0l0.4,0l0.4,0l0.4,0l0.4,0l0.4,0l0.4,0l0.4,0l0.4,0l0.4,0l0.4,0h0.4l0.4,0l0.4,0
			l0.4,0l0.4,0h0.4l0.4,0h0.4h0.4l0.4,0h0.4l0.4,0h0.4h0.4h0.4l1.9,0l2.1,0h0.5h0.5h0.5h0.5h0.5l1,0l1,0l0.5,0l0.5,0l0.5,0l0.5,0
			l0.5,0l0.5,0l0.5,0l0.5,0l0.5,0l0.5,0l0.9,0l0.5,0l0.5,0l0.5,0l0.5,0L164.4,67.1z M176.9,66.2l0.4,0l0.4,0l0.4,0l0.4,0l0.7,0
			l0.4,0l0.4,0l0.4,0l0.4,0l0.4,0l0.4,0l0.4,0l0.4,0l0.4,0l0.4,0l0.4,0l0.4,0l0.4,0l0.4,0l0.4,0l0.4,0l0.4,0l0.4,0l0.4,0l0.4,0
			l0.4,0l0.4,0l0.4,0l2-0.1l2.6-0.1l0.4,0l0.8,0l0.4,0l0.4,0l0.4,0l0.4,0l0.4,0l0.4,0l0.4,0l0.4,0l0.4,0l0.4,0l0.4,0l0.4,0l0.4,0
			l0.4,0l0.4,0l0.4,0l0.4,0l0.4,0l0.4,0l0.4,0l0.4,0l0.4,0l0.4,0l0.4,0l0.4,0l0.4,0l0.4,0l0.6,0l2.5,0.2l2.3,0.4l2.2,0.7l2,0.8
			l1.9,1l0.4,0.3v-4.2l2.9-0.2l0.4,0l0.4,0l0.4,0l0.4,0l0.4,0l0.4,0l0.4,0l0.8-0.1l0.4,0l0.4,0l0.4,0l0.4,0l0.4,0l0.4,0l0.4,0l0.4,0
			l0.4,0l0.4,0l0.4,0l0.4,0l0.4,0l0.4,0l0.4,0l0.4,0l0.4,0l0.4,0l0.4,0l0.4,0l0.4,0l3.4-0.3v32.6h11V113l-3.8-0.5l-0.6-0.1l-0.7-0.1
			l-0.7-0.1l-0.7-0.1l-0.7-0.1l-0.7-0.1l-0.7-0.1l-0.7-0.1l-0.7-0.1l-0.7-0.1l-0.7-0.1l-0.7-0.1l-0.7-0.1l-0.7-0.1l-0.7-0.1
			l-0.7-0.1l-0.7-0.1l-0.8-0.1l-0.8-0.1l-0.8-0.1l-0.8-0.1l-0.8-0.1l-0.8-0.1l-0.8-0.1l-0.8-0.1l-0.8-0.1l-0.8-0.1l-0.8-0.1
			l-0.8-0.1l-0.8-0.1l-3.4-0.3v-4.3l-0.3,0.2l-1.9,1.1l-2,0.9l-2.1,0.7l-2.3,0.5l-2.5,0.2l-0.6,0l-0.4,0l-0.4,0l-0.7,0l-0.4,0
			l-0.4,0l-0.4,0l-0.4,0l-0.7,0l-0.9,0l-0.7,0l-0.4,0l-0.4,0l-0.4,0l-0.4,0l-0.8,0l-0.4,0l-0.4,0l-0.4,0l-0.4,0l-0.8,0l-0.8,0
			l-0.8,0l-2.7-0.1l-2-0.1l-0.4,0l-0.4,0l-0.9,0l-0.4,0l-0.4,0l-0.9,0l-0.4,0l-0.4,0l-0.9,0l-0.9,0l-0.4,0l-0.5,0l-0.9,0l-0.5,0
			l-0.5,0l-0.5,0l-0.5,0l-0.9,0l-0.5,0l-0.5,0l-0.5,0l-0.5,0l-0.9,0l-2,0l-5.7-9.5l0,9.4l-3.2,0l-0.8,0l-0.4,0l-0.4,0l-0.4,0l-1.1,0
			l-0.4,0l-0.4,0l-0.8,0l-0.4,0l-0.4,0l-0.4,0l-0.4,0l-0.8,0l-0.4,0h-0.4l-0.8,0h-0.4h-0.4l-0.8,0h-0.4h-0.4h-0.8l-2.2,0l-2.1,0
			h-0.4h-0.4h-0.4l-0.8,0h-0.4h-0.4l-0.8,0l-0.4,0h-0.4l-0.4,0l-0.4,0l-0.4,0l-0.4,0l-0.8,0l-0.4,0l-0.4,0l-0.8,0l-0.4,0l-0.4,0
			l-0.8,0l-0.4,0l-0.4,0l-0.8,0l-1.8,0l-1.9,0l-1.4,0l-1.3,0l-0.7,0l-0.7,0l-1.3,0l-0.7,0l-0.7,0l-0.7,0l-0.7,0l-0.7,0l-0.7,0
			l-1.3,0l-0.7,0l-0.7,0l-0.7,0l-0.7,0l-0.7,0l-0.7,0l-1.2,0l-0.6,0l-0.7,0l-1.2,0l-1.3,0l-2.1,0.1l-2.3,0.1l-0.5,0l-0.5,0l-0.5,0
			l-0.5,0l-0.9,0l-0.5,0l-0.5,0l-0.5,0l-0.5,0l-1,0l-0.5,0l-0.5,0l-0.5,0l-0.5,0l-0.5,0l-0.5,0l-0.5,0l-0.5,0l-0.5,0l-0.5,0l-0.5,0
			l-0.5,0l-0.5,0l-0.5,0l-0.5,0l-0.5,0l-0.9,0.1l-3.1,0.2l-1.2-10.4l-6.1,11.7l-6.4-11.6l-1.1,11.4l-2.8,0.3l-0.5,0l-0.5,0l-0.5,0
			l-0.5,0l-0.5,0l-0.5,0l-0.5,0l-0.5,0.1l-0.5,0.1l-0.5,0.1l-0.5,0.1l-0.5,0.1l-0.5,0.1l-0.5,0.1l-0.5,0.1l-0.5,0.1l-0.5,0.1
			l-0.5,0.1l-0.5,0.1l-0.5,0.1l-0.5,0.1l-0.5,0.1l-0.5,0.1l-0.4,0.1l-0.4,0.1l-0.4,0.1l-0.4,0.1l-0.4,0.1l-0.4,0.1l-0.4,0.1
			l-3.8,0.5l4-51.2l3.3,0.4l0.5,0.1l0.9,0.1l0.9,0.1l0.5,0.1l0.5,0.1l0.5,0.1l0.5,0.1l0.5,0.1l0.5,0.1l1,0.1l0.5,0.1L70,63l0.5,0.1
			l0.5,0.1l0.5,0.1l0.5,0.1l0.5,0.1l0.5,0l1.1,0.1l0.5,0l0.5,0l0.5,0l0.5,0l0.5,0l0.5,0l0.5,0l2.2,0.2l3.5,8.8l3.7-8.2l2.4,0.2
			l0.5,0l0.5,0l0.5,0l0.5,0l0.5,0l0.5,0l0.5,0l0.5,0l0.5,0l0.5,0l0.5,0l0.5,0l0.5,0l0.5,0l0.5,0l0.5,0l0.5,0l0.5,0l0.5,0l1,0l0.5,0
			l0.5,0l0.5,0l0.5,0l0.9,0l0.5,0l0.5,0l0.5,0l2.1,0.1l3.3,0.1l1.5,0.1l0.8,0l0.8,0l0.8,0l0.8,0l0.8,0l0.8,0l0.8,0l0.8,0l0.8,0
			l0.8,0l0.8,0l0.8,0l1.5,0l0.8,0l0.8,0l0.8,0l0.8,0l1.6,0l0.8,0l0.8,0l0.8,0l0.8,0l1.6,0l0.8,0l2.2,0l1.6,0l0.4,0l0.4,0l0.4,0
			l0.4,0l0.4,0l0.4,0l0.4,0l0.4,0l0.4,0l0.4,0l0.4,0l0.4,0l0.4,0l0.4,0l0.4,0l0.4,0l0.4,0l0.4,0l0.4,0h0.4l0.4,0h0.4l0.4,0h0.4h0.4
			h0.4h0.4h0.4h0.4h0.4l1.9,0l2.1,0h0.5h0.5h0.5h0.5h0.5l1,0l1,0l0.5,0l0.5,0l0.5,0l0.5,0l0.5,0l0.5,0l0.5,0l0.5,0l0.5,0l0.5,0
			l0.9,0l0.5,0l0.5,0l0.5,0l0.5,0l0.5,0l0.5,0l0.5,0l0.5,0l0.5,0l2,0l5.1,8.2v-8.3l3.1-0.1L176.9,66.2z"/>
		<g>
			<path d="M205.2,90.3v-7.1l0.5,0.2c1,0.4,2.2,1.2,2.3,3.2v0c0,1.5-0.7,2.7-2.3,3.4L205.2,90.3z M205.9,84.3v4.8
				c0.9-0.6,1.4-1.4,1.4-2.5C207.2,85.5,206.7,84.8,205.9,84.3z"/>
		</g>
	</g>
</g>
</svg>
