<?xml version="1.0" encoding="utf-8"?>
<!-- Generator: Adobe Illustrator 24.2.0, SVG Export Plug-In . SVG Version: 6.00 Build 0)  -->
<svg version="1.1" id="Ebene_1" xmlns="http://www.w3.org/2000/svg" xmlns:xlink="http://www.w3.org/1999/xlink" x="0px" y="0px"
	 viewBox="0 0 300 200" style="enable-background:new 0 0 300 200;" xml:space="preserve">
<style type="text/css">
	.st0{fill:#0A1227;}
	.st1{fill-rule:evenodd;clip-rule:evenodd;fill:#0A1227;}
	.st2{fill:url(#path58_2_);}
	.st3{fill-rule:evenodd;clip-rule:evenodd;fill:#194473;}
	.st4{fill:none;stroke:#194473;stroke-width:1.1801;stroke-miterlimit:5.3333;}
	.st5{fill-rule:evenodd;clip-rule:evenodd;}
	.st6{fill:#008948;}
	.st7{fill-rule:evenodd;clip-rule:evenodd;fill:#008948;}
	.st8{fill:#004E9E;}
	.st9{fill:#1A1A18;}
	.st10{fill:#FFFFFF;}
	.st11{fill:#76BC21;}
	.st12{fill:#1D1D1B;}
	.st13{fill-rule:evenodd;clip-rule:evenodd;fill:#1D1D1B;}
	.st14{fill:#E31513;}
	.st15{fill:#E60001;}
	.st16{fill:#333333;}
	.st17{fill:#BBBDC0;}
	.st18{fill:#1D3B6D;}
	.st19{fill-rule:evenodd;clip-rule:evenodd;fill:#1D3B6D;}
	.st20{fill:#FFFFFF;stroke:#BBBDC0;stroke-width:0.275;stroke-miterlimit:3.8637;}
	.st21{fill:#005B53;}
	.st22{fill:#FF6C0E;}
	.st23{fill:#134094;}
	.st24{fill:#D2022F;}
	.st25{fill:#9D9D9C;}
	.st26{fill:#93B894;}
	.st27{filter:url(#Adobe_OpacityMaskFilter);}
	.st28{fill-rule:evenodd;clip-rule:evenodd;fill:#FFFFFF;}
	.st29{mask:url(#logo-hagesued-b_2_);fill:#FF7200;}
	.st30{filter:url(#Adobe_OpacityMaskFilter_1_);}
	.st31{mask:url(#logo-hagesued-d_2_);fill:#7F3D39;}
	.st32{fill:#FEFEFE;}
	.st33{fill:#606060;}
	.st34{filter:url(#Adobe_OpacityMaskFilter_2_);}
	.st35{mask:url(#logo-hagesued-b_1_);fill:#606060;}
	.st36{fill:none;stroke:#000000;stroke-miterlimit:10;}
	.st37{fill:none;}
	.st38{clip-path:url(#SVGID_2_);fill:#444543;}
	.st39{clip-path:url(#SVGID_4_);}
	.st40{clip-path:url(#SVGID_6_);fill:#D0D0D0;}
	.st41{clip-path:url(#SVGID_8_);fill:#D0D0D0;}
	.st42{fill:#1C1C1C;}
	.st43{fill-rule:evenodd;clip-rule:evenodd;fill:#1C1C1C;}
	.st44{fill:#3F3E3C;}
	.st45{fill:#2374BA;}
	.st46{fill:#AEB2B5;}
	.st47{fill-rule:evenodd;clip-rule:evenodd;fill:#164194;}
	.st48{fill:#E30613;}
	.st49{fill-rule:evenodd;clip-rule:evenodd;fill:#DC911B;}
	.st50{fill:#DC911B;}
	.st51{fill:#FF0066;}
</style>
<g>
	<path class="st0" d="M13.3,79.2h41.7v41.7H13.3V79.2z M34.1,117.8c9.8,0,17.8-8,17.8-17.8s-8-17.8-17.8-17.8
		c-9.8,0-17.8,8-17.8,17.8S24.3,117.8,34.1,117.8z M34.1,84.5c5.2,0,9.1,3.9,9.1,8.7c0,2.3-1,4.6-3,6.5l-3.5,3.5l4.3,4.3
		c0.6,0.6,1.2,0.7,2,0.7c1.3,0,2.4,1.1,2.4,2.4c0,1.3-1.1,2.4-2.4,2.4c-1.3,0-2.5-0.7-4.1-2.2l-4.9-4.9l-4.9,4.9
		c-1.6,1.6-2.7,2.2-4.1,2.2c-1.3,0-2.4-1.1-2.4-2.4c0-1.3,1.1-2.4,2.4-2.4c0.8,0,1.4-0.1,2-0.7l4.2-4.3L28,99.7
		c-1.9-1.9-3-4.2-3-6.5C25,88.4,28.9,84.5,34.1,84.5z M25.2,112.2c0.9,0,1.6-0.7,1.6-1.6c0-0.9-0.7-1.6-1.6-1.6
		c-0.9,0-1.6,0.7-1.6,1.6C23.6,111.5,24.3,112.2,25.2,112.2z M31,97.4l3.1,3.1l3.1-3.1c1.6-1.6,2.1-3,2.1-4.2c0-2.7-2.2-4.9-5.2-4.9
		c-3,0-5.2,2.2-5.2,4.9C28.9,94.5,29.4,95.8,31,97.4z M43.1,109c-0.9,0-1.6,0.7-1.6,1.6c0,0.9,0.7,1.6,1.6,1.6
		c0.9,0,1.6-0.7,1.6-1.6C44.7,109.7,44,109,43.1,109z"/>
	<path class="st0" d="M73.9,105.9c0,0.5,0.4,0.9,0.9,0.9h6.6c0.5,0,0.9-0.4,0.9-0.9V91.5h3.8v14.4c0,0.5,0.4,0.9,0.9,0.9h6.6
		c0.5,0,0.9-0.4,0.9-0.9V91.5h3.8v15.1c0,2.1-1.7,3.8-3.8,3.8H73.9c-2.1,0-3.8-1.7-3.8-3.8V91.5h3.8V105.9z M108.7,110.4
		c-2.1,0-3.8-1.7-3.8-3.8V95.3c0-2.1,1.7-3.8,3.8-3.8H122c2.1,0,3.8,1.7,3.8,3.8v7.5h-17v3.1c0,0.5,0.4,0.9,0.9,0.9h16.1v3.6H108.7z
		 M109.7,95.1c-0.5,0-0.9,0.4-0.9,0.9v3.1H122V96c0-0.5-0.4-0.9-0.9-0.9H109.7z M152.1,106.6c0,2.1-1.7,3.8-3.8,3.8h-15.7v-3.6h14.8
		c0.5,0,0.9-0.4,0.9-0.9v-2.2c0-0.5-0.4-0.9-0.9-0.9H136c-2.1,0-3.8-1.7-3.8-3.8v-3.7c0-2.1,1.7-3.8,3.8-3.8h15.7v3.6h-14.8
		c-0.5,0-0.9,0.4-0.9,0.9v2.2c0,0.5,0.4,0.9,0.9,0.9h11.4c2.1,0,3.8,1.7,3.8,3.8V106.6z M171.8,106.8v3.6h-9.5
		c-2.1,0-3.8-1.7-3.8-3.8V83.9h3.8v7.6h9.5v3.6h-9.5v10.8c0,0.5,0.4,0.9,0.9,0.9H171.8z M198.1,110.4h-17c-2.1,0-3.8-1.7-3.8-3.8
		v-3.7c0-2.1,1.7-3.8,3.8-3.8h12.3c0.5,0,0.9-0.4,0.9-0.9V96c0-0.5-0.4-0.9-0.9-0.9h-15.7v-3.6h16.7c2.1,0,3.8,1.7,3.8,3.8V110.4z
		 M193.4,106.8c0.5,0,0.9-0.4,0.9-0.9v-4.1h-0.1c0,0.5-0.4,0.9-0.9,0.9H182c-0.5,0-0.9,0.4-0.9,0.9v2.2c0,0.5,0.4,0.9,0.9,0.9H193.4
		z M209.3,87.5c-0.5,0-0.9,0.4-0.9,0.9v3h9.5v3.6h-9.5v15.3h-3.8V87.7c0-2.1,1.7-3.8,3.8-3.8h9.5v3.6H209.3z M231.8,106.8v3.6h-5.7
		c-2.1,0-3.8-1.7-3.8-3.8V83.9h3.8v22c0,0.5,0.4,0.9,0.9,0.9H231.8z M240.1,110.4c-2.1,0-3.8-1.7-3.8-3.8V95.3
		c0-2.1,1.7-3.8,3.8-3.8h13.3c2.1,0,3.8,1.7,3.8,3.8v7.5h-17v3.1c0,0.5,0.4,0.9,0.9,0.9h16.1v3.6H240.1z M241.1,95.1
		c-0.5,0-0.9,0.4-0.9,0.9v3.1h13.3V96c0-0.5-0.4-0.9-0.9-0.9H241.1z M274,98.2l6.5-6.7h5.3l-9.1,9.2l9.9,9.8h-5.4l-7.2-7.3l-7,7.3
		h-5.3l9.5-9.7l-9.4-9.2h5.4L274,98.2z"/>
</g>
</svg>
