<?xml version="1.0" encoding="utf-8"?>
<!-- Generator: Adobe Illustrator 24.2.0, SVG Export Plug-In . SVG Version: 6.00 Build 0)  -->
<svg version="1.1" id="Ebene_1" xmlns="http://www.w3.org/2000/svg" xmlns:xlink="http://www.w3.org/1999/xlink" x="0px" y="0px"
	 viewBox="0 0 300 200" style="enable-background:new 0 0 300 200;" xml:space="preserve">
<style type="text/css">
	.st0{fill:#0A1227;}
	.st1{fill-rule:evenodd;clip-rule:evenodd;fill:#0A1227;}
	.st2{fill:url(#path58_2_);}
	.st3{fill-rule:evenodd;clip-rule:evenodd;fill:#194473;}
	.st4{fill:none;stroke:#194473;stroke-width:1.1801;stroke-miterlimit:5.3333;}
	.st5{fill-rule:evenodd;clip-rule:evenodd;}
	.st6{fill:#008948;}
	.st7{fill-rule:evenodd;clip-rule:evenodd;fill:#008948;}
	.st8{fill:#004E9E;}
	.st9{fill:#1A1A18;}
	.st10{fill:#FFFFFF;}
	.st11{fill:#76BC21;}
	.st12{fill:#1D1D1B;}
	.st13{fill-rule:evenodd;clip-rule:evenodd;fill:#1D1D1B;}
	.st14{fill:#E31513;}
	.st15{fill:#E60001;}
	.st16{fill:#333333;}
	.st17{fill:#BBBDC0;}
	.st18{fill:#1D3B6D;}
	.st19{fill-rule:evenodd;clip-rule:evenodd;fill:#1D3B6D;}
	.st20{fill:#FFFFFF;stroke:#BBBDC0;stroke-width:0.275;stroke-miterlimit:3.8637;}
	.st21{fill:#005B53;}
	.st22{fill:#FF6C0E;}
	.st23{fill:#134094;}
	.st24{fill:#D2022F;}
	.st25{fill:#9D9D9C;}
	.st26{fill:#93B894;}
	.st27{filter:url(#Adobe_OpacityMaskFilter);}
	.st28{fill-rule:evenodd;clip-rule:evenodd;fill:#FFFFFF;}
	.st29{mask:url(#logo-hagesued-b_2_);fill:#FF7200;}
	.st30{filter:url(#Adobe_OpacityMaskFilter_1_);}
	.st31{mask:url(#logo-hagesued-d_2_);fill:#7F3D39;}
	.st32{fill:#FEFEFE;}
	.st33{fill:#606060;}
	.st34{filter:url(#Adobe_OpacityMaskFilter_2_);}
	.st35{mask:url(#logo-hagesued-b_1_);fill:#606060;}
	.st36{fill:none;stroke:#000000;stroke-miterlimit:10;}
	.st37{fill:none;}
	.st38{clip-path:url(#SVGID_2_);fill:#444543;}
	.st39{clip-path:url(#SVGID_4_);}
	.st40{clip-path:url(#SVGID_6_);fill:#D0D0D0;}
	.st41{clip-path:url(#SVGID_8_);fill:#D0D0D0;}
	.st42{fill:#1C1C1C;}
	.st43{fill-rule:evenodd;clip-rule:evenodd;fill:#1C1C1C;}
	.st44{fill:#3F3E3C;}
	.st45{fill:#2374BA;}
	.st46{fill:#AEB2B5;}
	.st47{fill-rule:evenodd;clip-rule:evenodd;fill:#164194;}
	.st48{fill:#E30613;}
	.st49{fill-rule:evenodd;clip-rule:evenodd;fill:#DC911B;}
	.st50{fill:#DC911B;}
	.st51{fill:#FF0066;}
</style>
<g>
	<path class="st0" d="M224.2,96.4c0.5,0.1,1.1,0.2,1.8,0.2h1.8c0.8,0,1.3,0.1,1.7,0.3c0.4,0.2,0.6,0.5,0.6,1.1s-0.4,1.1-1,1.5
		c-0.6,0.4-1.5,0.6-2.6,0.6c-1.1,0-1.9-0.1-2.5-0.5c-0.6-0.4-0.9-0.8-0.9-1.4C223.1,97.5,223.5,96.9,224.2,96.4 M221,100.1
		c0.3,0.4,0.6,0.8,1.1,1.1c0.5,0.3,1.1,0.5,1.7,0.6c0.6,0.1,1.4,0.2,2.2,0.2c1.1,0,2-0.1,2.9-0.4c0.8-0.2,1.6-0.6,2.2-1
		c0.6-0.4,1.1-0.9,1.4-1.5c0.4-0.6,0.5-1.2,0.5-1.8c0-1.1-0.4-2-1.2-2.5c-0.8-0.5-2-0.8-3.6-0.8h-2.3c-0.8,0-1.3-0.1-1.7-0.4
		c-0.3-0.2-0.5-0.5-0.5-0.9c0-0.3,0.1-0.6,0.1-0.7c0.1-0.2,0.3-0.4,0.5-0.6c0.3,0.1,0.6,0.2,0.9,0.3c0.3,0.1,0.6,0.1,0.9,0.1
		c0.7,0,1.3-0.1,2-0.3s1.1-0.5,1.5-0.8s0.8-0.8,1.1-1.4s0.4-1.2,0.4-1.9c0-0.5-0.1-0.9-0.2-1.3c-0.1-0.4-0.4-0.7-0.6-0.9h2.4v-2.2
		H228c-0.3-0.1-0.6-0.1-0.9-0.2c-0.4-0.1-0.7-0.1-1.1-0.1c-0.7,0-1.3,0.1-2,0.3s-1.2,0.5-1.6,0.9c-0.5,0.4-0.8,0.9-1.1,1.5
		c-0.3,0.6-0.4,1.3-0.4,2c0,0.8,0.1,1.5,0.5,2c0.4,0.6,0.8,1.1,1.2,1.4V91c-0.4,0.3-0.7,0.6-1,1.1c-0.3,0.4-0.4,0.9-0.4,1.4
		c0,0.6,0.1,1,0.4,1.3c0.2,0.4,0.5,0.6,0.8,0.8v0.1c-0.6,0.4-1.1,0.8-1.4,1.3c-0.4,0.5-0.5,1-0.5,1.5
		C220.6,99.2,220.8,99.7,221,100.1 M224.6,89.5c-0.4-0.4-0.6-1.1-0.6-2c0-0.8,0.2-1.5,0.6-1.9c0.4-0.4,1-0.6,1.6-0.6
		s1.2,0.2,1.6,0.7c0.4,0.4,0.6,1.1,0.6,1.9s-0.2,1.5-0.6,2c-0.4,0.4-1,0.7-1.6,0.7C225.6,90.2,225,89.9,224.6,89.5 M235.7,96.2h3.1
		v-8c0.4-1,0.9-1.7,1.5-2.1c0.6-0.4,1.1-0.6,1.6-0.6c0.3,0,0.5,0,0.7,0.1c0.2,0.1,0.4,0.1,0.6,0.1l0.6-2.7c-0.4-0.2-0.8-0.3-1.5-0.3
		c-0.7,0-1.3,0.2-2,0.7c-0.6,0.4-1.2,1.1-1.7,2h-0.1l-0.2-2.3h-2.5L235.7,96.2L235.7,96.2z M244.8,92.6c0.4,0.8,0.8,1.5,1.4,2.2
		c0.6,0.6,1.3,1.1,2,1.3c0.8,0.3,1.5,0.4,2.3,0.4c0.8,0,1.6-0.1,2.4-0.4s1.4-0.8,2-1.3c0.6-0.6,1.1-1.3,1.4-2.2
		c0.4-0.8,0.5-1.8,0.5-2.9s-0.1-2-0.5-2.9c-0.4-0.8-0.8-1.5-1.4-2.2c-0.6-0.6-1.3-1.1-2-1.3c-0.8-0.3-1.5-0.5-2.4-0.5
		c-0.8,0-1.6,0.1-2.3,0.5c-0.8,0.3-1.4,0.8-2,1.3c-0.6,0.6-1.1,1.3-1.4,2.2c-0.4,0.8-0.5,1.8-0.5,2.9
		C244.3,90.8,244.4,91.7,244.8,92.6 M248.2,86.5c0.6-0.8,1.3-1.2,2.2-1.2c1,0,1.7,0.4,2.2,1.2c0.6,0.8,0.8,1.8,0.8,3.2
		c0,1.3-0.3,2.4-0.8,3.2c-0.6,0.8-1.3,1.2-2.2,1.2c-1,0-1.7-0.4-2.2-1.2c-0.6-0.8-0.8-1.8-0.8-3.2C247.5,88.4,247.8,87.3,248.2,86.5
		 M259.4,91.4c0,1.7,0.4,3,1,3.9c0.6,0.9,1.7,1.3,3.1,1.3c0.9,0,1.7-0.2,2.4-0.6c0.6-0.4,1.3-1,1.8-1.6h0.1l0.2,1.9h2.5V83.2h-3.1
		v8.9c-0.5,0.6-1,1.1-1.4,1.4c-0.4,0.3-0.9,0.4-1.5,0.4c-0.7,0-1.2-0.2-1.5-0.6s-0.5-1.2-0.5-2.3v-7.8h-3.1V91.4L259.4,91.4z
		 M276.9,95.1c0.6,0.5,1.1,0.8,1.7,1.1c0.6,0.3,1.1,0.4,1.7,0.4c0.7,0,1.4-0.1,2.1-0.5c0.7-0.4,1.3-0.8,1.8-1.4
		c0.5-0.6,0.9-1.3,1.3-2.2c0.3-0.9,0.5-1.9,0.5-3c0-1-0.1-1.9-0.4-2.7c-0.2-0.8-0.6-1.5-1-2.1c-0.4-0.6-1-1.1-1.6-1.3
		c-0.6-0.3-1.3-0.5-2.2-0.5c-0.7,0-1.4,0.1-2.1,0.5c-0.7,0.4-1.3,0.7-1.8,1.2h-0.1l-0.2-1.4H274v18.3h3.1v-4.1L276.9,95.1
		L276.9,95.1z M277,86.8c1-1,2-1.5,2.9-1.5c1,0,1.7,0.4,2.2,1.1c0.4,0.7,0.6,1.8,0.6,3.1c0,1.5-0.3,2.6-0.9,3.4
		c-0.6,0.8-1.3,1.1-2.2,1.1c-0.4,0-0.8-0.1-1.3-0.2c-0.4-0.1-0.9-0.4-1.4-0.8L277,86.8L277,86.8z"/>
	<path class="st0" d="M125.1,97.1h-11c-0.6,0-0.9,0.4-0.9,1v3.6c0,0.6,0.4,1,0.9,1h5.9v7c-1.5,1.1-3.9,1.8-6.2,1.8
		c-4.4,0-7-2.4-7-6.3V94.8c0-4.1,2.5-6.4,6.7-6.4c3,0,5.6,0.7,8,2.2c0.7,0.4,1.1,0,1.3-0.3l2.3-3.2c0.1-0.2,0.2-0.5,0.2-0.7
		s-0.1-0.4-0.5-0.6c-3.2-2-7.3-3.2-11.2-3.2c-6,0-12.9,3.2-12.9,12.1v10.5c0,9,7.1,12.2,13.2,12.2c4.7,0,8.9-1.8,12-4.9
		c0.3-0.2,0.4-0.6,0.4-0.9V98.1C126.1,97.5,125.8,97.1,125.1,97.1"/>
	<path class="st0" d="M213.9,115.7l-11.1-31.8c-0.2-0.5-0.5-0.8-1-0.8h-5.3c-0.5,0-0.8,0.3-1,0.8l-11.1,31.8
		c-0.1,0.4-0.1,0.6,0.1,0.8c0.1,0.2,0.4,0.3,0.7,0.3h4.6c0.5,0,0.8-0.3,1.1-0.8l2.2-6.8h12.3l2.2,6.8c0.1,0.5,0.5,0.8,1.1,0.8h4.6
		c0.4,0,0.6-0.1,0.7-0.3C213.9,116.4,214.1,116.1,213.9,115.7 M203.5,103.7h-8.8l4.4-13.5L203.5,103.7L203.5,103.7z"/>
	<path class="st0" d="M93,83.2h-4.3c-0.6,0-0.9,0.4-0.9,1v31.8c0,0.6,0.4,1,0.9,1H93c0.6,0,0.9-0.4,0.9-1V84.1
		C93.9,83.5,93.6,83.2,93,83.2"/>
	<path class="st0" d="M153.5,111.2h-14.6v-8.4h12.8c0.6,0,1-0.4,1-1v-3.7c0-0.6-0.4-1-1-1h-12.7v-8.3h13.9c0.6,0,1-0.4,1-0.9v-3.7
		c0-0.6-0.4-1-1-1h-19.2c-0.6,0-0.9,0.4-0.9,1v31.8c0,0.6,0.4,1,0.9,1h19.8c0.6,0,1-0.4,1-1v-3.8
		C154.5,111.6,154.1,111.2,153.5,111.2"/>
	<path class="st0" d="M173.2,83.2h-11.7c-0.6,0-0.9,0.4-0.9,1v31.8c0,0.6,0.4,1,0.9,1h4.3c0.6,0,0.9-0.4,0.9-1v-9.6h6.5
		c7.5,0,11.9-4.4,11.9-11.7C185.1,87.4,180.7,83.2,173.2,83.2 M166.6,88.9h5.9c4.4,0,6.3,1.8,6.3,5.8c0,4.1-2,5.9-6.3,5.9h-5.9V88.9
		L166.6,88.9z"/>
	<path class="st0" d="M50.8,127c1.6-0.6,3-1.5,4.1-2.5c0.1-0.1,1.6-1.4,2.7-3.9c0.7-1.4,1.1-2.9,1.3-4.4c0.2-1.9-0.1-3.8-0.7-5.7
		c-0.5-1.4-1.3-2.7-2.2-4.1l-0.4-0.4H39.8c2.5,3.5,3.2,4.7,4.1,7.4c0.6,1.8,0.8,3.6,0.7,5.1c-0.1,0.4-0.1,1-0.2,1.5v0.1h-0.1
		l-10.5,0.6c-0.1,0.9-0.3,2.7,0.3,4.1l0,0c0.3,0.9,0.9,1.7,1.6,2.1c0.5,0.4,1.3,0.6,1.6,0.8l0,0C41.4,129.1,46.6,128.8,50.8,127
		 M36.6,125.6c-0.4-0.3-0.7-0.6-0.9-1.2c-0.3-0.8-0.3-1.7-0.3-2v-0.1l0,0l8.4-0.5l-0.1,0.2c-0.8,1.8-1.9,3.1-3.4,3.8
		c-0.1,0.1-0.1,0.1-0.3,0.1C39,126.4,37.5,126.3,36.6,125.6 M42.2,127h-0.4c0,0,4.1-2.2,4.8-8.2c0.2-1.8-0.1-3.8-0.8-5.8
		c-1.1-3.2-2.5-5.1-2.5-5.1h11.3l0,0c0.8,1.2,1.4,2.3,1.8,3.5c2.4,7-2.5,11.7-2.7,12c-0.9,0.9-2.1,1.7-3.6,2.3
		C47.7,126.5,45,127.1,42.2,127"/>
	<path class="st0" d="M72.1,100.4c-0.1-1.8-0.5-3.4-1.1-4.6c0-0.1-0.8-2-2.8-3.8c-1.1-1.1-2.4-2-3.8-2.5c-1.7-0.8-3.6-1.1-5.6-1.1
		c-1.5,0-3,0.4-4.6,0.8l-0.6,0.2l-4.9,15c4.1-1.3,5.4-1.5,8.3-1.6c2-0.1,3.7,0.3,5.1,0.9c0.4,0.1,0.8,0.4,1.3,0.7l0.1,0.1v0.1
		l-2.7,10.1c0.8,0.4,2.5,1.1,4,1.1l0,0c1,0,1.8-0.4,2.5-0.9c0.4-0.4,1.1-1.1,1.2-1.3l0,0C71.1,109.9,72.4,105,72.1,100.4
		 M66.4,113.5c-0.4,0.4-0.8,0.5-1.4,0.5c-0.8,0-1.7-0.2-2-0.4l-0.1-0.1l0,0l2.1-8.2l0.1,0.1c1.5,1.3,2.3,2.8,2.5,4.4
		c0,0.1,0,0.2,0,0.3C67.8,111.4,67.2,112.8,66.4,113.5 M69.3,108.6l-0.1,0.4c0,0-0.8-4.6-6.3-7.1c-1.7-0.8-3.7-1.1-5.8-1.1
		c-3.4,0.1-5.6,0.8-5.6,0.8L55,90.8h0.1c1.3-0.4,2.7-0.6,3.9-0.6c7.4-0.1,10.3,6,10.5,6.3c0.6,1.1,1,2.5,1.1,4.1
		C70.7,103.1,70.3,105.9,69.3,108.6"/>
	<path class="st0" d="M53.3,71.9c-1.7-0.4-3.4-0.6-4.8-0.4c-0.1,0-2.1,0.2-4.5,1.5c-1.4,0.7-2.6,1.7-3.6,2.8c-1.3,1.4-2.2,3.1-2.7,5
		c-0.4,1.4-0.6,3-0.6,4.6V86l12.8,9.3c0-4.4,0.2-5.7,1-8.4c0.6-1.9,1.4-3.4,2.5-4.6c0.3-0.3,0.7-0.7,1.1-1.1l0.1-0.1l0.1,0.1
		l8.8,5.7c0.7-0.6,1.8-2,2.2-3.5l0,0c0.3-0.9,0.3-1.9-0.1-2.7c-0.2-0.6-0.7-1.3-0.8-1.5l0,0C62.1,75.8,57.7,73,53.3,71.9 M64,81.4
		c0.2,0.4,0.2,1,0.1,1.5c-0.3,0.8-0.8,1.5-1,1.8L63,84.8l0,0l-7.2-4.6l0.2-0.1c1.7-1,3.4-1.3,5-1.1c0.1,0,0.2,0,0.3,0.1
		C62.4,79.4,63.6,80.4,64,81.4 M60.3,77.1l0.3,0.2c0,0-4.6-0.6-8.7,3.8c-1.3,1.3-2.2,3.1-2.8,5.1c-1,3.2-1,5.6-1,5.6l-9.1-6.6v-0.1
		c0.1-1.4,0.3-2.7,0.6-3.9c2.1-7,8.9-8,9.3-8c1.3-0.2,2.7-0.1,4.2,0.3C55.5,74.1,58,75.3,60.3,77.1"/>
	<path class="st0" d="M20.4,81c-0.9,1.5-1.6,3-1.8,4.4c0,0.1-0.4,2.1,0,4.7c0.3,1.5,0.8,3,1.5,4.3c0.9,1.6,2.2,3,3.9,4.1
		c1.2,0.8,2.7,1.4,4.2,2l0.6,0.1l12.8-9.3c-4.1-1.3-5.3-1.9-7.7-3.6c-1.6-1.1-2.8-2.4-3.6-3.7c-0.2-0.4-0.5-0.8-0.7-1.3l-0.1-0.1
		l0.1-0.1l8.2-6.6c-0.4-0.8-1.3-2.3-2.6-3.2l0,0c-0.8-0.6-1.7-0.8-2.5-0.7c-0.6,0-1.5,0.3-1.8,0.4l0,0C26.9,73.9,22.8,77.1,20.4,81
		 M32.8,73.7c0.5-0.1,1,0.1,1.5,0.4c0.7,0.5,1.2,1.2,1.4,1.5l0.1,0.1l0,0l-6.6,5.5L29,81c-0.4-1.9-0.3-3.7,0.5-5.1
		c0.1-0.1,0.1-0.1,0.1-0.2C30.4,74.6,31.7,73.8,32.8,73.7 M27.5,76l0.3-0.2c0,0-2,4.2,0.9,9.4c0.9,1.6,2.2,3,4,4.3
		c2.7,2,5,2.7,5,2.7l-9.1,6.6h-0.1c-1.3-0.5-2.5-1.1-3.5-1.8c-6-4.2-4.9-11-4.8-11.2c0.2-1.3,0.7-2.6,1.5-3.9
		C23.2,79.6,25.1,77.5,27.5,76"/>
	<path class="st0" d="M18.9,115.1c1.1,1.3,2.4,2.5,3.6,3.1c0.1,0.1,1.8,1.1,4.5,1.4c1.5,0.2,3.1,0.1,4.6-0.1
		c1.8-0.4,3.6-1.2,5.2-2.5c1.2-0.9,2.2-2.1,3.2-3.4l0.4-0.5l-4.9-15c-2.6,3.5-3.4,4.5-5.8,6.2c-1.5,1.2-3.1,2-4.6,2.2
		c-0.4,0.1-1,0.2-1.5,0.2h-0.1l-0.1-0.1l-3.8-9.8c-0.9,0.1-2.6,0.6-3.9,1.5l0,0c-0.8,0.6-1.3,1.3-1.5,2.2c-0.1,0.6-0.2,1.5-0.2,1.8
		l0,0C14.1,106.8,16,111.6,18.9,115.1 M15.8,101.1c0.1-0.5,0.4-0.9,0.8-1.3c0.7-0.5,1.5-0.8,1.8-0.8h0.1l0,0l3.1,7.9h-0.2
		c-2-0.1-3.5-0.8-4.6-2c-0.1-0.1-0.1-0.1-0.2-0.2C15.9,103.6,15.6,102.1,15.8,101.1 M16.3,106.8l-0.1-0.4c0,0,3.4,3.2,9.3,2
		c1.8-0.4,3.6-1.2,5.3-2.5c2.7-2,4.1-3.9,4.1-3.9l3.5,10.8l-0.1,0.1c-0.8,1.1-1.8,2-2.8,2.8c-5.8,4.4-12,1.2-12.2,1.1
		c-1.1-0.6-2.2-1.5-3.3-2.7C18.4,112,17,109.5,16.3,106.8"/>
</g>
</svg>
