<?xml version="1.0" encoding="utf-8"?>
<!-- Generator: Adobe Illustrator 24.2.0, SVG Export Plug-In . SVG Version: 6.00 Build 0)  -->
<svg version="1.1" id="Ebene_1" xmlns="http://www.w3.org/2000/svg" xmlns:xlink="http://www.w3.org/1999/xlink" x="0px" y="0px"
	 viewBox="0 0 300 200" style="enable-background:new 0 0 300 200;" xml:space="preserve">
<style type="text/css">
	.st0{fill:#0A1227;}
	.st1{fill-rule:evenodd;clip-rule:evenodd;fill:#0A1227;}
	.st2{fill:url(#path58_2_);}
	.st3{fill-rule:evenodd;clip-rule:evenodd;fill:#194473;}
	.st4{fill:none;stroke:#194473;stroke-width:1.1801;stroke-miterlimit:5.3333;}
	.st5{fill-rule:evenodd;clip-rule:evenodd;}
	.st6{fill:#008948;}
	.st7{fill-rule:evenodd;clip-rule:evenodd;fill:#008948;}
	.st8{fill:#004E9E;}
	.st9{fill:#1A1A18;}
	.st10{fill:#FFFFFF;}
	.st11{fill:#76BC21;}
	.st12{fill:#1D1D1B;}
	.st13{fill-rule:evenodd;clip-rule:evenodd;fill:#1D1D1B;}
	.st14{fill:#E31513;}
	.st15{fill:#E60001;}
	.st16{fill:#333333;}
	.st17{fill:#BBBDC0;}
	.st18{fill:#1D3B6D;}
	.st19{fill-rule:evenodd;clip-rule:evenodd;fill:#1D3B6D;}
	.st20{fill:#FFFFFF;stroke:#BBBDC0;stroke-width:0.275;stroke-miterlimit:3.8637;}
	.st21{fill:#005B53;}
	.st22{fill:#FF6C0E;}
	.st23{fill:#134094;}
	.st24{fill:#D2022F;}
	.st25{fill:#9D9D9C;}
	.st26{fill:#93B894;}
	.st27{filter:url(#Adobe_OpacityMaskFilter);}
	.st28{fill-rule:evenodd;clip-rule:evenodd;fill:#FFFFFF;}
	.st29{mask:url(#logo-hagesued-b_2_);fill:#FF7200;}
	.st30{filter:url(#Adobe_OpacityMaskFilter_1_);}
	.st31{mask:url(#logo-hagesued-d_2_);fill:#7F3D39;}
	.st32{fill:#FEFEFE;}
	.st33{fill:#606060;}
	.st34{filter:url(#Adobe_OpacityMaskFilter_2_);}
	.st35{mask:url(#logo-hagesued-b_1_);fill:#606060;}
	.st36{fill:none;stroke:#000000;stroke-miterlimit:10;}
	.st37{fill:none;}
	.st38{clip-path:url(#SVGID_2_);fill:#444543;}
	.st39{clip-path:url(#SVGID_4_);}
	.st40{clip-path:url(#SVGID_6_);fill:#D0D0D0;}
	.st41{clip-path:url(#SVGID_8_);fill:#D0D0D0;}
	.st42{fill:#3F3E3C;}
	.st43{fill:#2374BA;}
	.st44{fill:#AEB2B5;}
	.st45{fill-rule:evenodd;clip-rule:evenodd;fill:#164194;}
	.st46{fill:#E30613;}
	.st47{fill-rule:evenodd;clip-rule:evenodd;fill:#DC911B;}
	.st48{fill:#DC911B;}
	.st49{fill:#FF0066;}
</style>
<g>
	<path class="st0" d="M26.8,84.8c4,0,8,0,11.9,0c0.7,0,1,0.2,0.9,0.9c-0.1,1,0,2.1,0,3.1c0,0.7-0.2,0.9-0.9,0.9c-3.9,0-7.9,0-11.8,0
		c-1,0-1.1,0-1.1,1.1c0,5.6,0,11.1,0,16.7c0,1.1,0,1.1-1.1,1.1c-3.3,0-6.6,0-9.9,0c-0.7,0-0.9-0.2-0.9-0.9c0-7.3,0-14.6,0-21.9
		c0-1,0-1,0.9-1C18.9,84.8,22.9,84.8,26.8,84.8z"/>
	<path class="st0" d="M26.8,115.2c-3.9,0-7.9,0-11.8,0c-0.9,0-1,0-1-1c0-1,0-2,0-3c0-0.7,0.2-0.9,0.9-0.9c4,0,7.9,0,11.9,0
		c1.1,0,1.1,0,1.1-1.1c0-5.6,0-11.2,0-16.8c0-1,0-1,1-1c3.3,0,6.6,0,9.9,0c0.6,0,0.9,0.2,0.9,0.9c0,7.3,0,14.6,0,21.9
		c0,0.7-0.2,0.9-0.9,0.9C34.8,115.2,30.8,115.2,26.8,115.2z"/>
	<path class="st0" d="M224.2,99.7c-1.1,2.5-2.2,4.9-3.3,7.4c-0.3,0.7-0.8,0.9-1.5,1c-1.4,0.1-2.1-0.4-2.5-1.7
		c-0.9-2.3-2-4.6-3.2-6.9c0,0.2,0,0.5,0,0.7c0,3.2,0,6.4,0,9.6c0,0.9,0,1-1,1c-0.7,0-1.5,0-2.2,0c-0.6,0-0.8-0.2-0.8-0.9
		c0-3,0-6,0-9.1c0-3.1,0-6.1,0-9.2c0-0.9,0.1-1,1-1c0.8,0,1.6,0,2.4,0c0.6,0,0.9,0.2,1.2,0.8c1.5,3.3,2.9,6.6,4.4,9.9
		c0.1,0.3,0.3,0.6,0.5,1c0.2-0.4,0.3-0.6,0.4-0.9c1.5-3.3,2.9-6.7,4.4-10c0.3-0.6,0.6-0.8,1.3-0.8c0.8,0,1.6,0,2.4,0
		c0.6,0,0.9,0.2,0.9,0.9c0,2,0,4,0,6c0,4.1,0,8.2,0,12.2c0,1,0,1-1,1c-0.7,0-1.4,0-2.1,0c-0.7,0-0.9-0.3-0.9-0.9c0-3.1,0-6.1,0-9.2
		c0-0.3,0-0.7,0-1C224.3,99.7,224.3,99.7,224.2,99.7z"/>
	<path class="st0" d="M141,98.3c0,0.5,0,1,0,1.5c0,3.3,0,6.7,0,10c0,1.1,0,1.1-1.1,1.1c-0.7,0-1.3,0-2,0c-0.7,0-0.9-0.2-0.9-0.9
		c0-3.1,0-6.3,0-9.4c0-2.9,0-5.8,0-8.7c0-1.1,0-1.1,1.1-1.1c0.8,0,1.5,0,2.3,0c0.6,0,0.9,0.2,1.2,0.7c2.2,3.9,4.3,7.7,6.5,11.6
		c0.1,0.1,0.1,0.2,0.4,0.4c0-0.2,0-0.5,0-0.7c0-3.6,0-7.3,0-10.9c0-1,0-1,1.1-1c0.7,0,1.4,0,2.1,0c0.7,0,0.9,0.3,0.9,0.9
		c0,4.1,0,8.3,0,12.4c0,2,0,4,0,6c0,0.7-0.2,0.9-0.9,0.9c-0.9,0-1.7,0-2.6,0c-0.6,0-0.9-0.2-1.1-0.7c-2.1-3.8-4.3-7.6-6.4-11.3
		c-0.1-0.2-0.2-0.4-0.4-0.6C141.1,98.3,141.1,98.3,141,98.3z"/>
	<path class="st0" d="M262.7,103.4c0-0.3,0-0.5,0-0.8c0-3.6,0-7.3,0-10.9c0-0.9,0.1-1,1-1c0.7,0,1.4,0,2.1,0c0.9,0,1,0.1,1,1
		c0,5.2,0,10.5,0,15.7c0,0.9,0,1.7,0,2.6c0,0.7-0.2,0.9-0.9,0.9c-0.8,0-1.6,0-2.4,0c-0.6,0-1-0.2-1.3-0.8c-2.1-3.8-4.3-7.6-6.4-11.3
		c-0.1-0.2-0.2-0.3-0.5-0.5c0,0.3,0,0.5,0,0.8c0,3.6,0,7.1,0,10.7c0,1-0.1,1.1-1.1,1.1c-0.6,0-1.3,0-1.9,0c-0.9,0-1,0-1-1
		c0-3.6,0-7.2,0-10.8c0-2.5,0-5,0-7.5c0-0.7,0.3-0.9,0.9-0.9c0.8,0,1.6,0,2.4,0c0.7,0,1.1,0.3,1.4,0.9c2.1,3.7,4.1,7.4,6.2,11.1
		c0.1,0.3,0.3,0.5,0.5,0.8C262.6,103.4,262.6,103.4,262.7,103.4z"/>
	<path class="st0" d="M282,103.4c0-2.5,0-5,0-7.5c0-1.4,0-2.8,0-4.2c0-0.7,0.3-0.9,0.9-0.9c0.7,0,1.5,0,2.2,0c0.6,0,0.9,0.2,0.9,0.9
		c0,1.8,0,3.6,0,5.4c0,4.2,0,8.5,0,12.7c0,1.1,0,1.1-1.1,1.1c-0.7,0-1.5,0-2.2,0c-0.6,0-1-0.2-1.3-0.8c-2.1-3.8-4.2-7.5-6.4-11.3
		c-0.1-0.2-0.3-0.4-0.4-0.6c-0.1,0-0.1,0-0.2,0c0,0.3,0,0.5,0,0.8c0,3.6,0,7.3,0,10.9c0,0.9,0,0.9-0.9,0.9c-0.7,0-1.5,0-2.2,0
		c-0.6,0-0.8-0.2-0.8-0.8c0-3,0-6,0-9c0-3.1,0-6.3,0-9.4c0-0.7,0.2-1,0.9-0.9c0.8,0,1.6,0,2.4,0c0.6,0,1,0.2,1.3,0.8
		c2.1,3.8,4.2,7.5,6.3,11.3c0.1,0.2,0.3,0.4,0.4,0.7C281.9,103.5,281.9,103.4,282,103.4z"/>
	<path class="st0" d="M100.4,100.8c0,3,0,6.1,0,9.1c0,0.9-0.1,0.9-0.9,1c-0.9,0-1.8,0-2.7,0c-0.6,0-0.8-0.2-0.8-0.8
		c0-2.2,0-4.3,0-6.5c0-0.7-0.2-0.9-0.9-0.9c-1.7,0-3.4,0-5.1,0c-0.7,0-0.9,0.2-0.9,0.9c0,2.2,0,4.3,0,6.5c0,0.7-0.2,0.9-0.9,0.9
		c-0.9,0-1.8,0-2.7,0c-0.6,0-0.9-0.2-0.9-0.8c0-6.2,0-12.4,0-18.6c0-0.6,0.2-0.8,0.8-0.8c1,0,1.9,0,2.9,0c0.6,0,0.8,0.2,0.8,0.8
		c0,2.1,0,4.3,0,6.4c0,0.7,0.2,0.9,0.9,0.9c1.7,0,3.4,0,5.1,0c0.7,0,0.9-0.2,0.9-0.9c0-2.1,0-4.2,0-6.3c0-0.7,0.2-1,0.9-0.9
		c0.9,0,1.8,0,2.7,0c0.6,0,0.8,0.2,0.8,0.9C100.4,94.6,100.4,97.7,100.4,100.8z"/>
	<path class="st0" d="M167.8,99.6c1,0,2,0,3,0c0.5,0,0.7,0.1,0.7,0.7c-0.1,1.7-0.1,3.4-0.3,5c-0.6,3.4-3.3,5.6-6.7,5.9
		c-2.1,0.1-4.1-0.2-5.8-1.4c-1.7-1.3-2.6-3.1-2.8-5.2c-0.2-2.5-0.3-5,0-7.5c0.6-5.4,4.7-6.9,8.6-6.6c2.5,0.2,4.6,1.1,5.9,3.4
		c0.1,0.2,0.2,0.4,0.3,0.6c0.3,0.5,0.1,0.8-0.4,1c-0.7,0.3-1.5,0.6-2.2,0.9c-0.6,0.3-1,0.2-1.4-0.4c-0.8-1.3-2.1-1.7-3.5-1.6
		c-1.7,0.2-2.8,1.3-2.9,3.1c-0.1,2.2-0.1,4.5,0,6.8c0,1.2,0.6,2.3,1.9,2.8c1.3,0.5,2.5,0.4,3.7-0.4c1.1-0.7,1.2-1.9,1.2-3.1
		c0-0.1-0.4-0.3-0.6-0.3c-0.6,0-1.3,0-1.9,0c-0.4,0-0.7-0.2-0.7-0.6c0-0.7,0-1.4,0-2.2c0-0.5,0.3-0.7,0.8-0.7
		C165.7,99.6,166.8,99.6,167.8,99.6z"/>
	<path class="st0" d="M174.7,100.8c0-3,0-6,0-9.1c0-0.9,0.1-1,1-1c3.8,0,7.7,0,11.5,0c0.9,0,1,0.1,1,1c0,0.6,0,1.2,0,1.9
		c0,1,0,1-1,1c-2.4,0-4.8,0-7.1,0c-0.9,0-0.9,0-0.9,1c0,0.7,0,1.5,0,2.2c0,1,0,1,1,1c1.9,0,3.7,0,5.6,0c1,0,1,0,1,1
		c0,0.6,0,1.2,0,1.8c0,1,0,1-1,1c-1.8,0-3.6,0-5.5,0c-1.2,0-1.2,0-1.2,1.2c0,0.8,0,1.6,0,2.4c0,0.6,0.2,0.8,0.8,0.8
		c2.4,0,4.8,0,7.3,0c1,0,1,0,1,1c0,0.7,0,1.4,0,2.2c0,0.5-0.2,0.7-0.7,0.7c-4.1,0-8.1,0-12.2,0c-0.7,0-0.7-0.4-0.7-0.9
		C174.7,106.9,174.7,103.9,174.7,100.8z"/>
	<path class="st0" d="M120.4,100.8c0-3,0-6.1,0-9.1c0-0.9,0.1-0.9,0.9-0.9c3.9,0,7.7,0,11.6,0c0.9,0,0.9,0.1,0.9,0.9
		c0,0.6,0,1.2,0,1.9c0,1,0,1.1-1.1,1.1c-2.4,0-4.7,0-7.1,0c-0.7,0-1,0.2-0.9,0.9c0.1,0.8,0,1.7,0,2.5c0,0.6,0.2,0.8,0.8,0.7
		c2,0,4,0,6,0c0.7,0,1,0.2,0.9,0.9c0,0.7,0,1.4,0,2.1c0,0.7-0.2,0.9-0.9,0.9c-1.9,0-3.9,0-5.8,0c-0.9,0-0.9,0-0.9,1
		c0,0.9,0,1.7,0,2.6c0,0.6,0.2,0.8,0.8,0.8c2.4,0,4.8,0,7.3,0c1,0,1,0,1.1,1.1c0,0.6,0,1.2,0,1.9c0,0.9-0.1,0.9-0.9,0.9
		c-2.8,0-5.7,0-8.5,0c-1,0-2.1,0-3.1,0c-0.9,0-0.9,0-0.9-0.9C120.4,106.9,120.4,103.9,120.4,100.8z"/>
	<path class="st0" d="M56.6,111.2c-2.1-0.1-4.6-0.7-6.8-2.4c-0.7-0.5-0.7-0.7-0.1-1.3c0.5-0.6,1.1-1.2,1.6-1.9
		c0.4-0.5,0.7-0.5,1.2-0.1c1.6,1.2,3.4,2,5.4,1.7c0.6-0.1,1.3-0.3,1.8-0.6c0.7-0.4,0.9-1.2,0.8-2c-0.1-0.7-0.5-1.2-1.2-1.4
		c-1.2-0.3-2.3-0.5-3.5-0.7c-0.8-0.2-1.7-0.4-2.5-0.8c-2.2-1-3.2-2.7-3.2-5.1c0-2.3,0.9-4.2,3-5.3c2.3-1.2,4.7-1.3,7.1-0.6
		c1.2,0.3,2.4,1,3.5,1.5c0.5,0.2,0.5,0.5,0.2,1c-0.5,0.7-1,1.4-1.4,2.1c-0.3,0.5-0.6,0.5-1.1,0.2c-1.4-0.9-2.9-1.4-4.6-1.3
		c-1.1,0.1-1.9,0.6-2.2,1.5c-0.3,1,0.1,1.9,1.1,2.2c1,0.3,2.1,0.5,3.1,0.7c1.3,0.2,2.6,0.6,3.8,1.3c3.2,1.9,3.4,8.1-0.8,10.2
		C60.4,110.9,58.8,111.2,56.6,111.2z"/>
	<path class="st0" d="M71.8,101.1c0.1,1,0.1,2.2,0.3,3.5c0.3,1.6,1.2,2.4,2.5,2.6c1.4,0.2,2.7-0.3,3.4-1.7c0.4-0.7,0.7-0.7,1.3-0.4
		c0.7,0.4,1.5,0.7,2.3,1c0.5,0.2,0.6,0.5,0.3,1c-1,2-2.5,3.4-4.7,3.8c-2.8,0.6-5.5,0.3-7.7-1.9c-1.1-1.1-1.7-2.5-1.9-4
		c-0.4-2.8-0.5-5.7,0-8.5c0.5-2.8,1.9-5,4.8-5.8c3-0.8,5.8-0.5,8.2,1.8c0.5,0.5,0.9,1.2,1.3,1.9c0.3,0.5,0.2,0.8-0.3,1
		c-0.8,0.3-1.6,0.7-2.4,1.1c-0.6,0.3-0.9,0.2-1.2-0.4c-0.8-1.5-2.2-2.1-3.8-1.7c-1.3,0.3-2.2,1.5-2.3,3.2
		C71.9,98.7,71.8,99.8,71.8,101.1z"/>
	<path class="st0" d="M104.1,100.8c0-3,0-6.1,0-9.1c0-0.7,0.2-1,0.9-0.9c0.8,0,1.7,0,2.5,0c1,0,1,0.1,1,1c0,3.2,0,6.4,0,9.6
		c0,1.6,0,3.1,0,4.7c0,0.9,0,0.9,0.9,0.9c2.5,0,4.9,0,7.4,0c0.7,0,1,0.2,0.9,1c-0.1,0.8,0,1.5,0,2.3c0,0.5-0.2,0.7-0.7,0.7
		c-4.1,0-8.2,0-12.3,0c-0.7,0-0.7-0.4-0.7-0.9C104.2,106.9,104.2,103.9,104.1,100.8z"/>
	<path class="st0" d="M206.7,110c-1.1-2.2-2.2-4.5-3.4-6.7c-0.2-0.4-0.2-0.7,0.2-1c2.5-1.6,3.5-4.1,2.8-6.9
		c-0.6-2.6-2.7-4.4-5.6-4.6c-2.8-0.2-5.6-0.1-8.4-0.1c-0.9,0-0.9,0.1-0.9,1c0,3,0,6.1,0,9.1c0,3.1,0,6.1,0,9.2
		c0,0.6,0.2,0.9,0.8,0.9c0.9,0,1.8,0,2.7,0c0.6,0,0.9-0.2,0.8-0.8c0-1.6,0-3.2,0-4.8c0-2,0-2,2-2c0.6,0,0.9,0.2,1.2,0.8
		c0.9,2.1,1.9,4.1,2.9,6.1c0.2,0.5,0.6,0.8,1.2,0.7c1.1,0,2.1,0,3.2,0C207,110.9,207.1,110.8,206.7,110z M200.1,99.4
		c-1.3,0.2-2.6,0.1-3.9,0.1c-0.2,0-0.4-0.4-0.4-0.6c0-0.1,0-0.3,0-0.4c0-0.4,0-0.9,0-1.3c0-0.6,0-1.2,0-1.8c0-0.4,0.2-0.7,0.6-0.7
		c1.1,0,2.3,0,3.4,0c1.3,0.1,2.2,0.9,2.3,2.1C202.2,98.2,201.5,99.2,200.1,99.4z"/>
	<path class="st0" d="M195.8,97.1c0-0.6,0-1.2,0-1.8C195.8,95.9,195.8,96.5,195.8,97.1c0,0.4,0,0.9,0,1.3
		C195.8,98,195.8,97.5,195.8,97.1z"/>
	<path class="st0" d="M248.7,110c-2.2-6.2-4.3-12.4-6.5-18.6c-0.2-0.5-0.5-0.7-1-0.7c-0.9,0-1.8,0-2.7,0c-0.7,0-1,0.2-1.3,0.9
		c-0.8,2.4-1.7,4.7-2.5,7.1c-1.3,3.8-2.7,7.6-4,11.4c-0.2,0.7-0.2,0.8,0.5,0.8c1,0,2.1,0,3.1,0c0.5,0,0.7-0.2,0.8-0.6
		c0.3-0.9,0.6-1.7,0.8-2.6c0.1-0.5,0.4-0.6,0.9-0.6c1.4,0,2.9,0,4.3,0c2.3,0,1.7-0.4,2.5,1.8c0.9,2.5,0.2,2,2.9,2.1c0.5,0,1,0,1.4,0
		C248.9,110.9,249,110.8,248.7,110z M237.6,103.2c0.7-2.2,1.4-4.4,2.1-6.5c0.1,0,0.1,0,0.2,0c0.7,2.1,1.4,4.3,2.1,6.5
		C240.5,103.2,239.1,103.2,237.6,103.2z"/>
</g>
</svg>
