<svg id="Ebene_1" data-name="Ebene 1" xmlns="http://www.w3.org/2000/svg" viewBox="0 0 300 200">
  <defs>
    <style>
      .cls-1 {
        fill: #0a1227;
      }
    </style>
  </defs>
  <g>
    <path class="cls-1" d="M210.2,69.3H89.6l-3.2.2-3,.5-2.9.7-2.8,1L75.1,73l-2.4,1.5-2.3,1.8c-6.8,5.4-10.8,15-10.6,23.7-.1,17.4,12.3,30.6,29.8,30.6H210.3l3.1-.2,3.1-.5,2.8-.7,2.8-1,2.6-1.3,2.5-1.4,2.3-1.9A30.3,30.3,0,0,0,240.2,100C240.3,83.1,227.3,69.4,210.2,69.3Zm17.2,52.2-2,1.5-2.3,1.4-2.4,1.2-2.5,1-2.5.7-2.8.3-2.7.2H89.6c-15.5-.1-27-12.5-26.8-27.8a28,28,0,0,1,9.6-21.3l2.1-1.6,2.2-1.4,2.4-1.3,2.4-.9,2.6-.7,2.7-.4H210.2c15.4,0,27,12.5,27,27.6A28.6,28.6,0,0,1,227.4,121.5Z"/>
    <path class="cls-1" d="M89.4,101.5c0,1.8-.6,2.8-2,2.7a4.1,4.1,0,0,1-2.6-.5,23.6,23.6,0,0,1-3.5-2.3l-3.8-3.2v13.7c2.4,2.5,7,5.3,10.3,5.5h5.5c4.6-.4,9.7-3.7,9.6-8.8V83H89.4Z"/>
    <path class="cls-1" d="M128.2,83v20.5c.1,3.2-7.8,3.3-7.8,0V83.1h-13s-.1,14.8,0,23.5c.1,11.9,10.9,10.6,11.6,10.9h9.6c.3-.2,12.4.5,12.5-11.1V83.1Z"/>
    <path class="cls-1" d="M164.9,95.5l-8.1-12.4H145.7v34s9.2.1,13,0c.1-2.8-.1-10.1-.1-10.1l6.3,10.3,6.3-10.2v10h13V83H173.4C173.2,83.3,165,95.6,164.9,95.5Z"/>
    <path class="cls-1" d="M222.5,100.1c0-7,1.1-17.8-16.5-17.8s-17.5,9.4-17.4,18.4-1.3,17.2,17,17.2S222.5,109.7,222.5,100.1Zm-16.8,8.1c-4.3,0-4-5.1-4-8.1s-.4-8.4,3.9-8.4,4.2,4.5,4.2,8.3S210.4,108.2,205.7,108.2Z"/>
  </g>
</svg>
