<?xml version="1.0" encoding="utf-8"?>
<!-- Generator: Adobe Illustrator 24.2.0, SVG Export Plug-In . SVG Version: 6.00 Build 0)  -->
<svg version="1.1" id="Ebene_1" xmlns="http://www.w3.org/2000/svg" xmlns:xlink="http://www.w3.org/1999/xlink" x="0px" y="0px"
	 viewBox="0 0 300 200" style="enable-background:new 0 0 300 200;" xml:space="preserve">
<style type="text/css">
	.st0{fill:#0A1227;}
	.st1{fill-rule:evenodd;clip-rule:evenodd;fill:#0A1227;}
	.st2{fill:url(#path58_2_);}
	.st3{fill-rule:evenodd;clip-rule:evenodd;fill:#194473;}
	.st4{fill:none;stroke:#194473;stroke-width:1.1801;stroke-miterlimit:5.3333;}
	.st5{fill-rule:evenodd;clip-rule:evenodd;}
	.st6{fill:#008948;}
	.st7{fill-rule:evenodd;clip-rule:evenodd;fill:#008948;}
	.st8{fill:#004E9E;}
	.st9{fill:#1A1A18;}
	.st10{fill:#FFFFFF;}
	.st11{fill:#76BC21;}
	.st12{fill:#1D1D1B;}
	.st13{fill-rule:evenodd;clip-rule:evenodd;fill:#1D1D1B;}
	.st14{fill:#E31513;}
	.st15{fill:#E60001;}
	.st16{fill:#333333;}
	.st17{fill:#BBBDC0;}
	.st18{fill:#1D3B6D;}
	.st19{fill-rule:evenodd;clip-rule:evenodd;fill:#1D3B6D;}
	.st20{fill:#FFFFFF;stroke:#BBBDC0;stroke-width:0.275;stroke-miterlimit:3.8637;}
	.st21{fill:#005B53;}
	.st22{fill:#FF6C0E;}
	.st23{fill:#134094;}
	.st24{fill:#D2022F;}
	.st25{fill:#9D9D9C;}
	.st26{fill:#93B894;}
	.st27{filter:url(#Adobe_OpacityMaskFilter);}
	.st28{fill-rule:evenodd;clip-rule:evenodd;fill:#FFFFFF;}
	.st29{mask:url(#logo-hagesued-b_2_);fill:#FF7200;}
	.st30{filter:url(#Adobe_OpacityMaskFilter_1_);}
	.st31{mask:url(#logo-hagesued-d_2_);fill:#7F3D39;}
	.st32{fill:#FEFEFE;}
	.st33{fill:#606060;}
	.st34{filter:url(#Adobe_OpacityMaskFilter_2_);}
	.st35{mask:url(#logo-hagesued-b_1_);fill:#606060;}
	.st36{fill:none;stroke:#000000;stroke-miterlimit:10;}
	.st37{fill:none;}
	.st38{clip-path:url(#SVGID_2_);fill:#444543;}
	.st39{clip-path:url(#SVGID_4_);}
	.st40{clip-path:url(#SVGID_6_);fill:#D0D0D0;}
	.st41{clip-path:url(#SVGID_8_);fill:#D0D0D0;}
	.st42{fill:#1C1C1C;}
	.st43{fill-rule:evenodd;clip-rule:evenodd;fill:#1C1C1C;}
	.st44{fill:#3F3E3C;}
	.st45{fill:#2374BA;}
	.st46{fill:#AEB2B5;}
	.st47{fill-rule:evenodd;clip-rule:evenodd;fill:#164194;}
	.st48{fill:#E30613;}
	.st49{fill-rule:evenodd;clip-rule:evenodd;fill:#DC911B;}
	.st50{fill:#DC911B;}
	.st51{fill:#FF0066;}
</style>
<g>
	<polygon points="88.4,95.9 95.4,95.9 92,87.4 	"/>
	<path d="M138,95.9h-5.8v7.7h5.7c0.4,0,0.8-0.3,0.8-0.7v-6.3C138.7,96.2,138.4,95.9,138,95.9z"/>
	<path d="M138,82.3h-5.8V90h5.7v0c0.4,0,0.8-0.3,0.8-0.7V83C138.7,82.6,138.4,82.3,138,82.3z"/>
	<path d="M224.9,69.8H75.9c-12.8-0.2-23.3,10-23.5,22.8c-0.2,12.8,10,23.3,22.8,23.5h0.7h149.1c12.8-0.2,23-10.7,22.8-23.5
		C247.6,80,237.5,69.9,224.9,69.8z M114.5,109.4H101l-3.1-7.7H86l-3.2,7.7H72.4v-5.8h2.4l8.9-21.3h-2.4v-5.9h19.6l11.2,27.2h2.4
		V109.4z M151.7,90.1c-0.1,1.5-1.4,2.8-3,2.8c1.6,0,3,1.4,3,3v10.6c0,1.6-1.3,3-3,3h-31.9v-5.9h2.4V82.3h-2.4v-5.9h31.9
		c1.6,0,3,1.3,3,3V90.1z M191.4,82.3H189v24.2c0,1.6-1.3,3-3,3h-26.6c-1.6,0-3-1.3-3-3V82.3h-2.4v-5.9h15.4v26.4
		c0,0.4,0.3,0.8,0.8,0.8h5.1c0.4,0,0.8-0.3,0.8-0.8V76.4h15.4V82.3z M226.2,84.7h-13V83c0-0.4-0.3-0.8-0.8-0.8h-5.1
		c-0.4,0-0.8,0.3-0.8,0.8v7h19.5v16.4c0,1.6-1.3,3-3,3h-26.6c-1.6,0-3-1.3-3-3v-5.3h13v1.7c0,0.4,0.3,0.8,0.8,0.8h5.1
		c0.4,0,0.7-0.4,0.7-0.8v-7h-19.5V79.4c0-1.6,1.3-3,3-3h26.6c1.6,0,3,1.3,3,3V84.7z"/>
	<path d="M224.9,59.7H75.9c-18.4-0.2-33.5,14.5-33.7,32.9C42,110.9,56.7,126,75.1,126.2h0.8h149.1c18.4-0.2,33.1-15.3,32.9-33.7
		C257.6,74.4,243,59.8,224.9,59.7z M224.9,120.6h-149c-15.3,0-27.7-12.4-27.7-27.7c0-15.3,12.4-27.7,27.7-27.7h149
		c15.3,0.6,27.2,13.4,26.7,28.7C251,108.4,239.4,120.1,224.9,120.6z"/>
	<path d="M117.3,144c-0.2,0-0.4,0.1-0.7,0.1c-0.2,0-0.4,0-0.6-0.1c-0.1-0.1-0.2-0.3-0.2-0.7v-5.4h1.7l0.1-1.1h-1.9v-2.5l-1.4,0.6
		l0,1.9H113v1.1h1.4v5.4c0,0.3,0,0.7,0.1,1c0,0.2,0.2,0.5,0.4,0.7c0.1,0.2,0.4,0.3,0.6,0.3c0.3,0,0.5,0.1,0.8,0.1
		c0.3,0,0.6,0,0.9-0.1c0.3,0,0.5-0.1,0.8-0.2v-1.2l0,0C117.8,143.9,117.6,144,117.3,144z"/>
	<path d="M111.2,134c-0.4-0.4-0.9-0.4-1.3,0c-0.4,0.4-0.4,0.9,0,1.3c0.4,0.4,0.9,0.4,1.3,0c0.2-0.2,0.3-0.4,0.3-0.7
		C111.5,134.4,111.4,134.2,111.2,134z"/>
	<path d="M122.8,143.5l-2.1-6.7H119l3.1,8.3l-0.1,0.4c0,0.3-0.1,0.5-0.2,0.8c-0.1,0.2-0.2,0.3-0.3,0.5c-0.1,0.1-0.2,0.2-0.3,0.2
		c-0.1,0-0.2,0-0.4,0c-0.1,0-0.3,0-0.4,0c-0.1,0-0.3,0-0.5-0.1c-0.1,0-0.4,0-0.5-0.1v1.2c0.1,0,0.3,0.1,0.5,0.1c0.2,0,0.3,0,0.5,0.1
		c0.2,0,0.3,0,0.5,0c0.2,0,0.5,0,0.7,0c0.2,0,0.5-0.1,0.7-0.3c0.2-0.2,0.4-0.4,0.6-0.7c0.2-0.4,0.4-0.8,0.5-1.2l2.7-9.3l-1.6,0
		L122.8,143.5z"/>
	<path d="M143.6,140.6c0-0.7,0-1.4-0.3-2c-0.1-0.4-0.4-0.8-0.7-1.2c-0.2-0.3-0.6-0.5-0.9-0.6c-0.3-0.1-0.7-0.1-1.1-0.1
		c-0.4,0-0.8,0-1.2,0.2c-0.4,0.1-0.8,0.4-1,0.7c-0.3,0.4-0.6,0.8-0.7,1.3c-0.2,0.7-0.3,1.4-0.3,2.2c0,0.8,0.1,1.6,0.3,2.3
		c0.2,0.5,0.5,0.9,0.8,1.3c0.3,0.3,0.7,0.5,1.1,0.6c0.4,0.1,0.8,0.1,1.2,0.1c0.3,0,0.7,0,1-0.1c0.4,0,0.8-0.2,1.1-0.3v-1.3
		c-0.4,0.1-0.8,0.2-1.2,0.3c-0.3,0.1-0.7,0.1-1,0.1c-0.2,0-0.5,0-0.7,0c-0.2,0-0.5-0.1-0.7-0.3c-0.2-0.2-0.4-0.5-0.6-0.8
		c-0.2-0.5-0.2-1-0.2-1.5h4.8V140.6z M138.9,140.5L138.9,140.5c0-0.5,0-0.9,0.1-1.4c0-0.3,0.2-0.6,0.4-0.8c0.1-0.2,0.3-0.3,0.5-0.4
		c0.2-0.1,0.5-0.1,0.7-0.1c0.2,0,0.4,0,0.6,0.1c0.2,0,0.4,0.2,0.5,0.4c0.2,0.2,0.3,0.5,0.3,0.8c0.1,0.5,0.1,0.9,0.1,1.4H138.9z"/>
	<polygon points="130.7,134.2 130.7,135.5 133.4,135.5 133.4,145.2 134.8,145.2 134.8,135.5 137.3,135.5 137.5,134.2 	"/>
	<path d="M78,140.4c-0.2-0.2-0.4-0.5-0.6-0.7c-0.2-0.2-0.5-0.4-0.8-0.6l-0.9-0.6c-0.3-0.2-0.6-0.5-0.9-0.8c-0.2-0.2-0.4-0.6-0.4-1
		c0-0.5,0.1-0.9,0.5-1.2c0.4-0.2,0.8-0.3,1.3-0.3c0.3,0,0.6,0,0.9,0.1l1,0.3v-1.2c-0.3-0.1-0.6-0.2-0.9-0.3c-0.4,0-0.7-0.1-1-0.1
		c-0.4,0-0.8,0-1.1,0.1c-0.4,0.1-0.7,0.2-1,0.5s-0.6,0.6-0.8,0.9c-0.2,0.4-0.3,0.9-0.3,1.4c0,0.3,0,0.6,0.1,0.9
		c0.1,0.3,0.2,0.5,0.4,0.8c0.1,0.2,0.3,0.4,0.5,0.6c0.2,0.2,0.4,0.4,0.7,0.5l1.1,0.8c0.2,0.1,0.4,0.2,0.5,0.4
		c0.2,0.1,0.3,0.3,0.4,0.4c0.1,0.1,0.2,0.3,0.3,0.5c0,0.2,0.1,0.4,0.1,0.7c0,0.3,0,0.6-0.1,0.9c-0.1,0.2-0.2,0.4-0.4,0.5
		c-0.2,0.1-0.4,0.2-0.6,0.3c-0.2,0-0.5,0-0.8,0c-0.3,0-0.7,0-1-0.1c-0.4-0.1-0.7-0.2-1-0.3v1.3c0.4,0.1,0.7,0.2,1,0.2
		c0.4,0,0.7,0.1,1.1,0.1c0.4,0,0.8,0,1.3-0.1c0.4,0,0.8-0.2,1.1-0.4c0.3-0.2,0.6-0.6,0.8-0.9c0.2-0.5,0.3-1,0.3-1.6
		c0-0.4,0-0.8-0.3-1C78.4,140.9,78.2,140.6,78,140.4z"/>
	<path d="M92.2,136.6c-0.4,0-0.7,0-1.1,0.1c-0.4,0.1-0.8,0.3-1.2,0.6c-0.4,0.4-0.8,0.8-0.9,1.3c-0.3,0.8-0.4,1.5-0.4,2.3
		c0,0.8,0.1,1.6,0.4,2.3c0.2,0.5,0.5,0.9,0.9,1.3c0.3,0.3,0.7,0.5,1.1,0.6c0.4,0.1,0.8,0.1,1.1,0.1c0.6,0,1.1-0.1,1.7-0.3l0-1.1
		c-0.3,0.1-0.6,0.2-0.9,0.2c-0.3,0-0.5,0.1-0.8,0.1c-0.2,0-0.5,0-0.8-0.1c-0.3,0-0.5-0.2-0.7-0.4c-0.2-0.3-0.4-0.6-0.5-0.9
		c-0.1-0.5-0.2-1-0.2-1.6c0-0.6,0-1.2,0.2-1.7c0.1-0.3,0.3-0.7,0.5-0.9c0.2-0.2,0.4-0.3,0.7-0.4c0.2,0,0.5-0.1,0.8-0.1
		c0.3,0,0.5,0,0.8,0.1c0.3,0,0.5,0.1,0.8,0.2v-1.2c-0.2-0.1-0.5-0.1-0.8-0.2C92.8,136.6,92.5,136.6,92.2,136.6z"/>
	<path d="M149.1,136.6c-0.4,0-0.7,0-1.1,0.1c-0.4,0.1-0.8,0.3-1.2,0.6c-0.4,0.4-0.8,0.8-0.9,1.3c-0.3,0.8-0.4,1.5-0.4,2.3
		c0,0.8,0.1,1.6,0.4,2.3c0.2,0.5,0.5,0.9,0.9,1.3c0.3,0.3,0.7,0.5,1.1,0.6c0.4,0.1,0.8,0.1,1.1,0.1c0.6,0,1.1-0.1,1.7-0.3l0-1.1
		c-0.3,0.1-0.6,0.2-0.9,0.2c-0.3,0-0.5,0.1-0.8,0.1c-0.2,0-0.5,0-0.8-0.1c-0.3,0-0.5-0.2-0.7-0.4c-0.2-0.3-0.4-0.6-0.5-0.9
		c-0.1-0.5-0.2-1-0.2-1.6c0-0.6,0-1.2,0.2-1.7c0.1-0.3,0.3-0.7,0.5-0.9c0.2-0.2,0.4-0.3,0.7-0.4c0.2,0,0.5-0.1,0.8-0.1
		s0.5,0,0.8,0.1c0.3,0,0.5,0.1,0.8,0.2v-1.2c-0.2-0.1-0.5-0.1-0.8-0.2C149.6,136.6,149.3,136.6,149.1,136.6z"/>
	<path d="M86.7,140.6c0-0.7,0-1.4-0.3-2c-0.1-0.4-0.4-0.8-0.7-1.2c-0.2-0.3-0.6-0.5-0.9-0.6c-0.3-0.1-0.7-0.1-1.1-0.1
		c-0.4,0-0.8,0-1.2,0.2c-0.4,0.1-0.8,0.4-1,0.7c-0.3,0.4-0.6,0.8-0.7,1.3c-0.2,0.7-0.3,1.4-0.3,2.2c0,0.8,0.1,1.6,0.3,2.3
		c0.1,0.5,0.5,0.9,0.8,1.3c0.3,0.3,0.7,0.5,1.1,0.6c0.4,0.1,0.8,0.1,1.3,0.1c0.3,0,0.7,0,1-0.1c0.4,0,0.8-0.2,1.1-0.3v-1.3
		c-0.4,0.1-0.8,0.2-1.2,0.3c-0.3,0.1-0.7,0.1-1,0.1c-0.2,0-0.5,0-0.7,0c-0.2,0-0.5-0.1-0.7-0.3c-0.2-0.2-0.4-0.5-0.6-0.8
		c-0.2-0.5-0.2-1-0.2-1.5h4.8V140.6z M82,140.5c0-0.5,0-0.9,0.1-1.4c0-0.3,0.2-0.6,0.4-0.8c0.1-0.2,0.3-0.3,0.5-0.4
		c0.2-0.1,0.5-0.1,0.7-0.1c0.2,0,0.4,0,0.6,0.1c0.2,0,0.4,0.2,0.5,0.4c0.2,0.2,0.3,0.5,0.3,0.8c0.1,0.5,0.1,0.9,0.1,1.4H82z"/>
	<rect x="109.9" y="136.8" width="1.4" height="8.3"/>
	<path d="M100.3,143.2c-0.3,0.3-0.7,0.5-1.1,0.7c-0.3,0.1-0.7,0.2-1,0.2c-0.4,0-0.7-0.1-0.9-0.4c-0.2-0.3-0.3-0.8-0.2-1.1v-5.7h-1.4
		v6.1c0,0.4,0,0.8,0.1,1.2c0.1,0.3,0.2,0.6,0.5,0.8c0.2,0.2,0.5,0.3,0.8,0.4c0.3,0.1,0.6,0.1,0.9,0.1c0.3,0,0.5,0,0.8-0.1l0.7-0.3
		c0.2-0.1,0.4-0.2,0.6-0.4c0.2-0.1,0.3-0.3,0.5-0.4l0.2,1.1l1.1,0v-8.3h-1.4V143.2z"/>
	<path d="M107.4,136.7c-0.4,0-0.8,0.1-1.1,0.4c-0.1,0.1-0.3,0.2-0.4,0.4c-0.1,0.1-0.2,0.3-0.3,0.5l-0.2-1.1h-1.1v8.4h1.4v-6.3
		c0.1-0.2,0.3-0.3,0.6-0.5c0.2-0.1,0.5-0.2,0.8-0.2c0.2,0,0.3,0,0.5,0c0.2,0,0.3,0,0.5,0.1v-1.6l-0.4,0
		C107.7,136.7,107.5,136.7,107.4,136.7z"/>
	<path d="M207.7,138c-0.1-0.3-0.3-0.6-0.6-0.8c-0.3-0.2-0.6-0.3-0.9-0.4c-0.4,0-0.7-0.1-1.1-0.1c-0.4,0-0.9,0-1.3,0.1
		c-0.4,0.1-0.8,0.2-1.2,0.3v1.2l0.4-0.1c0.2,0,0.4-0.1,0.6-0.1c0.2,0,0.5-0.1,0.7-0.1c0.2,0,0.4,0,0.6,0c0.2,0,0.5,0,0.7,0
		c0.2,0,0.3,0,0.5,0.2c0.1,0.1,0.2,0.2,0.3,0.4c0.1,0.2,0.1,0.4,0.1,0.7v0.9h-1.4c-0.4,0-0.8,0-1.1,0.1c-0.4,0-0.7,0.2-1,0.4
		c-0.3,0.2-0.6,0.5-0.8,0.8c-0.2,0.4-0.3,0.9-0.3,1.4c0,0.5,0,0.9,0.2,1.4c0.1,0.3,0.3,0.6,0.6,0.8c0.2,0.2,0.5,0.3,0.8,0.4
		c0.3,0,0.5,0.1,0.8,0.1c0.2,0,0.5,0,0.7-0.1s0.4-0.1,0.6-0.3c0.2-0.1,0.3-0.2,0.5-0.4c0.1-0.1,0.2-0.2,0.4-0.4l0.1,1h1.3v-5.8
		C207.9,139,207.8,138.5,207.7,138z M206.5,143.3L206.5,143.3c-0.2,0.2-0.6,0.5-0.8,0.6c-0.3,0.1-0.6,0.2-0.9,0.3
		c-0.2,0-0.3,0-0.5,0c-0.1,0-0.3-0.1-0.4-0.2c-0.1-0.1-0.2-0.3-0.3-0.5c-0.1-0.3-0.1-0.6-0.1-0.8c0-0.3,0-0.6,0.1-0.8
		c0.1-0.2,0.2-0.4,0.4-0.5c0.2-0.1,0.4-0.2,0.7-0.2c0.3,0,0.6-0.1,0.9,0h1L206.5,143.3z"/>
	<path d="M199.7,138c-0.1-0.3-0.2-0.6-0.4-0.8c-0.2-0.2-0.4-0.3-0.7-0.4c-0.3-0.1-0.6-0.1-0.9-0.1c-0.3,0-0.6,0-0.8,0.1
		c-0.2,0.1-0.5,0.2-0.8,0.3c-0.2,0.1-0.4,0.3-0.6,0.4c-0.2,0.1-0.3,0.3-0.4,0.4c-0.1-0.4-0.3-0.8-0.7-0.9c-0.4-0.2-0.8-0.3-1.3-0.3
		c-0.2,0-0.5,0-0.8,0.1c-0.2,0.1-0.5,0.2-0.7,0.3c-0.2,0.1-0.4,0.2-0.6,0.4c-0.2,0.1-0.3,0.3-0.5,0.4l-0.3-1h-1.1v8.4h1.4v-6.4
		c0.3-0.2,0.6-0.4,0.9-0.6c0.3-0.2,0.7-0.2,1.1-0.3c0.1,0,0.3,0,0.4,0c0.1,0,0.2,0.1,0.3,0.1c0.1,0.1,0.2,0.2,0.2,0.3
		c0,0.2,0.1,0.4,0.1,0.6v6.1h1.4v-6.4c0.1-0.1,0.3-0.2,0.5-0.3c0.2-0.1,0.3-0.2,0.5-0.3c0.2-0.1,0.4-0.1,0.6-0.2c0.2,0,0.3,0,0.5,0
		c0.1,0,0.3,0,0.4,0c0.1,0,0.2,0.1,0.3,0.1c0.1,0.1,0.2,0.2,0.2,0.3c0,0.2,0.1,0.4,0.1,0.6v6.1l1.5,0v-6
		C199.8,138.8,199.8,138.4,199.7,138z"/>
	<path d="M216.2,137.2c-0.2-0.2-0.5-0.3-0.8-0.4c-0.3-0.1-0.7-0.1-0.9-0.1c-0.3,0-0.6,0-0.9,0.1c-0.3,0.1-0.5,0.2-0.8,0.3
		c-0.2,0.1-0.4,0.2-0.6,0.4c-0.1,0.1-0.3,0.2-0.4,0.3l-0.3-1h-1v8.4h1.4v-6.4c0.4-0.2,0.8-0.5,1.2-0.6c0.4-0.1,0.8-0.2,1.1-0.2
		c0.1,0,0.3,0,0.5,0c0.1,0,0.3,0,0.4,0.1c0.1,0.1,0.2,0.2,0.3,0.3c0.1,0.2,0.1,0.4,0.1,0.7v6.1h1.5v-6c0-0.4,0-0.8-0.2-1.2
		C216.7,137.7,216.5,137.4,216.2,137.2z"/>
	<path d="M223.8,136.8l-1.6,6.7l-2.1-6.7h-1.7l3.1,8.3l-0.1,0.4c0,0.3-0.1,0.5-0.2,0.8c-0.1,0.2-0.2,0.3-0.3,0.5
		c-0.1,0.1-0.2,0.2-0.3,0.2c-0.1,0-0.2,0-0.4,0c-0.1,0-0.3,0-0.4,0c-0.1,0-0.3,0-0.5-0.1c-0.1,0-0.4,0-0.5-0.1v1.2l0.5,0.1
		c0.1,0,0.3,0,0.5,0.1c0.2,0,0.3,0,0.5,0c0.2,0,0.5,0,0.7,0c0.2,0,0.5-0.1,0.7-0.3c0.2-0.2,0.4-0.4,0.6-0.7c0.2-0.4,0.4-0.8,0.5-1.2
		l2.7-9.3L223.8,136.8z"/>
	<path d="M170,139.8h1.7v4c-0.3,0.1-0.7,0.1-0.9,0.2c-0.3,0-0.6,0.1-0.9,0.1s-0.6,0-0.9-0.2c-0.3-0.1-0.6-0.3-0.8-0.7
		c-0.2-0.4-0.4-0.8-0.5-1.4c-0.1-0.8-0.2-1.5-0.2-2.3c0-0.8,0.1-1.5,0.3-2.3c0.1-0.5,0.4-0.9,0.7-1.4c0.2-0.3,0.6-0.5,1-0.7
		c0.3-0.1,0.7-0.2,1.1-0.2c0.4,0,0.7,0,1.1,0.1c0.4,0.1,0.8,0.2,1.2,0.4v-1.2c-0.4-0.2-0.8-0.3-1.2-0.4c-0.4-0.1-0.8-0.1-1.2-0.1
		c-0.5,0-0.9,0.1-1.4,0.2c-0.5,0.1-1,0.4-1.5,0.8c-0.5,0.5-0.9,1.1-1.1,1.7c-0.3,0.9-0.5,2-0.5,3c0,1,0.1,2,0.3,3
		c0.1,0.6,0.4,1.2,0.8,1.7c0.3,0.4,0.7,0.7,1.2,0.8c0.5,0.1,0.9,0.2,1.4,0.2c0.3,0,0.6,0,0.9,0c0.3,0,0.7-0.1,0.9-0.2
		c0.3-0.1,0.6,0,0.9-0.1v0c0.2,0,0.5-0.1,0.6-0.2v-6.1H170V139.8z"/>
	<path d="M181.5,140.6c0-0.7,0-1.4-0.3-2c-0.1-0.4-0.4-0.8-0.7-1.2c-0.2-0.3-0.6-0.5-0.9-0.6c-0.3-0.1-0.7-0.1-1.1-0.1
		s-0.8,0-1.2,0.2s-0.8,0.4-1,0.7c-0.3,0.4-0.6,0.8-0.7,1.3c-0.2,0.7-0.3,1.4-0.3,2.2c0,0.8,0.1,1.6,0.3,2.3c0.2,0.5,0.5,0.9,0.8,1.3
		c0.3,0.3,0.7,0.5,1.1,0.6c0.4,0.1,0.8,0.1,1.2,0.1c0.3,0,0.7,0,1-0.1c0.4,0,0.8-0.2,1.1-0.3v-1.3c-0.4,0.1-0.8,0.2-1.2,0.3
		c-0.3,0.1-0.7,0.1-1,0.1c-0.2,0-0.5,0-0.7,0c-0.2,0-0.5-0.1-0.7-0.3c-0.2-0.2-0.4-0.5-0.5-0.8c-0.2-0.5-0.2-1-0.2-1.5h4.7V140.6z
		 M176.8,140.5L176.8,140.5c0-0.5,0-0.9,0.1-1.4c0-0.3,0.2-0.6,0.4-0.8c0.1-0.2,0.3-0.3,0.5-0.4c0.2-0.1,0.5-0.1,0.7-0.1
		c0.2,0,0.4,0,0.6,0.1c0.2,0,0.4,0.2,0.5,0.4c0.2,0.2,0.3,0.5,0.3,0.8c0.1,0.5,0.1,0.9,0.1,1.4H176.8z"/>
	<polygon points="199.8,145.2 199.8,145.2 199.8,145.2 	"/>
	<path d="M158.2,137.2c-0.2-0.2-0.5-0.3-0.8-0.4c-0.3-0.1-0.7-0.1-1-0.1c-0.3,0-0.6,0-0.8,0.1c-0.2,0.1-0.5,0.2-0.8,0.3
		c-0.2,0.1-0.4,0.2-0.6,0.4c-0.1,0.1-0.3,0.2-0.5,0.4v-4h-1.4v11.3h1.4v-6.3c0.1-0.1,0.3-0.2,0.5-0.3l0.6-0.3
		c0.2-0.1,0.4-0.1,0.6-0.2c0.2,0,0.4-0.1,0.6-0.1c0.2,0,0.3,0,0.5,0c0.1,0,0.3,0,0.4,0.1c0.1,0.1,0.2,0.2,0.3,0.3
		c0.1,0.2,0.1,0.4,0.1,0.6v6.1h1.5v-6c0-0.4,0-0.8-0.2-1.2C158.6,137.6,158.5,137.4,158.2,137.2z"/>
	<path d="M187.5,136.8l-0.4,0c-0.1,0-0.2,0-0.3,0c-0.2,0-0.4,0-0.6,0.1c-0.2,0.1-0.3,0.2-0.5,0.3c-0.1,0.1-0.3,0.2-0.4,0.4
		c-0.1,0.1-0.2,0.3-0.3,0.5l-0.2-1.1h-1.1v8.4h1.4v-6.4c0.1-0.2,0.3-0.3,0.6-0.5c0.2-0.1,0.5-0.2,0.8-0.2c0.2,0,0.3,0,0.5,0
		c0.2,0,0.3,0,0.5,0.1L187.5,136.8L187.5,136.8z"/>
</g>
</svg>
