<?xml version="1.0" encoding="utf-8"?>
<!-- Generator: Adobe Illustrator 24.2.0, SVG Export Plug-In . SVG Version: 6.00 Build 0)  -->
<svg version="1.1" id="Ebene_1" xmlns="http://www.w3.org/2000/svg" xmlns:xlink="http://www.w3.org/1999/xlink" x="0px" y="0px"
	 viewBox="0 0 300 200" style="enable-background:new 0 0 300 200;" xml:space="preserve">
<style type="text/css">
	.st0{fill:#0A1227;}
	.st1{fill-rule:evenodd;clip-rule:evenodd;fill:#0A1227;}
	.st2{fill:url(#path58_2_);}
	.st3{fill-rule:evenodd;clip-rule:evenodd;fill:#194473;}
	.st4{fill:none;stroke:#194473;stroke-width:1.1801;stroke-miterlimit:5.3333;}
	.st5{fill-rule:evenodd;clip-rule:evenodd;}
	.st6{fill:#008948;}
	.st7{fill-rule:evenodd;clip-rule:evenodd;fill:#008948;}
	.st8{fill:#004E9E;}
	.st9{fill:#1A1A18;}
	.st10{fill:#FFFFFF;}
	.st11{fill:#76BC21;}
	.st12{fill:#1D1D1B;}
	.st13{fill-rule:evenodd;clip-rule:evenodd;fill:#1D1D1B;}
	.st14{fill:#E31513;}
	.st15{fill:#E60001;}
	.st16{fill:#333333;}
	.st17{fill:#BBBDC0;}
	.st18{fill:#1D3B6D;}
	.st19{fill-rule:evenodd;clip-rule:evenodd;fill:#1D3B6D;}
	.st20{fill:#FFFFFF;stroke:#BBBDC0;stroke-width:0.275;stroke-miterlimit:3.8637;}
	.st21{fill:#005B53;}
	.st22{fill:#FF6C0E;}
	.st23{fill:#134094;}
	.st24{fill:#D2022F;}
	.st25{fill:#9D9D9C;}
	.st26{fill:#93B894;}
	.st27{filter:url(#Adobe_OpacityMaskFilter);}
	.st28{fill-rule:evenodd;clip-rule:evenodd;fill:#FFFFFF;}
	.st29{mask:url(#logo-hagesued-b_2_);fill:#FF7200;}
	.st30{filter:url(#Adobe_OpacityMaskFilter_1_);}
	.st31{mask:url(#logo-hagesued-d_2_);fill:#7F3D39;}
	.st32{fill:#FEFEFE;}
	.st33{fill:#606060;}
	.st34{filter:url(#Adobe_OpacityMaskFilter_2_);}
	.st35{mask:url(#logo-hagesued-b_1_);fill:#606060;}
	.st36{fill:none;stroke:#000000;stroke-miterlimit:10;}
	.st37{fill:none;}
	.st38{clip-path:url(#SVGID_2_);fill:#444543;}
	.st39{clip-path:url(#SVGID_4_);}
	.st40{clip-path:url(#SVGID_6_);fill:#D0D0D0;}
	.st41{clip-path:url(#SVGID_8_);fill:#D0D0D0;}
	.st42{fill:#1C1C1C;}
	.st43{fill-rule:evenodd;clip-rule:evenodd;fill:#1C1C1C;}
	.st44{fill:#3F3E3C;}
	.st45{fill:#2374BA;}
	.st46{fill:#AEB2B5;}
	.st47{fill-rule:evenodd;clip-rule:evenodd;fill:#164194;}
	.st48{fill:#E30613;}
	.st49{fill-rule:evenodd;clip-rule:evenodd;fill:#DC911B;}
	.st50{fill:#DC911B;}
	.st51{fill:#FF0066;}
</style>
<g>
	<path d="M214.5,78.1L214.5,78.1L214.5,78.1c6.1,0,11.5,2.5,15.5,6.4c4,4,6.4,9.4,6.4,15.5h0v0v0h0c0,6.1-2.5,11.5-6.4,15.5
		c-4,4-9.4,6.4-15.5,6.4v0h0h0v0c-6.1,0-11.5-2.5-15.5-6.4c-4-4-6.4-9.4-6.4-15.5h0v0v0h0c0-6.1,2.5-11.5,6.4-15.5
		C203,80.5,208.5,78.1,214.5,78.1L214.5,78.1L214.5,78.1L214.5,78.1z M200.5,109.4c0.7-0.3,1.4-0.5,2.1-0.7c1.5-0.5,3-0.8,4.5-1.1
		c-0.4-2-0.6-4-0.6-6h-8.7C198,104.3,198.9,107,200.5,109.4L200.5,109.4z M197.7,98.6h8.7c0.1-2.1,0.3-4.2,0.7-6.2
		c-1.6-0.3-3.1-0.7-4.6-1.2c-0.7-0.2-1.3-0.4-2-0.7C199,92.9,198,95.6,197.7,98.6L197.7,98.6z M202.5,88.2c0.3,0.1,0.6,0.2,0.9,0.3
		c1.4,0.4,2.8,0.8,4.3,1.1c0-0.1,0.1-0.3,0.1-0.4c0.5-1.8,1.2-3.6,1.9-5.4C207,84.6,204.6,86.1,202.5,88.2L202.5,88.2L202.5,88.2z
		 M219.1,83.8c0.8,1.7,1.4,3.5,2,5.4c0.1,0.2,0.1,0.4,0.2,0.6c0.6-0.1,1.1-0.2,1.7-0.3c1.3-0.3,2.6-0.6,3.8-1
		c-0.1-0.1-0.2-0.2-0.4-0.4C224.5,86.1,221.9,84.6,219.1,83.8L219.1,83.8z M228.7,90.8c-1.7,0.6-3.4,1.1-5.1,1.5
		c-0.6,0.1-1.1,0.2-1.7,0.3c0.4,1.9,0.6,3.9,0.6,6h8.8C231.1,95.7,230.2,93.1,228.7,90.8L228.7,90.8z M231.3,101.4h-8.8
		c-0.1,2-0.3,3.9-0.6,5.8c0.5,0.1,1.1,0.2,1.6,0.3c1.8,0.4,3.5,0.9,5.2,1.5C230.2,106.8,231.1,104.2,231.3,101.4L231.3,101.4z
		 M226.9,111.5c-1.3-0.4-2.6-0.8-3.9-1.1c-0.5-0.1-1.1-0.2-1.6-0.3c-0.4,1.8-1,3.5-1.7,5.2c-0.1,0.3-0.2,0.6-0.4,0.9
		c2.7-0.8,5.2-2.3,7.2-4.3C226.6,111.8,226.8,111.6,226.9,111.5L226.9,111.5z M215.9,116.8L215.9,116.8c0.4-0.9,0.8-1.7,1.1-2.6
		c0.6-1.5,1.1-3,1.5-4.5c-1.1-0.1-2.2-0.1-3.3-0.1v0c-1.6,0-3.1,0.1-4.6,0.3c0.4,1.5,0.9,3,1.4,4.4c0.4,0.9,0.7,1.7,1.1,2.5l0,0.1
		c0.5,0,1,0.1,1.4,0.1v0h0h0v0C215,116.9,215.4,116.9,215.9,116.8L215.9,116.8z M209.6,116.2c-0.1-0.3-0.2-0.6-0.4-0.9
		c-0.6-1.6-1.2-3.3-1.6-5c-1.5,0.3-2.9,0.6-4.2,1.1c-0.3,0.1-0.7,0.2-1,0.3c0.1,0.1,0.1,0.1,0.2,0.2
		C204.5,113.9,206.9,115.3,209.6,116.2L209.6,116.2z M209.9,107c1.7-0.2,3.5-0.3,5.3-0.3v0c1.3,0,2.6,0.1,3.9,0.2
		c0.3-1.8,0.5-3.6,0.6-5.5h-10.3C209.4,103.4,209.6,105.2,209.9,107L209.9,107z M209.3,98.6h10.3c-0.1-1.9-0.3-3.8-0.6-5.6
		c-1.3,0.1-2.6,0.2-3.9,0.2v0c-1.8,0-3.5-0.1-5.2-0.3C209.6,94.7,209.4,96.6,209.3,98.6L209.3,98.6z M213.3,83.2
		c-1.1,2.2-2,4.4-2.7,6.8l0,0.1c1.5,0.2,3,0.3,4.6,0.3v0c1.1,0,2.2,0,3.2-0.1l-0.1-0.2c-0.7-2.3-1.5-4.6-2.7-6.8c-0.4,0-0.8,0-1.1,0
		v0h0h0v0C214.1,83.1,213.7,83.1,213.3,83.2z"/>
	<path class="st5" d="M155.1,79.4v10.4c-3.9-3-7.8-4.4-9.4-0.5c-1.6,3.9,3.7,7.6,6.1,9.5c4.7,3.9,4.7,11.2,2.8,15.2
		c-4.4,9.6-17.4,7.2-20.6,6.5l0.1-11.4c1.4,0.5,6.3,2.4,8.1-0.1c2.4-3.2-0.5-6.2-2.5-7.7c-5.5-4.1-6.8-10.7-3.8-16.6
		C139.5,77.9,148.3,77.7,155.1,79.4z"/>
	<polygon class="st5" points="158.9,79.3 170,79.4 170,93.5 178.6,93.6 178.6,79.4 189.7,79.4 189.7,120.6 178.6,120.6 178.6,104.8 
		170,104.7 170,120.6 158.9,120.6 	"/>
	<polygon class="st5" points="69.7,79.4 80.7,79.4 83.3,99.6 91.5,84.2 99.4,99.4 102.6,79.4 113.6,79.4 108.1,120.6 99,120.6 
		91.4,104.6 84.2,120.6 74.8,120.5 	"/>
	<path class="st5" d="M248.8,109.4v11.2h-11.1l0-41.2h11C270.2,79.4,270.9,109.4,248.8,109.4L248.8,109.4z M248.8,89.5v9.5l1.6,0
		c6.8-0.1,7.5-9.5,0.2-9.5L248.8,89.5z"/>
	<path class="st5" d="M38.9,79.3l11.1,0c23.4,0,24.8,41.2,0.1,41.2H39L38.9,79.3L38.9,79.3z M50.1,109.4l2,0c8.6,0.2,8.1-19,0.1-19
		l-2.1,0V109.4z"/>
	<polygon class="st5" points="116.1,96.2 130.8,96.2 130.6,107.5 116,107.5 	"/>
</g>
</svg>
