<?xml version="1.0" encoding="utf-8"?>
<!-- Generator: Adobe Illustrator 24.2.0, SVG Export Plug-In . SVG Version: 6.00 Build 0)  -->
<svg version="1.1" id="Ebene_1" xmlns="http://www.w3.org/2000/svg" xmlns:xlink="http://www.w3.org/1999/xlink" x="0px" y="0px"
	 viewBox="0 0 300 200" style="enable-background:new 0 0 300 200;" xml:space="preserve">
<style type="text/css">
	.st0{fill:#0A1227;}
	.st1{fill-rule:evenodd;clip-rule:evenodd;fill:#0A1227;}
	.st2{fill:url(#path58_2_);}
	.st3{fill-rule:evenodd;clip-rule:evenodd;fill:#194473;}
	.st4{fill:none;stroke:#194473;stroke-width:1.1801;stroke-miterlimit:5.3333;}
	.st5{fill-rule:evenodd;clip-rule:evenodd;}
	.st6{fill:#008948;}
	.st7{fill-rule:evenodd;clip-rule:evenodd;fill:#008948;}
	.st8{fill:#004E9E;}
	.st9{fill:#1A1A18;}
	.st10{fill:#FFFFFF;}
	.st11{fill:#76BC21;}
	.st12{fill:#1D1D1B;}
	.st13{fill-rule:evenodd;clip-rule:evenodd;fill:#1D1D1B;}
	.st14{fill:#E31513;}
	.st15{fill:#E60001;}
	.st16{fill:#333333;}
	.st17{fill:#BBBDC0;}
	.st18{fill:#1D3B6D;}
	.st19{fill-rule:evenodd;clip-rule:evenodd;fill:#1D3B6D;}
	.st20{fill:#FFFFFF;stroke:#BBBDC0;stroke-width:0.275;stroke-miterlimit:3.8637;}
	.st21{fill:#005B53;}
	.st22{fill:#FF6C0E;}
	.st23{fill:#134094;}
	.st24{fill:#D2022F;}
	.st25{fill:#9D9D9C;}
	.st26{fill:#93B894;}
	.st27{filter:url(#Adobe_OpacityMaskFilter);}
	.st28{fill-rule:evenodd;clip-rule:evenodd;fill:#FFFFFF;}
	.st29{mask:url(#logo-hagesued-b_2_);fill:#FF7200;}
	.st30{filter:url(#Adobe_OpacityMaskFilter_1_);}
	.st31{mask:url(#logo-hagesued-d_2_);fill:#7F3D39;}
	.st32{fill:#FEFEFE;}
	.st33{fill:#606060;}
	.st34{filter:url(#Adobe_OpacityMaskFilter_2_);}
	.st35{mask:url(#logo-hagesued-b_1_);fill:#606060;}
	.st36{fill:none;stroke:#000000;stroke-miterlimit:10;}
	.st37{fill:none;}
	.st38{clip-path:url(#SVGID_2_);fill:#444543;}
	.st39{clip-path:url(#SVGID_4_);}
	.st40{clip-path:url(#SVGID_6_);fill:#D0D0D0;}
	.st41{clip-path:url(#SVGID_8_);fill:#D0D0D0;}
	.st42{fill:#1C1C1C;}
	.st43{fill-rule:evenodd;clip-rule:evenodd;fill:#1C1C1C;}
	.st44{fill:#3F3E3C;}
	.st45{fill:#2374BA;}
	.st46{fill:#AEB2B5;}
	.st47{fill-rule:evenodd;clip-rule:evenodd;fill:#164194;}
	.st48{fill:#E30613;}
	.st49{fill-rule:evenodd;clip-rule:evenodd;fill:#DC911B;}
	.st50{fill:#DC911B;}
	.st51{fill:#FF0066;}
</style>
<g>
	<polygon points="85.5,59.9 91.1,79.1 99.4,79.1 109.8,116.7 119.4,79.1 127.9,79.1 114.7,123.7 104.3,123.7 109.2,140.1 
		138.2,140.1 138.2,59.9 	"/>
	<path d="M86.9,80.1c-2.9-0.9-5.9-1.4-8.5-1.4c-9.6,0-15.1,4.6-15.1,12.6c0,7.3,5.7,10,10.8,12.4c4.3,2,8.3,3.9,8.3,8.2
		c0,3.8-3.3,6.4-8.3,6.4c-2.9,0-5.7-0.7-9.6-2.3l-0.6,6.2c3.9,1.4,7.4,2,10.7,2c9.3,0,14.8-4.8,14.8-12.9c0-8.3-6.2-11.1-11.6-13.6
		c-4-1.9-7.5-3.5-7.5-7c0-3.8,3.3-6.1,8.5-6.1c2.5,0,5.1,0.5,7.5,1.6L86.9,80.1z"/>
	<polygon points="31.5,79.3 31.5,123.5 54.8,123.5 55.5,117.7 38.4,117.7 38.4,103.7 52.3,103.7 52.9,97.8 38.4,97.8 38.4,85.2 
		54.2,85.2 54.8,79.3 	"/>
	<path d="M159.3,137h3.8l4.9-16.5h-3l-3.6,13.9l-3.8-13.9h-3L159.3,137z M174.4,137h9.1l0.2-2.3h-6.4v-4.9h5.2l0.2-2.3h-5.5v-4.5
		h5.9l0.2-2.3h-9.1L174.4,137L174.4,137z M193.9,122.8c0,0,0.4,0,0.9,0c2.2,0,3.3,0.8,3.3,2.6c0,1.8-1.2,2.6-3.3,2.6
		c-0.5,0-0.9,0-0.9,0V122.8z M191,137h2.9v-6.9c0,0,0.6,0,1.2,0l4.2,6.9h3.4l-4.8-7.3c2-0.6,3.2-2,3.2-4.3c0-3.3-2.6-4.8-6.1-4.8
		c-1.3,0-2.4,0-4,0V137z M208.9,137h8.8l0.2-2.3h-6.1v-14.1h-2.9V137z M222.9,137h3l1-3.8h5.6l1.1,3.8h3l-5-16.5h-3.8L222.9,137z
		 M227.6,130.8l2.1-7.9l2.2,7.9H227.6z M251.4,134.8c-0.3,0.1-0.8,0.1-1.4,0.1c-3.3,0-5-2.1-5-6.2c0-4.4,2.3-6.1,5.6-6.1
		c1.3,0,2.5,0.3,3.3,0.6l0.2-2.4c-1.3-0.4-2.8-0.6-3.8-0.6c-4.2,0-8.2,2-8.2,8.5c0,6.2,3.4,8.5,7.9,8.5c2.2,0,4.3-0.6,4.3-0.6v-9.3
		h-5.7v2.3h2.7L251.4,134.8L251.4,134.8z"/>
	<path d="M155.4,108.1c1.3,0.4,2.6,0.7,4.1,0.7c3.9,0,5.8-2,5.8-4.9c0-5.5-7.2-4.7-7.2-7.6c0-1.3,1.2-2.2,3.2-2.2
		c0.9,0,1.8,0.2,2.8,0.6l0.2-2.4c-0.8-0.2-2-0.5-3.3-0.5c-4,0-5.9,1.9-5.9,4.8c0,5.1,7.2,4.2,7.2,7.6c0,1.3-1.2,2.3-3.2,2.3
		c-1.2,0-2.2-0.3-3.6-0.8L155.4,108.1z M182.7,105.6c-1,0.6-2.2,1-3.4,1c-2.9,0-4.7-2-4.7-6.2c0-4.1,1.8-6.1,4.9-6.1
		c1.2,0,2.3,0.3,3.1,0.6l0.2-2.4c-1.3-0.4-2.5-0.6-3.6-0.6c-4.2,0-7.5,2.3-7.5,8.5c0,6.2,3.4,8.5,7.3,8.5c1.2,0,2.8-0.3,4-0.9
		L182.7,105.6z M189.9,108.6h2.9v-7.3h6.1v7.3h2.9V92.1h-2.9V99h-6.1v-6.9h-2.9V108.6z M209.5,108.6h2.7l0.6-12.9l3.3,12.9h3.4
		l3.3-12.9l0.6,12.9h2.9l-1-16.5h-4.1l-3.3,13.4l-3.4-13.4h-4.1L209.5,108.6z M234.1,108.6h2.9V92.1h-2.9V108.6z M245.1,108.6
		c1.7,0,3,0.1,4.3,0c4.6,0,8.2-2.2,8.2-8.2c0-6-3.5-8.2-8.2-8.2c-1.3,0-2.6,0-4.3,0V108.6z M248,94.4c0,0,0.7,0,1.3,0
		c3.6,0,5.3,1.9,5.3,5.9c0,4-1.8,6-5.3,6c-0.7,0-1.3,0-1.3,0V94.4z M267.1,108.6h2.9V94.5h4.3l0.2-2.3h-11.8v2.3h4.4L267.1,108.6
		L267.1,108.6z"/>
	<path d="M156,80.3h9.1l0.2-2.3h-6.4V73h5.2l0.2-2.3h-5.5v-4.5h5.9l0.2-2.3H156L156,80.3L156,80.3z M175.5,66.1c0,0,0.4,0,0.9,0
		c2.2,0,3.3,0.8,3.3,2.6c0,1.8-1.2,2.6-3.3,2.6c-0.5,0-0.9,0-0.9,0V66.1z M172.5,80.3h2.9v-6.9c0,0,0.6,0,1.2,0l4.2,6.9h3.4
		l-4.8-7.3c2-0.6,3.2-2,3.2-4.3c0-3.3-2.6-4.8-6.1-4.8c-1.3,0-2.4,0-4,0V80.3z M190.4,80.3h2.9V63.8h-2.9V80.3z M211.8,77.2
		c-1,0.6-2.2,1-3.4,1c-2.9,0-4.7-2-4.7-6.2c0-4.1,1.8-6.1,4.9-6.1c1.2,0,2.3,0.3,3.1,0.7l0.2-2.4c-1.3-0.4-2.5-0.6-3.6-0.6
		c-4.2,0-7.5,2.3-7.5,8.5c0,6.2,3.4,8.5,7.3,8.5c1.3,0,2.8-0.3,4-0.9L211.8,77.2z M219,80.3h2.9V73h6.1v7.3h2.9V63.8H228v6.9h-6.1
		v-6.9H219V80.3z"/>
</g>
</svg>
