<svg id="Ebene_1" data-name="Ebene 1" xmlns="http://www.w3.org/2000/svg" viewBox="0 0 300 200">
  <defs>
    <style>
      .cls-1 {
        fill: #0a1227;
      }
    </style>
  </defs>
  <g id="layer1">
    <path id="path2845" class="cls-1" d="M109,87.9h-.5a14,14,0,0,1-.9,1.7l-.5,1-5,9.1-1.1,1.9-.9,1.7h9.6ZM66,76.3H83l-13.4,33a7.1,7.1,0,0,1-1.1,2.1l.2.2,1.4-.2h9.1l1.6-2.7,20.9-32.4h19.4l3.3,32.9.3,3.8v1.6h.6a39,39,0,0,1,1.8-5.7l12.9-32.6h23.7l-1.9,20.6-.2,2.1-.2,2.6h.5l2.8-4.8,13.4-20.5h36.7l3,12.8a25.2,25.2,0,0,1,.6,3.5h.4a22.5,22.5,0,0,1,2.8-3.7l11.7-12.6h19.7l-30.8,30.3-6.9,17.1H199.3l8-20.2-4-15.9c-.2-1.1-.3-1.8-.6-3.8h-.3l-1.5,4.3-1.3,3.5-12.8,32H171.2l10.7-26.1a35,35,0,0,1,2.3-5l-.9-.2-1.2,1.7-1.4,2-19.8,27.6H147l2.2-27.2a37.4,37.4,0,0,1,.3-4.1h-.7c-1,3.1-1.5,4.4-2.3,6.4l-9.6,24.9h-26l-.5-7.6-.2-2.3H94.5l-5.6,9.9h-42Z"/>
  </g>
</svg>
