<?xml version="1.0" encoding="utf-8"?>
<!-- Generator: Adobe Illustrator 24.2.0, SVG Export Plug-In . SVG Version: 6.00 Build 0)  -->
<svg version="1.1" id="Ebene_1" xmlns="http://www.w3.org/2000/svg" xmlns:xlink="http://www.w3.org/1999/xlink" x="0px" y="0px"
	 viewBox="0 0 300 200" style="enable-background:new 0 0 300 200;" xml:space="preserve">
<style type="text/css">
	.st0{fill:#0A1227;}
	.st1{fill-rule:evenodd;clip-rule:evenodd;fill:#0A1227;}
	.st2{fill:url(#path58_2_);}
	.st3{fill-rule:evenodd;clip-rule:evenodd;fill:#194473;}
	.st4{fill:none;stroke:#194473;stroke-width:1.1801;stroke-miterlimit:5.3333;}
	.st5{fill-rule:evenodd;clip-rule:evenodd;}
	.st6{fill:#008948;}
	.st7{fill-rule:evenodd;clip-rule:evenodd;fill:#008948;}
	.st8{fill:#004E9E;}
	.st9{fill:#1A1A18;}
	.st10{fill:#FFFFFF;}
	.st11{fill:#76BC21;}
	.st12{fill:#1D1D1B;}
	.st13{fill-rule:evenodd;clip-rule:evenodd;fill:#1D1D1B;}
	.st14{fill:#E31513;}
	.st15{fill:#E60001;}
	.st16{fill:#333333;}
	.st17{fill:#BBBDC0;}
	.st18{fill:#1D3B6D;}
	.st19{fill-rule:evenodd;clip-rule:evenodd;fill:#1D3B6D;}
	.st20{fill:#FFFFFF;stroke:#BBBDC0;stroke-width:0.275;stroke-miterlimit:3.8637;}
	.st21{fill:#005B53;}
	.st22{fill:#FF6C0E;}
	.st23{fill:#134094;}
	.st24{fill:#D2022F;}
	.st25{fill:#9D9D9C;}
	.st26{fill:#93B894;}
	.st27{filter:url(#Adobe_OpacityMaskFilter);}
	.st28{fill-rule:evenodd;clip-rule:evenodd;fill:#FFFFFF;}
	.st29{mask:url(#logo-hagesued-b_2_);fill:#FF7200;}
	.st30{filter:url(#Adobe_OpacityMaskFilter_1_);}
	.st31{mask:url(#logo-hagesued-d_2_);fill:#7F3D39;}
	.st32{fill:#FEFEFE;}
	.st33{fill:#606060;}
	.st34{filter:url(#Adobe_OpacityMaskFilter_2_);}
	.st35{mask:url(#logo-hagesued-b_1_);fill:#606060;}
	.st36{fill:none;stroke:#000000;stroke-miterlimit:10;}
	.st37{fill:none;}
	.st38{clip-path:url(#SVGID_2_);fill:#444543;}
	.st39{clip-path:url(#SVGID_4_);}
	.st40{clip-path:url(#SVGID_6_);fill:#D0D0D0;}
	.st41{clip-path:url(#SVGID_8_);fill:#D0D0D0;}
	.st42{fill:#1C1C1C;}
	.st43{fill-rule:evenodd;clip-rule:evenodd;fill:#1C1C1C;}
	.st44{fill:#3F3E3C;}
	.st45{fill:#2374BA;}
	.st46{fill:#AEB2B5;}
	.st47{fill-rule:evenodd;clip-rule:evenodd;fill:#164194;}
	.st48{fill:#E30613;}
	.st49{fill-rule:evenodd;clip-rule:evenodd;fill:#DC911B;}
	.st50{fill:#DC911B;}
	.st51{fill:#FF0066;}
</style>
<g>
	<g>
		<path class="st5" d="M80.1,99.8V80l6.4,0v19.8L80.1,99.8z M98.2,90.1c0-8.3-6.6-15-14.8-15c-8.2,0-14.8,6.7-14.8,15
			s6.6,15,14.8,15S98.2,98.4,98.2,90.1"/>
		<polygon points="36.6,104 36.6,75.7 47.1,75.7 47.1,87.2 53.4,87.2 53.4,75.6 63.9,75.6 63.9,104 53.4,104 53.4,92.5 47.1,92.5 
			47.1,104 		"/>
		<polygon points="136.9,104 136.9,75.6 145.8,75.6 154,88.8 162.1,75.6 170.4,75.6 170.4,104 160.1,104 160.1,89.1 150.4,104.8 
			141.4,88.7 141.4,104 		"/>
		<polygon points="207.5,104 207.5,75.7 214,75.7 228,90.1 228,75.7 232.5,75.7 232.5,104 225.4,104 213.3,90.3 213.3,104 		"/>
		<polygon points="238.5,104 238.5,75.6 244.9,75.6 259,90.1 259,75.6 263.4,75.6 263.4,104 256.3,104 244.2,90.3 244.2,104 		"/>
		<path class="st5" d="M102.6,104V75.6l20,0c4.3,0,7.8,3.5,7.8,7.9c0,3.6-2.3,6.6-5.6,7.5l9.2,12.9h-12.5l-8.2-12.6V104H102.6z
			 M119.6,89v-9h-6.3v9H119.6z"/>
		<path class="st5" d="M184.3,75.6h9.6l10.7,28.3h-11.7l-1.6-3.9l-11.7,0L178,104l-4.9,0L184.3,75.6z M185.5,84.9l-4.2,10.6l8.3,0
			L185.5,84.9z"/>
		<path d="M72.4,75.6c0-1.6-1.3-2.9-2.9-2.9s-2.9,1.3-2.9,2.9c0,1.6,1.3,2.9,2.9,2.9C71.1,78.5,72.4,77.2,72.4,75.6"/>
		<path d="M100.1,75.5c0-1.6-1.3-2.9-2.9-2.9s-2.9,1.3-2.9,2.9c0,1.6,1.3,2.9,2.9,2.9S100.1,77.1,100.1,75.5"/>
	</g>
	<g>
		<path d="M39.9,115.4h-3.3v-2h9v2h-3.3v9h-2.4C39.9,124.4,39.9,115.4,39.9,115.4z"/>
		<path d="M48.8,116.2c2.5,0,4.1,1.7,4.1,4.2c0,2.5-1.6,4.2-4.1,4.2c-2.5,0-4.1-1.7-4.1-4.2C44.7,117.9,46.3,116.2,48.8,116.2z
			 M48.8,122.9c1.5,0,1.9-1.3,1.9-2.5s-0.4-2.6-1.9-2.6c-1.5,0-1.9,1.3-1.9,2.6C46.9,121.7,47.3,122.9,48.8,122.9z"/>
		<path d="M54.6,116.4h2.1v1.5h0c0.4-1,1.4-1.7,2.5-1.7c0.2,0,0.3,0,0.5,0.1v2c-0.2,0-0.5-0.1-0.8-0.1c-1.6,0-2.2,1.1-2.2,2.6v3.6
			h-2.2V116.4z"/>
		<path d="M62.3,120.9c0.1,1.4,0.7,2,2,2c0.9,0,1.6-0.5,1.7-1h1.9c-0.6,1.9-1.9,2.7-3.7,2.7c-2.5,0-4.1-1.7-4.1-4.2
			c0-2.4,1.6-4.2,4.1-4.2c2.7,0,4,2.3,3.9,4.7C68,120.9,62.3,120.9,62.3,120.9z M65.8,119.5c-0.2-1.1-0.7-1.7-1.7-1.7
			c-1.4,0-1.8,1.1-1.8,1.7H65.8z"/>
		<path d="M74.4,117.8c1.2,0,2.2,1,2.2,2.2s-1,2.2-2.2,2.2s-2.2-1-2.2-2.2S73.2,117.8,74.4,117.8z"/>
		<path d="M82.7,115.4h-3.3v-2h9v2h-3.3v9h-2.4V115.4z"/>
		<path d="M97.1,124.4H95v-1.1h0c-0.6,0.9-1.5,1.3-2.4,1.3c-2.3,0-2.9-1.3-2.9-3.3v-4.9h2.2v4.5c0,1.3,0.4,2,1.4,2
			c1.2,0,1.7-0.7,1.7-2.3v-4.2h2.2C97.1,116.4,97.1,124.4,97.1,124.4z M90.8,113.4h2.1v1.8h-2.1V113.4z M93.9,113.4H96v1.8h-2.1
			V113.4z"/>
		<path d="M98.9,116.4h2.1v1.5h0c0.4-1,1.4-1.7,2.5-1.7c0.2,0,0.3,0,0.5,0.1v2c-0.2,0-0.5-0.1-0.8-0.1c-1.6,0-2.2,1.1-2.2,2.6v3.6
			h-2.2V116.4z"/>
		<path d="M106.7,120.9c0.1,1.4,0.7,2,2,2c0.9,0,1.6-0.5,1.7-1h1.9c-0.6,1.9-1.9,2.7-3.7,2.7c-2.5,0-4.1-1.7-4.1-4.2
			c0-2.4,1.6-4.2,4.1-4.2c2.7,0,4,2.3,3.9,4.7C112.4,120.9,106.7,120.9,106.7,120.9z M110.2,119.5c-0.2-1.1-0.7-1.7-1.7-1.7
			c-1.4,0-1.8,1.1-1.8,1.7H110.2z"/>
		<path d="M114.2,116.4h2.1v1.1h0c0.6-0.9,1.5-1.3,2.4-1.3c2.3,0,2.9,1.3,2.9,3.3v4.9h-2.2v-4.5c0-1.3-0.4-2-1.4-2
			c-1.2,0-1.7,0.7-1.7,2.3v4.2h-2.2C114.2,124.4,114.2,116.4,114.2,116.4z"/>
		<path d="M128.5,117.8c1.2,0,2.2,1,2.2,2.2s-1,2.2-2.2,2.2s-2.2-1-2.2-2.2S127.3,117.8,128.5,117.8z"/>
		<path d="M134.6,122.5l5.9-7H135v-2h8.6v1.9l-5.9,7h6v2h-9.3V122.5z"/>
		<path d="M145.1,118.9c0.1-2,2-2.7,3.7-2.7c1.6,0,3.5,0.4,3.5,2.3v4.1c0,0.7,0.1,1.4,0.3,1.8h-2.2c-0.1-0.2-0.1-0.5-0.2-0.8
			c-0.7,0.7-1.7,1-2.7,1c-1.5,0-2.7-0.8-2.7-2.4c0-3.6,5.4-1.7,5.3-3.5c0-0.9-0.6-1.1-1.4-1.1c-0.8,0-1.4,0.3-1.4,1.2L145.1,118.9
			L145.1,118.9z M150.1,120.5c-0.4,0.3-1.1,0.3-1.8,0.5c-0.7,0.1-1.3,0.4-1.3,1.2s0.6,1,1.3,1c1.7,0,1.8-1.3,1.8-1.8V120.5z"/>
		<path d="M154.4,116.4h2.1v1.5h0c0.4-1,1.4-1.7,2.5-1.7c0.2,0,0.3,0,0.5,0.1v2c-0.2,0-0.5-0.1-0.8-0.1c-1.6,0-2.2,1.1-2.2,2.6v3.6
			h-2.2V116.4z"/>
		<path d="M168.2,123.9c0,1.3-0.5,3.5-4.1,3.5c-1.6,0-3.4-0.8-3.5-2.6h2.2c0.2,0.8,0.8,1.1,1.6,1.1c1.2,0,1.8-0.8,1.8-2v-1.1h0
			c-0.5,0.8-1.4,1.2-2.4,1.2c-2.4,0-3.4-1.8-3.4-4c0-2.1,1.2-3.9,3.4-3.9c1.1,0,1.8,0.4,2.4,1.3h0v-1.1h2.1L168.2,123.9L168.2,123.9
			z M166.2,120.3c0-1.3-0.4-2.4-1.9-2.4c-1.2,0-1.8,1.1-1.8,2.3c0,1.1,0.4,2.4,1.8,2.4C165.5,122.5,166.2,121.4,166.2,120.3z"/>
		<path d="M172.1,120.9c0.1,1.4,0.7,2,2,2c0.9,0,1.6-0.5,1.7-1h1.9c-0.6,1.9-1.9,2.7-3.7,2.7c-2.5,0-4.1-1.7-4.1-4.2
			c0-2.4,1.6-4.2,4.1-4.2c2.7,0,4,2.3,3.9,4.7C177.9,120.9,172.1,120.9,172.1,120.9z M175.7,119.5c-0.2-1.1-0.7-1.7-1.7-1.7
			c-1.4,0-1.8,1.1-1.8,1.7H175.7z"/>
		<path d="M179.7,116.4h2.1v1.1h0c0.6-0.9,1.5-1.3,2.4-1.3c2.3,0,2.9,1.3,2.9,3.3v4.9H185v-4.5c0-1.3-0.4-2-1.4-2
			c-1.2,0-1.7,0.7-1.7,2.3v4.2h-2.2L179.7,116.4L179.7,116.4z"/>
		<path d="M193.8,117.8c1.2,0,2.2,1,2.2,2.2s-1,2.2-2.2,2.2s-2.2-1-2.2-2.2S192.6,117.8,193.8,117.8z"/>
		<path d="M203.8,113.4h2.5l4.1,11h-2.5l-0.8-2.4h-4.1l-0.9,2.4h-2.4L203.8,113.4z M203.6,120.1h2.8l-1.4-4h0L203.6,120.1z"/>
		<path d="M211.5,116.4h2.1v1.1h0c0.6-0.9,1.5-1.3,2.4-1.3c2.3,0,2.9,1.3,2.9,3.3v4.9h-2.2v-4.5c0-1.3-0.4-2-1.4-2
			c-1.2,0-1.7,0.7-1.7,2.3v4.2h-2.2L211.5,116.4L211.5,116.4z"/>
		<path d="M223.5,116.4h1.6v1.5h-1.6v3.9c0,0.7,0.2,0.9,0.9,0.9c0.2,0,0.5,0,0.7-0.1v1.7c-0.4,0.1-0.8,0.1-1.3,0.1
			c-1.4,0-2.5-0.3-2.5-1.9v-4.7H220v-1.5h1.3V114h2.2L223.5,116.4L223.5,116.4z"/>
		<path d="M226.5,116.4h2.1v1.5h0c0.4-1,1.4-1.7,2.5-1.7c0.2,0,0.3,0,0.5,0.1v2c-0.2,0-0.5-0.1-0.8-0.1c-1.6,0-2.2,1.1-2.2,2.6v3.6
			h-2.2V116.4z"/>
		<path d="M235,115.2h-2.2v-1.8h2.2V115.2z M232.8,116.4h2.2v7.9h-2.2V116.4z"/>
		<path d="M238.7,120.9c0.1,1.4,0.7,2,2,2c0.9,0,1.6-0.5,1.7-1h1.9c-0.6,1.9-1.9,2.7-3.7,2.7c-2.5,0-4.1-1.7-4.1-4.2
			c0-2.4,1.6-4.2,4.1-4.2c2.7,0,4,2.3,3.9,4.7C244.4,120.9,238.7,120.9,238.7,120.9z M242.3,119.5c-0.2-1.1-0.7-1.7-1.7-1.7
			c-1.4,0-1.8,1.1-1.8,1.7H242.3z"/>
		<path d="M246.2,113.4h2.2v4h0c0.5-0.8,1.5-1.2,2.5-1.2c1.6,0,3.3,1.3,3.3,4.2s-1.7,4.2-3.3,4.2c-1.2,0-2.1-0.4-2.6-1.2h0v1h-2.1
			V113.4z M250.2,117.9c-1.3,0-1.9,1.2-1.9,2.6c0,1.3,0.6,2.5,1.9,2.5c1.3,0,1.9-1.2,1.9-2.5C252.1,119.1,251.5,117.9,250.2,117.9z"
			/>
		<path d="M257.6,120.9c0.1,1.4,0.7,2,2,2c0.9,0,1.6-0.5,1.7-1h1.9c-0.6,1.9-1.9,2.7-3.7,2.7c-2.5,0-4.1-1.7-4.1-4.2
			c0-2.4,1.6-4.2,4.1-4.2c2.7,0,4,2.3,3.9,4.7C263.3,120.9,257.6,120.9,257.6,120.9z M261.2,119.5c-0.2-1.1-0.7-1.7-1.7-1.7
			c-1.4,0-1.8,1.1-1.8,1.7H261.2z"/>
	</g>
</g>
</svg>
