<?xml version="1.0" encoding="utf-8"?>
<!-- Generator: Adobe Illustrator 24.2.0, SVG Export Plug-In . SVG Version: 6.00 Build 0)  -->
<svg version="1.1" id="Ebene_1" xmlns="http://www.w3.org/2000/svg" xmlns:xlink="http://www.w3.org/1999/xlink" x="0px" y="0px"
	 viewBox="0 0 300 200" style="enable-background:new 0 0 300 200;" xml:space="preserve">
<style type="text/css">
	.st0{fill:#0A1227;}
	.st1{fill-rule:evenodd;clip-rule:evenodd;fill:#0A1227;}
	.st2{fill:url(#path58_2_);}
	.st3{fill-rule:evenodd;clip-rule:evenodd;fill:#194473;}
	.st4{fill:none;stroke:#194473;stroke-width:1.1801;stroke-miterlimit:5.3333;}
	.st5{fill-rule:evenodd;clip-rule:evenodd;}
	.st6{fill:#008948;}
	.st7{fill-rule:evenodd;clip-rule:evenodd;fill:#008948;}
	.st8{fill:#004E9E;}
	.st9{fill:#1A1A18;}
	.st10{fill:#FFFFFF;}
	.st11{fill:#76BC21;}
	.st12{fill:#1D1D1B;}
	.st13{fill-rule:evenodd;clip-rule:evenodd;fill:#1D1D1B;}
	.st14{fill:#E31513;}
	.st15{fill:#E60001;}
	.st16{fill:#333333;}
	.st17{fill:#BBBDC0;}
	.st18{fill:#1D3B6D;}
	.st19{fill-rule:evenodd;clip-rule:evenodd;fill:#1D3B6D;}
	.st20{fill:#FFFFFF;stroke:#BBBDC0;stroke-width:0.275;stroke-miterlimit:3.8637;}
	.st21{fill:#005B53;}
	.st22{fill:#FF6C0E;}
	.st23{fill:#134094;}
	.st24{fill:#D2022F;}
	.st25{fill:#9D9D9C;}
	.st26{fill:#93B894;}
	.st27{filter:url(#Adobe_OpacityMaskFilter);}
	.st28{fill-rule:evenodd;clip-rule:evenodd;fill:#FFFFFF;}
	.st29{mask:url(#logo-hagesued-b_2_);fill:#FF7200;}
	.st30{filter:url(#Adobe_OpacityMaskFilter_1_);}
	.st31{mask:url(#logo-hagesued-d_2_);fill:#7F3D39;}
	.st32{fill:#FEFEFE;}
	.st33{fill:#606060;}
	.st34{filter:url(#Adobe_OpacityMaskFilter_2_);}
	.st35{mask:url(#logo-hagesued-b_1_);fill:#606060;}
	.st36{fill:none;stroke:#000000;stroke-miterlimit:10;}
	.st37{fill:none;}
	.st38{clip-path:url(#SVGID_2_);fill:#444543;}
	.st39{clip-path:url(#SVGID_4_);}
	.st40{clip-path:url(#SVGID_6_);fill:#D0D0D0;}
	.st41{clip-path:url(#SVGID_8_);fill:#D0D0D0;}
	.st42{fill:#1C1C1C;}
	.st43{fill-rule:evenodd;clip-rule:evenodd;fill:#1C1C1C;}
	.st44{fill:#3F3E3C;}
	.st45{fill:#2374BA;}
	.st46{fill:#AEB2B5;}
	.st47{fill-rule:evenodd;clip-rule:evenodd;fill:#164194;}
	.st48{fill:#E30613;}
	.st49{fill-rule:evenodd;clip-rule:evenodd;fill:#DC911B;}
	.st50{fill:#DC911B;}
	.st51{fill:#FF0066;}
</style>
<g>
	<path class="st1" d="M63.9,72.6H33.4L11,104.7h37.9c14.4-1.1,21.9-12.1,22.2-20C71.4,76.7,63.9,72.6,63.9,72.6z M43.7,103.1
		L22.8,103l9.2-12.7c2.6,4.3,6.7,3.7,6.7,3.7c2.7-1.2,1.1-3.2,1.1-3.2c-5-2.9-4.5-8-4.5-8c0.3-5.8,5-8.2,8.8-8.7h17l-6.2,8.6
		C63.8,92,51.2,103.1,43.7,103.1z"/>
	<path class="st1" d="M101,124.3l1.5-0.2c0.1,0.6,0.3,1,0.7,1.3c0.4,0.3,0.9,0.5,1.6,0.5c0.7,0,1.2-0.1,1.5-0.4
		c0.3-0.3,0.5-0.6,0.5-1c0-0.3-0.1-0.6-0.4-0.8c-0.2-0.1-0.7-0.3-1.5-0.5c-1.1-0.3-1.8-0.5-2.2-0.7c-0.4-0.2-0.7-0.5-0.9-0.8
		c-0.2-0.4-0.3-0.7-0.3-1.2c0-0.4,0.1-0.7,0.3-1.1c0.2-0.3,0.4-0.6,0.7-0.8c0.2-0.2,0.5-0.3,0.9-0.4c0.4-0.1,0.8-0.2,1.3-0.2
		c0.7,0,1.3,0.1,1.8,0.3c0.5,0.2,0.9,0.5,1.1,0.8c0.2,0.3,0.4,0.8,0.5,1.3l-1.4,0.2c-0.1-0.4-0.3-0.8-0.6-1
		c-0.3-0.2-0.8-0.4-1.3-0.4c-0.7,0-1.2,0.1-1.4,0.3c-0.3,0.2-0.4,0.5-0.4,0.8c0,0.2,0.1,0.4,0.2,0.5c0.1,0.2,0.3,0.3,0.6,0.4
		c0.1,0.1,0.6,0.2,1.3,0.4c1,0.3,1.8,0.5,2.2,0.7c0.4,0.2,0.7,0.4,1,0.8c0.2,0.3,0.4,0.8,0.4,1.3c0,0.5-0.1,1-0.4,1.4
		c-0.3,0.4-0.7,0.8-1.2,1c-0.5,0.2-1.1,0.4-1.8,0.4c-1.1,0-2-0.2-2.6-0.7C101.5,125.9,101.2,125.2,101,124.3z"/>
	<path class="st1" d="M113.2,125.6l0.2,1.3c-0.4,0.1-0.8,0.1-1.1,0.1c-0.5,0-0.9-0.1-1.2-0.3c-0.3-0.2-0.5-0.4-0.6-0.7
		c-0.1-0.3-0.2-0.9-0.2-1.7v-5h-1.1v-1.1h1.1V116l1.5-0.9v3h1.5v1.1h-1.5v5.1c0,0.4,0,0.7,0.1,0.8c0,0.1,0.1,0.2,0.3,0.3
		c0.1,0.1,0.3,0.1,0.5,0.1C112.7,125.6,112.9,125.6,113.2,125.6z"/>
	<path class="st1" d="M120.2,125.8c-0.5,0.5-1.1,0.8-1.6,1c-0.5,0.2-1,0.3-1.6,0.3c-1,0-1.7-0.2-2.2-0.7c-0.5-0.5-0.8-1.1-0.8-1.8
		c0-0.4,0.1-0.8,0.3-1.2c0.2-0.4,0.4-0.6,0.8-0.8c0.3-0.2,0.7-0.4,1.1-0.5c0.3-0.1,0.7-0.2,1.3-0.2c1.2-0.1,2.1-0.3,2.6-0.5
		c0-0.2,0-0.3,0-0.4c0-0.6-0.1-1-0.4-1.3c-0.4-0.3-0.9-0.5-1.7-0.5c-0.7,0-1.2,0.1-1.5,0.4c-0.3,0.2-0.6,0.7-0.7,1.3l-1.4-0.2
		c0.1-0.6,0.3-1.1,0.6-1.5c0.3-0.4,0.7-0.7,1.3-0.9c0.6-0.2,1.2-0.3,2-0.3c0.7,0,1.3,0.1,1.8,0.3c0.5,0.2,0.8,0.4,1,0.7
		c0.2,0.3,0.4,0.6,0.5,1c0.1,0.3,0.1,0.7,0.1,1.4v2c0,1.4,0,2.2,0.1,2.6c0.1,0.4,0.2,0.7,0.4,1.1h-1.5
		C120.4,126.6,120.3,126.2,120.2,125.8z M120.1,122.5c-0.5,0.2-1.3,0.4-2.4,0.6c-0.6,0.1-1,0.2-1.3,0.3c-0.2,0.1-0.4,0.3-0.6,0.5
		c-0.1,0.2-0.2,0.4-0.2,0.7c0,0.4,0.1,0.7,0.4,1c0.3,0.3,0.7,0.4,1.3,0.4c0.6,0,1.1-0.1,1.5-0.4c0.4-0.2,0.8-0.6,1-1
		c0.2-0.3,0.2-0.8,0.2-1.5L120.1,122.5z"/>
	<path class="st1" d="M123.9,114.9h1.5v1.7h-1.5V114.9z M123.9,118.2h1.5v8.7h-1.5V118.2z"/>
	<path class="st1" d="M127.6,126.9v-8.7h1.3v1.2c0.6-1,1.6-1.4,2.8-1.4c0.5,0,1,0.1,1.4,0.3c0.4,0.2,0.8,0.4,1,0.7
		c0.2,0.3,0.4,0.7,0.5,1.1c0.1,0.3,0.1,0.8,0.1,1.4v5.3h-1.5v-5.3c0-0.6-0.1-1-0.2-1.3c-0.1-0.3-0.3-0.5-0.6-0.7
		c-0.3-0.2-0.6-0.3-1-0.3c-0.6,0-1.2,0.2-1.6,0.6c-0.5,0.4-0.7,1.2-0.7,2.3v4.7H127.6z"/>
	<path class="st1" d="M136.8,114.9h1.5v12h-1.5V114.9z"/>
	<path class="st1" d="M146.5,124.1l1.5,0.2c-0.2,0.9-0.7,1.6-1.3,2.1c-0.6,0.5-1.5,0.7-2.5,0.7c-1.3,0-2.3-0.4-3-1.2
		c-0.7-0.8-1.1-1.9-1.1-3.3c0-1.5,0.4-2.6,1.1-3.4c0.7-0.8,1.7-1.2,2.9-1.2c1.2,0,2.1,0.4,2.8,1.2c0.7,0.8,1.1,1.9,1.1,3.3
		c0,0.1,0,0.2,0,0.4h-6.5c0.1,0.9,0.3,1.7,0.8,2.2s1.1,0.8,1.8,0.8c0.5,0,1-0.1,1.4-0.4C146,125.1,146.3,124.7,146.5,124.1z
		 M141.7,121.7h4.8c-0.1-0.7-0.3-1.3-0.6-1.6c-0.5-0.6-1.1-0.8-1.8-0.8c-0.7,0-1.2,0.2-1.7,0.7C142,120.3,141.7,120.9,141.7,121.7z"
		/>
	<path class="st1" d="M149.3,124.3l1.5-0.2c0.1,0.6,0.3,1,0.7,1.3c0.4,0.3,0.9,0.5,1.6,0.5c0.7,0,1.2-0.1,1.5-0.4
		c0.3-0.3,0.5-0.6,0.5-1c0-0.3-0.1-0.6-0.4-0.8c-0.2-0.1-0.7-0.3-1.5-0.5c-1.1-0.3-1.8-0.5-2.2-0.7c-0.4-0.2-0.7-0.5-0.9-0.8
		c-0.2-0.4-0.3-0.7-0.3-1.2c0-0.4,0.1-0.7,0.3-1.1c0.2-0.3,0.4-0.6,0.7-0.8c0.2-0.2,0.5-0.3,0.9-0.4c0.4-0.1,0.8-0.2,1.3-0.2
		c0.7,0,1.3,0.1,1.8,0.3c0.5,0.2,0.9,0.5,1.1,0.8c0.2,0.3,0.4,0.8,0.5,1.3l-1.4,0.2c-0.1-0.4-0.3-0.8-0.6-1
		c-0.3-0.2-0.8-0.4-1.3-0.4c-0.7,0-1.2,0.1-1.5,0.3c-0.3,0.2-0.4,0.5-0.4,0.8c0,0.2,0.1,0.4,0.2,0.5c0.1,0.2,0.3,0.3,0.6,0.4
		c0.1,0.1,0.6,0.2,1.3,0.4c1,0.3,1.8,0.5,2.2,0.7c0.4,0.2,0.7,0.4,1,0.8c0.2,0.3,0.4,0.8,0.4,1.3c0,0.5-0.1,1-0.4,1.4
		c-0.3,0.4-0.7,0.8-1.2,1c-0.5,0.2-1.2,0.4-1.8,0.4c-1.1,0-2-0.2-2.6-0.7C149.8,125.9,149.5,125.2,149.3,124.3z"/>
	<path class="st1" d="M157.7,124.3l1.5-0.2c0.1,0.6,0.3,1,0.7,1.3c0.4,0.3,0.9,0.5,1.6,0.5c0.7,0,1.2-0.1,1.5-0.4
		c0.3-0.3,0.5-0.6,0.5-1c0-0.3-0.1-0.6-0.4-0.8c-0.2-0.1-0.7-0.3-1.5-0.5c-1.1-0.3-1.8-0.5-2.2-0.7c-0.4-0.2-0.7-0.5-0.9-0.8
		c-0.2-0.4-0.3-0.7-0.3-1.2c0-0.4,0.1-0.7,0.3-1.1c0.2-0.3,0.4-0.6,0.7-0.8c0.2-0.2,0.5-0.3,0.9-0.4c0.4-0.1,0.8-0.2,1.3-0.2
		c0.7,0,1.3,0.1,1.8,0.3c0.5,0.2,0.9,0.5,1.1,0.8c0.2,0.3,0.4,0.8,0.5,1.3l-1.4,0.2c-0.1-0.4-0.3-0.8-0.6-1
		c-0.3-0.2-0.8-0.4-1.3-0.4c-0.7,0-1.2,0.1-1.5,0.3c-0.3,0.2-0.4,0.5-0.4,0.8c0,0.2,0.1,0.4,0.2,0.5c0.1,0.2,0.3,0.3,0.6,0.4
		c0.1,0.1,0.6,0.2,1.3,0.4c1,0.3,1.8,0.5,2.2,0.7c0.4,0.2,0.7,0.4,1,0.8c0.2,0.3,0.4,0.8,0.4,1.3c0,0.5-0.1,1-0.4,1.4
		c-0.3,0.4-0.7,0.8-1.2,1c-0.5,0.2-1.1,0.4-1.8,0.4c-1.1,0-2-0.2-2.6-0.7C158.2,125.9,157.8,125.2,157.7,124.3z"/>
	<path class="st1" d="M170.7,124.3l1.5-0.2c0.1,0.6,0.3,1,0.7,1.3c0.4,0.3,0.9,0.5,1.6,0.5c0.7,0,1.2-0.1,1.5-0.4
		c0.3-0.3,0.5-0.6,0.5-1c0-0.3-0.1-0.6-0.4-0.8c-0.2-0.1-0.7-0.3-1.5-0.5c-1.1-0.3-1.8-0.5-2.2-0.7c-0.4-0.2-0.7-0.5-0.9-0.8
		c-0.2-0.4-0.3-0.7-0.3-1.2c0-0.4,0.1-0.7,0.3-1.1c0.2-0.3,0.4-0.6,0.7-0.8c0.2-0.2,0.5-0.3,0.9-0.4c0.4-0.1,0.8-0.2,1.3-0.2
		c0.7,0,1.3,0.1,1.8,0.3c0.5,0.2,0.9,0.5,1.1,0.8c0.2,0.3,0.4,0.8,0.5,1.3l-1.4,0.2c-0.1-0.4-0.3-0.8-0.6-1
		c-0.3-0.2-0.8-0.4-1.3-0.4c-0.7,0-1.2,0.1-1.4,0.3c-0.3,0.2-0.4,0.5-0.4,0.8c0,0.2,0.1,0.4,0.2,0.5c0.1,0.2,0.3,0.3,0.6,0.4
		c0.1,0.1,0.6,0.2,1.3,0.4c1,0.3,1.8,0.5,2.2,0.7c0.4,0.2,0.7,0.4,1,0.8c0.2,0.3,0.3,0.8,0.3,1.3c0,0.5-0.1,1-0.4,1.4
		c-0.3,0.4-0.7,0.8-1.2,1c-0.5,0.2-1.1,0.4-1.8,0.4c-1.1,0-2-0.2-2.6-0.7C171.2,125.9,170.8,125.2,170.7,124.3z"/>
	<path class="st1" d="M182.8,125.6l0.2,1.3c-0.4,0.1-0.8,0.1-1.1,0.1c-0.5,0-0.9-0.1-1.2-0.3c-0.3-0.2-0.5-0.4-0.6-0.7
		c-0.1-0.3-0.2-0.9-0.2-1.7v-5h-1.1v-1.1h1.1V116l1.5-0.9v3h1.5v1.1h-1.5v5.1c0,0.4,0,0.7,0.1,0.8c0.1,0.1,0.1,0.2,0.3,0.3
		c0.1,0.1,0.3,0.1,0.5,0.1C182.3,125.6,182.5,125.6,182.8,125.6z"/>
	<path class="st1" d="M190.2,124.1l1.5,0.2c-0.2,0.9-0.7,1.6-1.3,2.1c-0.6,0.5-1.5,0.7-2.5,0.7c-1.3,0-2.3-0.4-3-1.2
		c-0.7-0.8-1.1-1.9-1.1-3.3c0-1.5,0.4-2.6,1.1-3.4c0.7-0.8,1.7-1.2,2.9-1.2c1.2,0,2.1,0.4,2.8,1.2c0.7,0.8,1.1,1.9,1.1,3.3
		c0,0.1,0,0.2,0,0.4h-6.5c0.1,0.9,0.3,1.7,0.8,2.2s1.1,0.8,1.8,0.8c0.5,0,1-0.1,1.4-0.4C189.6,125.1,189.9,124.7,190.2,124.1z
		 M185.3,121.7h4.8c-0.1-0.7-0.2-1.3-0.6-1.6c-0.5-0.6-1.1-0.8-1.8-0.8c-0.7,0-1.2,0.2-1.7,0.7C185.6,120.3,185.4,120.9,185.3,121.7
		z"/>
	<path class="st1" d="M199.5,124.1l1.5,0.2c-0.2,0.9-0.7,1.6-1.3,2.1c-0.6,0.5-1.5,0.7-2.5,0.7c-1.3,0-2.3-0.4-3-1.2
		c-0.7-0.8-1.1-1.9-1.1-3.3c0-1.5,0.4-2.6,1.1-3.4c0.7-0.8,1.7-1.2,2.9-1.2c1.2,0,2.1,0.4,2.8,1.2c0.7,0.8,1.1,1.9,1.1,3.3
		c0,0.1,0,0.2,0,0.4h-6.5c0.1,0.9,0.3,1.7,0.8,2.2c0.5,0.5,1.1,0.8,1.8,0.8c0.5,0,1-0.1,1.4-0.4
		C198.9,125.1,199.2,124.7,199.5,124.1z M194.6,121.7h4.8c-0.1-0.7-0.3-1.3-0.6-1.6c-0.5-0.6-1.1-0.8-1.8-0.8
		c-0.7,0-1.2,0.2-1.7,0.7C194.9,120.3,194.7,120.9,194.6,121.7z"/>
	<path class="st1" d="M202.8,114.9h1.5v12h-1.5V114.9z"/>
	<path class="st1" d="M210.6,124.3l1.5-0.2c0.1,0.6,0.3,1,0.7,1.3c0.4,0.3,0.9,0.5,1.6,0.5c0.7,0,1.2-0.1,1.5-0.4
		c0.3-0.3,0.5-0.6,0.5-1c0-0.3-0.1-0.6-0.4-0.8c-0.2-0.1-0.7-0.3-1.5-0.5c-1.1-0.3-1.8-0.5-2.2-0.7c-0.4-0.2-0.7-0.5-0.9-0.8
		c-0.2-0.4-0.3-0.7-0.3-1.2c0-0.4,0.1-0.7,0.3-1.1c0.2-0.3,0.4-0.6,0.7-0.8c0.2-0.2,0.5-0.3,0.9-0.4c0.4-0.1,0.8-0.2,1.3-0.2
		c0.7,0,1.3,0.1,1.8,0.3c0.5,0.2,0.9,0.5,1.1,0.8c0.2,0.3,0.4,0.8,0.5,1.3l-1.4,0.2c-0.1-0.4-0.3-0.8-0.6-1
		c-0.3-0.2-0.8-0.4-1.3-0.4c-0.7,0-1.2,0.1-1.4,0.3c-0.3,0.2-0.4,0.5-0.4,0.8c0,0.2,0.1,0.4,0.2,0.5c0.1,0.2,0.3,0.3,0.6,0.4
		c0.1,0.1,0.6,0.2,1.3,0.4c1,0.3,1.8,0.5,2.2,0.7c0.4,0.2,0.7,0.4,1,0.8c0.2,0.3,0.4,0.8,0.4,1.3c0,0.5-0.1,1-0.4,1.4
		c-0.3,0.4-0.7,0.8-1.2,1c-0.5,0.2-1.1,0.4-1.8,0.4c-1.1,0-2-0.2-2.6-0.7C211.1,125.9,210.8,125.2,210.6,124.3z"/>
	<path class="st1" d="M219,122.5c0-1.6,0.4-2.8,1.3-3.6c0.7-0.6,1.7-1,2.7-1c1.2,0,2.2,0.4,2.9,1.2c0.8,0.8,1.1,1.9,1.1,3.2
		c0,1.1-0.2,2-0.5,2.6c-0.3,0.6-0.8,1.1-1.5,1.5c-0.6,0.4-1.3,0.5-2.1,0.5c-1.2,0-2.2-0.4-2.9-1.2C219.4,125.1,219,124,219,122.5z
		 M220.5,122.5c0,1.1,0.2,1.9,0.7,2.5c0.5,0.6,1.1,0.8,1.8,0.8c0.7,0,1.3-0.3,1.8-0.8c0.5-0.6,0.7-1.4,0.7-2.5
		c0-1.1-0.2-1.9-0.7-2.4c-0.5-0.6-1.1-0.8-1.8-0.8c-0.7,0-1.3,0.3-1.8,0.8C220.7,120.6,220.5,121.4,220.5,122.5z"/>
	<path class="st1" d="M228.8,114.9h1.5v12h-1.5V114.9z"/>
	<path class="st1" d="M238.2,126.9v-1.3c-0.7,1-1.6,1.5-2.8,1.5c-0.5,0-1-0.1-1.4-0.3c-0.4-0.2-0.8-0.4-1-0.7
		c-0.2-0.3-0.4-0.7-0.5-1.1c-0.1-0.3-0.1-0.7-0.1-1.4v-5.4h1.5v4.8c0,0.8,0,1.3,0.1,1.6c0.1,0.4,0.3,0.7,0.6,0.9
		c0.3,0.2,0.7,0.3,1.1,0.3c0.4,0,0.9-0.1,1.2-0.3c0.4-0.2,0.7-0.5,0.8-0.9c0.2-0.4,0.2-1,0.2-1.7v-4.6h1.5v8.7H238.2z"/>
	<path class="st1" d="M245,125.6l0.2,1.3c-0.4,0.1-0.8,0.1-1.1,0.1c-0.5,0-0.9-0.1-1.2-0.3c-0.3-0.2-0.5-0.4-0.6-0.7
		c-0.1-0.3-0.2-0.9-0.2-1.7v-5H241v-1.1h1.1V116l1.5-0.9v3h1.5v1.1h-1.5v5.1c0,0.4,0,0.7,0.1,0.8c0.1,0.1,0.1,0.2,0.3,0.3
		c0.1,0.1,0.3,0.1,0.5,0.1C244.6,125.6,244.8,125.6,245,125.6z"/>
	<path class="st1" d="M246.5,114.9h1.5v1.7h-1.5V114.9z M246.5,118.2h1.5v8.7h-1.5V118.2z"/>
	<path class="st1" d="M249.6,122.5c0-1.6,0.4-2.8,1.3-3.6c0.7-0.6,1.7-1,2.7-1c1.2,0,2.2,0.4,2.9,1.2c0.8,0.8,1.1,1.9,1.1,3.2
		c0,1.1-0.2,2-0.5,2.6c-0.3,0.6-0.8,1.1-1.5,1.5c-0.6,0.4-1.3,0.5-2.1,0.5c-1.2,0-2.2-0.4-2.9-1.2C250,125.1,249.6,124,249.6,122.5z
		 M251.2,122.5c0,1.1,0.2,1.9,0.7,2.5c0.5,0.6,1.1,0.8,1.8,0.8c0.7,0,1.3-0.3,1.8-0.8c0.5-0.6,0.7-1.4,0.7-2.5
		c0-1.1-0.2-1.9-0.7-2.4c-0.5-0.6-1.1-0.8-1.8-0.8c-0.7,0-1.3,0.3-1.8,0.8C251.4,120.6,251.2,121.4,251.2,122.5z"/>
	<path class="st1" d="M259.5,126.9v-8.7h1.3v1.2c0.6-1,1.6-1.4,2.8-1.4c0.5,0,1,0.1,1.4,0.3c0.4,0.2,0.8,0.4,1,0.7
		c0.2,0.3,0.4,0.7,0.5,1.1c0.1,0.3,0.1,0.8,0.1,1.4v5.3H265v-5.3c0-0.6-0.1-1-0.2-1.3c-0.1-0.3-0.3-0.5-0.6-0.7
		c-0.3-0.2-0.6-0.3-1-0.3c-0.6,0-1.2,0.2-1.6,0.6c-0.5,0.4-0.7,1.2-0.7,2.3v4.7H259.5z"/>
	<path class="st1" d="M268.2,124.3l1.5-0.2c0.1,0.6,0.3,1,0.7,1.3c0.4,0.3,0.9,0.5,1.6,0.5c0.7,0,1.2-0.1,1.5-0.4
		c0.3-0.3,0.5-0.6,0.5-1c0-0.3-0.1-0.6-0.4-0.8c-0.2-0.1-0.7-0.3-1.5-0.5c-1.1-0.3-1.8-0.5-2.2-0.7c-0.4-0.2-0.7-0.5-0.9-0.8
		c-0.2-0.4-0.3-0.7-0.3-1.2c0-0.4,0.1-0.7,0.3-1.1c0.2-0.3,0.4-0.6,0.7-0.8c0.2-0.2,0.5-0.3,0.9-0.4c0.4-0.1,0.8-0.2,1.3-0.2
		c0.7,0,1.3,0.1,1.8,0.3c0.5,0.2,0.9,0.5,1.1,0.8c0.2,0.3,0.4,0.8,0.5,1.3l-1.4,0.2c-0.1-0.4-0.3-0.8-0.6-1
		c-0.3-0.2-0.8-0.4-1.3-0.4c-0.7,0-1.2,0.1-1.4,0.3c-0.3,0.2-0.4,0.5-0.4,0.8c0,0.2,0.1,0.4,0.2,0.5c0.1,0.2,0.3,0.3,0.6,0.4
		c0.1,0.1,0.6,0.2,1.3,0.4c1,0.3,1.8,0.5,2.2,0.7c0.4,0.2,0.7,0.4,1,0.8c0.2,0.3,0.4,0.8,0.4,1.3c0,0.5-0.1,1-0.4,1.4
		c-0.3,0.4-0.7,0.8-1.2,1c-0.5,0.2-1.2,0.4-1.8,0.4c-1.1,0-2-0.2-2.6-0.7C268.7,125.9,268.3,125.2,268.2,124.3z"/>
	<path class="st1" d="M113,105.7c-0.5,0-6.4-0.2-7.7-0.2c-1.3,0-2.4,0-5.2,0.2c0.3-4.9,0.6-8.2,0.6-19.4c0-7.2-0.1-9.1-0.4-14.2
		c2.7,0.1,5.3,0.1,7.9,0.1c8.6,0,13.3,0,17.8,3.6c4.2,3.3,5.3,8,5.3,12.2C131.4,100.3,122.7,105.7,113,105.7z M121.2,77
		c-3.4-2.6-7.5-2.6-11.3-2.6c-2.3,0-2.7,0-4.2,0.2c-0.2,4.5-0.2,9.4-0.2,13.8c0,8.9,0,9.9,0.1,14.7c1.6,0.2,2.8,0.3,5.2,0.3
		c2.1,0,6.7,0,10-2.3c4.5-3.2,5.4-8.7,5.4-12.5C126,85,125.2,80.1,121.2,77z"/>
	<path class="st1" d="M133.8,88l0.2-3.1c1.5-1.2,3.9-3,7.8-3c1.9,0,4.5,0.4,6.5,2.2c1.1,1.1,2,2.5,2,5.4c0,1.4-0.2,7.5-0.2,8.7
		c0,4.3,0,5.7,1.8,5.7c0.6,0,1-0.1,1.2-0.2l0,1.4c-1.1,0.5-2.1,1.1-3.5,1.1c-1.6,0-3.1-1-3.7-3.1c-1.5,1.5-3.5,3.4-7.3,3.4
		c-5,0-6.7-3.8-6.7-6.4c0-5.1,4.1-6.1,8-6.9l4.2-0.9c1.4-0.3,1.8-1,1.8-2.3c0-3.3-2.3-5.3-5.4-5.3c-4,0-5.1,2.6-5.5,3.6H133.8z
		 M146,93.6c-8.3,1.3-9.2,3.2-9.2,5.9c0,3.1,2.4,4.1,4.1,4.1c2.5,0,5.1-1.9,5.1-4.6V93.6z"/>
	<path class="st1" d="M160.4,87.2c-1.2,1.8-1.3,4-1.3,9c0,2.4,0,5.9,0.4,9.6c-1-0.2-1.7-0.3-2.5-0.3c-0.8,0-1.5,0.1-2.5,0.3
		c0.2-7.2,0.3-8,0.3-11.2c0-3.5,0-4.4-0.3-12.4c0.7,0.1,1.4,0.3,2.4,0.3c0.9,0,1.7-0.2,2.5-0.3c-0.1,0.6-0.3,2.3-0.3,4.2
		c2.2-3.5,5-4.4,7.4-4.4c3.3,0,5.9,1.3,7.2,4.4c1.9-3.2,5.2-4.4,8-4.4c1.4,0,4.4,0.3,6.2,2.5c1.3,1.6,1.4,3.4,1.4,4.8
		c0,0.5-0.1,6.9-0.1,8.1c0,2.8,0.1,5.6,0.3,8.3c-1-0.2-1.7-0.3-2.6-0.3c-0.9,0-1.6,0.1-2.5,0.3c0.4-4.7,0.4-7.2,0.4-10.4
		c0-6.4-0.2-7.2-1-8.5c-1-1.7-2.7-2-4-2c-5.6,0-5.8,5.8-5.8,8.9c0,3.7,0.2,8.2,0.4,12.1c-0.8-0.2-1.3-0.3-2.6-0.3
		c-1.3,0-1.8,0.1-2.4,0.3c0.3-3.1,0.4-7,0.4-10.4c0-1.8-0.1-6.6-0.8-8.2c-1-2-2.9-2.4-4.3-2.4C163.1,84.8,161.6,85.4,160.4,87.2z"/>
	<path class="st1" d="M205.8,87.6c-0.2-0.7-0.5-1.9-1.9-2.9c-1-0.7-2.4-0.8-3.1-0.8c-2.9,0-4.5,1.5-4.5,3.6c0,2.8,2.8,3.8,4.5,4.3
		c4.3,1.1,7.8,2,7.8,6.9c0,3.7-2.6,7.8-9.3,7.8c-3.9,0-6.6-1.6-7.1-2c0.6-1.2,1-3.2,1.1-3.9l0.6-0.1c0.3,0.8,0.8,2.1,2.6,3.2
		c1.2,0.7,2.5,0.9,3.5,0.9c2.5,0,4.9-1.2,4.9-4c0-2.8-1.6-3.3-6.7-4.9c-2.1-0.7-5.5-2.2-5.5-6.4c0-2.8,1.7-7.2,8.4-7.2
		c3.3,0,5.3,1,6.4,1.6c-0.5,1.3-0.8,2.4-1,4.1H205.8z"/>
	<path class="st1" d="M212.4,84.8c-1.5,0-1.8,0-3.9,0.2c0-0.3,0.1-0.7,0.1-1.2c0-0.5,0-0.8-0.1-1.2c0.4,0,0.9,0.1,1.5,0.1
		c0.6,0,1.4,0.1,2.3,0.1c0-1.7,0-2.9-0.1-5.4c1.4-0.2,4-1.7,4.9-2.2c-0.2,4-0.2,4.4-0.3,7.6c1.8,0,3.6-0.1,5.2-0.2
		c0,0.4-0.1,0.7-0.1,1.2s0,0.8,0.1,1.2c-1.2,0-3.2-0.1-5.2-0.1c-0.2,4.4-0.2,8.9-0.2,13.3c0,3.9,0.6,6.1,3.4,6.1
		c0.4,0,1.6-0.2,2.2-0.3c-0.1,0.5-0.1,0.7,0,1.4c-1.1,0.6-3,0.9-4.1,0.9c-2.8,0-4.3-1.5-5.2-2.9c-0.4-0.7-0.7-1.5-0.7-4.6
		c0-0.8,0-1.6,0.1-6.2V84.8z"/>
	<path class="st1" d="M223.4,88l0.2-3.1c1.5-1.2,3.9-3,7.8-3c1.9,0,4.5,0.4,6.5,2.2c1.1,1.1,2,2.5,2,5.4c0,1.4-0.2,7.5-0.2,8.7
		c0,4.3,0,5.7,1.8,5.7c0.6,0,1-0.1,1.2-0.2l0,1.4c-1.1,0.5-2.1,1.1-3.5,1.1c-1.6,0-3.1-1-3.7-3.1c-1.5,1.5-3.5,3.4-7.3,3.4
		c-5,0-6.7-3.8-6.7-6.4c0-5.1,4.1-6.1,8-6.9l4.2-0.9c1.4-0.3,1.8-1,1.8-2.3c0-3.3-2.3-5.3-5.4-5.3c-4,0-5.1,2.6-5.5,3.6H223.4z
		 M235.5,93.6c-8.3,1.3-9.2,3.2-9.2,5.9c0,3.1,2.4,4.1,4.1,4.1c2.5,0,5.1-1.9,5.1-4.6V93.6z"/>
	<path class="st1" d="M248.7,86.7c1.3-2.3,3.9-4.7,8.5-4.7c7.9,0,8.3,5.7,8.3,8.4c0,0.5-0.2,8.7-0.2,10.3c0,0.9,0,4.3,0.1,5
		c-0.7-0.2-1.3-0.3-2.5-0.3c-1.3,0-1.8,0.1-2.6,0.3c0.4-5.2,0.4-10.5,0.4-11.4c0-4.8-0.2-9.4-5.6-9.4c-2.4,0-4,1-4.9,2.1
		c-0.9,1.1-1.6,2.3-1.6,6.7c0,7.1,0.1,9.1,0.3,12c-0.7-0.2-1.4-0.3-2.6-0.3c-1.2,0-1.8,0.1-2.5,0.3c0.2-3.9,0.3-8.6,0.3-12.5V82.7
		c0-6.5-0.1-8.5-0.2-12.7c0.7,0.1,1.3,0.3,2.5,0.3c1.1,0,1.9-0.2,2.6-0.3c0,0.7-0.2,3.8-0.2,5.4c0,4.2,0,4.6-0.1,6.6L248.7,86.7z"/>
	<path class="st1" d="M269.9,70c0.8,0.1,1.6,0.3,2.5,0.3c0.9,0,1.7-0.1,2.6-0.3c-0.2,7-0.3,9.8-0.3,18.2c0,7.6,0.1,10.8,0.4,17.6
		c-0.7-0.2-1.3-0.3-2.6-0.3c-1.2,0-1.7,0.1-2.5,0.3c0.3-4.9,0.3-6.2,0.3-18.6C270.2,76,270.2,74.8,269.9,70z"/>
	<path class="st1" d="M278.9,74.8c0-2.8,2.2-5.1,5.1-5.1c2.8,0,5.1,2.2,5.1,5.1s-2.2,5.1-5.1,5.1C281.1,79.9,278.9,77.7,278.9,74.8z
		 M279.7,74.8c0,2.4,1.9,4.2,4.2,4.2c2.3,0,4.2-1.9,4.2-4.2c0-2.4-1.9-4.2-4.2-4.2C281.6,70.6,279.7,72.4,279.7,74.8z M286.2,77.7
		h-0.9l-1.5-2.6h-1.1v2.6H282V72h2.4c1,0,2,0.3,2,1.5c0,1.1-0.8,1.5-1.5,1.6L286.2,77.7z M282.8,72.9v1.4h0.9c0.8,0,1.8,0.1,1.8-0.6
		c0-0.7-0.6-0.8-1.3-0.8H282.8z"/>
</g>
</svg>
