<svg id="Ebene_1" data-name="Ebene 1" xmlns="http://www.w3.org/2000/svg" viewBox="0 0 300 200">
  <defs>
    <style>
      .cls-1 {
        fill: #0a1227;
      }
    </style>
  </defs>
  <g id="g5512">
    <g id="g24728">
      <path id="path24730" class="cls-1" d="M213.4,79.8v31.6c0,2.1,1,3.1,3.1,3.2h10.4v3.6c0,.4-.2.6-.7.6H209.4c-5.2,0-6-2.8-6-5.4V82c0-1.5.6-2.2,2.4-2.2h7.6"/>
    </g>
    <g id="g24732">
      <path id="path24734" class="cls-1" d="M194,79.8v37c0,1.6-.7,2-2.1,2H184V81.9c0-1.2.5-2.1,2.3-2.1H194"/>
    </g>
    <g id="g24736">
      <path id="path24738" class="cls-1" d="M28.8,85.2c0-3,.1-5.4,4.9-5.4H55.2v3.8c0,.3-.1.5-.5.5H41.8a2.3,2.3,0,0,0-2.6,2.6v9.9H54.4v3.9c0,.3-.2.5-.6.5H39.2v15.7c0,1.6-.8,2.2-2.4,2.1h-8V85.2"/>
    </g>
    <g id="g24740">
      <path id="path24742" class="cls-1" d="M70.7,79.8v29.8c0,2.5.4,4.3,2.1,5.3a10.5,10.5,0,0,0,9,.1c1.6-1,2.3-2.5,2.3-5.4V81.8c0-1.2.4-2,2.2-2h7.8v28.9c0,6.7-4.3,9.4-8,10.4a35.7,35.7,0,0,1-17.2,0c-5.6-1.7-8.2-5-8.2-10.4V81.8c0-1.3.5-2,2-2h8"/>
    </g>
    <g id="g24744">
      <path id="path24746" class="cls-1" d="M259.6,79.8a3.2,3.2,0,0,0-3.5,2.7l-6.4,26.9h-.2L243,79.8h-9c-1.8,0-2.3.9-2.3,2.3v36.7h3.8a.8.8,0,0,0,.9-.9V87.1h.6l8.1,31.7h5.3c2,0,2.7-.8,3.2-2.8l7.3-28.9h.6v31.7h7.1c1.8,0,2.6-.7,2.6-2.4V79.8H259.6"/>
    </g>
    <g id="g24748">
      <path id="path24750" class="cls-1" d="M141.5,101h-10v17.8h7.9c1.4,0,2.1-.4,2.1-2V101"/>
    </g>
    <g id="g24752">
      <path id="path24754" class="cls-1" d="M140.9,93.4a1.1,1.1,0,0,0,.6-1.1V79.8h-7.7c-1.8,0-2.3.9-2.3,2.1v18.9l9.4-7.4"/>
    </g>
    <g id="g24756">
      <path id="path24758" class="cls-1" d="M106.7,115.7c4.3-.6,5.8-3.1,5.8-6.9V82c0-1.6.8-2.2,2-2.2h8v25.4c0,6.2-1.3,9.4-5,12-2,1.4-5.3,3-12.6,3a56.2,56.2,0,0,1-6.3-.3.6.6,0,0,1-.5-.6V116a53.1,53.1,0,0,0,8.6-.3"/>
    </g>
    <g id="g24760">
      <path id="path24762" class="cls-1" d="M156.7,79.8c-4.9,0-4.9,2.4-4.9,5.4V95.3c0,.2-.1.3-.2.3l-6.8,5.4h7v17.8h7.9c1.7.1,2.4-.5,2.5-2.1V101h14.5c.4,0,.6-.2.6-.5V96.6H162.2V86.7c0-1.8.8-2.6,2.6-2.6h12.8c.4,0,.5-.2.5-.5V79.8H156.7"/>
    </g>
  </g>
</svg>
