<?xml version="1.0" encoding="utf-8"?>
<!-- Generator: Adobe Illustrator 24.2.0, SVG Export Plug-In . SVG Version: 6.00 Build 0)  -->
<svg version="1.1" id="Ebene_1" xmlns="http://www.w3.org/2000/svg" xmlns:xlink="http://www.w3.org/1999/xlink" x="0px" y="0px"
	 viewBox="0 0 300 200" style="enable-background:new 0 0 300 200;" xml:space="preserve">
<style type="text/css">
	.st0{fill:#0A1227;}
	.st1{fill-rule:evenodd;clip-rule:evenodd;fill:#0A1227;}
	.st2{fill:url(#path58_2_);}
	.st3{fill-rule:evenodd;clip-rule:evenodd;fill:#194473;}
	.st4{fill:none;stroke:#194473;stroke-width:1.1801;stroke-miterlimit:5.3333;}
	.st5{fill-rule:evenodd;clip-rule:evenodd;}
	.st6{fill:#008948;}
	.st7{fill-rule:evenodd;clip-rule:evenodd;fill:#008948;}
	.st8{fill:#004E9E;}
	.st9{fill:#1A1A18;}
	.st10{fill:#FFFFFF;}
	.st11{fill:#76BC21;}
	.st12{fill:#1D1D1B;}
	.st13{fill-rule:evenodd;clip-rule:evenodd;fill:#1D1D1B;}
	.st14{fill:#E31513;}
	.st15{fill:#E60001;}
	.st16{fill:#333333;}
	.st17{fill:#BBBDC0;}
	.st18{fill:#1D3B6D;}
	.st19{fill-rule:evenodd;clip-rule:evenodd;fill:#1D3B6D;}
	.st20{fill:#FFFFFF;stroke:#BBBDC0;stroke-width:0.275;stroke-miterlimit:3.8637;}
	.st21{fill:#005B53;}
	.st22{fill:#FF6C0E;}
	.st23{fill:#134094;}
	.st24{fill:#D2022F;}
	.st25{fill:#9D9D9C;}
	.st26{fill:#93B894;}
	.st27{filter:url(#Adobe_OpacityMaskFilter);}
	.st28{fill-rule:evenodd;clip-rule:evenodd;fill:#FFFFFF;}
	.st29{mask:url(#logo-hagesued-b_2_);fill:#FF7200;}
	.st30{filter:url(#Adobe_OpacityMaskFilter_1_);}
	.st31{mask:url(#logo-hagesued-d_2_);fill:#7F3D39;}
	.st32{fill:#FEFEFE;}
	.st33{fill:#606060;}
	.st34{filter:url(#Adobe_OpacityMaskFilter_2_);}
	.st35{mask:url(#logo-hagesued-b_1_);fill:#606060;}
	.st36{fill:none;stroke:#000000;stroke-miterlimit:10;}
	.st37{fill:none;}
	.st38{clip-path:url(#SVGID_2_);fill:#444543;}
	.st39{clip-path:url(#SVGID_4_);}
	.st40{clip-path:url(#SVGID_6_);fill:#D0D0D0;}
	.st41{clip-path:url(#SVGID_8_);fill:#D0D0D0;}
	.st42{fill:#1C1C1C;}
	.st43{fill-rule:evenodd;clip-rule:evenodd;fill:#1C1C1C;}
	.st44{fill:#3F3E3C;}
	.st45{fill:#2374BA;}
	.st46{fill:#AEB2B5;}
	.st47{fill-rule:evenodd;clip-rule:evenodd;fill:#164194;}
	.st48{fill:#E30613;}
	.st49{fill-rule:evenodd;clip-rule:evenodd;fill:#DC911B;}
	.st50{fill:#DC911B;}
	.st51{fill:#FF0066;}
</style>
<g id="Ebene_1_Kopie_1_" transform="translate(0 -0.044)">
	<g id="Gruppe_542" transform="translate(0 0.044)">
		<path id="Pfad_290" class="st42" d="M266.5,97.6v45.6h-10.3V97.6H266.5z"/>
		<path id="Pfad_291" class="st42" d="M257.8,86.6c3.8-4,6.5-8.7,8.5-13.6c0.8-2.2,3.8-9.7,1-14.4c-1.2-2.4-4-3.2-6.3-2.2
			c-0.2,0.2-0.4,0.2-0.6,0.4c-1.6,0.8-2.6,2.2-3.2,3.8c-0.4,1-0.4,1-0.6,1.6c0,0.4-0.2,1-0.2,1.6c-0.2,1.6,0,3,0.8,4.3
			c0.4,0.8,1,1.4,1.8,1.8c0.8,0.6,1.8,0.6,2.4,1.6c0.6,1.4,0.6,2.8,0.2,4.1c-0.4,3.2-1.8,6.1-3.6,8.5c-0.4,0.4-0.8,0.8-1,1.4
			C256.8,85.2,257.8,86.6,257.8,86.6z"/>
		<path id="Pfad_292" class="st43" d="M89.5,111.5c-1.6-3-3.8-5.7-6.5-7.7c-6.1-4.7-13.6-7.3-21.3-7.1l0,0
			c-7.7-0.2-15.2,2.4-21.3,7.1c-2.6,2.2-4.7,4.7-6.5,7.7c-1.4,2.8-2.2,5.7-2.2,8.9c0,3,0.8,6.1,2.2,8.7c1.8,3,4,5.7,6.7,7.7
			c5.9,4.9,13.4,7.5,21.1,7.3l0,0c7.7,0.2,15.2-2.4,21.1-7.3c2.8-2.2,4.9-4.7,6.7-7.7c1.4-2.8,2.2-5.7,2.2-8.7
			C91.4,117.2,90.8,114.2,89.5,111.5z M75.2,133.8c-1.6,2-3.8,3.6-6.1,4.3c-2.6,1-5.1,1.6-7.7,1.6l0,0c-2.8,0-5.3-0.6-7.7-1.6
			c-2.4-1-4.5-2.4-6.1-4.3c-3-4-4.5-8.7-4.5-13.4c0-4.9,1.6-9.9,4.7-13.6c3.4-4,8.5-6.1,13.6-5.9l0,0c5.3-0.4,10.3,1.8,13.6,5.9
			c3.2,4,4.7,8.7,4.7,13.6C80,125.3,78.4,130,75.2,133.8z"/>
		<path id="Pfad_293" class="st42" d="M153.5,97.6v32.6c0,2.6,1,5.1,2.8,6.9c1.8,1.8,4,2.6,6.5,2.6c3.4,0.2,6.5-0.4,9.5-2
			c3.2-2,5.7-4.3,7.9-7.3c2-2.4,3.6-5.1,4.7-7.9c1-2.4,1.6-4.7,1.6-7.3V97.4h10.5v45.6h-10.5v-15.2c-1.8,3.2-4,6.1-6.3,8.7
			c-2.6,2.8-5.5,4.9-9.1,6.3c-2.8,0.8-5.5,1.2-8.3,1.2c-6.3,0-11.3-1.6-14.6-4.7c-3.4-3.2-5.1-7.5-5.1-12.1V97.6L153.5,97.6z"/>
	</g>
</g>
</svg>
