<?xml version="1.0" encoding="utf-8"?>
<!-- Generator: Adobe Illustrator 24.2.0, SVG Export Plug-In . SVG Version: 6.00 Build 0)  -->
<svg version="1.1" id="Ebene_1" xmlns="http://www.w3.org/2000/svg" xmlns:xlink="http://www.w3.org/1999/xlink" x="0px" y="0px"
	 viewBox="0 0 300 200" style="enable-background:new 0 0 300 200;" xml:space="preserve">
<style type="text/css">
	.st0{fill:#0A1227;}
	.st1{fill-rule:evenodd;clip-rule:evenodd;fill:#0A1227;}
	.st2{fill:url(#path58_2_);}
	.st3{fill-rule:evenodd;clip-rule:evenodd;fill:#194473;}
	.st4{fill:none;stroke:#194473;stroke-width:1.1801;stroke-miterlimit:5.3333;}
	.st5{fill-rule:evenodd;clip-rule:evenodd;}
	.st6{fill:#008948;}
	.st7{fill-rule:evenodd;clip-rule:evenodd;fill:#008948;}
	.st8{fill:#004E9E;}
	.st9{fill:#1A1A18;}
	.st10{fill:#FFFFFF;}
	.st11{fill:#76BC21;}
	.st12{fill:#1D1D1B;}
	.st13{fill-rule:evenodd;clip-rule:evenodd;fill:#1D1D1B;}
	.st14{fill:#E31513;}
	.st15{fill:#E60001;}
	.st16{fill:#333333;}
	.st17{fill:#BBBDC0;}
	.st18{fill:#1D3B6D;}
	.st19{fill-rule:evenodd;clip-rule:evenodd;fill:#1D3B6D;}
	.st20{fill:#FFFFFF;stroke:#BBBDC0;stroke-width:0.275;stroke-miterlimit:3.8637;}
	.st21{fill:#005B53;}
	.st22{fill:#FF6C0E;}
	.st23{fill:#134094;}
	.st24{fill:#D2022F;}
	.st25{fill:#9D9D9C;}
	.st26{fill:#93B894;}
	.st27{filter:url(#Adobe_OpacityMaskFilter);}
	.st28{fill-rule:evenodd;clip-rule:evenodd;fill:#FFFFFF;}
	.st29{mask:url(#logo-hagesued-b_2_);fill:#FF7200;}
	.st30{filter:url(#Adobe_OpacityMaskFilter_1_);}
	.st31{mask:url(#logo-hagesued-d_2_);fill:#7F3D39;}
	.st32{fill:#FEFEFE;}
	.st33{fill:#606060;}
	.st34{filter:url(#Adobe_OpacityMaskFilter_2_);}
	.st35{mask:url(#logo-hagesued-b_1_);fill:#606060;}
	.st36{fill:none;stroke:#000000;stroke-miterlimit:10;}
	.st37{fill:none;}
	.st38{clip-path:url(#SVGID_2_);fill:#444543;}
	.st39{clip-path:url(#SVGID_4_);}
	.st40{clip-path:url(#SVGID_6_);fill:#D0D0D0;}
	.st41{clip-path:url(#SVGID_8_);fill:#D0D0D0;}
	.st42{fill:#1C1C1C;}
	.st43{fill-rule:evenodd;clip-rule:evenodd;fill:#1C1C1C;}
	.st44{fill:#3F3E3C;}
	.st45{fill:#2374BA;}
	.st46{fill:#AEB2B5;}
	.st47{fill-rule:evenodd;clip-rule:evenodd;fill:#164194;}
	.st48{fill:#E30613;}
	.st49{fill-rule:evenodd;clip-rule:evenodd;fill:#DC911B;}
	.st50{fill:#DC911B;}
	.st51{fill:#FF0066;}
</style>
<g>
	<path d="M107.1,74.8c-7.6,1.8-7.6,7.7-7.6,10.6v38.8h8.6V95.1h9.4v-7.3h-9.4v-3.1c0-1.7,0.2-2.5,1.3-2.7c2.7-0.6,5.5-1,8.3-1.1
		l1-0.1v-7h-1.1C114.1,73.7,110.6,74.1,107.1,74.8z M123.1,73.6h8.6v50.6h-8.6V73.6z M137.1,87.7h8.6v36.5h-8.6V87.7z M165.9,87.1
		c-2.7,0-5.3,0.6-7.8,1.6l-0.3-1.1h-6.9v36.6h8.6V95.7c2.1-0.6,3-0.9,4.7-0.9c6.2,0,7.1,1.5,7.1,7.3v22.2h8.6v-22.6
		C179.8,90.7,176.3,87.1,165.9,87.1L165.9,87.1z M197.6,117.6c-2.3,0-4.8-0.3-4.8-4V95.1h9.9v-7.3h-9.9v-7.2h-8.6v37.1
		c0,3.1,4.4,7.2,12,7.2c1.9,0,3.8-0.1,5.7-0.4l0.9-0.1v-7l-1.2,0.1C200.4,117.5,198.9,117.6,197.6,117.6z M221.4,87
		c-3.9,0-8.9,0.4-12.2,3.6c-3.1,3-4.5,7.9-4.5,15.4c0,10.2,1.8,15.8,11.9,18.2h0c2.1,0.4,4.2,0.6,6.2,0.6c3.4,0,6.7-0.4,10-1.1
		l0.9-0.2v-7.5l-1.3,0.3c-1.9,0.5-5.7,0.8-9.6,0.8c-1.4,0-2.9-0.1-4.3-0.4c-3.2-0.8-5.1-2.4-5.3-8.4h22.7l0.1-1
		c0.9-7.8-0.1-13.2-3-16.4C230.8,88.3,227,87,221.4,87z M221.4,94.3c2.7,0,4.4,0.5,5.4,1.6c1,1.1,1.4,2.8,1.3,5.6h-14.6
		C214.1,96.2,216.1,94.3,221.4,94.3z M264,116.5c-2.4,0.4-4.8,0.6-7.2,0.6c-5.4,0-8.6-0.5-8.8-6.8v-8.8c0-5.7,3.1-6.8,8.7-6.8
		c2.4,0,4.9,0.2,7.3,0.6v-7.6c-2.8-0.4-5.6-0.6-8.3-0.6c-16.3,0-16.3,10.1-16.3,14.5v8.7c0,4.3,0,14.5,16.3,14.5
		c2.8,0,5.6-0.2,8.3-0.6V116.5z"/>
	<path d="M63.9,75.1c2.1,0,4.2,0.5,6,1.5c3.2,1.6,6.3,3.4,9.2,5.6l0.8,0.6l2.1,1.7l-5.5,4.2c0,0-6.4-5.1-10-6.9
		c-0.4-0.1-0.8-0.2-1.1-0.1c-0.7,0-1.5,0.7-2.4,1.4l-2.3,1.8l9.8,7.6l-5.7,4.4L55,89.2l-10,7.7l-6.7-5.2l15.7-12l1.7-1.3
		C57.2,77.2,60,75.1,63.9,75.1z M64.2,114.1h-0.3l-0.3,0l-0.3-0.1l-0.2,0c-0.2,0-0.4-0.1-0.6-0.1l-0.2,0c-0.3-0.1-0.5-0.2-0.7-0.3
		l-0.2-0.1c-0.2-0.1-0.4-0.2-0.6-0.3l-0.2-0.1c-0.2-0.1-0.4-0.3-0.7-0.4l-10.4-8l-11.6-8.8c-0.7-0.5-1.3-1.3-1.7-2.1
		c0,0-0.1-0.1-0.1-0.1c-0.1,0-0.1,0.1-0.1,0.1v10.7c0,1.4,0.8,2.8,2,3.6l21.9,16.8c0.2,0.2,0.4,0.3,0.7,0.5l0.2,0.1
		c0.2,0.1,0.4,0.2,0.6,0.3l0.2,0.1c0.2,0.1,0.5,0.2,0.7,0.3l0.2,0c0.2,0.1,0.4,0.1,0.6,0.1l0.1,0h0.1l0.3,0l0.3,0h0.8v-12.2
		L64.2,114.1z"/>
	<path d="M93.3,93.8c0-0.1-0.1-0.1-0.1-0.1l0,0c-0.1,0-0.1,0.1-0.1,0.1c0,0.1-0.1,0.3-0.2,0.4l0,0.1c-0.1,0.1-0.1,0.2-0.2,0.3
		l-0.1,0.1c-0.1,0.1-0.1,0.2-0.2,0.3l-0.2,0.2l-0.2,0.2l-0.2,0.2c-0.1,0.1-0.2,0.2-0.4,0.3l-10.4,8l-11.5,8.8
		c-0.2,0.2-0.4,0.3-0.7,0.4l-0.2,0.1c-0.2,0.1-0.4,0.2-0.6,0.3l-0.1,0.1l-0.3,0.1l-0.3,0.1l-0.3,0.1l-0.3,0.1l-0.2,0l-0.4,0.1
		l-0.2,0l-0.3,0c-0.3,0-0.6,0-0.8,0v12.2c0.3,0,0.6,0,0.8,0h0.1l0.2,0l0.2,0l0.4-0.1l0.2,0h0.1l0.3-0.1l0.3-0.1l0.3-0.1l0.3-0.1h0
		l0.1,0c0.2-0.1,0.4-0.2,0.6-0.3l0.2-0.1c0.2-0.1,0.5-0.3,0.7-0.4l21.9-16.8l0.2-0.2l0.1-0.1l0.2-0.2l0.2-0.2l0.2-0.2l0.1-0.1
		c0.1-0.1,0.1-0.1,0.1-0.2l0.1-0.1c0.1-0.1,0.1-0.2,0.2-0.3l0-0.1c0.1-0.1,0.1-0.3,0.2-0.4c0,0,0-0.1,0-0.1c0,0,0.1-0.2,0.1-0.3
		s0,0,0-0.1s0-0.2,0.1-0.2s0-0.2,0-0.2s0-0.2,0-0.2L93.3,93.8L93.3,93.8z"/>
</g>
</svg>
