<?xml version="1.0" encoding="utf-8"?>
<!-- Generator: Adobe Illustrator 24.2.0, SVG Export Plug-In . SVG Version: 6.00 Build 0)  -->
<svg version="1.1" id="Ebene_1" xmlns="http://www.w3.org/2000/svg" xmlns:xlink="http://www.w3.org/1999/xlink" x="0px" y="0px"
	 viewBox="0 0 300 200" style="enable-background:new 0 0 300 200;" xml:space="preserve">
<style type="text/css">
	.st0{fill:#0A1227;}
	.st1{fill-rule:evenodd;clip-rule:evenodd;fill:#0A1227;}
	.st2{fill:url(#path58_2_);}
	.st3{fill-rule:evenodd;clip-rule:evenodd;fill:#194473;}
	.st4{fill:none;stroke:#194473;stroke-width:1.1801;stroke-miterlimit:5.3333;}
	.st5{fill-rule:evenodd;clip-rule:evenodd;}
	.st6{fill:#008948;}
	.st7{fill-rule:evenodd;clip-rule:evenodd;fill:#008948;}
	.st8{fill:#004E9E;}
	.st9{fill:#1A1A18;}
	.st10{fill:#FFFFFF;}
	.st11{fill:#76BC21;}
	.st12{fill:#1D1D1B;}
	.st13{fill-rule:evenodd;clip-rule:evenodd;fill:#1D1D1B;}
	.st14{fill:#E31513;}
	.st15{fill:#E60001;}
	.st16{fill:#333333;}
	.st17{fill:#BBBDC0;}
	.st18{fill:#1D3B6D;}
	.st19{fill-rule:evenodd;clip-rule:evenodd;fill:#1D3B6D;}
	.st20{fill:#FFFFFF;stroke:#BBBDC0;stroke-width:0.275;stroke-miterlimit:3.8637;}
	.st21{fill:#005B53;}
	.st22{fill:#FF6C0E;}
	.st23{fill:#134094;}
	.st24{fill:#D2022F;}
	.st25{fill:#9D9D9C;}
	.st26{fill:#93B894;}
	.st27{filter:url(#Adobe_OpacityMaskFilter);}
	.st28{fill-rule:evenodd;clip-rule:evenodd;fill:#FFFFFF;}
	.st29{mask:url(#logo-hagesued-b_2_);fill:#FF7200;}
	.st30{filter:url(#Adobe_OpacityMaskFilter_1_);}
	.st31{mask:url(#logo-hagesued-d_2_);fill:#7F3D39;}
	.st32{fill:#FEFEFE;}
	.st33{fill:#606060;}
	.st34{filter:url(#Adobe_OpacityMaskFilter_2_);}
	.st35{mask:url(#logo-hagesued-b_1_);fill:#606060;}
	.st36{fill:none;stroke:#000000;stroke-miterlimit:10;}
	.st37{fill:none;}
	.st38{clip-path:url(#SVGID_2_);fill:#444543;}
	.st39{clip-path:url(#SVGID_4_);}
	.st40{clip-path:url(#SVGID_6_);fill:#D0D0D0;}
	.st41{clip-path:url(#SVGID_8_);fill:#D0D0D0;}
	.st42{fill:#3F3E3C;}
	.st43{fill:#2374BA;}
	.st44{fill:#AEB2B5;}
	.st45{fill-rule:evenodd;clip-rule:evenodd;fill:#164194;}
	.st46{fill:#E30613;}
	.st47{fill-rule:evenodd;clip-rule:evenodd;fill:#DC911B;}
	.st48{fill:#DC911B;}
	.st49{fill:#FF0066;}
</style>
<g>
	<path class="st49" d="M126.4,108.1c0,4.1-0.8,6.5-2.5,8.1c-1.7,1.6-4.2,2.1-6.4,2.1c-2.1,0-4.4-0.5-5.9-1.5l0.8-2.5
		c1.2,0.8,3,1.4,5.2,1.4c3.3,0,5.7-1.7,5.7-6.2v-1.9h-0.1c-0.9,1.6-2.9,2.9-5.6,2.9c-4.4,0-7.5-3.7-7.5-8.6c0-6,3.9-9.3,8-9.3
		c3.1,0,4.7,1.6,5.5,3h0.1l0.1-2.7h2.8c-0.1,1.2-0.1,2.7-0.1,4.8V108.1z M123.2,100c0-0.5,0-1-0.2-1.4c-0.6-1.9-2.1-3.4-4.5-3.4
		c-3.1,0-5.2,2.6-5.2,6.7c0,3.5,1.8,6.3,5.2,6.3c2,0,3.8-1.2,4.4-3.3c0.2-0.5,0.3-1.2,0.3-1.7V100z"/>
	<path class="st49" d="M133.4,102.5c0.1,4.3,2.8,6.1,6,6.1c2.3,0,3.7-0.4,4.9-0.9l0.6,2.3c-1.1,0.5-3.1,1.1-5.9,1.1
		c-5.4,0-8.7-3.6-8.7-8.9s3.1-9.5,8.3-9.5c5.8,0,7.3,5,7.3,8.3c0,0.7,0,1.1-0.1,1.5H133.4z M142.8,100.2c0-2-0.8-5.2-4.4-5.2
		c-3.3,0-4.7,2.9-4.9,5.2H142.8z"/>
	<path class="st49" d="M151.1,93.1l2.4,8.9c0.5,2,0.9,3.8,1.3,5.6h0.1c0.4-1.8,1-3.7,1.6-5.6l2.9-9h2.7l2.7,8.8
		c0.7,2.1,1.2,4,1.6,5.7h0.1c0.3-1.8,0.8-3.6,1.3-5.7l2.5-8.8h3.2l-5.7,17.6h-2.9l-2.7-8.4c-0.6-2-1.1-3.7-1.6-5.8h-0.1
		c-0.4,2.1-1,3.9-1.6,5.8l-2.8,8.4h-2.9l-5.3-17.6H151.1z"/>
	<path class="st49" d="M188.8,106.5c0,1.5,0.1,3,0.3,4.2h-2.9l-0.3-2.2h-0.1c-1,1.4-2.9,2.6-5.4,2.6c-3.6,0-5.4-2.5-5.4-5.1
		c0-4.3,3.8-6.6,10.6-6.5v-0.4c0-1.4-0.4-4.1-4-4c-1.7,0-3.4,0.5-4.6,1.3l-0.7-2.1c1.5-0.9,3.6-1.5,5.8-1.5c5.4,0,6.7,3.7,6.7,7.2
		V106.5z M185.7,101.7c-3.5-0.1-7.5,0.5-7.5,4c0,2.1,1.4,3.1,3,3.1c2.3,0,3.8-1.5,4.3-2.9c0.1-0.4,0.1-0.7,0.1-1V101.7z"/>
</g>
</svg>
