<?xml version="1.0" encoding="utf-8"?>
<!-- Generator: Adobe Illustrator 24.2.0, SVG Export Plug-In . SVG Version: 6.00 Build 0)  -->
<svg version="1.1" id="Ebene_1" xmlns="http://www.w3.org/2000/svg" xmlns:xlink="http://www.w3.org/1999/xlink" x="0px" y="0px"
	 viewBox="0 0 300 200" style="enable-background:new 0 0 300 200;" xml:space="preserve">
<style type="text/css">
	.st0{fill:#0A1227;}
	.st1{fill-rule:evenodd;clip-rule:evenodd;fill:#0A1227;}
	.st2{fill:url(#path58_2_);}
	.st3{fill-rule:evenodd;clip-rule:evenodd;fill:#194473;}
	.st4{fill:none;stroke:#194473;stroke-width:1.1801;stroke-miterlimit:5.3333;}
	.st5{fill-rule:evenodd;clip-rule:evenodd;}
	.st6{fill:#008948;}
	.st7{fill-rule:evenodd;clip-rule:evenodd;fill:#008948;}
	.st8{fill:#004E9E;}
	.st9{fill:#1A1A18;}
	.st10{fill:#FFFFFF;}
	.st11{fill:#76BC21;}
	.st12{fill:#1D1D1B;}
	.st13{fill-rule:evenodd;clip-rule:evenodd;fill:#1D1D1B;}
	.st14{fill:#E31513;}
	.st15{fill:#E60001;}
	.st16{fill:#333333;}
	.st17{fill:#BBBDC0;}
	.st18{fill:#1D3B6D;}
	.st19{fill-rule:evenodd;clip-rule:evenodd;fill:#1D3B6D;}
	.st20{fill:#FFFFFF;stroke:#BBBDC0;stroke-width:0.275;stroke-miterlimit:3.8637;}
	.st21{fill:#005B53;}
	.st22{fill:#FF6C0E;}
	.st23{fill:#134094;}
	.st24{fill:#D2022F;}
	.st25{fill:#9D9D9C;}
	.st26{fill:#93B894;}
	.st27{filter:url(#Adobe_OpacityMaskFilter);}
	.st28{fill-rule:evenodd;clip-rule:evenodd;fill:#FFFFFF;}
	.st29{mask:url(#logo-hagesued-b_2_);fill:#FF7200;}
	.st30{filter:url(#Adobe_OpacityMaskFilter_1_);}
	.st31{mask:url(#logo-hagesued-d_2_);fill:#7F3D39;}
	.st32{fill:#FEFEFE;}
	.st33{fill:#606060;}
	.st34{filter:url(#Adobe_OpacityMaskFilter_2_);}
	.st35{mask:url(#logo-hagesued-b_1_);fill:#606060;}
	.st36{fill:none;stroke:#000000;stroke-miterlimit:10;}
	.st37{fill:none;}
	.st38{clip-path:url(#SVGID_2_);fill:#444543;}
	.st39{clip-path:url(#SVGID_4_);}
	.st40{clip-path:url(#SVGID_6_);fill:#D0D0D0;}
	.st41{clip-path:url(#SVGID_8_);fill:#D0D0D0;}
	.st42{fill:#3F3E3C;}
	.st43{fill:#2374BA;}
	.st44{fill:#AEB2B5;}
	.st45{fill-rule:evenodd;clip-rule:evenodd;fill:#164194;}
	.st46{fill:#E30613;}
	.st47{fill-rule:evenodd;clip-rule:evenodd;fill:#DC911B;}
	.st48{fill:#DC911B;}
	.st49{fill:#FF0066;}
</style>
<g>
	<path class="st0" d="M139.9,109.9c6.7,0,13.4,0,20.2,0c0.5,0,0.6-0.2,0.6-0.7c0-1-0.1-1.9,0-2.9c0.1-0.8-0.2-1-1-1
		c-4.8,0-9.6,0-14.4,0h-1v-3.6h14.7c0-1.2,0-2.3,0-3.4c0-0.8-0.2-1.1-1-1.1c-4.2,0-8.4,0-12.6,0c-0.3,0-0.7,0-1.1,0v-2.5h1.1
		c4.8,0,9.6,0,14.4,0c0.7,0,1-0.2,0.9-1c-0.1-0.8-0.1-1.7,0-2.5c0.1-0.8-0.2-1-1-1c-6.3,0-12.6,0-18.9,0c-0.3,0-0.6,0-1,0v19.3
		C139.8,109.8,139.8,109.9,139.9,109.9z"/>
	<path class="st0" d="M194.6,108.9c1.5,0.6,3.1,1,4.6,1c4.9,0.1,9.9,0,14.8,0.1c0.9,0,1.1-0.3,1.1-1.1c0-2.9,0-14.6,0-17.6
		c0-0.7-0.2-1-1-1c-0.8,0.1-1.6,0-2.4,0c-1.4,0-1.4,0-1.4,1.4c0,4.2,0,8.4,0,12.7c0,0.5,0,1-0.7,1c-3.7,0-7.4,0-11.2-0.1
		c-1.9,0-2.6-0.9-2.6-2.8c0-0.3,0-0.5,0-0.8c0-3.5,0-6.9,0-10.4c0-0.7-0.2-1-0.9-1c-1,0.1-2,0-2.9,0c-0.7,0-0.9,0.2-0.9,0.9
		c0.1,4.1,0,8.3,0.2,12.4C191.4,105.9,192.4,108,194.6,108.9z"/>
	<path class="st0" d="M219.5,100.1c0,3,0,6,0,9c0,0.5,0,0.9,0.7,0.9c5.6-0.1,11.3,0,16.9-0.3c3.6-0.2,6.4-2.2,7.2-6.1
		c0.5-2.5,0.5-5-0.1-7.5c-0.5-2.2-1.9-3.9-4-4.7c-1.4-0.5-3-0.9-4.5-1c-5.1-0.1-10.2,0-15.4-0.1c-0.7,0-0.9,0.2-0.9,0.9
		C219.5,94.2,219.5,97.1,219.5,100.1z M224.1,95.6c0-0.6,0.2-0.8,0.8-0.8c3.2,0,6.4,0,9.5,0c0.9,0,1.8,0.2,2.7,0.3
		c1.6,0.3,2.5,1.4,2.6,3c0.1,1.2,0.1,2.4,0,3.5c-0.1,2.6-1.6,3.5-4,3.6c-1.8,0.1-3.6,0-5.4,0c0,0,0,0,0,0c-1.8,0-3.6,0-5.4,0
		c-0.7,0-0.9-0.2-0.9-0.9C224.1,101.5,224.1,98.6,224.1,95.6z"/>
	<path class="st0" d="M183.6,97.7c-0.8-0.2-1.6-0.2-2.4-0.2c-3.8-0.1-7.5-0.1-11.3-0.2c-0.7,0-1.2-0.2-1.2-1.1
		c0-0.9,0.4-1.2,1.1-1.3c0.5,0,1-0.1,1.5-0.1c5,0,10,0,15,0c0.7,0,1-0.2,1-0.9c-0.1-0.9,0-1.8,0-2.8c0-0.7-0.2-0.9-0.9-0.9
		c-2.7,0-5.5,0-8.2,0v0c-2.7,0-5.4-0.1-8.1,0c-2.4,0.1-4.4,0.9-5.4,2.8c-0.3,0.6-0.5,1.3-0.6,2.1c-0.2,1.8,0.1,3.4,1,4.6
		c0.8,1,2,1.7,3.7,2c0.7,0.1,1.5,0.2,2.2,0.2c3.7,0.1,7.5,0.1,11.2,0.2c0.8,0,1.3,0.4,1.3,1.4c0,1.5,0,1.5-1.5,1.8
		c-0.4,0.1-0.8,0.1-1.2,0.1c-5.1,0-10.2,0-15.3,0c-0.3,0-0.6,0-0.7,0.2c-0.2,0.2-0.3,0.4-0.3,0.9c0,0.5,0,1,0,1.5c0,0.3,0,0.6,0,0.9
		c0,1.2,0,1.2,1.2,1.2c4.6,0,9.2,0,13.8,0c1,0,2.1-0.1,3.1-0.2c3.4-0.3,5.1-1.8,5.5-5.1C188.5,101.2,187.3,98.5,183.6,97.7z"/>
	<path class="st0" d="M77.8,90.4c-1.2,0-1.2,0-1.2,1.2c0,1.9,0,3.8,0,5.7H62.4v-6.9c-1.2,0-2.4,0-3.5,0c-0.8,0-1,0.2-1,1
		c0,3.2,0,6.3,0,9.5c0,2.8,0,5.5,0,8.3c0,0.3,0.3,0.7,0.4,0.7c1.3,0.1,2.7,0,4.1,0v-8h14.2v1c0,2.1,0,4.1,0,6.2
		c0,0.3,0.3,0.8,0.4,0.8c1.3,0.1,2.7,0,4,0V90.4C80,90.4,78.9,90.4,77.8,90.4z"/>
	<path class="st0" d="M131.6,97.5v7.9c-3.5,0-7,0-10.4,0c-0.7,0-1.4-0.1-2.1-0.2c-1.8-0.3-2.6-1.2-2.8-3c-0.1-1.4-0.1-2.9,0-4.3
		c0.1-1.3,0.9-2.3,2.2-2.6c1-0.2,2.1-0.4,3.1-0.4c3.8,0,14,0,14,0c0-0.5-0.1-4-0.1-4.4c-1,0-10.3-0.1-13.9-0.1
		c-1.1,0-2.3,0.1-3.4,0.3c-3.2,0.6-5.4,2.4-6.2,5.7c-0.6,2.5-0.6,5,0,7.4c0.7,2.7,2.3,4.6,5.1,5.4c1.3,0.4,2.7,0.6,4.1,0.7
		c4.6,0.1,14.8,0,14.9,0V97.5H131.6z"/>
	<path class="st0" d="M253,99c-0.5-32.1-26.7-58-59-58c-17.5,0-33.2,7.6-44,19.7C139.2,48.6,123.5,41,106,41c-32.6,0-59,26.4-59,59
		c0,32.6,26.4,59,59,59c17.5,0,33.2-7.6,44-19.7c10.8,12.1,26.5,19.7,44,19.7c32.3,0,58.5-25.9,59-58l0-1L253,99z M149.8,135.7
		c-0.5,0.6-1,1.1-1.4,1.7c-0.9,1-1.8,1.9-2.7,2.9c-10.6,10.5-24.7,16.2-39.6,16.2c-14.7,0-28.1-5.6-38.1-14.8
		c10-15.3,19.9-30.5,29.8-45.8c2.1,3.2,4.1,6.3,6.2,9.5h-1.2c-2.6,0-5.1,0-7.7,0c-0.3,0-0.8,0-0.9,0.2c-1,1.4-1.9,2.8-2.9,4.4h20.9
		c-0.2-0.4-0.4-0.7-0.6-1c-3.5-5.4-7.1-10.7-10.5-16.2c-1-1.7-2.1-2.5-4.2-2.2c-0.7,0.1-1.2,0.2-1.6,0.9
		c-9.1,14.1-18.3,28.1-27.4,42.2c-1.1,1.6-2.1,3.3-3.2,4.9c-9.4-10.1-15.1-23.6-15.1-38.4c0-31.1,25.3-56.4,56.4-56.4
		c14.9,0,29,5.8,39.6,16.2c0.9,0.9,1.8,1.9,2.7,2.9c0.5,0.6,1,1.1,1.4,1.7c8,9.8,12.5,21.9,12.7,34.7l0,0.9l0,0.9
		C162.3,113.7,157.8,125.9,149.8,135.7z M194,156.8c-16.9,0-32.1-7.4-42.5-19.2c-0.4-0.5-0.8-0.9-1.2-1.4
		c8.2-9.9,12.7-22.3,12.9-35.3l0-0.9l0-0.9c-0.2-13-4.8-25.4-12.9-35.3c0.4-0.5,0.8-0.9,1.2-1.4C161.9,50.6,177,43.2,194,43.2
		c11.4,0,22.1,3.4,31,9.2c-8.3,12.7-16.5,25.3-24.8,38.1c1.7,0,3.2,0,4.6,0c0.7,0,1.1-0.2,1.4-0.8c7.2-11.2,14.5-22.3,21.7-33.4
		c0.2-0.4,0.5-0.7,0.8-1.2c13.4,10.4,22,26.6,22,44.8C250.8,131.4,225.3,156.8,194,156.8z"/>
</g>
</svg>
