<svg id="Ebene_1" data-name="Ebene 1" xmlns="http://www.w3.org/2000/svg" viewBox="0 0 300 200">
  <defs>
    <style>
      .cls-1 {
        fill: #0a1227;
      }
    </style>
  </defs>
  <g>
    <path class="cls-1" d="M107.6,111.9a4.5,4.5,0,0,1-4.8,4.4,4,4,0,0,1-1.6,0c-2.8-.3-6.5-.7-7.1-.9V83.7l7.1-1.1h1.6a4.5,4.5,0,0,1,4.8,4.4Zm-.3-38.8h-1.1c-3.1,0-8.4,1.1-12.2,1.9l-9.3,2.1v45.5c3.6.6,5.8,1.1,9.4,1.5,5.4.9,6.9,1.2,11.9,1.8h1.4a10.3,10.3,0,0,0,10.4-10.3V83.5a10.7,10.7,0,0,0-10.5-10.4"/>
    <path class="cls-1" d="M151.5,112.5a7,7,0,1,1-14,0V87a7,7,0,1,1,14,0Zm-5.8-42.1h-2.4A15.4,15.4,0,0,0,128,85.7v28A15.4,15.4,0,0,0,143.3,129h2.4A15.4,15.4,0,0,0,161,113.7v-28a15.4,15.4,0,0,0-15.3-15.3"/>
    <path class="cls-1" d="M216.9,128.7c-21.6,7.2-46.8,11-73,11s-51.3-3.8-73-11V71.3c21.7-7.3,46.9-11.1,73-11.1s51.3,3.8,73,11Zm3.9-62.6c-22.6-7.9-49.1-12-76.9-12S89.6,58.2,67,66.1l-2.2.8v66.2l2.2.8c22.6,7.8,49.3,12,76.9,12s54.3-4.1,76.9-12l2.2-.8V66.9"/>
    <path class="cls-1" d="M171.4,127.6V72.2l6.5.8a25.7,25.7,0,0,1,4,.6l6.9,18.8,8.4-15.9a32.5,32.5,0,0,0,4.2,1.1l3.2.7v43.2a20.4,20.4,0,0,1-3.5,1.1l-3.9.9V94l-8.7,18.4-7.7-18.8v32.7l-4.2.7a46,46,0,0,1-5.2.6"/>
    <path class="cls-1" d="M229.4,71.2h1c.7,0,1,.1,1,.6s-.3.6-.8.6h-1.1V71.2Zm-1.1,4.2h.9V73.3h1.1l.9,2.1h1.1l-.9-2.3a1.1,1.1,0,0,0,.9-1.2c0-1.5-1.1-1.7-2.2-1.7h-1.6v5.2ZM226,73a4.1,4.1,0,0,1,4.1-4.1,4.1,4.1,0,1,1,0,8.2A4.2,4.2,0,0,1,226,73m4.3,4.9a4.9,4.9,0,0,0,4.9-4.9,5,5,0,0,0-4.9-4.9,4.9,4.9,0,0,0-4.9,4.9,4.8,4.8,0,0,0,4.9,4.9"/>
  </g>
</svg>
