<?xml version="1.0" encoding="utf-8"?>
<!-- Generator: Adobe Illustrator 24.2.0, SVG Export Plug-In . SVG Version: 6.00 Build 0)  -->
<svg version="1.1" id="Ebene_1" xmlns="http://www.w3.org/2000/svg" xmlns:xlink="http://www.w3.org/1999/xlink" x="0px" y="0px"
	 viewBox="0 0 300 200" style="enable-background:new 0 0 300 200;" xml:space="preserve">
<style type="text/css">
	.st0{fill:#0A1227;}
	.st1{fill-rule:evenodd;clip-rule:evenodd;fill:#0A1227;}
	.st2{fill:url(#path58_2_);}
	.st3{fill-rule:evenodd;clip-rule:evenodd;fill:#194473;}
	.st4{fill:none;stroke:#194473;stroke-width:1.1801;stroke-miterlimit:5.3333;}
	.st5{fill-rule:evenodd;clip-rule:evenodd;}
	.st6{fill:#008948;}
	.st7{fill-rule:evenodd;clip-rule:evenodd;fill:#008948;}
	.st8{fill:#004E9E;}
	.st9{fill:#1A1A18;}
	.st10{fill:#FFFFFF;}
	.st11{fill:#76BC21;}
	.st12{fill:#1D1D1B;}
	.st13{fill-rule:evenodd;clip-rule:evenodd;fill:#1D1D1B;}
	.st14{fill:#E31513;}
	.st15{fill:#E60001;}
	.st16{fill:#333333;}
	.st17{fill:#BBBDC0;}
	.st18{fill:#1D3B6D;}
	.st19{fill-rule:evenodd;clip-rule:evenodd;fill:#1D3B6D;}
	.st20{fill:#FFFFFF;stroke:#BBBDC0;stroke-width:0.275;stroke-miterlimit:3.8637;}
	.st21{fill:#005B53;}
	.st22{fill:#FF6C0E;}
	.st23{fill:#134094;}
	.st24{fill:#D2022F;}
	.st25{fill:#9D9D9C;}
	.st26{fill:#93B894;}
	.st27{filter:url(#Adobe_OpacityMaskFilter);}
	.st28{fill-rule:evenodd;clip-rule:evenodd;fill:#FFFFFF;}
	.st29{mask:url(#logo-hagesued-b_2_);fill:#FF7200;}
	.st30{filter:url(#Adobe_OpacityMaskFilter_1_);}
	.st31{mask:url(#logo-hagesued-d_2_);fill:#7F3D39;}
	.st32{fill:#FEFEFE;}
	.st33{fill:#606060;}
	.st34{filter:url(#Adobe_OpacityMaskFilter_2_);}
	.st35{mask:url(#logo-hagesued-b_1_);fill:#606060;}
	.st36{fill:none;stroke:#000000;stroke-miterlimit:10;}
	.st37{fill:none;}
	.st38{clip-path:url(#SVGID_2_);fill:#444543;}
	.st39{clip-path:url(#SVGID_4_);}
	.st40{clip-path:url(#SVGID_6_);fill:#D0D0D0;}
	.st41{clip-path:url(#SVGID_8_);fill:#D0D0D0;}
	.st42{fill:#3F3E3C;}
	.st43{fill:#2374BA;}
	.st44{fill:#AEB2B5;}
	.st45{fill-rule:evenodd;clip-rule:evenodd;fill:#164194;}
	.st46{fill:#E30613;}
	.st47{fill-rule:evenodd;clip-rule:evenodd;fill:#DC911B;}
	.st48{fill:#DC911B;}
	.st49{fill:#FF0066;}
</style>
<g>
	<path class="st0" d="M107.6,111.9c0,2.6-2.1,4.4-4.7,4.4c0,0-1.1,0.2-1.7,0c-2.7-0.3-6.4-0.8-7-0.9V83.7c1.1-0.2,5.2-0.9,7-1.1
		c0.6,0,1.7,0,1.7,0c2.6,0,4.7,1.8,4.7,4.4V111.9z M107.3,73.1c0,0-0.9,0-1.1,0c-3.1,0-8.4,1.1-12.2,1.8l-9.3,2.1v45.5
		c3.7,0.6,5.8,1.1,9.5,1.5c5.3,0.9,6.9,1.2,11.9,1.8c0.2,0,1.4,0,1.4,0c5.6,0,10.4-4.6,10.4-10.4V83.5
		C117.6,77.9,113.1,73.1,107.3,73.1"/>
	<path class="st0" d="M151.5,112.5c0,4.1-3.2,7.5-7,7.5c-3.8,0-7-3.4-7-7.5V87c0-4.1,3.2-7.5,7-7.5c3.8,0,7,3.4,7,7.5V112.5z
		 M145.7,70.4h-2.4c-8.4,0-15.3,6.9-15.3,15.3v28.1c0,8.4,6.9,15.3,15.3,15.3h2.4c8.4,0,15.3-6.9,15.3-15.3V85.7
		C161,77.3,154.1,70.4,145.7,70.4"/>
	<path class="st0" d="M216.9,128.7c-21.5,7.2-46.7,11-73,11s-51.3-3.8-73-11V71.3c21.7-7.3,46.9-11.1,73-11.1c26.3,0,51.3,3.8,73,11
		L216.9,128.7z M220.8,66.1c-22.6-7.9-49.2-12.1-76.9-12.1c-27.6,0-54.3,4.1-76.9,12.1l-2.1,0.8v66.2l2.1,0.8
		c22.6,7.8,49.3,12.1,76.9,12.1s54.3-4.1,76.9-12.1l2.1-0.8V66.9"/>
	<path class="st0" d="M171.4,127.6V72.2c2.6,0.3,4,0.5,6.6,0.8c1.5,0.2,2.4,0.3,4,0.6l6.9,18.8l8.4-15.9c1.7,0.5,2.6,0.8,4.3,1.1
		c1.2,0.3,2,0.5,3.2,0.8v43.2c-1.4,0.5-2.1,0.8-3.5,1.1c-1.5,0.5-2.4,0.6-4,0.9V94l-8.7,18.3l-7.6-18.8v32.7
		c-1.7,0.3-2.6,0.5-4.3,0.8C174.6,127.3,173.4,127.5,171.4,127.6"/>
	<path class="st0" d="M229.4,71.2h1.1c0.6,0,0.9,0.2,0.9,0.6c0,0.5-0.3,0.6-0.8,0.6h-1.1v-1.2H229.4z M228.3,75.4h0.9v-2.1h1.1
		l0.9,2.1h1.1l-0.9-2.3c0.3-0.2,0.9-0.3,0.9-1.2c0-1.5-1.1-1.7-2.1-1.7h-1.7v5.2H228.3z M226,73c0-2.3,1.8-4.1,4.1-4.1
		s4.1,1.8,4.1,4.1c0,2.3-1.8,4.1-4.1,4.1C228,77.1,226,75.3,226,73 M230.3,77.9c2.7,0,4.9-2.1,4.9-4.9c0-2.6-2.1-4.9-4.9-4.9
		c-2.6,0-4.9,2.1-4.9,4.9C225.4,75.7,227.5,77.9,230.3,77.9"/>
</g>
</svg>
