<?xml version="1.0" encoding="utf-8"?>
<!-- Generator: Adobe Illustrator 24.2.0, SVG Export Plug-In . SVG Version: 6.00 Build 0)  -->
<svg version="1.1" id="Ebene_1" xmlns="http://www.w3.org/2000/svg" xmlns:xlink="http://www.w3.org/1999/xlink" x="0px" y="0px"
	 viewBox="0 0 300 200" style="enable-background:new 0 0 300 200;" xml:space="preserve">
<style type="text/css">
	.st0{fill:#0A1227;}
	.st1{fill-rule:evenodd;clip-rule:evenodd;fill:#0A1227;}
	.st2{fill:url(#path58_2_);}
	.st3{fill-rule:evenodd;clip-rule:evenodd;fill:#194473;}
	.st4{fill:none;stroke:#194473;stroke-width:1.1801;stroke-miterlimit:5.3333;}
	.st5{fill-rule:evenodd;clip-rule:evenodd;}
	.st6{fill:#008948;}
	.st7{fill-rule:evenodd;clip-rule:evenodd;fill:#008948;}
	.st8{fill:#004E9E;}
	.st9{fill:#1A1A18;}
	.st10{fill:#FFFFFF;}
	.st11{fill:#76BC21;}
	.st12{fill:#1D1D1B;}
	.st13{fill-rule:evenodd;clip-rule:evenodd;fill:#1D1D1B;}
	.st14{fill:#E31513;}
	.st15{fill:#E60001;}
	.st16{fill:#333333;}
	.st17{fill:#BBBDC0;}
	.st18{fill:#1D3B6D;}
	.st19{fill-rule:evenodd;clip-rule:evenodd;fill:#1D3B6D;}
	.st20{fill:#FFFFFF;stroke:#BBBDC0;stroke-width:0.275;stroke-miterlimit:3.8637;}
	.st21{fill:#005B53;}
	.st22{fill:#FF6C0E;}
	.st23{fill:#134094;}
	.st24{fill:#D2022F;}
	.st25{fill:#9D9D9C;}
	.st26{fill:#93B894;}
	.st27{filter:url(#Adobe_OpacityMaskFilter);}
	.st28{fill-rule:evenodd;clip-rule:evenodd;fill:#FFFFFF;}
	.st29{mask:url(#logo-hagesued-b_2_);fill:#FF7200;}
	.st30{filter:url(#Adobe_OpacityMaskFilter_1_);}
	.st31{mask:url(#logo-hagesued-d_2_);fill:#7F3D39;}
	.st32{fill:#FEFEFE;}
	.st33{fill:#606060;}
	.st34{filter:url(#Adobe_OpacityMaskFilter_2_);}
	.st35{mask:url(#logo-hagesued-b_1_);fill:#606060;}
	.st36{fill:none;stroke:#000000;stroke-miterlimit:10;}
	.st37{fill:none;}
	.st38{clip-path:url(#SVGID_2_);fill:#444543;}
	.st39{clip-path:url(#SVGID_4_);}
	.st40{clip-path:url(#SVGID_6_);fill:#D0D0D0;}
	.st41{clip-path:url(#SVGID_8_);fill:#D0D0D0;}
	.st42{fill:#1C1C1C;}
	.st43{fill-rule:evenodd;clip-rule:evenodd;fill:#1C1C1C;}
	.st44{fill:#3F3E3C;}
	.st45{fill:#2374BA;}
	.st46{fill:#AEB2B5;}
	.st47{fill-rule:evenodd;clip-rule:evenodd;fill:#164194;}
	.st48{fill:#E30613;}
	.st49{fill-rule:evenodd;clip-rule:evenodd;fill:#DC911B;}
	.st50{fill:#DC911B;}
	.st51{fill:#FF0066;}
</style>
<path class="st1" d="M76.3,107.4L91.1,84h14.4l-18.8,29.6c-0.9,1.5-2.6,2.4-4.4,2.4H70.2c-1.8,0-3.4-0.9-4.4-2.4L47.1,84h14.4
	L76.3,107.4z M151.3,84h-35.5c-3.8,0-6.9,3.1-6.9,6.9v18.2c0,3.8,3.1,6.9,6.9,6.9h35.5c3.8,0,6.9-3.1,6.9-6.9V90.9
	C158.2,87.1,155.1,84,151.3,84L151.3,84z M146.1,107.4H121V92.7h25.1V107.4z M203.2,107.4h-26.8V84h-12.1v25.1
	c0,3.8,3.1,6.9,6.9,6.9l0,0h32L203.2,107.4z M252.9,88.8c0,2.4-1.3,4.7-3.3,5.9l-20.9,12.7h24.2v8.6h-43.7v-4.8
	c0-2.4,1.3-4.7,3.3-5.9l20.9-12.7h-24.2V84h43.7V88.8z"/>
</svg>
