<svg id="Ebene_1" data-name="Ebene 1" xmlns="http://www.w3.org/2000/svg" viewBox="0 0 300 200">
  <defs>
    <style>
      .cls-1 {
        fill: #0a1227;
      }
    </style>
  </defs>
  <g>
    <polygon class="cls-1" points="89 102.9 96 102.9 92.6 94.5 89 102.9"/>
    <path class="cls-1" d="M256.7,99.6a33,33,0,0,0-32.6-32.5H76.6a32.9,32.9,0,1,0-.7,65.8H224.1A32.9,32.9,0,0,0,256.7,99.6Zm-6.2,1.4a27.3,27.3,0,0,1-26.4,26.4H76.6a27.4,27.4,0,1,1,0-54.8H224.1A27.5,27.5,0,0,1,250.5,101Z"/>
    <path class="cls-1" d="M138.2,102.9h-5.8v7.7h5.7a.8.8,0,0,0,.7-.7v-6.3A.7.7,0,0,0,138.2,102.9Z"/>
    <path class="cls-1" d="M138.2,89.5h-5.8v7.6h5.7a.7.7,0,0,0,.7-.7V90.2A.7.7,0,0,0,138.2,89.5Z"/>
    <path class="cls-1" d="M224.1,77.1H76.6a22.9,22.9,0,0,0-.6,45.8H224.1a22.9,22.9,0,0,0,0-45.8ZM114.8,116.3H101.5l-3.1-7.6H86.6l-3.2,7.6H73.2v-5.7h2.4l8.8-21.1H82V83.7h19.4l11.1,26.9h2.3Zm36.9-19.1a3,3,0,0,1-3,2.8,2.9,2.9,0,0,1,3,3v10.5a2.9,2.9,0,0,1-3,2.9H117.2v-5.8h2.3V89.5h-2.3V83.7h31.5a2.9,2.9,0,0,1,3,2.9Zm39.2-7.7h-2.3v23.9a2.9,2.9,0,0,1-3,2.9H159.3a2.9,2.9,0,0,1-2.9-2.9V89.5H154V83.7h15.2v26.1a.9.9,0,0,0,.8.8h5a.8.8,0,0,0,.7-.8V83.7h15.2Zm34.5,2.3H212.6V90.2a.7.7,0,0,0-.7-.7h-5a.7.7,0,0,0-.8.7v6.9h19.3v16.3a2.9,2.9,0,0,1-2.9,2.9H196.2a2.9,2.9,0,0,1-2.9-2.9v-5.2h12.8v1.6a.8.8,0,0,0,.8.8h5a.8.8,0,0,0,.7-.8v-6.9H193.3V86.6a2.9,2.9,0,0,1,2.9-2.9h26.3a2.9,2.9,0,0,1,2.9,2.9Z"/>
  </g>
</svg>
