<svg id="Ebene_1" data-name="Ebene 1" xmlns="http://www.w3.org/2000/svg" viewBox="0 0 300 200">
  <defs>
    <style>
      .cls-1 {
        fill: #0a1227;
      }
    </style>
  </defs>
  <g>
    <path class="cls-1" d="M225.7,96.4l1.8.2h1.8a3.4,3.4,0,0,1,1.7.3,1,1,0,0,1,.7,1,2.2,2.2,0,0,1-1,1.6,5.1,5.1,0,0,1-2.7.6,4.4,4.4,0,0,1-2.5-.5,1.6,1.6,0,0,1-.9-1.4,2.1,2.1,0,0,1,1.1-1.8m-3.2,3.7a3.8,3.8,0,0,0,1.1,1.1,4.8,4.8,0,0,0,1.8.6,7.5,7.5,0,0,0,2.2.2,12.3,12.3,0,0,0,2.9-.3,5.6,5.6,0,0,0,2.2-1,7.1,7.1,0,0,0,1.5-1.5,4.5,4.5,0,0,0,.5-1.9,2.8,2.8,0,0,0-1.2-2.5,7.5,7.5,0,0,0-3.7-.8h-2.4a2.7,2.7,0,0,1-1.7-.4,1.1,1.1,0,0,1-.5-.9,1.2,1.2,0,0,1,.2-.7,1.3,1.3,0,0,1,.5-.6c.2.2.6.2.9.3h.9a6.4,6.4,0,0,0,2-.3,3.5,3.5,0,0,0,1.6-.9,3.7,3.7,0,0,0,1.4-3.3,2.5,2.5,0,0,0-.2-1.3,3.1,3.1,0,0,0-.5-1h2.4V82.7h-4.8l-.9-.2h-1.1a6.5,6.5,0,0,0-2,.2,4.8,4.8,0,0,0-1.7,1,4.2,4.2,0,0,0-1.1,1.5,4.6,4.6,0,0,0-.5,2,4.6,4.6,0,0,0,.5,2.1,8.6,8.6,0,0,0,1.3,1.4h0a3.5,3.5,0,0,0-1,1.1,3,3,0,0,0-.5,1.5,2.5,2.5,0,0,0,.4,1.3,2,2,0,0,0,.9.9h0a4.9,4.9,0,0,0-1.5,1.3,3,3,0,0,0-.5,1.6,5.2,5.2,0,0,0,.6,1.5m3.6-10.8a3.2,3.2,0,0,1-.6-2,3,3,0,0,1,.6-2,2.7,2.7,0,0,1,1.7-.6,2,2,0,0,1,1.6.7,2.4,2.4,0,0,1,.7,1.9,2.6,2.6,0,0,1-.7,2,2.1,2.1,0,0,1-1.6.8,3.8,3.8,0,0,1-1.7-.8m11.3,6.9h3.2V88a5.3,5.3,0,0,1,1.5-2.2,2.7,2.7,0,0,1,1.6-.6h1.4l.6-2.7a3.7,3.7,0,0,0-3.6.4,5.9,5.9,0,0,0-1.8,2h-.1l-.2-2.4h-2.6V96.2Zm9.3-3.7a5.7,5.7,0,0,0,1.5,2.2,5.6,5.6,0,0,0,2,1.4,6.6,6.6,0,0,0,2.3.4,6.9,6.9,0,0,0,2.5-.4,6.5,6.5,0,0,0,3.4-3.6,7.1,7.1,0,0,0,.5-2.9,7.3,7.3,0,0,0-.5-3,6.4,6.4,0,0,0-1.4-2.2,6.6,6.6,0,0,0-2-1.4,7,7,0,0,0-2.5-.5,5.9,5.9,0,0,0-2.3.5,4.8,4.8,0,0,0-2,1.4,8.6,8.6,0,0,0-1.5,2.2,9.4,9.4,0,0,0-.5,3,9.3,9.3,0,0,0,.5,2.9m3.5-6.2a2.8,2.8,0,0,1,2.3-1.3,2.6,2.6,0,0,1,2.3,1.3,4.9,4.9,0,0,1,.9,3.2,5.3,5.3,0,0,1-.9,3.2,2.6,2.6,0,0,1-2.3,1.2,2.7,2.7,0,0,1-2.3-1.2,6.1,6.1,0,0,1-.8-3.2,6.5,6.5,0,0,1,.8-3.2m11.5,4.9a6.8,6.8,0,0,0,1,4,3.5,3.5,0,0,0,3.1,1.3,5.4,5.4,0,0,0,2.5-.6,14.1,14.1,0,0,0,1.8-1.7h.1l.2,2H273V82.8h-3.2v9.1a6.9,6.9,0,0,1-1.4,1.5,3.3,3.3,0,0,1-1.5.4,1.9,1.9,0,0,1-1.6-.7,4.1,4.1,0,0,1-.5-2.3v-8h-3.1v8.4ZM279.5,95a5.5,5.5,0,0,0,1.7,1.1,3.8,3.8,0,0,0,1.8.3,5.2,5.2,0,0,0,3.9-1.9,11.6,11.6,0,0,0,1.3-2.2,10.1,10.1,0,0,0,.5-3.1,8.6,8.6,0,0,0-.4-2.8,5,5,0,0,0-1-2.2,5.1,5.1,0,0,0-1.6-1.3,5.4,5.4,0,0,0-2.2-.5,4.2,4.2,0,0,0-2.2.5,7.6,7.6,0,0,0-1.9,1.2h-.1l-.2-1.4h-2.6v18.6h3.2V97.2l-.2-2.2Zm.1-8.5a4.3,4.3,0,0,1,2.9-1.5,2.6,2.6,0,0,1,2.3,1.2,6.6,6.6,0,0,1,.6,3.1,5.8,5.8,0,0,1-.9,3.5,2.7,2.7,0,0,1-2.3,1.1,2.5,2.5,0,0,1-1.2-.2,3.7,3.7,0,0,1-1.5-.8V86.5Z"/>
    <path class="cls-1" d="M124.6,97.1H113.4a.9.9,0,0,0-1,1v3.7a.9.9,0,0,0,1,1h6v7.1a10.7,10.7,0,0,1-6.3,1.9c-4.5,0-7.2-2.4-7.2-6.5V94.7c0-4.1,2.5-6.5,6.8-6.5a15.3,15.3,0,0,1,8.2,2.2.9.9,0,0,0,1.3-.3l2.4-3.3a1.9,1.9,0,0,0,.2-.7c0-.2-.2-.4-.5-.6a22.7,22.7,0,0,0-11.5-3.3c-6.1,0-13.1,3.3-13.1,12.4v10.7c0,9.2,7.2,12.4,13.5,12.4a16.4,16.4,0,0,0,12.2-5,1.4,1.4,0,0,0,.3-.9V98a1,1,0,0,0-1.1-.9"/>
    <path class="cls-1" d="M215.2,116,203.9,83.6a1.1,1.1,0,0,0-1-.8h-5.4a1.1,1.1,0,0,0-1,.8l-11.3,32.5a.9.9,0,0,0,.1.9c.1.2.4.2.7.2h4.6a1.1,1.1,0,0,0,1.1-.7l2.2-7h12.6l2.2,7a1,1,0,0,0,1.1.7h4.7a1,1,0,0,0,.7-.2c0-.3.2-.5,0-1m-10.6-12.2h-8.9L200.1,90l4.5,13.8Z"/>
    <path class="cls-1" d="M91.9,82.8H87.5c-.6,0-.9.4-.9,1v32.4c0,.7.3,1,.9,1h4.4a.9.9,0,0,0,.9-1V83.8a.9.9,0,0,0-.9-1"/>
    <path class="cls-1" d="M153.6,111.4h-15v-8.6h13.1a.9.9,0,0,0,1-1V98a.9.9,0,0,0-1-1h-13V88.6h14.2a.9.9,0,0,0,1-1V83.8a.9.9,0,0,0-1-1H133.3c-.6,0-.9.4-.9,1v32.4c0,.7.3,1,.9,1h20.3a.9.9,0,0,0,1-1v-3.8a.9.9,0,0,0-1-1"/>
    <path class="cls-1" d="M173.6,82.8H161.7a.9.9,0,0,0-.9,1v32.4a.9.9,0,0,0,.9,1h4.4c.6,0,.9-.3.9-1v-9.7h6.7c7.6,0,12.1-4.5,12.1-11.9s-4.5-11.8-12.2-11.8M167,88.7h6c4.4,0,6.4,1.9,6.4,5.9s-2,6.1-6.4,6.1h-6v-12Z"/>
    <path class="cls-1" d="M48.8,127.6a16.7,16.7,0,0,0,4.2-2.5,14.2,14.2,0,0,0,2.8-4,13.9,13.9,0,0,0,1.3-4.4,14.3,14.3,0,0,0-.7-5.8,30,30,0,0,0-2.3-4.3l-.4-.4H37.6c2.5,3.6,3.2,4.8,4.2,7.5a14.6,14.6,0,0,1,.7,5.3c-.1.4-.1,1-.2,1.5h-.1l-10.7.6a9.4,9.4,0,0,0,.3,4.3h0a4,4,0,0,0,1.7,2.1,11.8,11.8,0,0,0,1.6.8h0a20.3,20.3,0,0,0,13.7-.7m-14.5-1.5a1.8,1.8,0,0,1-1-1.2,6.1,6.1,0,0,1-.3-2.1h0l8.6-.5v.2a7.1,7.1,0,0,1-3.5,3.9c0,.1-.1.1-.3.1a3.6,3.6,0,0,1-3.5-.3m5.7,1.4h-.4a10.4,10.4,0,0,0,4.9-8.3,14.2,14.2,0,0,0-.8-6,16.9,16.9,0,0,0-2.6-5.1H52.7a17.8,17.8,0,0,1,1.9,3.6,11.8,11.8,0,0,1-2.8,12.1,10.8,10.8,0,0,1-3.7,2.4,21.2,21.2,0,0,1-8.1,1.3"/>
    <path class="cls-1" d="M70.5,100.4a12.5,12.5,0,0,0-1.2-4.7,10.4,10.4,0,0,0-2.8-3.9,14,14,0,0,0-3.9-2.6,13.5,13.5,0,0,0-5.7-1.1,21.3,21.3,0,0,0-4.8.9l-.6.2-5,15.3c4.3-1.3,5.5-1.5,8.5-1.6a12.1,12.1,0,0,1,5.2.9l1.3.7h.1L58.9,115a8.7,8.7,0,0,0,4.1,1.1h0a4.2,4.2,0,0,0,2.5-.9l1.2-1.4h0a20.5,20.5,0,0,0,3.8-13.4m-5.8,13.4a2,2,0,0,1-1.5.5,4.6,4.6,0,0,1-2-.4h0l2.1-8.4h.2a7.1,7.1,0,0,1,2.5,4.5v.3a4.4,4.4,0,0,1-1.3,3.4m3-5-.2.3s-.8-4.6-6.4-7.2a12.5,12.5,0,0,0-5.9-1.1,23.9,23.9,0,0,0-5.7.8l3.6-11h0a19.4,19.4,0,0,1,4-.6,11.6,11.6,0,0,1,10.7,6.4,10.9,10.9,0,0,1,1.1,4.3,21.3,21.3,0,0,1-1.2,8.1"/>
    <path class="cls-1" d="M51.3,71.3a16.4,16.4,0,0,0-4.8-.4,12.7,12.7,0,0,0-4.6,1.5,10.6,10.6,0,0,0-3.7,2.9,12.7,12.7,0,0,0-2.8,5.1,17.3,17.3,0,0,0-.6,4.7v.6l13,9.5c0-4.5.2-5.9,1-8.7a13.4,13.4,0,0,1,2.5-4.6l1.1-1.1h.1l9,5.8A8.6,8.6,0,0,0,63.8,83h0a3.6,3.6,0,0,0-.1-2.7,11.6,11.6,0,0,0-.8-1.6h0a23.1,23.1,0,0,0-11.6-7.4M62.2,81a2.6,2.6,0,0,1,.1,1.5,7.8,7.8,0,0,1-1,1.9h-.1l-7.3-4.7h.2a7.5,7.5,0,0,1,5.1-1.1h.3A4,4,0,0,1,62.2,81m-3.8-4.4.3.3s-4.7-.7-8.9,3.8A12.8,12.8,0,0,0,47,86a19.6,19.6,0,0,0-1.1,5.6l-9.3-6.7h0a16.7,16.7,0,0,1,.7-4,11.6,11.6,0,0,1,9.4-8.2,10.7,10.7,0,0,1,4.3.3,20.6,20.6,0,0,1,7.4,3.7"/>
    <path class="cls-1" d="M17.8,80.6a12.1,12.1,0,0,0-1.9,4.5,16.4,16.4,0,0,0,0,4.8,13.7,13.7,0,0,0,1.6,4.4,12.3,12.3,0,0,0,4,4.2,17.2,17.2,0,0,0,4.3,2.1h.6l13-9.4c-4.2-1.4-5.4-2-7.8-3.7a12.1,12.1,0,0,1-3.7-3.8,7.6,7.6,0,0,1-.7-1.3h0l8.3-6.7a8.4,8.4,0,0,0-2.6-3.3h0a4.1,4.1,0,0,0-2.6-.7,6.9,6.9,0,0,0-1.8.4h0a20.4,20.4,0,0,0-10.7,8.6m12.6-7.4a2.1,2.1,0,0,1,1.5.4,8.4,8.4,0,0,1,1.4,1.5h.1l-6.7,5.6v-.2a7.6,7.6,0,0,1,.5-5.2c.1,0,.1-.1.1-.2a4.5,4.5,0,0,1,3.2-2M25,75.5l.3-.2a10.8,10.8,0,0,0,.9,9.6,15.4,15.4,0,0,0,4.1,4.4A19.6,19.6,0,0,0,35.4,92l-9.2,6.7h-.1a12.1,12.1,0,0,1-3.6-1.8,11.7,11.7,0,0,1-4.9-11.5,9.6,9.6,0,0,1,1.6-4A20.3,20.3,0,0,1,25,75.5"/>
    <path class="cls-1" d="M16.3,115.4a12.2,12.2,0,0,0,8.2,4.6,14.7,14.7,0,0,0,4.7-.2,13.5,13.5,0,0,0,5.3-2.5,18.6,18.6,0,0,0,3.3-3.5l.3-.5-5-15.4c-2.6,3.6-3.5,4.6-5.9,6.4a11.4,11.4,0,0,1-4.7,2.3l-1.5.2h-.2L17,96.7a9.8,9.8,0,0,0-4,1.6h0a4,4,0,0,0-1.5,2.2,16.2,16.2,0,0,0-.2,1.8h0a20.8,20.8,0,0,0,5,13.1m-3.2-14.3a2.2,2.2,0,0,1,.9-1.3,4.2,4.2,0,0,1,1.8-.8H16l3.1,8h-.2a7.1,7.1,0,0,1-4.7-2.1l-.2-.2a4.4,4.4,0,0,1-.9-3.6m.5,5.8v-.3a10.9,10.9,0,0,0,9.5,2,12.1,12.1,0,0,0,5.4-2.5,20.5,20.5,0,0,0,4.2-4.1l3.6,11h-.1a19.9,19.9,0,0,1-2.9,2.9,11.8,11.8,0,0,1-12.5,1,10.5,10.5,0,0,1-3.4-2.8,19.4,19.4,0,0,1-3.7-7.3"/>
  </g>
</svg>
