<?xml version="1.0" encoding="utf-8"?>
<!-- Generator: Adobe Illustrator 24.2.0, SVG Export Plug-In . SVG Version: 6.00 Build 0)  -->
<svg version="1.1" id="Ebene_1" xmlns="http://www.w3.org/2000/svg" xmlns:xlink="http://www.w3.org/1999/xlink" x="0px" y="0px"
	 viewBox="0 0 300 200" style="enable-background:new 0 0 300 200;" xml:space="preserve">
<style type="text/css">
	.st0{fill:#0A1227;}
	.st1{fill-rule:evenodd;clip-rule:evenodd;fill:#0A1227;}
	.st2{fill:url(#path58_2_);}
	.st3{fill-rule:evenodd;clip-rule:evenodd;fill:#194473;}
	.st4{fill:none;stroke:#194473;stroke-width:1.1801;stroke-miterlimit:5.3333;}
	.st5{fill-rule:evenodd;clip-rule:evenodd;}
	.st6{fill:#008948;}
	.st7{fill-rule:evenodd;clip-rule:evenodd;fill:#008948;}
	.st8{fill:#004E9E;}
	.st9{fill:#1A1A18;}
	.st10{fill:#FFFFFF;}
	.st11{fill:#76BC21;}
	.st12{fill:#1D1D1B;}
	.st13{fill-rule:evenodd;clip-rule:evenodd;fill:#1D1D1B;}
	.st14{fill:#E31513;}
	.st15{fill:#E60001;}
	.st16{fill:#333333;}
	.st17{fill:#BBBDC0;}
	.st18{fill:#1D3B6D;}
	.st19{fill-rule:evenodd;clip-rule:evenodd;fill:#1D3B6D;}
	.st20{fill:#FFFFFF;stroke:#BBBDC0;stroke-width:0.275;stroke-miterlimit:3.8637;}
	.st21{fill:#005B53;}
	.st22{fill:#FF6C0E;}
	.st23{fill:#134094;}
	.st24{fill:#D2022F;}
	.st25{fill:#9D9D9C;}
	.st26{fill:#93B894;}
	.st27{filter:url(#Adobe_OpacityMaskFilter);}
	.st28{fill-rule:evenodd;clip-rule:evenodd;fill:#FFFFFF;}
	.st29{mask:url(#logo-hagesued-b_2_);fill:#FF7200;}
	.st30{filter:url(#Adobe_OpacityMaskFilter_1_);}
	.st31{mask:url(#logo-hagesued-d_2_);fill:#7F3D39;}
	.st32{fill:#FEFEFE;}
	.st33{fill:#606060;}
	.st34{filter:url(#Adobe_OpacityMaskFilter_2_);}
	.st35{mask:url(#logo-hagesued-b_1_);fill:#606060;}
	.st36{fill:none;stroke:#000000;stroke-miterlimit:10;}
	.st37{fill:none;}
	.st38{clip-path:url(#SVGID_2_);fill:#444543;}
	.st39{clip-path:url(#SVGID_4_);}
	.st40{clip-path:url(#SVGID_6_);fill:#D0D0D0;}
	.st41{clip-path:url(#SVGID_8_);fill:#D0D0D0;}
	.st42{fill:#1C1C1C;}
	.st43{fill-rule:evenodd;clip-rule:evenodd;fill:#1C1C1C;}
	.st44{fill:#3F3E3C;}
	.st45{fill:#2374BA;}
	.st46{fill:#AEB2B5;}
	.st47{fill-rule:evenodd;clip-rule:evenodd;fill:#164194;}
	.st48{fill:#E30613;}
	.st49{fill-rule:evenodd;clip-rule:evenodd;fill:#DC911B;}
	.st50{fill:#DC911B;}
	.st51{fill:#FF0066;}
</style>
<g>
	<path d="M270.5,65.9l-0.7-1.1c-0.2-0.2-0.3-0.5-0.4-0.6c-0.1-0.1-0.2-0.3-0.4-0.4c0.8,0,1.3-0.6,1.3-1.3c0-0.5-0.2-0.8-0.4-1
		c-0.2-0.2-0.6-0.3-1.1-0.3h-1.3v4.7h0.6v-2.1c0.2,0,0.3,0.1,0.4,0.2c0.3,0.4,0.5,0.6,0.8,1.2c0.2,0.3,0.2,0.4,0.4,0.7L270.5,65.9
		L270.5,65.9z M269.6,62.5c0,0.3-0.1,0.5-0.2,0.6c-0.2,0.2-0.4,0.2-0.8,0.2H268v-1.6h0.5c0.2,0,0.4,0,0.6,0.1
		C269.4,61.9,269.6,62.2,269.6,62.5 M265.2,63.6c0-2.1,1.5-3.6,3.5-3.6c1.9,0,3.5,1.6,3.5,3.6s-1.5,3.6-3.5,3.6
		C266.7,67.2,265.2,65.6,265.2,63.6 M264.4,63.6c0,2.4,1.9,4.3,4.3,4.3c2.3,0,4.2-1.8,4.2-4.3s-1.9-4.3-4.2-4.3
		C266.4,59.3,264.4,61.1,264.4,63.6"/>
	<path d="M257.3,114c4.4-8.3,7.2-16.9,7.2-27.4c0-11.3-2.7-19-7.2-27.4h-5.6c3.8,8.4,6.5,16.1,6.5,27.4c0,10.4-2.7,19.1-6.5,27.4
		H257.3z"/>
	<path d="M42.2,114c-4.4-8.3-7.2-16.9-7.2-27.3c0-11.3,2.7-19,7.2-27.4h5.6c-3.8,8.4-6.5,16.1-6.5,27.4c0,10.4,2.7,19.1,6.5,27.4
		L42.2,114L42.2,114z"/>
	<rect x="58.1" y="66.9" width="8" height="38"/>
	<path d="M80.3,83.5v21.5h-7.1V77.8h15.7c1.7,0,3.1,0.2,4.2,0.6c1.1,0.4,2.2,1.1,3.1,2.1c0.8,0.9,1.4,1.7,1.8,2.6s0.5,1.9,0.5,3V105
		h-7.1V87.4c0-1.2-0.4-2.1-1.1-2.8c-0.7-0.7-1.7-1.1-2.9-1.1L80.3,83.5L80.3,83.5z"/>
	<path d="M107.2,83.5h-4.9v-5.7h4.9V66.9h7.1v10.9h6.8v5.7h-6.8v9.8c0,2.5,0.4,4.2,1.1,4.9c0.7,0.7,1.7,1,3,1h2.7v5.7H116
		c-2.7,0-4.7-0.6-6.1-1.8c-0.8-0.7-1.4-1.5-1.8-2.3c-0.4-0.8-0.6-1.6-0.7-2.5c-0.1-0.9-0.2-1.9-0.2-3.2L107.2,83.5L107.2,83.5z"/>
	<path d="M162.4,83.5v21.5h-7.1V77.8H171c1.7,0,3.1,0.2,4.2,0.6c1.1,0.4,2.2,1.1,3.1,2.1c0.8,0.9,1.4,1.7,1.8,2.6
		c0.4,0.9,0.5,1.9,0.5,3V105h-7.1V87.4c0-1.2-0.4-2.1-1.1-2.8c-0.7-0.7-1.7-1.1-2.9-1.1L162.4,83.5L162.4,83.5z"/>
	<path d="M194.9,94.1c-2.7,0-4.7-0.7-6.2-2.3s-2.2-3.5-2.2-5.9c0-2.4,0.7-4.4,2.2-5.9c1.5-1.5,3.6-2.3,6.2-2.3h17.2v5.4h-14.5
		c-1.1,0-2,0.2-2.7,0.6c-0.7,0.4-1,1.1-1,2.2c0,1.1,0.3,1.8,1,2.2c0.7,0.4,1.6,0.6,2.7,0.6h7.5c2.7,0,4.7,0.7,6.2,2.3
		c1.5,1.5,2.2,3.5,2.2,5.9s-0.7,4.4-2.2,5.9c-1.5,1.5-3.6,2.3-6.2,2.3h-18.7v-5.4h16c2.5,0,3.7-0.9,3.7-2.7c0-1.1-0.3-1.8-1-2.2
		c-0.7-0.4-1.6-0.6-2.7-0.6H194.9z"/>
	<path d="M217.4,91.4c0-3,0.6-5.6,1.8-7.7c1.2-2.1,2.8-3.7,5-4.8c2.2-1.1,4.8-1.6,7.7-1.6c3,0,5.5,0.6,7.7,1.6
		c2.2,1.1,3.9,2.7,5,4.8c1.2,2.1,1.8,4.7,1.8,7.7s-0.6,5.6-1.8,7.7c-1.2,2.1-2.8,3.7-5,4.8c-2.2,1.1-4.7,1.6-7.7,1.6
		c-3,0-5.5-0.6-7.7-1.6c-2.2-1.1-3.9-2.7-5-4.8C218,97,217.4,94.4,217.4,91.4 M231.8,82.9c-4.7,0-7,2.8-7,8.4s2.3,8.4,7,8.4
		c4.7,0,7-2.8,7-8.4C238.8,85.7,236.5,82.9,231.8,82.9"/>
	<path d="M132.2,94l0,0.4c0.2,2.1,0.9,3.3,1.8,4c1,0.7,2.5,1,4.6,1h11.2v5.4h-12.3c-4.1,0-7.3-1.2-9.6-3.5
		c-2.3-2.3-3.4-5.7-3.4-10.1c0-2.9,0.5-5.4,1.5-7.4c1-2,2.5-3.6,4.5-4.6c1.9-1,4.2-1.5,6.8-1.6h0.2h1.9c2.7,0,5,0.5,7,1.6
		c2,1,2.8,2.5,3.6,4.7c0.8,2,1,4.5,1,7.4c0,1-0.1,1.9-0.2,2.7L132.2,94L132.2,94z M134,84.2c-0.9,0.6-1.5,2-1.7,4v0.4h12.4l0-0.4
		c-0.2-2-0.8-3.4-1.7-4c-0.9-0.7-2.4-1-4.4-1C136.4,83.2,134.9,83.5,134,84.2"/>
	<path d="M215.2,130.7c0-0.5,0.1-0.9,0.3-1.3c0.2-0.4,0.4-0.8,0.6-1.1c0.3-0.3,0.6-0.6,1-0.8c0.4-0.2,0.8-0.3,1.3-0.3
		c0.9,0,1.6,0.3,2.1,0.9s0.7,1.5,0.8,2.6L215.2,130.7L215.2,130.7z M214,133.8c0.2,0.7,0.5,1.3,0.9,1.8c0.4,0.5,1,0.9,1.6,1.1
		c0.6,0.3,1.5,0.4,2.4,0.4c0.7,0,1.3-0.1,1.9-0.2c0.5-0.2,0.9-0.3,1.1-0.4l-0.2-1.1c-0.2,0.1-0.5,0.2-0.9,0.3
		c-0.4,0.1-1,0.2-1.7,0.2c-1.3,0-2.3-0.3-2.9-1c-0.6-0.7-0.9-1.7-1-3h7.4c0-0.1,0-0.2,0-0.3c0-0.1,0-0.2,0-0.3
		c0-1.8-0.4-3.1-1.2-3.9c-0.8-0.8-1.8-1.3-3.1-1.3c-0.6,0-1.2,0.1-1.7,0.3c-0.6,0.2-1,0.6-1.5,1c-0.4,0.5-0.8,1-1,1.7
		c-0.3,0.7-0.4,1.5-0.4,2.4C213.7,132.3,213.8,133.1,214,133.8 M207.6,122c-0.6,0.7-1,1.7-1,3.1v11.8h1.3v-9.5h4.3v-1.1H208v-1.1
		c0-1,0.2-1.8,0.6-2.3c0.4-0.5,1.1-0.7,2-0.7c0.5,0,0.8,0,1.1,0.1c0.3,0.1,0.5,0.2,0.7,0.2l0.3-1.1c-0.1-0.1-0.3-0.2-0.7-0.2
		c-0.4-0.1-0.8-0.1-1.4-0.1C209.2,120.9,208.2,121.3,207.6,122 M203.1,122.3c-0.2-0.2-0.4-0.3-0.7-0.3c-0.3,0-0.5,0.1-0.7,0.3
		c-0.2,0.2-0.3,0.4-0.3,0.7c0,0.3,0.1,0.6,0.3,0.7c0.2,0.2,0.4,0.3,0.7,0.3c0.3,0,0.5-0.1,0.7-0.3c0.2-0.2,0.3-0.4,0.3-0.7
		C203.4,122.7,203.3,122.5,203.1,122.3 M203.1,126.3h-1.3v10.6h1.3V126.3z M199.4,135.9c-0.3,0-0.5-0.1-0.7-0.2
		c-0.2-0.1-0.4-0.2-0.5-0.2c-0.1-0.1-0.2-0.3-0.3-0.5c-0.1-0.2-0.1-0.5-0.1-0.8v-13.3l-1.3,0.2v13.2c0,0.5,0.1,0.9,0.2,1.3
		c0.1,0.3,0.3,0.6,0.5,0.8c0.2,0.2,0.5,0.4,0.8,0.5c0.3,0.1,0.7,0.2,1.2,0.2L199.4,135.9z M184.4,138.3c-0.2,0.3-0.4,0.6-0.7,0.8
		c-0.2,0.2-0.5,0.3-0.8,0.4c-0.3,0.1-0.6,0.1-1,0.1c-0.3,0-0.5,0-0.8-0.1c-0.2-0.1-0.4-0.1-0.5-0.2l-0.3,1.1c0.1,0,0.2,0.1,0.5,0.2
		c0.3,0.1,0.6,0.1,0.9,0.1c0.6,0,1.1-0.1,1.6-0.2c0.4-0.1,0.8-0.3,1.2-0.6c0.3-0.3,0.6-0.6,0.9-1.1c0.3-0.4,0.6-1,0.8-1.6
		c0.6-1.5,1.3-3.3,1.8-5.2c0.6-1.9,1-3.8,1.5-5.8h-1.3c-0.2,0.9-0.4,1.8-0.6,2.5c-0.2,0.8-0.4,1.5-0.6,2.3c-0.2,0.7-0.4,1.5-0.6,2.3
		c-0.2,0.7-0.5,1.5-0.8,2.4c-0.4-0.8-0.8-1.7-1.2-2.5s-0.7-1.7-1-2.5c-0.3-0.8-0.6-1.6-0.8-2.3c-0.2-0.8-0.4-1.5-0.6-2.1h-1.4
		c0.2,0.9,0.5,1.8,0.8,2.7c0.3,0.9,0.6,1.9,1,2.8c0.4,0.9,0.7,1.9,1.2,2.7c0.4,0.9,0.9,1.8,1.3,2.6
		C184.8,137.6,184.6,138,184.4,138.3 M173.1,126.1c-0.5,0.1-0.8,0.2-1.1,0.3l0.2,1.2c0.2-0.1,0.5-0.2,0.8-0.3c0.4-0.1,1-0.2,1.8-0.2
		c0.6,0,1,0.1,1.3,0.2c0.3,0.2,0.6,0.4,0.8,0.7c0.2,0.3,0.3,0.6,0.4,1c0.1,0.3,0.1,0.7,0.1,1.1v0.6c-0.1,0-0.2-0.1-0.3-0.1
		s-0.3-0.1-0.5-0.1c-0.2,0-0.4-0.1-0.6-0.1c-0.2,0-0.4,0-0.6,0c-0.6,0-1.2,0.1-1.8,0.2c-0.6,0.1-1,0.3-1.4,0.6
		c-0.4,0.3-0.7,0.6-0.9,1s-0.3,0.9-0.3,1.5c0,0.6,0.1,1.1,0.3,1.5c0.2,0.4,0.5,0.8,0.8,1c0.3,0.3,0.8,0.5,1.2,0.6
		c0.5,0.1,1,0.2,1.5,0.2c0.4,0,0.9,0,1.3-0.1c0.4,0,0.8-0.1,1.1-0.1c0.3-0.1,0.6-0.1,0.9-0.2c0.2-0.1,0.5-0.1,0.6-0.1v-6.7
		c0-0.6-0.1-1.1-0.2-1.6c-0.1-0.5-0.4-0.9-0.6-1.2c-0.3-0.3-0.7-0.6-1.2-0.8c-0.5-0.2-1.1-0.3-1.8-0.3
		C174.2,126,173.6,126,173.1,126.1 M173.9,135.8c-0.3-0.1-0.6-0.2-0.9-0.4c-0.2-0.2-0.4-0.4-0.6-0.6c-0.1-0.3-0.2-0.6-0.2-1
		c0-0.5,0.1-0.8,0.3-1.1c0.2-0.3,0.4-0.5,0.7-0.6c0.3-0.2,0.6-0.2,1-0.3s0.7-0.1,1-0.1c0.6,0,1,0,1.4,0.1c0.3,0.1,0.6,0.2,0.7,0.2
		v3.7c-0.3,0.1-0.6,0.1-1,0.1c-0.4,0-0.8,0.1-1.4,0.1C174.6,135.9,174.2,135.9,173.9,135.8 M166.8,135.6c-0.2,0.1-0.5,0.1-0.9,0.2
		c-0.4,0.1-0.9,0.1-1.6,0.1c-1.1,0-2.1-0.4-2.8-1.1s-1-1.8-1-3.2c0-0.6,0.1-1.1,0.2-1.7s0.3-1,0.6-1.4c0.3-0.4,0.6-0.7,1.1-0.9
		c0.4-0.2,1-0.3,1.7-0.3c0.3,0,0.6,0,0.9,0.1c0.3,0.1,0.6,0.2,0.8,0.2c0.2,0.1,0.5,0.2,0.6,0.3c0.2,0.1,0.3,0.2,0.5,0.3L166.8,135.6
		L166.8,135.6z M168.1,120.9l-1.3,0.2v5.7c-0.2-0.2-0.6-0.4-1.1-0.6c-0.5-0.2-1.1-0.3-1.8-0.3c-0.8,0-1.5,0.1-2,0.4
		c-0.6,0.3-1.1,0.6-1.5,1.1c-0.4,0.5-0.7,1.1-0.9,1.8c-0.2,0.7-0.3,1.4-0.3,2.2c0,0.9,0.1,1.6,0.4,2.3c0.2,0.7,0.6,1.3,1.1,1.8
		c0.5,0.5,1,0.8,1.6,1.1c0.6,0.2,1.4,0.4,2.1,0.4c1,0,1.7-0.1,2.3-0.2c0.6-0.1,1.1-0.2,1.5-0.4L168.1,120.9L168.1,120.9z
		 M152.3,138.3c-0.2,0.3-0.4,0.6-0.7,0.8c-0.2,0.2-0.5,0.3-0.8,0.4c-0.3,0.1-0.6,0.1-1,0.1c-0.3,0-0.5,0-0.8-0.1
		c-0.2-0.1-0.4-0.1-0.5-0.2l-0.3,1.1c0.1,0,0.2,0.1,0.5,0.2c0.3,0.1,0.6,0.1,0.9,0.1c0.6,0,1.1-0.1,1.6-0.2c0.4-0.1,0.8-0.3,1.2-0.6
		c0.3-0.3,0.6-0.6,0.9-1.1c0.3-0.4,0.6-1,0.8-1.6c0.6-1.5,1.3-3.3,1.8-5.2c0.6-1.9,1-3.8,1.5-5.8h-1.3c-0.2,0.9-0.4,1.8-0.6,2.5
		c-0.2,0.8-0.4,1.5-0.6,2.3c-0.2,0.7-0.4,1.5-0.6,2.3c-0.2,0.7-0.5,1.5-0.8,2.4c-0.4-0.8-0.8-1.7-1.2-2.5s-0.7-1.7-1-2.5
		c-0.3-0.8-0.6-1.6-0.8-2.3c-0.2-0.8-0.4-1.5-0.6-2.1h-1.4c0.2,0.9,0.5,1.8,0.8,2.7c0.3,0.9,0.6,1.9,1,2.8c0.4,0.9,0.7,1.9,1.2,2.7
		c0.4,0.9,0.9,1.8,1.3,2.6C152.7,137.6,152.5,138,152.3,138.3 M143.3,126.3c-0.6,0.2-1.1,0.3-1.4,0.5v10.1h1.3v-9.3
		c0.1-0.1,0.3-0.1,0.7-0.2c0.3-0.1,0.8-0.1,1.4-0.1c0.6,0,1,0,1.3,0.1s0.6,0.1,0.7,0.2l0.3-1.1c-0.2-0.1-0.4-0.1-0.8-0.2
		c-0.4-0.1-0.8-0.1-1.2-0.1C144.6,126,143.9,126.1,143.3,126.3 M131.4,130.7c0-0.5,0.1-0.9,0.3-1.3c0.2-0.4,0.4-0.8,0.6-1.1
		c0.3-0.3,0.6-0.6,1-0.8c0.4-0.2,0.8-0.3,1.3-0.3c0.9,0,1.6,0.3,2.1,0.9c0.5,0.6,0.7,1.5,0.8,2.6L131.4,130.7L131.4,130.7z
		 M130.3,133.8c0.2,0.7,0.5,1.3,0.9,1.8c0.4,0.5,1,0.9,1.6,1.1c0.6,0.3,1.5,0.4,2.4,0.4c0.7,0,1.3-0.1,1.9-0.2
		c0.5-0.2,0.9-0.3,1.1-0.4l-0.2-1.1c-0.2,0.1-0.5,0.2-0.9,0.3c-0.4,0.1-1,0.2-1.7,0.2c-1.3,0-2.3-0.3-2.9-1c-0.6-0.7-0.9-1.7-1-3
		h7.4c0-0.1,0-0.2,0-0.3c0-0.1,0-0.2,0-0.3c0-1.8-0.4-3.1-1.2-3.9c-0.8-0.8-1.8-1.3-3.1-1.3c-0.6,0-1.2,0.1-1.7,0.3
		c-0.6,0.2-1,0.6-1.5,1c-0.4,0.5-0.8,1-1,1.7c-0.3,0.7-0.4,1.5-0.4,2.4C129.9,132.3,130,133.1,130.3,133.8 M123.1,133.4
		c-0.3-0.8-0.6-1.5-0.9-2.3c-0.3-0.8-0.6-1.6-0.8-2.5c-0.2-0.8-0.4-1.6-0.6-2.3h-1.4c0.2,1,0.5,1.9,0.8,2.9c0.3,1,0.6,1.9,1,2.8
		c0.3,0.9,0.7,1.8,1,2.6c0.4,0.8,0.7,1.6,1.1,2.3h1.2c0.3-0.7,0.7-1.5,1-2.3c0.3-0.8,0.7-1.7,1-2.6c0.3-0.9,0.6-1.8,1-2.8
		c0.3-1,0.6-1.9,0.8-2.9h-1.3c-0.2,0.7-0.4,1.5-0.6,2.3c-0.2,0.8-0.5,1.6-0.8,2.5c-0.3,0.8-0.6,1.6-0.9,2.3c-0.3,0.8-0.6,1.4-0.9,2
		C123.6,134.8,123.4,134.2,123.1,133.4 M110.3,130.7c0-0.5,0.1-0.9,0.3-1.3c0.2-0.4,0.4-0.8,0.6-1.1c0.3-0.3,0.6-0.6,1-0.8
		c0.4-0.2,0.8-0.3,1.3-0.3c0.9,0,1.6,0.3,2.1,0.9c0.5,0.6,0.7,1.5,0.8,2.6L110.3,130.7L110.3,130.7z M109.1,133.8
		c0.2,0.7,0.5,1.3,0.9,1.8s1,0.9,1.6,1.1c0.6,0.3,1.5,0.4,2.4,0.4c0.7,0,1.3-0.1,1.9-0.2c0.5-0.2,0.9-0.3,1.1-0.4l-0.2-1.1
		c-0.2,0.1-0.5,0.2-0.9,0.3c-0.4,0.1-1,0.2-1.7,0.2c-1.3,0-2.3-0.3-2.9-1c-0.6-0.7-0.9-1.7-1-3h7.4c0-0.1,0-0.2,0-0.3
		c0-0.1,0-0.2,0-0.3c0-1.8-0.4-3.1-1.2-3.9c-0.8-0.8-1.8-1.3-3.1-1.3c-0.6,0-1.2,0.1-1.7,0.3c-0.6,0.2-1,0.6-1.5,1
		c-0.4,0.5-0.8,1-1,1.7c-0.3,0.7-0.4,1.5-0.4,2.4C108.8,132.3,108.9,133.1,109.1,133.8 M98.5,126.3c-0.6,0.2-1.1,0.3-1.4,0.5v10.1
		h1.3v-9.3c0.1-0.1,0.3-0.1,0.7-0.2c0.3-0.1,0.8-0.1,1.4-0.1c0.6,0,1,0,1.3,0.1c0.3,0.1,0.6,0.1,0.7,0.2l0.3-1.1
		c-0.2-0.1-0.4-0.1-0.8-0.2c-0.4-0.1-0.8-0.1-1.2-0.1C99.9,126,99.1,126.1,98.5,126.3 M91.9,134.7c-0.6,0.8-1.5,1.2-2.5,1.2
		s-1.9-0.4-2.5-1.2c-0.6-0.8-0.9-1.8-0.9-3.1s0.3-2.4,0.9-3.2c0.6-0.8,1.5-1.2,2.5-1.2s1.9,0.4,2.5,1.2c0.6,0.8,0.9,1.9,0.9,3.2
		S92.5,134,91.9,134.7 M93.8,129.3c-0.2-0.7-0.6-1.3-1-1.8c-0.4-0.5-0.9-0.9-1.5-1.1c-0.6-0.3-1.2-0.4-1.9-0.4
		c-0.7,0-1.4,0.1-1.9,0.4c-0.6,0.3-1.1,0.6-1.5,1.1c-0.4,0.5-0.8,1.1-1,1.8c-0.2,0.7-0.4,1.5-0.4,2.3c0,0.8,0.1,1.6,0.4,2.3
		c0.2,0.7,0.6,1.3,1,1.8c0.4,0.5,0.9,0.9,1.5,1.1c0.6,0.3,1.2,0.4,1.9,0.4c0.7,0,1.4-0.1,1.9-0.4c0.6-0.3,1.1-0.6,1.5-1.1
		c0.4-0.5,0.8-1,1-1.8c0.2-0.7,0.4-1.5,0.4-2.3C94.2,130.7,94.1,130,93.8,129.3 M78.4,122c-0.6,0.7-1,1.7-1,3.1v11.8h1.3v-9.5H83
		v-1.1h-4.3v-1.1c0-1,0.2-1.8,0.6-2.3s1.1-0.7,2-0.7c0.5,0,0.8,0,1.1,0.1c0.3,0.1,0.5,0.2,0.7,0.2l0.3-1.1c-0.1-0.1-0.3-0.2-0.7-0.2
		s-0.8-0.1-1.4-0.1C80,120.9,79,121.3,78.4,122"/>
</g>
</svg>
