<?xml version="1.0" encoding="utf-8"?>
<svg version="1.1" id="Ebene_1" xmlns="http://www.w3.org/2000/svg" xmlns:xlink="http://www.w3.org/1999/xlink" x="0px" y="0px"
	 viewBox="0 0 300 200" style="enable-background:new 0 0 300 200;" xml:space="preserve">
<style type="text/css">
	.st0{fill:#0A1227;}
</style>
<g id="g5512_1_" transform="matrix(2.0661355,0,0,2.0661355,0,-4.1323115)">
	<g id="g24728_1_" transform="matrix(4.3916816,0,0,-4.3916816,379.3486,2.01011)">
		<path id="path24730_1_" class="st0" d="M-62.9-8.8v-3.5c0-0.2,0.1-0.3,0.3-0.4c0,0,1.1,0,1.1,0V-13c0,0,0-0.1-0.1-0.1h-1.9
			c-0.6,0-0.7,0.3-0.7,0.6V-9c0,0.2,0.1,0.2,0.3,0.2L-62.9-8.8"/>
	</g>
	<g id="g24732_1_" transform="matrix(4.3916816,0,0,-4.3916816,339.47168,2.01011)">
		<path id="path24734_1_" class="st0" d="M-55.9-8.8l0-4.1c0-0.2-0.1-0.2-0.2-0.2H-57V-9c0,0.1,0.1,0.2,0.2,0.2L-55.9-8.8"/>
	</g>
	<g id="g24736_1_" transform="matrix(4.3916816,0,0,-4.3916816,0,13.05386)">
		<path id="path24738_1_" class="st0" d="M3.2-6.9c0,0.3,0,0.6,0.5,0.6h2.4v-0.4c0,0,0-0.1-0.1-0.1l-1.4,0C4.4-6.8,4.3-6.8,4.3-7
			v-1.1H6l0-0.4c0,0,0-0.1-0.1-0.1H4.3v-1.7c0-0.2-0.1-0.2-0.3-0.2H3.2V-6.9"/>
	</g>
	<g id="g24740_1_" transform="matrix(4.3916816,0,0,-4.3916816,86.0146,2.00221)">
		<path id="path24742_1_" class="st0" d="M-11.8-8.8v-3.3c0-0.3,0-0.5,0.2-0.6c0.3-0.2,0.7-0.2,1,0c0.2,0.1,0.3,0.3,0.3,0.6V-9
			c0,0.1,0.1,0.2,0.2,0.2h0.9l0-3.2c0-0.7-0.5-1-0.9-1.2c-0.5-0.1-1.4-0.2-1.9,0c-0.6,0.2-0.9,0.6-0.9,1.1l0,3
			c0,0.1,0.1,0.2,0.2,0.2H-11.8"/>
	</g>
	<g id="g24744_1_" transform="matrix(4.3916816,0,0,-4.3916816,474.26296,2.01451)">
		<path id="path24746_1_" class="st0" d="M-79.4-8.8c-0.2,0-0.3-0.1-0.4-0.3l-0.7-3l0,0l-0.7,3.3h-1c-0.2,0-0.3-0.1-0.3-0.2v-4h0.4
			c0.1,0,0.1,0,0.1,0.1v3.4h0.1l0.9-3.5h0.6c0.2,0,0.3,0.1,0.4,0.3l0.8,3.2h0.1l0-3.5l0.8,0c0.2,0,0.3,0.1,0.3,0.3v4L-79.4-8.8"/>
	</g>
	<g id="g24748_1_" transform="matrix(4.3916816,0,0,-4.3916816,231.57952,45.55406)">
		<path id="path24750_1_" class="st0" d="M-37.1-1.2h-1.1v-2h0.9c0.2,0,0.2,0,0.2,0.2C-37.1-3-37.1-2.1-37.1-1.2"/>
	</g>
	<g id="g24752_1_" transform="matrix(4.3916816,0,0,-4.3916816,230.38322,29.92143)">
		<path id="path24754_1_" class="st0" d="M-36.9-3.9c0,0,0.1,0.1,0.1,0.1v1.4h-0.9c-0.2,0-0.2-0.1-0.2-0.2v-2.1L-36.9-3.9"/>
	</g>
	<g id="g24756_1_" transform="matrix(4.3916816,0,0,-4.3916816,160.01264,75.79827)">
		<path id="path24758_1_" class="st0" d="M-24.7,4c0.5,0.1,0.6,0.4,0.6,0.8v3c0,0.2,0.1,0.2,0.2,0.2h0.9V5.2c0-0.7-0.1-1-0.6-1.3
			c-0.2-0.2-0.6-0.3-1.4-0.3c-0.5,0-0.7,0-0.7,0c0,0-0.1,0-0.1,0.1V4C-25.4,4-25,4-24.7,4"/>
	</g>
	<g id="g24760_1_" transform="matrix(4.3916816,0,0,-4.3916816,262.67744,2.00221)">
		<path id="path24762_1_" class="st0" d="M-42.5-8.8c-0.5,0-0.5-0.3-0.5-0.6v-1.1c0,0,0,0,0,0l-0.8-0.6h0.8v-2h0.9
			c0.2,0,0.3,0.1,0.3,0.2v1.7h1.6c0,0,0.1,0,0.1,0.1v0.4h-1.7v1.1c0,0.2,0.1,0.3,0.3,0.3l1.4,0c0,0,0.1,0,0.1,0.1v0.4H-42.5"/>
	</g>
</g>
</svg>
