<?xml version="1.0" encoding="utf-8"?>
<!-- Generator: Adobe Illustrator 24.2.0, SVG Export Plug-In . SVG Version: 6.00 Build 0)  -->
<svg version="1.1" id="Ebene_1" xmlns="http://www.w3.org/2000/svg" xmlns:xlink="http://www.w3.org/1999/xlink" x="0px" y="0px"
	 viewBox="0 0 300 200" style="enable-background:new 0 0 300 200;" xml:space="preserve">
<style type="text/css">
	.st0{fill:#0A1227;}
	.st1{fill-rule:evenodd;clip-rule:evenodd;fill:#0A1227;}
	.st2{fill:url(#path58_2_);}
	.st3{fill-rule:evenodd;clip-rule:evenodd;fill:#194473;}
	.st4{fill:none;stroke:#194473;stroke-width:1.1801;stroke-miterlimit:5.3333;}
	.st5{fill-rule:evenodd;clip-rule:evenodd;}
	.st6{fill:#008948;}
	.st7{fill-rule:evenodd;clip-rule:evenodd;fill:#008948;}
	.st8{fill:#004E9E;}
	.st9{fill:#1A1A18;}
	.st10{fill:#FFFFFF;}
	.st11{fill:#76BC21;}
	.st12{fill:#1D1D1B;}
	.st13{fill-rule:evenodd;clip-rule:evenodd;fill:#1D1D1B;}
	.st14{fill:#E31513;}
	.st15{fill:#E60001;}
	.st16{fill:#333333;}
	.st17{fill:#BBBDC0;}
	.st18{fill:#1D3B6D;}
	.st19{fill-rule:evenodd;clip-rule:evenodd;fill:#1D3B6D;}
	.st20{fill:#FFFFFF;stroke:#BBBDC0;stroke-width:0.275;stroke-miterlimit:3.8637;}
	.st21{fill:#005B53;}
	.st22{fill:#FF6C0E;}
	.st23{fill:#134094;}
	.st24{fill:#D2022F;}
	.st25{fill:#9D9D9C;}
	.st26{fill:#93B894;}
	.st27{filter:url(#Adobe_OpacityMaskFilter);}
	.st28{fill-rule:evenodd;clip-rule:evenodd;fill:#FFFFFF;}
	.st29{mask:url(#logo-hagesued-b_2_);fill:#FF7200;}
	.st30{filter:url(#Adobe_OpacityMaskFilter_1_);}
	.st31{mask:url(#logo-hagesued-d_2_);fill:#7F3D39;}
	.st32{fill:#FEFEFE;}
	.st33{fill:#606060;}
	.st34{filter:url(#Adobe_OpacityMaskFilter_2_);}
	.st35{mask:url(#logo-hagesued-b_1_);fill:#606060;}
	.st36{fill:none;stroke:#000000;stroke-miterlimit:10;}
	.st37{fill:none;}
	.st38{clip-path:url(#SVGID_2_);fill:#444543;}
	.st39{clip-path:url(#SVGID_4_);}
	.st40{clip-path:url(#SVGID_6_);fill:#D0D0D0;}
	.st41{clip-path:url(#SVGID_8_);fill:#D0D0D0;}
	.st42{fill:#1C1C1C;}
	.st43{fill-rule:evenodd;clip-rule:evenodd;fill:#1C1C1C;}
	.st44{fill:#3F3E3C;}
	.st45{fill:#2374BA;}
	.st46{fill:#AEB2B5;}
	.st47{fill-rule:evenodd;clip-rule:evenodd;fill:#164194;}
	.st48{fill:#E30613;}
	.st49{fill-rule:evenodd;clip-rule:evenodd;fill:#DC911B;}
	.st50{fill:#DC911B;}
	.st51{fill:#FF0066;}
</style>
<g id="layer1_4_">
	<path id="path2396_1_" class="st0" d="M203.8,146.3c0,0-1.4-0.1-3.1-0.1c-1.7,0-3.5-0.1-4-0.2c-0.5,0-1.4-0.1-1.9-0.1
		c-0.5,0-1.4-0.1-2-0.1c-2.7-0.2-10-0.9-12.7-1.2c-0.3,0-0.9-0.1-1.4-0.2c-0.4,0-1-0.1-1.2-0.1c-0.2,0-2-0.3-4-0.5
		c-2-0.2-3.7-0.5-3.9-0.5c-0.2,0-0.7-0.1-1-0.1c-0.4,0-1.6-0.2-2.7-0.4c-2.4-0.3-2.8-0.4-4.5-0.6c-0.7-0.1-1.9-0.2-2.5-0.4
		c-0.7-0.1-2-0.3-2.9-0.4c-0.9-0.1-1.8-0.3-2-0.3c-0.2,0-1-0.2-1.8-0.3c-0.8-0.1-2.6-0.4-3.8-0.6c-1.3-0.2-3.8-0.6-5.7-0.9
		c-1.9-0.3-3.6-0.5-3.8-0.6c-0.2,0-1.6-0.2-3-0.4c-1.5-0.2-3.1-0.4-3.6-0.5c-0.5-0.1-1.6-0.2-2.5-0.4c-0.9-0.1-2.8-0.4-4.2-0.6
		c-1.4-0.2-3.1-0.4-3.7-0.4s-1.6-0.2-2.3-0.2l-1.2-0.1l-1.5,1.2c-2.7,2.2-5.3,3.7-8.2,4.6c-1.4,0.5-4.5,0.9-5.4,0.8
		c-0.3,0-0.9-0.1-1.3-0.2c-1.6-0.2-1.6-0.2-3.1-1c-1-0.6-1.6-2.2-1.3-3.6c0.4-1.8,2.1-3.1,5.1-3.9c2.6-0.6,4.7-0.8,9.7-0.8l4.6,0
		l1.7-2.2c1-1.2,2-2.6,2.3-3.1c0.7-1,3.1-4.8,3.1-4.9c0,0,0.4-0.8,1-1.7c1.6-2.8,6.6-12.8,8.9-18.2c2.8-6.3,5.2-11.7,6.1-13.6
		c0.4-0.8,1-2.2,1.4-3c0.7-1.5,3.1-6.2,3.3-6.5c0.1-0.1,0.6-0.9,1.1-1.9c5-8.6,10.9-15.8,16.4-19.8c3.2-2.3,6.1-3.7,9.4-4.5
		c1.8-0.4,5.2-0.4,7.1,0c2.8,0.6,4.6,1.6,6.6,3.4c1.7,1.5,3.4,4.6,3.5,6.1c0.1,0.7,0,0.8-0.4,1.1c-0.9,0.7-2.7,1.7-3,1.7
		c-0.4,0-0.6-0.2-0.7-0.9c-0.6-3.5-1.6-5.7-3.3-7.2c-1.7-1.5-3.5-2.1-6.3-2c-2.8,0-5.2,0.8-8,2.7c-5.4,3.7-11.4,12.1-17.3,24.1
		c-0.8,1.7-1.5,3-1.5,3.1c0,0-0.2,0.5-0.4,1c-0.8,1.8-2.8,6.1-3,6.6c-0.1,0.3-0.4,0.9-0.6,1.3c-0.7,1.5-2.5,5.7-2.5,5.7
		c0,0.1-4,8-5.3,10.6c-1.3,2.5-4,7-6.4,10.7c-1.7,2.6-5.6,7.7-7.8,10.1c-0.7,0.8-1.3,1.5-1.2,1.5c0.1,0,0.4,0.1,0.7,0.1
		c0.3,0,1.1,0.1,1.7,0.2c0.6,0.1,1.5,0.2,2,0.2c1,0.1,1.9,0.2,2.9,0.3c0.4,0,1,0.1,1.4,0.2c0.4,0,1,0.1,1.2,0.1
		c0.2,0,0.8,0.1,1.2,0.1c0.5,0,1.4,0.2,2.1,0.2s1.5,0.2,1.7,0.2c0.8,0.1,2.7,0.3,5.9,0.7c1.6,0.2,3.2,0.4,3.5,0.4
		c0.4,0,1.3,0.2,2.2,0.3s4.4,0.6,8,1c7.9,1,7.1,0.9,10.3,1.2c1.5,0.2,2.9,0.3,3.3,0.4c0.3,0,1,0.1,1.4,0.1c0.5,0,1.4,0.1,2,0.2
		c0.6,0.1,1.5,0.2,2.1,0.2c0.6,0,1.3,0.1,1.6,0.1c0.3,0,1.4,0.1,2.4,0.2c1,0.1,2,0.2,2.2,0.2c0.2,0,1.2,0.1,2.2,0.2s2,0.2,2.3,0.2
		c0.3,0,1.3,0.1,2.1,0.1c0.8,0,2,0.1,2.6,0.1c0.6,0,1.6,0.1,2.3,0.1c2,0.1,3.9,0.2,4.7,0.3c7,0.5,19.7,0.4,25.8-0.2
		c2.3-0.2,2.6-0.3,5.5-0.7c4.2-0.7,4.8-0.8,8.3-1.6c2-0.5,7.1-2.2,9.3-3.2c7.7-3.3,13.2-7.2,19.7-13.7c1.6-1.6,2-1.8,2.3-1.2
		c0.3,0.7,0.1,1.3-1.7,3.1c-5.6,6.1-12.3,11-20.2,14.8c-1.1,0.5-2.3,1.1-2.7,1.2c-0.4,0.2-1.2,0.5-1.8,0.7
		c-4.6,1.8-10.1,3.3-16.1,4.2c-2.2,0.4-2.8,0.4-3.8,0.5c-0.6,0-1.2,0.1-1.4,0.1c-0.2,0-1,0.1-1.7,0.1c-0.8,0.1-1.7,0.1-1.9,0.2
		C216.1,146.3,203.8,146.4,203.8,146.3z M107.3,139.7c1.5-0.5,2.5-0.9,3.8-1.6c0.8-0.5,2.4-1.6,3-2.2c0.1-0.1-1.4-0.1-4.1-0.1
		c-4.3,0.1-4.9,0.2-7.5,0.9c-1.4,0.4-2.2,1.1-2.2,1.9c0,0.6,0.4,1,1.2,1.3C102.6,140.3,105.8,140.2,107.3,139.7z M34,127.2
		c-1.3-0.4-2.1-2-2.1-4.2c0-2,0.1-2.9,1.8-11c1.4-7,1.6-8.6,1.2-10.5c-0.1-0.7-0.2-1-0.1-1.2c0.1-0.2,0.7-0.6,1.3-1s1.5-0.9,1.9-1.2
		c1.3-0.9,1.9-0.9,2.3-0.1c0.5,0.9,0.7,1.9,0.7,4c0,3.1-0.3,4.7-2.1,11.5c-1.3,4.8-2,8.2-1.8,9.4c0.1,0.6,0.3,1.2,0.6,1.3
		c0.8,0.3,2.8-1.6,5-4.9c3.4-5,6.4-11.9,8.6-20.3c0.2-0.8,0.6-0.9,3.5-0.9c2.5,0,3,0.1,3,0.6c0,0.3-0.9,3.2-1.6,5.2
		c-0.4,1.2-1.8,4.3-2.9,6.4c-2.3,4.5-5.2,8.4-8.5,11.7c-3.6,3.6-6.6,5.4-9.3,5.5C34.8,127.2,34.2,127.2,34,127.2z M60.9,127.1
		c-2.1-0.5-3.3-1.9-3.8-4.4c-0.6-3.6,0.1-7.5,2.4-12.1c2.2-4.5,5.7-8.5,9.5-11.1c2.1-1.4,4.4-2.2,6.3-2.2c1.8,0,2.6,0.3,3.5,1.2
		c0.4,0.5,0.8,1.1,1,1.6l0.3,0.8l0.4-0.9c0.6-1.4,0.8-1.6,1.1-1.8c0.4-0.2,4.3-0.3,4.9-0.1c0.4,0.1,0.4,0.6-0.1,1.6
		c-0.2,0.4-0.8,1.8-1.4,3.1c-0.6,1.3-1.1,2.6-1.3,2.9c-1.5,3.4-3.8,9.2-4.3,10.6c-0.1,0.4-0.4,1.4-0.5,2.3c-0.3,1.7-0.3,3.6,0,5.2
		c0.2,0.7,0.2,0.9,0,1c-0.2,0.2-3.7,2.3-4.3,2.5c-0.5,0.2-0.9-0.1-1.2-1c-0.6-1.7-0.8-2.6-0.8-4.7c0-0.8,0-1.4,0-1.4
		s-0.7,0.7-1.4,1.5c-2.2,2.5-5.1,4.6-7,5.2C63.4,127.1,61.5,127.3,60.9,127.1z M66.7,122.3c1-0.5,3.1-2.5,4.4-4.1
		c4.3-5.6,7.2-12.5,6.6-16.1c-0.2-1.1-0.4-1.6-1.2-2.1c-0.7-0.5-1.8-0.3-3.2,0.3c-4.3,2.1-9.5,11.9-10.1,18.9
		c-0.1,1.6,0.1,2.6,0.7,3.1c0.4,0.4,0.6,0.4,1.2,0.4C65.6,122.8,66.3,122.6,66.7,122.3z M103.3,127c-0.6-0.4-1.3-2.6-1.3-4.4
		c0-2.8,0.9-6,4.4-14.6c1.7-4.2,1.9-5.7,1-6.5c-0.5-0.5-1.8-0.5-2.9,0c-2.1,1-4.4,3.2-6.2,6.1c-0.9,1.4-1.1,1.8-3.7,8
		c-4.8,11.3-4.6,10.7-5.1,10.8c-0.3,0.1-1.4,0.1-2.6,0.1c-1.7,0-2.2,0-2.4-0.2c-0.1-0.1-0.2-0.3-0.1-0.5c0.1-0.3,1.7-4,2.1-5.1
		c0.2-0.4,0.7-1.7,1.2-2.9c0.5-1.2,1-2.4,1.2-2.9c0.2-0.4,0.4-0.8,0.4-0.8s0.8-1.9,1.7-4.1c0.9-2.2,2.4-5.5,3.1-7.4
		c1.8-4.3,2-4.7,2.6-4.8c0.7-0.1,4.3-0.1,4.7,0.1c0.4,0.2,0.4,0.3-0.1,1.4c-0.8,1.7-0.9,2-0.8,2.1c0,0,0.5-0.3,1-0.7
		c1.7-1.4,4.1-2.7,5.7-3.2c2.2-0.6,4.5-0.3,5.6,0.7c0.7,0.7,1.2,1.9,1.3,3.2c0.1,2.3-0.7,4.9-3.3,10.6c-1,2.2-2,5.2-2.6,7.6
		c-0.3,1.2-0.3,2.6-0.1,3.8c0.2,1.2,0.1,1.4-2,2.6C103.9,127.3,103.7,127.3,103.3,127z M159.8,127.1c-0.2-0.1-0.7-1.4-1-2.6
		c-0.1-0.5-0.2-1.7-0.2-2.6c0-0.9,0-1.7-0.1-1.7c0,0-1,1-2.2,2.1c-3.4,3.5-5.8,4.8-8.6,4.8c-1.1,0-1.4-0.1-2.1-0.4
		c-1.5-0.7-2.4-2-2.7-4.3c-0.2-1.6-0.2-3.6,0.1-5.2c0.6-2.8,2.2-6.9,3.8-9.3c2.8-4.4,7.3-8.6,10.8-9.9c2.1-0.8,4.2-1,5.6-0.5
		c1,0.4,2,1.4,2.3,2.5c0.1,0.4,0.3,0.7,0.4,0.7c0.1-0.1,0.3-0.6,0.5-1.1c0.8-1.8,0.5-1.6,3.3-1.7c2.7-0.1,3.1,0,2.9,0.7
		c-0.1,0.2-0.4,1.2-0.9,2.1s-1.3,2.9-1.9,4.3c-0.6,1.4-1.4,3.3-1.8,4.1s-0.8,2-1,2.5c-1.4,3.5-1.7,4.3-2.2,6.7
		c-0.4,1.7-0.4,3.9-0.1,5.1c0.3,1.2,0.2,1.4-1,2.1C161.1,127,160.2,127.4,159.8,127.1z M152.5,122.4c1-0.5,3.7-3.1,4.9-4.7
		c3-4,5.2-8.5,6-12.2c0.3-1.4,0.2-3.9-0.1-4.5c-0.4-0.8-1-1.1-2-1.1c-2.6,0-5.5,2.6-8.1,7.4c-1.6,2.9-3.5,7.8-3.8,9.9
		c-0.1,0.6-0.2,1.6-0.3,2.2c-0.2,1.5,0.1,2.6,0.8,3.2c0.4,0.4,0.5,0.4,1.2,0.3C151.4,122.8,152.1,122.6,152.5,122.4z M176.8,127.1
		c-1.3-0.2-2.4-0.9-3.1-2c-1-1.5-1.3-3.9-1-6.4c0.5-3.1,1.1-5.1,2.6-8.2c1.6-3.2,3.4-5.7,6.2-8.4c4.9-4.7,10.4-6.2,13-3.6
		c0.2,0.2,0.6,0.8,0.8,1.3l0.4,0.9l0.5-1.1c0.8-1.8,0.7-1.7,3.2-1.8c2.6-0.1,3.1,0,3.1,0.5c0,0.2-0.8,2.1-1.7,4.2
		c-0.9,2.1-1.9,4.4-2.3,5.2c-2.1,5.2-3.2,7.8-3.5,8.8c-0.6,2-0.9,4.8-0.6,5.9c0.4,1.9,0.5,2.1,0.2,2.4c-0.4,0.4-3.9,2.3-4.3,2.3
		c-0.6,0.1-0.7,0-1-0.6c-0.5-1.1-0.9-3.3-0.9-5c0-0.8,0-1.5,0-1.5c0,0-0.6,0.6-1.3,1.4C183.7,125.4,179.8,127.5,176.8,127.1z
		 M182.4,122.3c1.4-0.8,4.3-3.9,5.8-6.1c2.6-3.9,4.4-7.7,5-10.9c0.2-1.1,0.2-3.2,0-3.9c-0.8-2.5-4-2-7,1.3c-1.7,1.8-3.7,5.2-5.1,8.5
		c-1.3,3.1-2.1,6.1-2.1,8.4c-0.1,1.7,0,1.9,0.5,2.7C180,123.1,181,123.1,182.4,122.3z M208.8,127.2c0,0-0.4-0.1-0.8-0.1
		c-1-0.1-2-0.4-2.7-0.9c-1.3-0.9-1.9-1.8-2.4-3.6c-0.3-1-0.3-1.5-0.3-3c0.1-2.5,0.3-3.8,1.3-6.5c0.2-0.7,0.5-1.6,0.7-2
		c0.8-2.5,3.4-6.5,6.1-9.2c3.2-3.2,6.2-4.6,10-4.6c1.4,0,1.6,0,2.4,0.4c1.5,0.7,2.5,2.1,2.9,4c0.2,1.1,0.2,1.7-0.2,2.1
		c-0.4,0.4-3.3,1.9-3.6,1.8c-0.2-0.1-0.3-0.3-0.2-2.1c0-1.9,0-2.1-0.3-2.7c-0.5-0.9-0.9-1.2-1.8-1.2c-2.1,0-4.9,2.8-7.2,7.4
		c-0.4,0.9-1,2-1.2,2.6c-0.2,0.6-0.5,1.2-0.5,1.3c-0.2,0.4-1.1,3.7-1.5,5.2c-0.5,2.7-0.5,4.2,0.2,5.6c0.5,1.1,2,1.7,3.3,1.3
		c1.6-0.4,3.6-1.7,5.2-3.4c0.6-0.6,1.1-1.1,1.3-1.1c0.4,0,1.4,1,1.4,1.4c0,0.5-3,3.5-4.5,4.5c-1.6,1.1-3.5,2.1-4.6,2.4
		C210.9,127.1,209,127.3,208.8,127.2z M241.1,126.9c-0.7-0.7-2-3.8-2.4-5.7c-0.2-0.9-0.7-4-0.8-4.7c0-0.4-0.1-0.8-0.1-1
		c0-0.2-0.1-1.2-0.2-2.3c0-1.1-0.1-2-0.1-2c0,0-1.1,0.9-2.4,2l-2.4,2l-2.3,5.4c-1.3,3-2.4,5.5-2.6,5.7c-0.2,0.3-0.4,0.3-2.6,0.4
		c-2.6,0.1-3,0-3-0.4c0-0.1,0.3-1,0.7-2c0.4-0.9,1.3-3,1.9-4.5c1.2-2.9,2.8-6.6,4.8-11.4c1.1-2.6,2.1-4.9,6.2-14.5
		c0.9-2.2,2.6-6.1,3.7-8.8c4.4-10.3,4.2-9.9,4.7-10.2c0.5-0.2,5-1,5.3-0.9c0.1,0,0.2,0.2,0.2,0.4c0,0.3-1.5,3.9-2.4,5.9
		c-0.2,0.4-0.4,0.8-0.4,0.8c0,0.1-1.3,3.2-2.1,5c-0.4,0.9-2.3,5.3-4.6,10.7c-0.9,2.1-2,4.7-2.5,5.9c-0.5,1.1-1.2,2.8-1.6,3.8
		c-0.4,1-0.9,2.1-1.1,2.5c-0.2,0.4-0.3,0.8-0.3,0.8c0,0,3-2.6,6.7-5.7c4.9-4.2,6.8-5.8,7.2-5.9c0.3-0.1,1.1-0.1,1.9-0.1
		c1.2,0,1.4,0,1.5,0.3c0.2,0.3,0.4,0-7,6.3l-2.4,2.1l0.1,2.2c0.2,3.8,0.3,5,1.1,8.9c0.6,2.8,0.8,3.6,1.6,5.5
		c0.6,1.5,0.6,1.6-2.3,3.3c-0.7,0.4-1.3,0.7-1.5,0.7C241.6,127.3,241.3,127.1,241.1,126.9z"/>
</g>
</svg>
