<?xml version="1.0" encoding="utf-8"?>
<!-- Generator: Adobe Illustrator 24.2.0, SVG Export Plug-In . SVG Version: 6.00 Build 0)  -->
<svg version="1.1" id="Ebene_1" xmlns="http://www.w3.org/2000/svg" xmlns:xlink="http://www.w3.org/1999/xlink" x="0px" y="0px"
	 viewBox="0 0 300 200" style="enable-background:new 0 0 300 200;" xml:space="preserve">
<style type="text/css">
	.st0{fill:#0A1227;}
	.st1{fill-rule:evenodd;clip-rule:evenodd;fill:#0A1227;}
	.st2{fill:url(#path58_2_);}
	.st3{fill-rule:evenodd;clip-rule:evenodd;fill:#194473;}
	.st4{fill:none;stroke:#194473;stroke-width:1.1801;stroke-miterlimit:5.3333;}
	.st5{fill-rule:evenodd;clip-rule:evenodd;}
	.st6{fill:#008948;}
	.st7{fill-rule:evenodd;clip-rule:evenodd;fill:#008948;}
	.st8{fill:#004E9E;}
	.st9{fill:#1A1A18;}
	.st10{fill:#FFFFFF;}
	.st11{fill:#76BC21;}
	.st12{fill:#1D1D1B;}
	.st13{fill-rule:evenodd;clip-rule:evenodd;fill:#1D1D1B;}
	.st14{fill:#E31513;}
	.st15{fill:#E60001;}
	.st16{fill:#333333;}
	.st17{fill:#BBBDC0;}
	.st18{fill:#1D3B6D;}
	.st19{fill-rule:evenodd;clip-rule:evenodd;fill:#1D3B6D;}
	.st20{fill:#FFFFFF;stroke:#BBBDC0;stroke-width:0.275;stroke-miterlimit:3.8637;}
	.st21{fill:#005B53;}
	.st22{fill:#FF6C0E;}
	.st23{fill:#134094;}
	.st24{fill:#D2022F;}
	.st25{fill:#9D9D9C;}
	.st26{fill:#93B894;}
	.st27{filter:url(#Adobe_OpacityMaskFilter);}
	.st28{fill-rule:evenodd;clip-rule:evenodd;fill:#FFFFFF;}
	.st29{mask:url(#logo-hagesued-b_2_);fill:#FF7200;}
	.st30{filter:url(#Adobe_OpacityMaskFilter_1_);}
	.st31{mask:url(#logo-hagesued-d_2_);fill:#7F3D39;}
	.st32{fill:#FEFEFE;}
	.st33{fill:#606060;}
	.st34{filter:url(#Adobe_OpacityMaskFilter_2_);}
	.st35{mask:url(#logo-hagesued-b_1_);fill:#606060;}
	.st36{fill:none;stroke:#000000;stroke-miterlimit:10;}
	.st37{fill:none;}
	.st38{clip-path:url(#SVGID_2_);fill:#444543;}
	.st39{clip-path:url(#SVGID_4_);}
	.st40{clip-path:url(#SVGID_6_);fill:#D0D0D0;}
	.st41{clip-path:url(#SVGID_8_);fill:#D0D0D0;}
	.st42{fill:#1C1C1C;}
	.st43{fill-rule:evenodd;clip-rule:evenodd;fill:#1C1C1C;}
	.st44{fill:#3F3E3C;}
	.st45{fill:#2374BA;}
	.st46{fill:#AEB2B5;}
	.st47{fill-rule:evenodd;clip-rule:evenodd;fill:#164194;}
	.st48{fill:#E30613;}
	.st49{fill-rule:evenodd;clip-rule:evenodd;fill:#DC911B;}
	.st50{fill:#DC911B;}
	.st51{fill:#FF0066;}
</style>
<g>
	<path d="M83.9,71.1c0,4.4-3.6,7.9-8,8c-4.4,0-8-3.6-8-8s3.6-8,8-8C80.3,63.2,83.9,66.7,83.9,71.1z M83.9,94.4
		c-0.1,4.4-3.6,7.9-8,7.9c-4.4-0.1-7.8-3.8-7.7-8.2c0.1-4.2,3.5-7.6,7.7-7.7C80.3,86.5,83.9,90,83.9,94.4z"/>
	<path d="M134.8,83.5h-24.9c0.1,5.5,3.4,8.7,10.3,8.7c4.2,0,8.4-0.9,12.3-2.6l1.2,9.7c-4.9,1.9-10.2,2.9-15.5,2.9
		c-13.7,0-21.2-6.6-21.2-21.3c0-12.9,7.1-22.3,20.1-22.3c12.6,0,18.1,8.5,18.1,19.4C135.2,79.7,135,81.6,134.8,83.5z M116.7,67.8
		c-3.7,0-6.4,2.9-6.7,7.2h12.6C122.8,70.3,120.4,67.8,116.7,67.8z"/>
	<path d="M165.9,101.2l-11.3-20.1v20.1h-12.9V49.6c-2-0.3-4.9-0.7-7.3-0.8v-8.2c6.7-0.7,13.4-1,20.2-0.7v36.4l10.5-16.8h15.7
		L167,78.6l14.8,22.6H165.9z"/>
	<path d="M184.5,101.2V92l14.6-21.2c-1.2,0.1-3.8,0.2-7.6,0.2H185V59.5h29.7v9.1l-14.2,20.9c1.3-0.1,5.5-0.1,8.1-0.1h6.3v11.8H184.5
		z"/>
	<path d="M98.1,116.1h2.4v7.3h0.1c0.6-1.3,1.9-2.1,3.3-2c3.7,0,4.3,3.8,4.3,6.7c0,3.5-1.2,6.4-5.1,6.4c-3.6,0-4.9-2.2-4.9-5.5V116.1
		z M105.4,128.1c0-1.5-0.2-4.8-2.3-4.8c-2.1,0-2.7,3.1-2.7,4.7c0,1.7-0.1,4.7,2.4,4.7C105.2,132.8,105.4,129.8,105.4,128.1z"/>
	<path d="M111.5,118.8v-2.7h2.8v2.7H111.5z M111.8,134.3v-12.5h2.4v12.5H111.8z"/>
	<path d="M118.5,116.1h2.4v7.3h0.1c0.6-1.3,1.9-2,3.3-2c3.7,0,4.3,3.8,4.3,6.7c0,3.5-1.2,6.4-5.1,6.4c-3.6,0-4.9-2.2-4.9-5.5
		L118.5,116.1z M125.8,128.1c0-1.5-0.2-4.8-2.3-4.8s-2.7,3.1-2.7,4.7c0,1.7-0.1,4.7,2.4,4.7C125.7,132.8,125.8,129.8,125.8,128.1z"
		/>
	<path d="M132.2,134.3v-18.2h2.4v18.2H132.2z"/>
	<path d="M139.3,118.8v-2.7h2.8v2.7H139.3z M139.5,134.3v-12.5h2.4v12.5H139.5z"/>
	<path d="M145.7,128.1c0-3.7,1.5-6.6,5.6-6.6c4,0,5.5,2.9,5.5,6.6c0,3.7-1.5,6.6-5.5,6.6S145.7,131.7,145.7,128.1z M154.1,128.1
		c0-2-0.3-4.7-2.9-4.7c-2.6,0-2.9,2.7-2.9,4.7c0,2,0.3,4.7,2.9,4.7S154.1,130,154.1,128.1z"/>
	<path d="M166.9,134.4c-0.6,0.1-1.2,0.2-1.9,0.2c-2.2,0-3.8-0.7-3.8-3.1v-7.9H159v-1.8h2.2v-2.9l2.4-1.5v4.4h3.5v1.8h-3.5v6.7
		c0,1.4,0.3,2.5,2,2.5c0.4,0,0.9-0.1,1.3-0.2V134.4z"/>
	<path d="M177.3,134.3v-6.8c0-0.5,0-1,0-1.6c-0.1-1.2-0.3-2.1-1.7-2.1c-2.3,0-3.3,3.3-3.3,5.1v5.3H170v-18.2h2.4v8.3h0.1
		c0.7-1.8,2-3,4-3c2.5,0,3.4,2,3.4,4.1v8.7H177.3z"/>
	<path d="M192.5,134.2c-1,0.3-2.1,0.4-3.1,0.4c-4.5,0-6.2-3.1-6.2-7.2c0-3.4,1.5-6,5.1-6c3.1,0,4.5,2.2,4.5,5v0.6h-7.3
		c0,2.8,1.5,5.6,4.6,5.6c0.8,0,1.6-0.2,2.4-0.4L192.5,134.2z M190.5,125.6c0-1.2-0.9-2.2-2.1-2.2c-0.1,0-0.1,0-0.2,0
		c-1,0-1.9,0.5-2.3,1.5c-0.1,0.2-0.2,0.5-0.2,0.8L190.5,125.6z"/>
	<path d="M203.5,134.3l-4.8-6.5h-0.1v6.5h-2.4v-18.2h2.4v10.7l4.4-5h3l-4.6,5.5l5.1,7.1L203.5,134.3z"/>
	<path d="M208,132c1,0.4,2.1,0.7,3.2,0.7c1.1,0,2.6-0.3,2.6-1.6c0-2.1-5.7-2.6-5.7-6.2c0-2.5,2.2-3.5,4.5-3.5c1,0,1.9,0.2,2.8,0.4
		v2.1c-0.9-0.5-1.9-0.7-2.9-0.7c-0.7,0-2.1,0.4-2.1,1.3c0,2.1,5.7,2.3,5.7,6.1c0,2.9-2.2,3.8-4.7,3.8c-1.1,0-2.3-0.2-3.4-0.5
		L208,132z"/>
	<path d="M98.2,157.4c1.1,0.5,2.3,0.8,3.5,0.8c1.2,0,2.8-0.3,2.8-1.8c0-2.3-6.4-2.9-6.4-6.8c0-2.8,2.5-3.9,4.9-3.9
		c1.1,0,2.1,0.2,3.2,0.5v2.4c-1-0.5-2.1-0.8-3.2-0.8c-0.8,0-2.3,0.4-2.3,1.5c0,2.3,6.4,2.6,6.4,6.8c0,3.2-2.4,4.2-5.2,4.2
		c-1.3,0-2.5-0.2-3.7-0.6L98.2,157.4z"/>
	<path d="M126.2,159.8c-1.1,0.3-2.3,0.4-3.5,0.5c-5,0-6.9-3.4-6.9-8c0-3.8,1.7-6.6,5.7-6.6c3.4,0,5,2.4,5,5.6v0.7h-8
		c0,3.1,1.6,6.3,5.1,6.3c0.9,0,1.8-0.2,2.6-0.5L126.2,159.8z M123.8,150.2c0-1.3-1-2.4-2.3-2.5c-0.1,0-0.2,0-0.2,0
		c-1.1,0-2.1,0.6-2.6,1.6c-0.1,0.3-0.2,0.6-0.2,0.9H123.8z"/>
	<path d="M136.4,159.9V146h2.6v2.8h0.1c0.6-1.9,2.3-3.2,4.3-3.2v2.9c-3.4,0-4.4,2.4-4.4,5.5v5.9H136.4z"/>
	<path d="M156,159.9l-5.3-13.9h2.9l3.7,10.1h0.1l3.2-10.1h2.9l-4.8,13.9H156z"/>
	<path d="M172.5,142.7v-3h3.1v3H172.5z M172.7,159.9V146h2.6v13.9H172.7z"/>
	<path d="M196.3,159.7c-1.3,0.4-2.6,0.5-3.9,0.5c-4.7,0-6.8-3.5-6.8-7.8c0-3.9,1.8-6.8,5.9-6.8c3.2,0,5,1.7,5,4.9h-3
		c0-1.5-0.4-2.8-2.1-2.8c-2.2,0-2.8,2.5-2.8,4.2c0,3.5,1.7,6.2,5.5,6.2c0.7,0,1.5-0.1,2.2-0.3L196.3,159.7z"/>
	<path d="M215.2,159.8c-1.1,0.3-2.3,0.4-3.5,0.5c-5,0-6.9-3.4-6.9-8c0-3.8,1.7-6.6,5.7-6.6c3.4,0,5,2.4,5,5.6v0.7h-8
		c0,3.1,1.6,6.3,5.1,6.3c0.9,0,1.8-0.2,2.6-0.5L215.2,159.8z M212.9,150.2c0-1.3-1-2.4-2.3-2.5c-0.1,0-0.2,0-0.2,0
		c-1.1,0-2.1,0.6-2.6,1.6c-0.1,0.3-0.2,0.6-0.2,0.9H212.9z"/>
</g>
</svg>
