<?xml version="1.0" encoding="utf-8"?>
<!-- Generator: Adobe Illustrator 24.2.0, SVG Export Plug-In . SVG Version: 6.00 Build 0)  -->
<svg version="1.1" id="Ebene_1" xmlns="http://www.w3.org/2000/svg" xmlns:xlink="http://www.w3.org/1999/xlink" x="0px" y="0px"
	 viewBox="0 0 300 200" style="enable-background:new 0 0 300 200;" xml:space="preserve">
<style type="text/css">
	.st0{fill:#0A1227;}
	.st1{fill-rule:evenodd;clip-rule:evenodd;fill:#0A1227;}
	.st2{fill:url(#path58_2_);}
	.st3{fill-rule:evenodd;clip-rule:evenodd;fill:#194473;}
	.st4{fill:none;stroke:#194473;stroke-width:1.1801;stroke-miterlimit:5.3333;}
	.st5{fill-rule:evenodd;clip-rule:evenodd;}
	.st6{fill:#008948;}
	.st7{fill-rule:evenodd;clip-rule:evenodd;fill:#008948;}
	.st8{fill:#004E9E;}
	.st9{fill:#1A1A18;}
	.st10{fill:#FFFFFF;}
	.st11{fill:#76BC21;}
	.st12{fill:#1D1D1B;}
	.st13{fill-rule:evenodd;clip-rule:evenodd;fill:#1D1D1B;}
	.st14{fill:#E31513;}
	.st15{fill:#E60001;}
	.st16{fill:#333333;}
	.st17{fill:#BBBDC0;}
	.st18{fill:#1D3B6D;}
	.st19{fill-rule:evenodd;clip-rule:evenodd;fill:#1D3B6D;}
	.st20{fill:#FFFFFF;stroke:#BBBDC0;stroke-width:0.275;stroke-miterlimit:3.8637;}
	.st21{fill:#005B53;}
	.st22{fill:#FF6C0E;}
	.st23{fill:#134094;}
	.st24{fill:#D2022F;}
	.st25{fill:#9D9D9C;}
	.st26{fill:#93B894;}
	.st27{filter:url(#Adobe_OpacityMaskFilter);}
	.st28{fill-rule:evenodd;clip-rule:evenodd;fill:#FFFFFF;}
	.st29{mask:url(#logo-hagesued-b_2_);fill:#FF7200;}
	.st30{filter:url(#Adobe_OpacityMaskFilter_1_);}
	.st31{mask:url(#logo-hagesued-d_2_);fill:#7F3D39;}
	.st32{fill:#FEFEFE;}
	.st33{fill:#606060;}
	.st34{filter:url(#Adobe_OpacityMaskFilter_2_);}
	.st35{mask:url(#logo-hagesued-b_1_);fill:#606060;}
	.st36{fill:none;stroke:#000000;stroke-miterlimit:10;}
	.st37{fill:none;}
	.st38{clip-path:url(#SVGID_2_);fill:#444543;}
	.st39{clip-path:url(#SVGID_4_);}
	.st40{clip-path:url(#SVGID_6_);fill:#D0D0D0;}
	.st41{clip-path:url(#SVGID_8_);fill:#D0D0D0;}
	.st42{fill:#3F3E3C;}
	.st43{fill:#2374BA;}
	.st44{fill:#AEB2B5;}
	.st45{fill-rule:evenodd;clip-rule:evenodd;fill:#164194;}
	.st46{fill:#E30613;}
	.st47{fill-rule:evenodd;clip-rule:evenodd;fill:#DC911B;}
	.st48{fill:#DC911B;}
	.st49{fill:#FF0066;}
</style>
<g>
	<g>
		<path class="st0" d="M118.9,57.2h-6.6v-9.2h6.4v1.8h-4.6v1.6h2.6v1.8h-2.6v2.2h4.7L118.9,57.2L118.9,57.2z"/>
		<path class="st0" d="M130.1,54.4c0,1.8-1.1,2.9-3.6,2.9c-1.5,0-2.9-0.6-3.6-1.7l1.3-1.2c0.6,0.7,1.5,1.1,2.4,1.1
			c1.1,0,1.6-0.3,1.6-1c0-0.6-0.3-0.9-2.1-1.2c-1.7-0.4-2.9-0.9-2.9-2.7c0-1.7,1.5-2.7,3.3-2.7c1.4,0,2.5,0.5,3.4,1.4l-1.3,1.3
			c-0.6-0.6-1.2-0.9-2.1-0.9c-1,0-1.3,0.4-1.3,0.8c0,0.6,0.4,0.8,1.9,1.1C128.5,51.9,130.1,52.4,130.1,54.4z"/>
		<path class="st0" d="M141,49.8h-2.6v7.4h-1.8v-7.4h-2.6v-1.8h7.1L141,49.8L141,49.8z"/>
		<path class="st0" d="M154.6,57.2h-1.8v-6.7h-1.6v-1.4c1-0.1,1.7-0.4,1.9-1.2h1.5V57.2L154.6,57.2z"/>
		<path class="st0" d="M166.3,51.5c0,2.4-1.4,5.8-6.2,5.8v-1.8c2.1,0,3.5-0.7,4-2.2c-0.6,0.4-1.2,0.6-2.1,0.6c-1.8,0-3.2-0.9-3.2-3
			c0-2.1,1.7-3.2,3.9-3.2C164.7,47.8,166.3,48.9,166.3,51.5z M164.4,50.9c0-0.9-0.6-1.4-1.8-1.4c-1.2,0-1.9,0.5-1.9,1.4
			c0,0.9,0.7,1.4,1.8,1.4C163.7,52.3,164.4,51.8,164.4,50.9z"/>
		<path class="st0" d="M176.9,49.7c-1.9,1.8-3,4.2-3,7.4h-1.9c0-3,1-5.5,2.7-7.5H170v-1.8h6.9L176.9,49.7L176.9,49.7z"/>
		<path class="st0" d="M188.2,51.5c0,2.4-1.4,5.8-6.2,5.8v-1.8c2.1,0,3.5-0.7,4-2.2c-0.6,0.4-1.2,0.6-2.1,0.6c-1.8,0-3.2-0.9-3.2-3
			c0-2.1,1.7-3.2,3.9-3.2C186.6,47.8,188.2,48.9,188.2,51.5z M186.3,50.9c0-0.9-0.6-1.4-1.8-1.4c-1.2,0-1.9,0.5-1.9,1.4
			c0,0.9,0.7,1.4,1.8,1.4C185.6,52.3,186.3,51.8,186.3,50.9z"/>
	</g>
	<g>
		<g>
			<path class="st0" d="M125.4,144.7l-1.7,0.8c-0.3-0.6-0.9-1-1.7-1c-1.4,0-2.2,1.2-2.2,2.9c0,1.7,0.8,2.9,2.2,2.9
				c0.8,0,1.3-0.4,1.8-1.2l1.6,0.9c-0.6,1.3-1.7,2.1-3.4,2.1c-2.4,0-4-1.8-4-4.7c0-2.8,1.7-4.7,4.1-4.7
				C123.7,142.7,124.8,143.5,125.4,144.7z"/>
			<path class="st0" d="M137.7,142.8l-3.5,5.6v3.6h-1.8v-3.6l-3.5-5.6h2.1l1.3,2.2c0.3,0.6,0.8,1.5,1,1.8c0.2-0.3,0.7-1.2,1-1.8
				l1.3-2.2H137.7z"/>
			<path class="st0" d="M148.4,144.7l-1.7,0.8c-0.3-0.6-0.9-1-1.7-1c-1.4,0-2.2,1.2-2.2,2.9c0,1.7,0.8,2.9,2.2,2.9
				c0.8,0,1.3-0.4,1.8-1.2l1.6,0.9c-0.6,1.3-1.7,2.1-3.4,2.1c-2.4,0-4-1.8-4-4.7c0-2.8,1.7-4.7,4.1-4.7
				C146.8,142.7,147.9,143.5,148.4,144.7z"/>
			<path class="st0" d="M159.4,152H153v-9.2h1.8v7.4h4.6V152z"/>
			<path class="st0" d="M170.5,152h-6.6v-9.2h6.4v1.8h-4.6v1.6h2.6v1.8h-2.6v2.2h4.7L170.5,152L170.5,152z"/>
			<path class="st0" d="M182,149.3c0,1.8-1.1,2.9-3.6,2.9c-1.5,0-2.9-0.6-3.6-1.7l1.3-1.2c0.6,0.7,1.5,1.1,2.4,1.1
				c1.1,0,1.6-0.3,1.6-1c0-0.6-0.3-0.9-2.1-1.2c-1.7-0.4-2.9-0.9-2.9-2.7c0-1.7,1.5-2.7,3.3-2.7c1.4,0,2.5,0.5,3.4,1.4l-1.3,1.3
				c-0.6-0.6-1.2-0.9-2.1-0.9c-1,0-1.3,0.4-1.3,0.8c0,0.6,0.4,0.8,1.9,1.1C180.4,146.8,182,147.3,182,149.3z"/>
		</g>
	</g>
	<path class="st0" d="M170.8,121.7h-9.7l-3.2-3.4c-3.3,2.7-7.4,4.1-12.3,4.1c-8.7,0-13.9-3.6-13.9-11.3c0-5.9,3.3-9.5,8.7-12.2
		l-1.1-1.2c-2.2-2.5-3.7-5.2-3.7-8.6c0-6.9,5.4-10.5,12.6-10.5c5.2,0,8.6,1.6,12.6,4.4l-4.1,6.1c-2.8-2.1-5.8-3-8.8-3
		c-2.5,0-4,1-4,2.8c0,1.8,0.9,3,2.2,4.6l11.7,13.3c1-1.9,1.9-4.2,3-7l6.8,2.2c-1.3,4.1-2.9,7.7-4.8,10.6L170.8,121.7z M153,112.9
		l-8.3-9.1c-3.3,1.8-4.7,3.9-4.7,6.5c0,2.7,2.2,4.5,6.4,4.5C149.1,114.8,151.3,114.2,153,112.9z"/>
	<path class="st0" d="M87.4,79.3l4.7,27.6l6.5-27.6h7.4l6.4,27.6l4.7-27.6h8.8l-8.8,42.4h-7.9c0,0-6.5-27.5-6.7-29
		c-0.2,1.6-6.7,29-6.7,29h-8.3l-8.8-42.4L87.4,79.3z"/>
	<path class="st0" d="M221.4,79.3l-8.8,42.4h-8.3c0,0-6.4-27.5-6.7-29c-0.2,1.6-6.7,29-6.7,29h-7.9l-8.8-42.4h8.8l4.7,27.6l6.4-27.6
		h7.4l6.5,27.6l4.7-27.6H221.4z"/>
	<g>
		<path class="st0" d="M150,63.9c0,0,12.4,4.3,24.6,4.3c12.2,0,25.2-4.3,25.2-4.3l29.4,6.9l-1.5,6.4l-27.9-6.5c0,0-13,4.3-25.2,4.3
			c-12.2,0-24.6-4.3-24.6-4.3S137.6,75,125.4,75s-25.2-4.3-25.2-4.3l-27.9,6.5l-1.5-6.4l29.4-6.9c0,0,13,4.3,25.2,4.3
			C137.6,68.2,150,63.9,150,63.9z"/>
	</g>
	<path class="st0" d="M150,136.7c0,0,6.6-3.4,15.7-3.4s14.2,1.5,30.8,1.5s30.4-6.2,30.4-6.2l-2.6-5.7c-4.8,1.8-15.5,5.2-27.8,5.2
		c-16.5,0-21.7-1.5-30.8-1.5c-9.1,0-15.7,3.4-15.7,3.4s-6.6-3.4-15.7-3.4S120,128,103.5,128c-12.3,0-23-3.4-27.8-5.2l-2.6,5.7
		c0,0,13.9,6.2,30.4,6.2s21.7-1.5,30.8-1.5S150,136.7,150,136.7z"/>
</g>
</svg>
