<?xml version="1.0" encoding="utf-8"?>
<!-- Generator: Adobe Illustrator 24.2.0, SVG Export Plug-In . SVG Version: 6.00 Build 0)  -->
<svg version="1.1" id="Ebene_1" xmlns="http://www.w3.org/2000/svg" xmlns:xlink="http://www.w3.org/1999/xlink" x="0px" y="0px"
	 viewBox="0 0 300 200" style="enable-background:new 0 0 300 200;" xml:space="preserve">
<style type="text/css">
	.st0{fill:#0A1227;}
	.st1{fill-rule:evenodd;clip-rule:evenodd;fill:#0A1227;}
	.st2{fill:url(#path58_2_);}
	.st3{fill-rule:evenodd;clip-rule:evenodd;fill:#194473;}
	.st4{fill:none;stroke:#194473;stroke-width:1.1801;stroke-miterlimit:5.3333;}
	.st5{fill-rule:evenodd;clip-rule:evenodd;}
	.st6{fill:#008948;}
	.st7{fill-rule:evenodd;clip-rule:evenodd;fill:#008948;}
	.st8{fill:#004E9E;}
	.st9{fill:#1A1A18;}
	.st10{fill:#FFFFFF;}
	.st11{fill:#76BC21;}
	.st12{fill:#1D1D1B;}
	.st13{fill-rule:evenodd;clip-rule:evenodd;fill:#1D1D1B;}
	.st14{fill:#E31513;}
	.st15{fill:#E60001;}
	.st16{fill:#333333;}
	.st17{fill:#BBBDC0;}
	.st18{fill:#1D3B6D;}
	.st19{fill-rule:evenodd;clip-rule:evenodd;fill:#1D3B6D;}
	.st20{fill:#FFFFFF;stroke:#BBBDC0;stroke-width:0.275;stroke-miterlimit:3.8637;}
	.st21{fill:#005B53;}
	.st22{fill:#FF6C0E;}
	.st23{fill:#134094;}
	.st24{fill:#D2022F;}
	.st25{fill:#9D9D9C;}
	.st26{fill:#93B894;}
	.st27{filter:url(#Adobe_OpacityMaskFilter);}
	.st28{fill-rule:evenodd;clip-rule:evenodd;fill:#FFFFFF;}
	.st29{mask:url(#logo-hagesued-b_2_);fill:#FF7200;}
	.st30{filter:url(#Adobe_OpacityMaskFilter_1_);}
	.st31{mask:url(#logo-hagesued-d_2_);fill:#7F3D39;}
	.st32{fill:#FEFEFE;}
	.st33{fill:#606060;}
	.st34{filter:url(#Adobe_OpacityMaskFilter_2_);}
	.st35{mask:url(#logo-hagesued-b_1_);fill:#606060;}
	.st36{fill:none;stroke:#000000;stroke-miterlimit:10;}
	.st37{fill:none;}
	.st38{clip-path:url(#SVGID_2_);fill:#444543;}
	.st39{clip-path:url(#SVGID_4_);}
	.st40{clip-path:url(#SVGID_6_);fill:#D0D0D0;}
	.st41{clip-path:url(#SVGID_8_);fill:#D0D0D0;}
	.st42{fill:#3F3E3C;}
	.st43{fill:#2374BA;}
	.st44{fill:#AEB2B5;}
	.st45{fill-rule:evenodd;clip-rule:evenodd;fill:#164194;}
	.st46{fill:#E30613;}
	.st47{fill-rule:evenodd;clip-rule:evenodd;fill:#DC911B;}
	.st48{fill:#DC911B;}
	.st49{fill:#FF0066;}
</style>
<g id="layer1_3_" transform="translate(209.09599,-202.90288)">
	<path id="path58_1_" class="st0" d="M35.8,288.4l0,21.1c0,1.7-1.4,3-3,3l0,0c-1.7,0-3-1.4-3-3l0,0l0-21.1c0-5.6-4.6-10.2-10.2-10.2
		l0,0c-5.6,0-10.2,4.6-10.2,10.2l0,0v30.3c0,0.4,0.3,0.8,0.8,0.8l0,0c0.4,0,0.8-0.3,0.8-0.8l0,0v-30.3c0-4.8,3.9-8.7,8.7-8.7l0,0
		c4.8,0,8.7,3.9,8.7,8.7l0,0v21.1c0,2.5,2,4.5,4.5,4.5l0,0c2.5,0,4.5-2,4.5-4.5l0,0l0-21.1c0-4.8,3.9-8.7,8.7-8.7l0,0
		c4.8,0,8.7,3.9,8.7,8.7l0,0v29.1c0,0.4-0.3,0.7-0.7,0.7l0,0c-0.4,0-0.7-0.3-0.7-0.7l0,0l0-29.1c0-4.1-3.3-7.4-7.4-7.4l0,0
		c-4.1,0-7.4,3.3-7.4,7.4l0,0v21.1c0,3.2-2.6,5.9-5.9,5.9l0,0c-3.2,0-5.9-2.6-5.9-5.9l0,0v-21.1c0-4.1-3.3-7.4-7.4-7.4l0,0
		c-4.1,0-7.4,3.3-7.4,7.4l0,0v29.1c0,1.2,1,2.2,2.2,2.2l0,0c1.2,0,2.2-1,2.2-2.2l0,0v-29.1c0-1.7,1.4-3,3-3l0,0c1.7,0,3,1.4,3,3l0,0
		l0,21.1c0,5.6,4.6,10.2,10.2,10.2l0,0c5.6,0,10.2-4.6,10.2-10.2l0,0v-21.1c0-1.7,1.3-3,3-3l0,0c1.7,0,3,1.4,3,3l0,0v30.3
		c0,0.4,0.3,0.8,0.8,0.8l0,0c0.4,0,0.8-0.3,0.8-0.8l0,0v-30.3c0-2.5-2-4.5-4.5-4.5l0,0c-2.5,0-4.5,2-4.5,4.5l0,0v21.1
		c0,4.8-3.9,8.7-8.7,8.7l0,0c-4.8,0-8.7-3.9-8.7-8.7l0,0v-21.1c0-2.5-2-4.5-4.5-4.5l0,0c-2.5,0-4.5,2-4.5,4.5l0,0v29.1
		c0,0.4-0.3,0.7-0.7,0.7l0,0c-0.4,0-0.7-0.3-0.7-0.7l0,0v-29.1c0-3.2,2.6-5.9,5.9-5.9l0,0c3.2,0,5.9,2.6,5.9,5.9l0,0v21.1
		c0,4.1,3.3,7.4,7.4,7.4l0,0c4.1,0,7.4-3.3,7.4-7.4l0,0v-21.1c0-3.2,2.6-5.9,5.9-5.9l0,0c3.2,0,5.9,2.6,5.9,5.9l0,0v29.1
		c0,1.2,1,2.2,2.2,2.2l0,0c1.2,0,2.2-1,2.2-2.2l0,0v-29.1c0-5.6-4.6-10.2-10.2-10.2l0,0C40.4,278.1,35.8,282.7,35.8,288.4
		 M-37.4,278.9L-37.4,278.9c-3.8,0.2-7.2,1.8-9.8,4.3l0,0c-2.7,2.6-4.2,6.1-4.2,9.8l0,0v25.7c0,0.4,0.3,0.8,0.8,0.8l0,0
		c0.4,0,0.8-0.3,0.8-0.8l0,0v-25.7c0-3.3,1.3-6.4,3.7-8.7l0,0c2.3-2.3,5.4-3.6,8.8-3.8l0,0l0,0c2.4-0.1,4.9-0.2,7.4-0.1l0,0
		c0.3,0,0.7,0,1.1,0l0,0c0.2,0,0.4,0,0.6,0l0,0c0.3,0,0.6,0.3,0.6,0.6l0,0c0,0.2,0,0.4-0.1,0.5l0,0c-0.1,0.2-0.2,0.2-0.9,0.2l0,0
		c-1,0-2-0.1-3-0.1l0,0c-1.8,0-3.7,0-5.6,0.1l0,0c-3,0.2-5.9,1.4-7.9,3.4l0,0c-2.1,2.1-3.3,4.8-3.3,7.8l0,0v24.5
		c0,1.2,1,2.2,2.2,2.2l0,0c1.2,0,2.2-1,2.2-2.2l0,0v-24.5c0-3.6,3.1-6.6,7.1-6.9l0,0c2-0.1,4.1-0.1,6.1-0.1l0,0c0.7,0,1.9,0,2.8,0.1
		l0,0l0.6,0c0.4,0,0.8-0.3,0.8-0.7l0,0c0-0.4-0.3-0.8-0.7-0.8l0,0l-0.6,0c-0.9,0-2.1-0.1-2.8-0.1l0,0c-2.1,0-4.2,0-6.2,0.1l0,0l0,0
		c-4.9,0.3-8.5,3.9-8.5,8.4l0,0v24.5c0,0.4-0.3,0.7-0.7,0.7l0,0c-0.4,0-0.7-0.4-0.7-0.7l0,0v-24.5c0-5.2,4.2-9.4,9.8-9.7l0,0
		c1.9-0.1,3.7-0.1,5.5-0.1l0,0c1,0,2,0,2.9,0.1l0,0c0.8,0,1.5,0,2.1-0.8l0,0c0.4-0.5,0.5-1,0.4-1.6l0,0c-0.1-1-1-1.8-2.1-1.9l0,0
		c-0.2,0-0.4,0-0.6,0l0,0c-0.4,0-0.8,0-1.1,0l0,0c-0.7,0-1.3,0-2,0l0,0C-33.7,278.7-35.6,278.8-37.4,278.9 M-77.3,278.9
		c-3.8,0.2-7.3,1.8-10,4.4l0,0c-2.7,2.6-4.1,6.1-4.1,9.8l0,0v12.3c0,3.7,1.5,7.2,4.1,9.8l0,0c2.6,2.6,6.2,4.2,10,4.3l0,0
		c1.8,0.1,4.7,0.1,7.5,0.1l0,0c2.8,0,5.5,0,7.3-0.1l0,0l0.1,0c0.3,0,0.6,0,0.9-0.1l0,0c0.6-0.1,1.1-0.4,1.4-0.9l0,0
		c0.3-0.5,0.5-1.1,0.4-1.6l0,0c-0.2-1.1-1.2-1.9-2.4-1.8l0,0l-0.1,0c-0.1,0-0.2,0-0.3,0l0,0c-3.5,0.2-11.1,0.3-14.6,0.1l0,0
		c-5.5-0.3-9.8-4.6-9.8-9.8l0,0V293c0-5.2,4.2-9.4,9.8-9.7l0,0c3.5-0.2,4.4-0.2,7.8,0l0,0c5.5,0.4,9.6,4.5,9.6,9.7l0,0v1.8
		c0,5.2-4.2,9.4-9.8,9.7l0,0c-2.2,0.1-4.8,0.1-6.5,0.1l0,0c-0.4,0-0.7-0.3-0.7-0.7l0,0c0-0.4,0.3-0.7,0.7-0.7l0,0h0.7
		c2,0,3.7,0,5.9-0.1l0,0c2.3-0.2,4.4-1.1,5.9-2.6l0,0c1.6-1.5,2.5-3.6,2.5-5.8l0,0V293c0-2.2-0.8-4.3-2.4-5.8l0,0
		c-1.5-1.5-3.6-2.5-5.8-2.6l0,0c-3.6-0.2-4.5-0.2-8,0l0,0c-4.8,0.4-8.3,4-8.3,8.4l0,0v12.3c0,2.2,0.9,4.3,2.5,5.8l0,0
		c1.6,1.5,3.6,2.5,5.9,2.6l0,0c3.6,0.2,11.3,0.2,14.8,0l0,0c0.2,0,0.9-0.1,1.3-0.1l0,0l0.1,0c0.4,0,0.7-0.4,0.7-0.8l0,0
		c0-0.4-0.4-0.7-0.8-0.7l0,0l-0.1,0c-0.4,0-1.1,0.1-1.3,0.1l0,0c-3.5,0.2-11.1,0.2-14.6,0l0,0c-4-0.3-7-3.2-7-6.9l0,0V293
		c0-3.7,3-6.6,6.9-6.9l0,0c3.5-0.2,4.3-0.2,7.8,0l0,0c3.9,0.3,6.8,3.2,6.8,6.9l0,0v1.8c0,3.6-3,6.6-6.9,6.9l0,0
		c-2.1,0.1-3.8,0.1-5.8,0.1l0,0H-76c-1.2,0-2.2,1-2.2,2.2l0,0c0,1.2,1,2.2,2.2,2.2l0,0c1.7,0,4.3,0,6.6-0.1l0,0
		c3-0.2,5.9-1.4,7.9-3.4l0,0c2.1-2.1,3.3-4.8,3.3-7.8l0,0V293c0-2.9-1.1-5.7-3.2-7.8l0,0c-2-2-4.8-3.3-7.8-3.5l0,0
		c-3.6-0.2-4.4-0.2-8,0l0,0c-3,0.2-5.9,1.4-7.9,3.5l0,0c-2.1,2.1-3.3,4.8-3.3,7.8l0,0v12.3c0,2.9,1.2,5.7,3.3,7.8l0,0
		c2.1,2.1,4.9,3.3,7.9,3.5l0,0c3.5,0.2,11.2,0.1,14.8-0.1l0,0c0.1,0,0.2,0,0.2,0l0,0l0.2,0c0.4,0,0.8,0.1,0.9,0.6l0,0
		c0,0.2,0,0.4-0.1,0.5l0,0c-0.1,0.2-0.3,0.3-0.4,0.3l0,0c-0.2,0-0.4,0-0.7,0.1l0,0l-0.1,0c-3.5,0.2-11.1,0.2-14.6,0l0,0
		c-7.1-0.3-12.7-5.9-12.7-12.6l0,0V293c0-6.7,5.6-12.2,12.7-12.7l0,0c3.5-0.2,4.4-0.2,7.8,0l0,0c7.1,0.4,12.5,5.8,12.5,12.7l0,0v1.8
		c0,6.6-5.6,12.2-12.7,12.6l0,0c-1.9,0.1-5.8,0.1-7.9,0.1l0,0h0c-0.4,0-0.7,0.3-0.8,0.7l0,0c0,0.4,0.3,0.8,0.7,0.8l0,0
		c2.1,0,6,0,8-0.1l0,0c3.8-0.2,7.3-1.8,10-4.3l0,0c2.7-2.6,4.1-6.1,4.1-9.8l0,0V293c0-3.7-1.4-7.2-4-9.8l0,0
		c-2.6-2.6-6.1-4.2-9.9-4.4l0,0c-1.8-0.1-2.9-0.1-4-0.1l0,0C-74.4,278.8-75.5,278.8-77.3,278.9 M-119.9,278.9
		c-3.8,0.2-7.3,1.8-10,4.3l0,0c-2.7,2.6-4.1,6.1-4.1,9.7l0,0v49.4c0,0.4,0.3,0.8,0.8,0.8l0,0c0.4,0,0.8-0.3,0.8-0.8l0,0v-49.4
		c0-6.6,5.6-12.2,12.7-12.6l0,0c3.5-0.2,6.4-0.2,9.9,0l0,0c7.1,0.4,12.7,5.9,12.7,12.6l0,0v12.5c0,6.6-5.6,12.2-12.7,12.6l0,0
		c-1.7,0.1-3.3,0.1-4.9,0.1l0,0h0c-1.5,0-4.6-0.1-5.2-0.1l0,0c-0.2,0-0.5-0.3-0.5-0.7l0,0c0-0.4,0.3-0.7,0.7-0.7l0,0
		c0.9,0,1.8,0,2.6,0.1l0,0c0.8,0,1.6,0.1,2.4,0.1l0,0h0c1.6,0,3.2,0,5-0.1l0,0c3-0.2,5.9-1.4,7.9-3.4l0,0c2.1-2.1,3.3-4.8,3.3-7.8
		l0,0V293c0-2.9-1.2-5.7-3.3-7.8l0,0c-2.1-2-4.9-3.3-7.9-3.5l0,0c-3.6-0.2-6.5-0.2-10,0l0,0c-3,0.2-5.9,1.4-7.9,3.5l0,0
		c-2.1,2.1-3.3,4.8-3.3,7.8l0,0v48.6c0,1.2,1,2.2,2.2,2.2l0,0c1.2,0,2.2-1,2.2-2.2l0,0v-48.6c0-3.6,3-6.6,7-6.9l0,0
		c3.5-0.2,6.4-0.2,9.8,0l0,0c4,0.3,7,3.2,7,6.9l0,0v12.5c0,3.6-3,6.6-6.9,6.9l0,0c-3.3,0.2-7,0.2-10.7,0l0,0c-0.4,0-0.8,0.3-0.8,0.7
		l0,0c0,0.4,0.3,0.8,0.7,0.8l0,0c3.8,0.2,7.6,0.3,10.9,0l0,0c2.3-0.2,4.3-1.1,5.9-2.6l0,0c1.6-1.5,2.5-3.6,2.5-5.8l0,0v-12.5
		c0-2.2-0.9-4.2-2.5-5.8l0,0c-1.5-1.5-3.6-2.4-5.9-2.6l0,0c-3.6-0.2-6.5-0.2-10,0l0,0c-4.8,0.4-8.4,4-8.4,8.4l0,0v48.6
		c0,0.4-0.3,0.7-0.7,0.7l0,0c-0.4,0-0.7-0.3-0.7-0.7l0,0v-48.6c0-5.2,4.2-9.4,9.8-9.7l0,0c3.5-0.2,6.4-0.2,9.9,0l0,0
		c5.6,0.4,9.8,4.5,9.8,9.7l0,0v12.5c0,5.2-4.2,9.4-9.8,9.7l0,0c-1.7,0.1-3.3,0.1-4.9,0.1l0,0h0c-0.8,0-1.5,0-2.4-0.1l0,0
		c-0.8,0-1.7-0.1-2.6-0.1l0,0c-1.2,0-2.2,1-2.2,2.2l0,0c0,1.1,0.9,2.1,1.9,2.2l0,0c0.6,0,3.8,0.1,5.3,0.1l0,0h0c1.6,0,3.2,0,5-0.1
		l0,0c3.8-0.2,7.3-1.8,10-4.3l0,0c2.7-2.6,4.1-6.1,4.1-9.7l0,0v-12.5c0-3.7-1.5-7.1-4.1-9.7l0,0c-2.6-2.6-6.2-4.1-10-4.3l0,0
		c-1.8-0.1-3.4-0.1-5-0.1l0,0C-116.5,278.8-118.2,278.8-119.9,278.9 M-16.6,278.8c-0.4,0-1.1,0-1.7,0.1l0,0c-0.3,0-0.7,0-0.9,0l0,0
		c-0.4,0-0.7,0.4-0.7,0.8l0,0c0,0.4,0.4,0.7,0.8,0.7l0,0c0.2,0,0.6,0,0.9,0l0,0c0.6,0,1.3-0.1,1.7-0.1l0,0c2.4,0,4.9,0,7.4,0.1l0,0
		l0,0c3.4,0.2,6.5,1.6,8.8,3.8l0,0c2.4,2.3,3.7,5.4,3.7,8.7l0,0v12.4c0,3.3-1.3,6.4-3.7,8.7l0,0c-2.3,2.3-5.4,3.6-8.8,3.8l0,0l0,0
		c-3.5,0.2-4.7,0.2-8.1,0l0,0l0,0c-7-0.5-12.3-5.9-12.3-12.6l0,0l0-1.8c0-3.3,1.3-6.4,3.7-8.7l0,0c2.3-2.3,5.4-3.6,8.8-3.8l0,0l0,0
		c1.8-0.1,3.9-0.1,6.6-0.1l0,0c0.4,0,0.7,0.3,0.7,0.7l0,0c0,0.4-0.3,0.7-0.7,0.7l0,0c-1.7,0-4.3,0-6.6,0.1l0,0
		c-3,0.2-5.9,1.4-7.9,3.5l0,0c-2.1,2.1-3.3,4.8-3.3,7.8l0,0v1.8c0,2.9,1.1,5.7,3.2,7.8l0,0c2,2,4.8,3.3,7.8,3.5l0,0
		c3.6,0.2,4.4,0.2,8,0l0,0c3-0.2,5.9-1.4,7.9-3.5l0,0c2.1-2.1,3.3-4.8,3.3-7.8l0,0V293c0-2.9-1.2-5.7-3.3-7.8l0,0
		c-2.1-2-4.9-3.3-7.9-3.5l0,0c-3.1-0.2-6.2-0.2-9.2-0.1l0,0c-1.2,0-2.1,1-2.1,2.2l0,0c0,1.2,1,2.2,2.2,2.2l0,0c0.5,0,1,0,1.5,0l0,0
		c0.4,0,0.8,0,1.2,0l0,0c2,0,4.1,0,6.1,0.1l0,0c4.1,0.3,7.1,3.2,7.1,6.9l0,0v12.4c0,3.6-3.1,6.6-7.1,6.9l0,0c-3.4,0.2-4.1,0.2-7.5,0
		l0,0c-4-0.3-6.9-3.2-6.9-6.9l0,0l0-1.8c0-3.6,3.1-6.6,7.1-6.9l0,0c2.1-0.1,5.1-0.1,7-0.1l0,0h0c0.4,0,0.8-0.3,0.8-0.8l0,0
		c0-0.4-0.3-0.8-0.8-0.8l0,0h0c-1.9,0-5,0-7.1,0.1l0,0l0,0c-4.9,0.3-8.6,3.9-8.6,8.4l0,0v1.8c0,4.5,3.5,8.1,8.3,8.4l0,0
		c3.4,0.2,4.2,0.2,7.7,0l0,0c4.9-0.3,8.6-3.9,8.6-8.4l0,0V293c0-4.5-3.7-8.1-8.6-8.4l0,0l0,0c-2.1-0.1-4.1-0.1-6.2-0.1l0,0
		c-0.4,0-0.8,0-1.3,0l0,0c-0.5,0-1,0-1.5,0l0,0c-0.4,0-0.7-0.3-0.7-0.7l0,0c0-0.4,0.3-0.7,0.6-0.7l0,0c2.9-0.1,6-0.1,9,0.1l0,0
		c5.6,0.4,9.8,4.5,9.8,9.7l0,0v12.4c0,5.2-4.2,9.4-9.8,9.7l0,0c-3.5,0.2-4.4,0.2-7.8,0l0,0c-5.5-0.4-9.6-4.5-9.6-9.7l0,0v-1.8
		c0-5.2,4.2-9.4,9.8-9.7l0,0c2.3-0.1,4.8-0.1,6.5-0.1l0,0c1.2,0,2.2-1,2.2-2.2l0,0c0-1.2-1-2.2-2.2-2.2l0,0c-2.8,0-4.9,0-6.7,0.1
		l0,0l0,0c-3.7,0.2-7.2,1.8-9.7,4.3l0,0c-2.7,2.6-4.2,6.1-4.2,9.8l0,0v1.8c0,7.5,5.9,13.6,13.7,14.1l0,0l0,0c1.8,0.1,3,0.1,4.1,0.1
		l0,0c1.2,0,2.4-0.1,4.1-0.1l0,0l0,0c3.7-0.2,7.2-1.8,9.7-4.3l0,0c2.7-2.6,4.2-6.1,4.2-9.8l0,0V293c0-3.7-1.5-7.2-4.2-9.8l0,0
		c-2.6-2.5-6-4-9.7-4.3l0,0l0,0c-1.8-0.1-3.7-0.1-5.5-0.1l0,0C-15.3,278.8-15.9,278.8-16.6,278.8 M-159.9,278.8
		c-0.4,0-1.1,0-1.7,0.1l0,0c-0.3,0-0.7,0-0.9,0l0,0c-0.4,0-0.7,0.4-0.7,0.8l0,0c0,0.4,0.4,0.7,0.8,0.7l0,0c0.2,0,0.6,0,0.9,0l0,0
		c0.6,0,1.3-0.1,1.7-0.1l0,0c2.4,0,4.9,0,7.4,0.1l0,0l0,0c3.4,0.2,6.5,1.6,8.8,3.8l0,0c2.4,2.3,3.7,5.4,3.7,8.7l0,0v12.4
		c0,3.3-1.3,6.4-3.7,8.7l0,0c-2.3,2.3-5.4,3.6-8.8,3.8l0,0l0,0c-3.5,0.2-4.7,0.2-8.1,0l0,0l0,0c-7-0.5-12.3-5.9-12.3-12.6l0,0v-1.8
		c0-3.3,1.3-6.4,3.7-8.7l0,0c2.3-2.3,5.4-3.6,8.8-3.8l0,0l0,0c1.8-0.1,3.9-0.1,6.6-0.1l0,0c0.4,0,0.7,0.3,0.7,0.7l0,0
		c0,0.4-0.3,0.7-0.7,0.7l0,0c-1.7,0-4.3,0-6.6,0.1l0,0c-3,0.2-5.9,1.4-7.9,3.5l0,0c-2.1,2.1-3.3,4.8-3.3,7.8l0,0v1.8
		c0,2.9,1.1,5.7,3.2,7.8l0,0c2,2,4.8,3.3,7.8,3.5l0,0c3.6,0.2,4.4,0.2,8,0l0,0c3-0.2,5.9-1.4,7.9-3.5l0,0c2.1-2.1,3.3-4.8,3.3-7.8
		l0,0V293c0-2.9-1.2-5.7-3.3-7.8l0,0c-2.1-2-4.9-3.3-7.9-3.5l0,0c-3.1-0.2-6.2-0.2-9.2-0.1l0,0c-1.2,0-2.1,1-2.1,2.2l0,0
		c0,1.2,1,2.2,2.2,2.2l0,0c0.5,0,1,0,1.5,0l0,0c0.4,0,0.8,0,1.2,0l0,0c2,0,4.1,0,6.1,0.1l0,0c4.1,0.3,7.1,3.2,7.1,6.9l0,0v12.4
		c0,3.6-3.1,6.6-7.1,6.9l0,0c-3.4,0.2-4.1,0.2-7.5,0l0,0c-4-0.3-6.9-3.2-6.9-6.9l0,0v-1.8c0-3.6,3.1-6.6,7.1-6.9l0,0
		c2.1-0.1,5.1-0.1,7-0.1l0,0h0c0.4,0,0.8-0.3,0.8-0.8l0,0c0-0.4-0.3-0.8-0.8-0.8l0,0h0c-1.9,0-5,0-7.1,0.1l0,0l0,0
		c-4.9,0.3-8.6,3.9-8.6,8.4l0,0v1.8c0,4.5,3.5,8.1,8.3,8.4l0,0c3.4,0.2,4.2,0.2,7.7,0l0,0c4.9-0.3,8.6-3.9,8.5-8.4l0,0V293
		c0-4.5-3.7-8.1-8.5-8.4l0,0l0,0c-2.1-0.1-4.1-0.1-6.2-0.1l0,0c-0.4,0-0.8,0-1.3,0l0,0c-0.5,0-1,0-1.5,0l0,0c-0.4,0-0.7-0.3-0.7-0.7
		l0,0c0-0.4,0.3-0.7,0.6-0.7l0,0c2.9-0.1,6-0.1,9,0.1l0,0c5.6,0.4,9.8,4.5,9.8,9.7l0,0v12.4c0,5.2-4.2,9.4-9.8,9.7l0,0
		c-3.5,0.2-4.4,0.2-7.8,0l0,0c-5.5-0.4-9.6-4.5-9.6-9.7l0,0v-1.8c0-5.2,4.2-9.4,9.8-9.7l0,0c2.3-0.1,4.8-0.1,6.5-0.1l0,0
		c1.2,0,2.2-1,2.2-2.2l0,0c0-1.2-1-2.2-2.2-2.2l0,0c-2.8,0-4.9,0-6.7,0.1l0,0l0,0c-3.7,0.2-7.2,1.8-9.7,4.3l0,0
		c-2.7,2.6-4.2,6.1-4.2,9.8l0,0v1.8c0,7.5,5.9,13.6,13.7,14.1l0,0l0,0c1.8,0.1,3,0.1,4.1,0.1l0,0c1.2,0,2.4-0.1,4.1-0.1l0,0l0,0
		c3.7-0.2,7.2-1.8,9.7-4.3l0,0c2.7-2.6,4.2-6.1,4.2-9.8l0,0V293c0-3.7-1.5-7.2-4.2-9.8l0,0c-2.6-2.5-6-4-9.7-4.3l0,0l0,0
		c-1.8-0.1-3.7-0.1-5.5-0.1l0,0C-158.6,278.8-159.2,278.8-159.9,278.8"/>
</g>
</svg>
