<?xml version="1.0" encoding="utf-8"?>
<!-- Generator: Adobe Illustrator 24.2.0, SVG Export Plug-In . SVG Version: 6.00 Build 0)  -->
<svg version="1.1" id="Ebene_1" xmlns="http://www.w3.org/2000/svg" xmlns:xlink="http://www.w3.org/1999/xlink" x="0px" y="0px"
	 viewBox="0 0 300 200" style="enable-background:new 0 0 300 200;" xml:space="preserve">
<style type="text/css">
	.st0{fill:#0A1227;}
	.st1{fill-rule:evenodd;clip-rule:evenodd;fill:#0A1227;}
	.st2{fill:url(#path58_2_);}
	.st3{fill-rule:evenodd;clip-rule:evenodd;fill:#194473;}
	.st4{fill:none;stroke:#194473;stroke-width:1.1801;stroke-miterlimit:5.3333;}
	.st5{fill-rule:evenodd;clip-rule:evenodd;}
	.st6{fill:#008948;}
	.st7{fill-rule:evenodd;clip-rule:evenodd;fill:#008948;}
	.st8{fill:#004E9E;}
	.st9{fill:#1A1A18;}
	.st10{fill:#FFFFFF;}
	.st11{fill:#76BC21;}
	.st12{fill:#1D1D1B;}
	.st13{fill-rule:evenodd;clip-rule:evenodd;fill:#1D1D1B;}
	.st14{fill:#E31513;}
	.st15{fill:#E60001;}
	.st16{fill:#333333;}
	.st17{fill:#BBBDC0;}
	.st18{fill:#1D3B6D;}
	.st19{fill-rule:evenodd;clip-rule:evenodd;fill:#1D3B6D;}
	.st20{fill:#FFFFFF;stroke:#BBBDC0;stroke-width:0.275;stroke-miterlimit:3.8637;}
	.st21{fill:#005B53;}
	.st22{fill:#FF6C0E;}
	.st23{fill:#134094;}
	.st24{fill:#D2022F;}
	.st25{fill:#9D9D9C;}
	.st26{fill:#93B894;}
	.st27{filter:url(#Adobe_OpacityMaskFilter);}
	.st28{fill-rule:evenodd;clip-rule:evenodd;fill:#FFFFFF;}
	.st29{mask:url(#logo-hagesued-b_2_);fill:#FF7200;}
	.st30{filter:url(#Adobe_OpacityMaskFilter_1_);}
	.st31{mask:url(#logo-hagesued-d_2_);fill:#7F3D39;}
	.st32{fill:#FEFEFE;}
	.st33{fill:#606060;}
	.st34{filter:url(#Adobe_OpacityMaskFilter_2_);}
	.st35{mask:url(#logo-hagesued-b_1_);fill:#606060;}
	.st36{fill:none;stroke:#000000;stroke-miterlimit:10;}
	.st37{fill:none;}
	.st38{clip-path:url(#SVGID_2_);fill:#444543;}
	.st39{clip-path:url(#SVGID_4_);}
	.st40{clip-path:url(#SVGID_6_);fill:#D0D0D0;}
	.st41{clip-path:url(#SVGID_8_);fill:#D0D0D0;}
	.st42{fill:#3F3E3C;}
	.st43{fill:#2374BA;}
	.st44{fill:#AEB2B5;}
	.st45{fill-rule:evenodd;clip-rule:evenodd;fill:#164194;}
	.st46{fill:#E30613;}
	.st47{fill-rule:evenodd;clip-rule:evenodd;fill:#DC911B;}
	.st48{fill:#DC911B;}
	.st49{fill:#FF0066;}
</style>
<g>
	<path class="st0" d="M39.1,104.2l-5,7.1l0.8,1.2v10h7.6v-13.4L39.1,104.2z M51,82.4c0-2.8-2.2-5-5-5c-2.7,0-5,2.2-5,5
		c0,2.8,2.2,5,5,5C48.8,87.4,51,85.1,51,82.4 M60,109.6l4.9,1.9l-5.1,1.2l1.7,5.1l-4.4-3.2l-3.1,4.5l0-5.4l-5.3,0.4l4.1-3.3
		l-3.6-3.9l5.3,1.1l0.8-5.4l2.4,4.9l4.7-2.6L60,109.6z M68.1,110.9c0-5-3.1-9.2-7.5-10.9c-1.3-0.5-2.7-0.8-4.2-0.8
		c-1.4,0-2.7,0.2-3.9,0.7c-0.1,0-0.1,0-0.2,0.1c0,0,0,0,0,0L46,90.9l-0.8-1.1c-0.9-1.2-2.3-1.9-3.9-1.9c-1.7,0-3.2,0.8-4.4,2.6
		c-0.3,0.4-22.3,32.1-22.3,32.1H24l18.5-26.7l5.1,7.4c-1.8,2.1-2.9,4.7-2.9,7.7c0,6.5,5.2,11.7,11.7,11.7
		C62.9,122.6,68.1,117.4,68.1,110.9z"/>
	<g>
		<polygon class="st0" points="96.7,98.6 93,98.6 93,89.6 85,89.6 85,98.6 81.2,98.6 81.2,77.5 85,77.5 85,86.2 93,86.2 93,77.5 
			96.7,77.5 		"/>
		<g>
			<path class="st0" d="M155.3,98.6h-3.6v-9.5c0-1.9-1-2.9-2.9-2.9c-0.9,0-1.7,0.2-2.4,0.7c0.2,0.7,0.4,1.5,0.4,2.3v9.4h-3.6v-9.5
				c0-2-0.9-2.9-2.8-2.9c-0.8,0-1.5,0.1-2.2,0.3v12.1h-3.6V84.2L135,84c1.7-0.8,3.6-1.1,5.3-1.1c1.6,0,3.1,0.5,4.2,1.3
				c1.5-0.9,2.8-1.3,4.4-1.3c3.9,0,6.4,2.4,6.4,6.3V98.6z"/>
			<path class="st0" d="M202.4,98.6h-3.6v-9c0-2.4-0.9-3.4-3.3-3.4c-1,0-2,0.1-2.6,0.3v12.1h-3.6V84.2l0.4-0.2
				c1.7-0.7,3.8-1.2,5.9-1.2c4.5,0,6.9,2.3,6.9,6.6V98.6z"/>
			<path class="st0" d="M219.6,98.9c-3.8,0-8.3-2-8.3-7.6v-6.6c0-5.6,4.3-7.6,8-7.6c2.6,0,5.5,0.9,7.5,2.2l0.1,0.1l-2.1,2.9
				l-0.1-0.1c-1.6-1-3.4-1.6-5.4-1.6c-2.7,0-4.3,1.5-4.3,4.1v6.5c0,2.5,1.7,4.1,4.5,4.1c1.5,0,3-0.4,4-1.2v-4.3h-4.3v-3.4h8v9.1
				l-0.2,0.2C225.2,97.8,222.5,98.9,219.6,98.9"/>
			<path class="st0" d="M119.7,98.6h-3.6V82.9c0-3.5,2.1-5.7,5.3-5.7c0.4,0,1.4,0,2.2,0.2l0.1,0v3.2l-0.1,0
				c-0.6-0.1-1.2-0.1-1.6-0.1c-1.4,0-2.2,0.9-2.2,2.6v0.6h3.8v3.2h-3.8V98.6z"/>
			<path class="st0" d="M129,98.6h-3.6V82.9c0-3.5,2.1-5.7,5.3-5.7c0.4,0,1.4,0,2.2,0.2l0.1,0v3.2l-0.1,0c-0.6-0.1-1.2-0.1-1.6-0.1
				c-1.4,0-2.2,0.9-2.2,2.6v0.6h3.8v3.2H129V98.6z"/>
			<path class="st0" d="M163.9,98.9c-4.2,0-6.6-1.8-6.6-5c0-3,2.4-4.8,6.5-4.8c0.8,0,1.7,0.1,2.8,0.2v-0.4c0-2.1-0.8-2.8-2.8-2.8
				c-1.6,0-3,0.4-4,1.1l-0.1,0.1l-1.7-2.7l0.1-0.1c1.4-1.1,3.6-1.7,6-1.7c4,0,6.2,2.1,6.2,6v9l-0.1,0
				C168.9,98.4,166.2,98.9,163.9,98.9 M163.9,92.1c-2,0-2.9,0.6-2.9,1.8c0,1.6,1.9,1.8,3,1.8c0.9,0,2-0.2,2.7-0.3v-3.1
				C165.9,92.2,164.8,92.1,163.9,92.1"/>
			<path class="st0" d="M233.7,98.6h-3.6V84.2l0.1,0c1.7-0.8,3.5-1.3,5.5-1.3c1,0,2.3,0.1,3.4,0.3l0.1,0v3.1l-0.1,0
				c-0.9-0.2-2-0.2-2.8-0.2h0c-0.9,0-1.9,0.1-2.4,0.4V98.6z"/>
			<path class="st0" d="M106.7,98.9c-4.1,0-6.8-2.4-6.8-6V89c0-3.7,2.7-6.1,6.8-6.1c4.1,0,6.8,2.4,6.8,6.1v3.9
				C113.4,96.5,110.8,98.9,106.7,98.9 M106.7,86.1c-2,0-3.1,1-3.1,2.9v3.9c0,1.8,1.1,2.7,3.1,2.7c2,0,3.1-0.9,3.1-2.7V89
				C109.8,87.1,108.7,86.1,106.7,86.1"/>
			<path class="st0" d="M186.3,98.6h-3.6v-9c0-2.4-0.9-3.4-3.3-3.4c-1,0-2,0.1-2.6,0.3v12.1h-3.6V84.2l0.4-0.2
				c1.7-0.7,3.8-1.2,5.9-1.2c4.5,0,6.9,2.3,6.9,6.6V98.6z"/>
			<path class="st0" d="M246.8,98.9c-4.1,0-6.8-2.4-6.8-6V89c0-3.7,2.7-6.1,6.8-6.1c4.1,0,6.8,2.4,6.8,6.1v3.9
				C253.6,96.5,250.9,98.9,246.8,98.9 M246.8,86.1c-2,0-3.1,1-3.1,2.9v3.9c0,1.8,1.1,2.7,3.1,2.7c2,0,3.1-0.9,3.1-2.7V89
				C249.9,87.1,248.8,86.1,246.8,86.1"/>
			<path class="st0" d="M262.9,98.9c-4.4,0-6.8-2.3-6.8-6.7v-9h3.6v8.9c0,2.4,0.9,3.5,3.2,3.5c1,0,1.9-0.1,2.5-0.3V83.2h3.6v14.3
				l-0.1,0C267.2,98.4,265,98.9,262.9,98.9"/>
			<path class="st0" d="M275.7,104.1h-3.6v-20l0.1,0c1.9-0.8,4.5-1.2,6.3-1.2c4.3,0,6.8,2.4,6.8,6.5v3.2c0,3.8-2.6,6.3-6.6,6.3
				c-1,0-2-0.2-3-0.6V104.1z M275.7,94.9c0.8,0.5,1.7,0.8,2.7,0.8c2.1,0,3.2-1,3.2-3.1v-3.3c0-2.3-1-3.3-3.2-3.3
				c-1.1,0-2,0.1-2.6,0.4V94.9z"/>
		</g>
	</g>
	<polygon class="st0" points="96.7,98.6 93,98.6 93,89.6 85,89.6 85,98.6 81.2,98.6 81.2,77.5 85,77.5 85,86.2 93,86.2 93,77.5 
		96.7,77.5 	"/>
	<path class="st0" d="M155.4,98.6h-3.6v-9.5c0-1.9-1-2.9-2.9-2.9c-0.9,0-1.7,0.2-2.4,0.7c0.2,0.7,0.4,1.5,0.4,2.3v9.4h-3.6v-9.5
		c0-2-0.9-2.9-2.8-2.9c-0.8,0-1.5,0.1-2.2,0.3v12.1h-3.6V84.2L135,84c1.7-0.8,3.6-1.1,5.3-1.1c1.6,0,3.1,0.5,4.2,1.3
		c1.5-0.9,2.8-1.3,4.4-1.3c3.9,0,6.4,2.4,6.4,6.3V98.6z"/>
	<path class="st0" d="M202.4,98.6h-3.6v-9c0-2.4-0.9-3.4-3.3-3.4c-1,0-2,0.1-2.6,0.3v12.1h-3.6V84.2l0.4-0.2
		c1.7-0.7,3.8-1.2,5.9-1.2c4.5,0,6.9,2.3,6.9,6.6V98.6z"/>
	<path class="st0" d="M219.6,98.9c-3.8,0-8.3-2-8.3-7.6v-6.6c0-5.6,4.3-7.6,8-7.6c2.6,0,5.5,0.9,7.5,2.2l0.1,0.1l-2.1,2.9l-0.1-0.1
		c-1.6-1-3.4-1.6-5.4-1.6c-2.7,0-4.3,1.5-4.3,4.1v6.5c0,2.5,1.7,4.1,4.5,4.1c1.5,0,3-0.4,4-1.2v-4.3h-4.3v-3.4h8v9.1l-0.2,0.2
		C225.2,97.8,222.5,98.9,219.6,98.9"/>
	<path class="st0" d="M119.7,98.6h-3.6V82.9c0-3.5,2.1-5.7,5.3-5.7c0.4,0,1.4,0,2.2,0.2l0.1,0v3.2l-0.1,0c-0.6-0.1-1.2-0.1-1.6-0.1
		c-1.4,0-2.2,0.9-2.2,2.6v0.6h3.8v3.2h-3.8V98.6z"/>
	<path class="st0" d="M129,98.6h-3.6V82.9c0-3.5,2.1-5.7,5.3-5.7c0.4,0,1.4,0,2.2,0.2l0.1,0v3.2l-0.1,0c-0.6-0.1-1.2-0.1-1.6-0.1
		c-1.4,0-2.2,0.9-2.2,2.6v0.6h3.8v3.2H129V98.6z"/>
	<path class="st0" d="M164,98.9c-4.2,0-6.6-1.8-6.6-5c0-3,2.4-4.8,6.5-4.8c0.8,0,1.7,0.1,2.8,0.2v-0.4c0-2.1-0.8-2.8-2.8-2.8
		c-1.6,0-3,0.4-4,1.1l-0.1,0.1l-1.7-2.7l0.1-0.1c1.4-1.1,3.6-1.7,6-1.7c4,0,6.2,2.1,6.2,6v9l-0.1,0C168.9,98.4,166.2,98.9,164,98.9
		 M163.9,92.1c-2,0-2.9,0.6-2.9,1.8c0,1.6,1.9,1.8,3,1.8c0.9,0,2-0.2,2.7-0.3v-3.1C165.9,92.2,164.8,92.1,163.9,92.1"/>
	<path class="st0" d="M233.7,98.6h-3.6V84.2l0.1,0c1.7-0.8,3.5-1.3,5.5-1.3c1,0,2.3,0.1,3.4,0.3l0.1,0v3.1l-0.1,0
		c-0.9-0.2-2-0.2-2.8-0.2h0c-0.9,0-1.9,0.1-2.4,0.4V98.6z"/>
	<path class="st0" d="M106.7,98.9c-4.1,0-6.8-2.4-6.8-6V89c0-3.7,2.7-6.1,6.8-6.1c4.1,0,6.8,2.4,6.8,6.1v3.9
		C113.4,96.5,110.8,98.9,106.7,98.9 M106.7,86.1c-2,0-3.1,1-3.1,2.9v3.9c0,1.8,1.1,2.7,3.1,2.7c2,0,3.1-0.9,3.1-2.7V89
		C109.8,87.1,108.7,86.1,106.7,86.1"/>
	<path class="st0" d="M186.3,98.6h-3.6v-9c0-2.4-0.9-3.4-3.3-3.4c-1,0-2,0.1-2.6,0.3v12.1h-3.6V84.2l0.4-0.2
		c1.7-0.7,3.8-1.2,5.9-1.2c4.5,0,6.9,2.3,6.9,6.6V98.6z"/>
	<path class="st0" d="M246.8,98.9c-4.1,0-6.8-2.4-6.8-6V89c0-3.7,2.7-6.1,6.8-6.1c4.1,0,6.8,2.4,6.8,6.1v3.9
		C253.6,96.5,250.9,98.9,246.8,98.9 M246.8,86.1c-2,0-3.1,1-3.1,2.9v3.9c0,1.8,1.1,2.7,3.1,2.7c2,0,3.1-0.9,3.1-2.7V89
		C249.9,87.1,248.8,86.1,246.8,86.1"/>
	<path class="st0" d="M262.9,98.9c-4.4,0-6.8-2.3-6.8-6.7v-9h3.6v8.9c0,2.4,0.9,3.5,3.2,3.5c1,0,1.9-0.1,2.5-0.3V83.2h3.6v14.3
		l-0.1,0C267.2,98.4,265,98.9,262.9,98.9"/>
	<path class="st0" d="M275.7,104.1h-3.6v-20l0.1,0c1.9-0.8,4.5-1.2,6.3-1.2c4.3,0,6.8,2.4,6.8,6.5v3.2c0,3.8-2.6,6.3-6.6,6.3
		c-1,0-2-0.2-3-0.6V104.1z M275.7,94.9c0.8,0.5,1.7,0.8,2.7,0.8c2.1,0,3.2-1,3.2-3.1v-3.3c0-2.3-1-3.3-3.2-3.3c-1.1,0-2,0.1-2.6,0.4
		V94.9z"/>
	<path class="st0" d="M198.1,122.6c0.6,0,1.4,0,2.1,0c0.4,0,0.7,0,1.1,0l1.2-6.7c0.3-1.7,0-3-0.8-4c-0.8-0.9-2-1.4-3.6-1.4
		c-1.4,0-3.4,0.4-4.9,1c-0.2,1.1-1.7,9.8-2,11.1h3.2l1.6-9l0.1,0c0.4-0.2,1-0.3,1.5-0.3c0.6,0,1.1,0.2,1.3,0.5
		c0.3,0.4,0.4,1,0.2,1.8L198.1,122.6z"/>
	<path class="st0" d="M185.7,122.6c0.6,0,1.4,0,2.1,0c0.4,0,0.7,0,1.1,0l1.2-6.7c0.3-1.7,0-3-0.8-4c-0.8-0.9-2-1.4-3.6-1.4
		c-1.4,0-3.4,0.4-4.9,1c-0.2,1.1-1.7,9.8-2,11.1h3.2l1.6-9l0.1,0c0.4-0.2,1-0.3,1.5-0.3c0.6,0,1.1,0.2,1.3,0.5
		c0.3,0.4,0.4,1,0.2,1.8L185.7,122.6z"/>
	<path class="st0" d="M161.4,113.2c0.6,0,1,0.2,1.2,0.5c0.3,0.4,0.4,1,0.3,1.8l-1.2,7.1c0.3,0,0.8,0,1.3,0c0.6,0,1.3,0,1.9,0
		l1.2-6.6c0.3-1.7,0-3.2-0.8-4.1c-0.7-0.9-1.9-1.3-3.3-1.3c-1.1,0-2.2,0.3-3.4,0.9l-0.1,0l-0.1-0.1c-0.7-0.6-1.7-0.9-2.8-0.9
		c-1.3,0-3.2,0.4-4.6,1c-0.3,1-1.8,9.8-2,11.1h3.1l1.7-9l0.1,0c0.4-0.2,0.9-0.3,1.4-0.3c0.5,0,0.9,0.1,1.1,0.4
		c0.3,0.4,0.4,1,0.3,1.8l-1.2,7h3.1l1.2-6.6c0.1-0.8,0.1-1.5,0-2.2l0-0.1l0.1,0C160.2,113.4,160.8,113.2,161.4,113.2z"/>
	<path class="st0" d="M177,111.8c-0.7-0.8-1.8-1.3-3.3-1.3c-1.7,0-3.6,0.5-4.7,1.1c0.2,0.5,0.6,1.6,0.9,2.3c0.7-0.4,2.1-0.6,3.1-0.6
		c0.7,0,1.2,0.2,1.5,0.5c0.3,0.3,0.3,0.8,0.2,1.4l-0.1,0.5l-0.1,0c-0.6-0.1-1.3-0.2-1.9-0.2c-3,0-4.8,1.1-5.1,3.1
		c-0.2,1.1,0,2.1,0.6,2.8c0.7,0.9,2,1.4,3.7,1.4c1.8,0,3.9-0.4,5-0.9l1.1-6.1C178.1,114.1,177.8,112.7,177,111.8z M173.8,120
		L173.8,120c-0.5,0.1-1.1,0.2-1.7,0.2c-0.6,0-1.1-0.2-1.3-0.5c-0.2-0.2-0.3-0.6-0.2-1c0.1-0.8,0.8-1.2,2-1.2c0.5,0,1,0.1,1.5,0.2
		l0.1,0L173.8,120z"/>
	<path class="st0" d="M143.1,122.6h3.2l1.2-6.8c0.3-1.8,0.1-3.2-0.7-4.2c-0.6-0.8-1.6-1.2-2.8-1.2c-0.8,0-1.5,0.2-2.2,0.5l-0.2,0.1
		l0.9-4.8h-3.3l-2.9,16.3h3.3l1.6-8.9l0.1,0c0.2-0.1,0.9-0.4,1.6-0.4c0.6,0,1.1,0.2,1.3,0.5c0.3,0.4,0.4,0.9,0.2,1.7L143.1,122.6z"
		/>
	<path class="st0" d="M132.5,110.5c-3.1,0-5.2,1.6-5.6,4.3l-0.5,2.9c-0.3,1.5,0,2.8,0.8,3.8c0.8,0.9,2,1.4,3.5,1.4
		c1.4,0,3-0.4,4.1-1.1c-0.2-0.3-0.5-1-0.8-1.6c-0.1-0.3-0.3-0.6-0.4-0.8c-0.7,0.4-1.8,0.8-2.5,0.8c-0.6,0-1-0.2-1.3-0.5
		c-0.3-0.4-0.4-1-0.3-1.8l0.5-2.7c0.2-1.2,1-1.9,2.3-1.9c0.6,0,1.5,0.3,2.1,0.6c0.4-0.3,1.2-1.5,1.7-2.1
		C135.2,110.9,133.9,110.5,132.5,110.5z"/>
	<path class="st0" d="M114.3,121.2c1.2,1.1,2.9,1.7,4.8,1.7c3,0,4.9-1.2,5.3-3.5c0.5-2.8-1.9-3.7-3.4-4.1c-1-0.2-2-0.5-1.8-1.3
		c0.1-0.8,0.9-0.9,1.6-0.9c1,0,2.1,0.3,2.9,0.7c0.1-0.1,0.2-0.3,0.3-0.4c0.3-0.4,0.7-1,1.3-1.8c-1.2-0.8-2.6-1.2-4.2-1.2
		c-2.9,0-4.7,1.1-5.1,3.2c-0.6,3,2.2,3.9,3.5,4.2c0.9,0.2,1.9,0.4,1.7,1.3c-0.1,0.4-0.5,1-1.9,1c-1,0-2.4-0.4-3.3-1.2
		c-0.1,0.1-0.2,0.3-0.3,0.4C115.1,120,114.5,120.9,114.3,121.2z"/>
	<path class="st0" d="M106.4,122.6h3.2l1.5-8.9l0.1,0c0.5-0.2,1-0.3,1.6-0.3c0.4,0,1.2,0.1,1.6,0.1c0-0.1,0-0.2,0-0.3
		c0-0.2,0.3-1.8,0.5-2.5c-0.7-0.1-1.6-0.2-2.2-0.2c-1.4,0-3.2,0.4-4.5,1.1C108.2,112.6,106.6,121.3,106.4,122.6z"/>
	<path class="st0" d="M104.7,111.9c-0.8-0.9-2-1.4-3.7-1.4c-3,0-5.1,1.6-5.6,4.3l-0.6,3.4c-0.2,1.3,0,2.4,0.7,3.2
		c0.8,1,2.1,1.5,3.7,1.5c1.9,0,3.6-0.5,5-1.5l-0.1-0.2c-0.3-0.5-0.5-1-1.1-2c-1.3,0.7-2,1.1-3.3,1.1c-0.7,0-1.2-0.2-1.5-0.5
		c-0.3-0.3-0.4-0.8-0.2-1.5l0.1-0.4h6.8l0.5-2.5C105.6,113.9,105.4,112.7,104.7,111.9z M102.2,115.7h-3.7l0.1-0.8
		c0.2-1.1,1-1.8,2.1-1.8c0.5,0,1,0.2,1.3,0.5c0.3,0.3,0.4,0.8,0.3,1.4L102.2,115.7z"/>
	<g>
		<path class="st0" d="M80.7,122.6H84l0.9-4.9h2.7c3.5,0,5.9-1.9,6.5-5.3c0.3-1.8,0-3.3-0.9-4.4c-0.9-1.1-2.4-1.7-4.2-1.7l-5.5,0
			L80.7,122.6z M87.7,114.6h-2.2l0.9-5.2h2.1c0.8,0,1.4,0.2,1.8,0.7c0.4,0.5,0.5,1.2,0.4,2C90.4,113.7,89.3,114.6,87.7,114.6z"/>
	</g>
</g>
</svg>
