<?xml version="1.0" encoding="utf-8"?>
<!-- Generator: Adobe Illustrator 24.2.0, SVG Export Plug-In . SVG Version: 6.00 Build 0)  -->
<svg version="1.1" id="Ebene_1" xmlns="http://www.w3.org/2000/svg" xmlns:xlink="http://www.w3.org/1999/xlink" x="0px" y="0px"
	 viewBox="0 0 300 200" style="enable-background:new 0 0 300 200;" xml:space="preserve">
<style type="text/css">
	.st0{fill:#0A1227;}
	.st1{fill-rule:evenodd;clip-rule:evenodd;fill:#0A1227;}
	.st2{fill:url(#path58_2_);}
	.st3{fill-rule:evenodd;clip-rule:evenodd;fill:#194473;}
	.st4{fill:none;stroke:#194473;stroke-width:1.1801;stroke-miterlimit:5.3333;}
	.st5{fill-rule:evenodd;clip-rule:evenodd;}
	.st6{fill:#008948;}
	.st7{fill-rule:evenodd;clip-rule:evenodd;fill:#008948;}
	.st8{fill:#004E9E;}
	.st9{fill:#1A1A18;}
	.st10{fill:#FFFFFF;}
	.st11{fill:#76BC21;}
	.st12{fill:#1D1D1B;}
	.st13{fill-rule:evenodd;clip-rule:evenodd;fill:#1D1D1B;}
	.st14{fill:#E31513;}
	.st15{fill:#E60001;}
	.st16{fill:#333333;}
	.st17{fill:#BBBDC0;}
	.st18{fill:#1D3B6D;}
	.st19{fill-rule:evenodd;clip-rule:evenodd;fill:#1D3B6D;}
	.st20{fill:#FFFFFF;stroke:#BBBDC0;stroke-width:0.275;stroke-miterlimit:3.8637;}
	.st21{fill:#005B53;}
	.st22{fill:#FF6C0E;}
	.st23{fill:#134094;}
	.st24{fill:#D2022F;}
	.st25{fill:#9D9D9C;}
	.st26{fill:#93B894;}
	.st27{filter:url(#Adobe_OpacityMaskFilter);}
	.st28{fill-rule:evenodd;clip-rule:evenodd;fill:#FFFFFF;}
	.st29{mask:url(#logo-hagesued-b_2_);fill:#FF7200;}
	.st30{filter:url(#Adobe_OpacityMaskFilter_1_);}
	.st31{mask:url(#logo-hagesued-d_2_);fill:#7F3D39;}
	.st32{fill:#FEFEFE;}
	.st33{fill:#606060;}
	.st34{filter:url(#Adobe_OpacityMaskFilter_2_);}
	.st35{mask:url(#logo-hagesued-b_1_);fill:#606060;}
	.st36{fill:none;stroke:#000000;stroke-miterlimit:10;}
	.st37{fill:none;}
	.st38{clip-path:url(#SVGID_2_);fill:#444543;}
	.st39{clip-path:url(#SVGID_4_);}
	.st40{clip-path:url(#SVGID_6_);fill:#D0D0D0;}
	.st41{clip-path:url(#SVGID_8_);fill:#D0D0D0;}
	.st42{fill:#3F3E3C;}
	.st43{fill:#2374BA;}
	.st44{fill:#AEB2B5;}
	.st45{fill-rule:evenodd;clip-rule:evenodd;fill:#164194;}
	.st46{fill:#E30613;}
	.st47{fill-rule:evenodd;clip-rule:evenodd;fill:#DC911B;}
	.st48{fill:#DC911B;}
	.st49{fill:#FF0066;}
</style>
<g id="Ebene_1_Kopie_1_" transform="translate(0 -0.044)">
	<g id="Gruppe_542" transform="translate(0 0.044)">
		<path id="Pfad_290" class="st0" d="M261.9,97.7v43.8H252V97.7H261.9z"/>
		<path id="Pfad_291" class="st0" d="M253.5,87.1c3.6-3.8,6.3-8.3,8.2-13.1c0.8-2.1,3.6-9.3,0.9-13.9c-1.1-2.3-3.8-3-6.1-2.1
			c-0.2,0.2-0.4,0.2-0.6,0.4c-1.5,0.8-2.5,2.1-3,3.6c-0.4,0.9-0.4,0.9-0.6,1.5c0,0.4-0.2,0.9-0.2,1.5c-0.2,1.5,0,2.8,0.8,4.2
			c0.4,0.8,0.9,1.3,1.7,1.7c0.8,0.6,1.7,0.6,2.3,1.5c0.6,1.3,0.6,2.7,0.2,4c-0.4,3-1.7,5.9-3.4,8.2c-0.4,0.4-0.8,0.8-0.9,1.3
			C252.6,85.8,253.5,87.1,253.5,87.1z"/>
		<path id="Pfad_292" class="st1" d="M91.9,111c-1.5-2.8-3.6-5.5-6.3-7.4c-5.9-4.6-13.1-7-20.5-6.8l0,0c-7.4-0.2-14.6,2.3-20.5,6.8
			c-2.5,2.1-4.6,4.6-6.3,7.4c-1.3,2.7-2.1,5.5-2.1,8.5c0,2.8,0.8,5.9,2.1,8.3c1.7,2.8,3.8,5.5,6.5,7.4c5.7,4.7,12.9,7.2,20.3,7l0,0
			c7.4,0.2,14.6-2.3,20.3-7c2.7-2.1,4.7-4.6,6.5-7.4c1.3-2.7,2.1-5.5,2.1-8.3C93.8,116.5,93.2,113.7,91.9,111z M78.2,132.5
			c-1.5,1.9-3.6,3.4-5.9,4.2c-2.5,0.9-4.9,1.5-7.4,1.5l0,0c-2.7,0-5.1-0.6-7.4-1.5c-2.3-0.9-4.4-2.3-5.9-4.2
			c-2.8-3.8-4.4-8.3-4.4-12.9c0-4.7,1.5-9.5,4.6-13.1c3.2-3.8,8.2-5.9,13.1-5.7l0,0c5.1-0.4,9.9,1.7,13.1,5.7
			c3,3.8,4.6,8.3,4.6,13.1C82.7,124.3,81.2,128.8,78.2,132.5z"/>
		<path id="Pfad_293" class="st0" d="M153.3,97.7V129c0,2.5,0.9,4.9,2.7,6.6c1.7,1.7,3.8,2.5,6.3,2.5c3.2,0.2,6.3-0.4,9.1-1.9
			c3-1.9,5.5-4.2,7.6-7c1.9-2.3,3.4-4.9,4.6-7.6c0.9-2.3,1.5-4.6,1.5-7V97.5h10.1v43.8H185v-14.6c-1.7,3-3.8,5.9-6.1,8.3
			c-2.5,2.7-5.3,4.7-8.7,6.1c-2.7,0.8-5.3,1.1-8,1.1c-6.1,0-10.8-1.5-14-4.6c-3.2-3-4.9-7.2-4.9-11.6V97.7H153.3z"/>
	</g>
</g>
</svg>
