<?xml version="1.0" encoding="utf-8"?>
<!-- Generator: Adobe Illustrator 24.2.0, SVG Export Plug-In . SVG Version: 6.00 Build 0)  -->
<svg version="1.1" id="Ebene_1" xmlns="http://www.w3.org/2000/svg" xmlns:xlink="http://www.w3.org/1999/xlink" x="0px" y="0px"
	 viewBox="0 0 300 200" style="enable-background:new 0 0 300 200;" xml:space="preserve">
<style type="text/css">
	.st0{fill:#0A1227;}
	.st1{fill-rule:evenodd;clip-rule:evenodd;fill:#0A1227;}
	.st2{fill:url(#path58_2_);}
	.st3{fill-rule:evenodd;clip-rule:evenodd;fill:#194473;}
	.st4{fill:none;stroke:#194473;stroke-width:1.1801;stroke-miterlimit:5.3333;}
	.st5{fill-rule:evenodd;clip-rule:evenodd;}
	.st6{fill:#008948;}
	.st7{fill-rule:evenodd;clip-rule:evenodd;fill:#008948;}
	.st8{fill:#004E9E;}
	.st9{fill:#1A1A18;}
	.st10{fill:#FFFFFF;}
	.st11{fill:#76BC21;}
	.st12{fill:#1D1D1B;}
	.st13{fill-rule:evenodd;clip-rule:evenodd;fill:#1D1D1B;}
	.st14{fill:#E31513;}
	.st15{fill:#E60001;}
	.st16{fill:#333333;}
	.st17{fill:#BBBDC0;}
	.st18{fill:#1D3B6D;}
	.st19{fill-rule:evenodd;clip-rule:evenodd;fill:#1D3B6D;}
	.st20{fill:#FFFFFF;stroke:#BBBDC0;stroke-width:0.275;stroke-miterlimit:3.8637;}
	.st21{fill:#005B53;}
	.st22{fill:#FF6C0E;}
	.st23{fill:#134094;}
	.st24{fill:#D2022F;}
	.st25{fill:#9D9D9C;}
	.st26{fill:#93B894;}
	.st27{filter:url(#Adobe_OpacityMaskFilter);}
	.st28{fill-rule:evenodd;clip-rule:evenodd;fill:#FFFFFF;}
	.st29{mask:url(#logo-hagesued-b_2_);fill:#FF7200;}
	.st30{filter:url(#Adobe_OpacityMaskFilter_1_);}
	.st31{mask:url(#logo-hagesued-d_2_);fill:#7F3D39;}
	.st32{fill:#FEFEFE;}
	.st33{fill:#606060;}
	.st34{filter:url(#Adobe_OpacityMaskFilter_2_);}
	.st35{mask:url(#logo-hagesued-b_1_);fill:#606060;}
	.st36{fill:none;stroke:#000000;stroke-miterlimit:10;}
	.st37{fill:none;}
	.st38{clip-path:url(#SVGID_2_);fill:#444543;}
	.st39{clip-path:url(#SVGID_4_);}
	.st40{clip-path:url(#SVGID_6_);fill:#D0D0D0;}
	.st41{clip-path:url(#SVGID_8_);fill:#D0D0D0;}
	.st42{fill:#3F3E3C;}
	.st43{fill:#2374BA;}
	.st44{fill:#AEB2B5;}
	.st45{fill-rule:evenodd;clip-rule:evenodd;fill:#164194;}
	.st46{fill:#E30613;}
	.st47{fill-rule:evenodd;clip-rule:evenodd;fill:#DC911B;}
	.st48{fill:#DC911B;}
	.st49{fill:#FF0066;}
</style>
<g>
	<polygon class="st0" points="23.2,82.4 23.2,115 34.8,115 34.8,111.2 27.5,111.2 27.5,82.4 	"/>
	<path class="st1" d="M43.6,82.4L36.5,115h4.2l1.2-6.4h6.5l1.2,6.4H54l-6.9-32.6H43.6z M47.8,105.3h-5.2l2.6-16.5h0.1l1.6,11.8
		L47.8,105.3L47.8,105.3z"/>
	<path class="st1" d="M71.3,100.2c4-0.1,4.7,2.2,4.7,5.7s-1,5.5-4.7,5.3V100.2z M72.4,115c6,0,8.2-2.9,8.2-8.9
		c0-3.6-0.9-6.5-4.6-7.6v-0.1c3.5-0.9,4.1-4,4.1-7.2c0-5.5-1.6-8.7-7.5-8.7h-5.4V115H72.4z M75.8,91c0,3.5-0.5,5.9-4.6,5.8V86.1H72
		C75,86.1,75.8,88.4,75.8,91L75.8,91z"/>
	<polygon class="st0" points="88.9,82.4 84.6,82.4 84.6,115 88.9,115 	"/>
	<path class="st1" d="M101.7,82c-8.4,0-8.5,10.9-8.5,16.7c0,5.9,0.1,16.7,8.5,16.7s8.5-10.9,8.5-16.7S110.1,82,101.7,82z
		 M101.7,86.1c3.4,0,3.9,5.7,3.9,12.6c0,6.9-0.5,12.6-3.9,12.6s-3.9-5.7-3.9-12.6S98.3,86.1,101.7,86.1z"/>
	<path class="st0" d="M125.1,83.1c-1.4-0.8-3-1.1-4.6-1.1c-4.9,0-7.3,3.8-7.3,8.3c0,8.5,9.1,9.8,9.1,16.3c0,2.4-1.1,4.5-3.8,4.5
		c-1.7,0-3-0.8-4.3-1.7v4.4c1.4,1,3,1.6,4.8,1.6c4.8,0,7.7-3.9,7.7-8.5c0-4.4-1.7-6.5-4.6-9.6l-3.3-3.6c-0.8-1-1.2-2.3-1.2-3.6
		c0-2.2,1.5-4.2,3.8-4.2c1.4,0.1,2.6,0.5,3.7,1.4V83.1L125.1,83.1z"/>
	<polygon class="st0" points="129,82.4 129,86.2 134.1,86.2 134.1,115 138.4,115 138.4,86.2 143.4,86.2 143.4,82.4 	"/>
	<polygon class="st0" points="147.3,82.4 147.3,115 151.6,115 151.6,98.9 158.2,98.9 158.2,115 162.5,115 162.5,82.4 158.2,82.4 
		158.2,95.1 151.6,95.1 151.6,82.4 	"/>
	<polygon class="st0" points="167.6,82.4 167.6,115 179.2,115 179.2,111.2 171.9,111.2 171.9,100.2 178.5,100.2 178.5,96.4 
		171.9,96.4 171.9,86.2 179.2,86.2 179.2,82.4 	"/>
	<polygon class="st0" points="183,82.4 183,86.2 188,86.2 188,115 192.4,115 192.4,86.2 197.2,86.2 197.2,82.4 	"/>
	<polygon class="st0" points="205.5,82.4 201.2,82.4 201.2,115 205.5,115 	"/>
	<path class="st1" d="M224.9,111.5c1.1-2.2,1.6-5.1,1.8-7.8l0,0c0.2-1.8,0.2-3.5,0.2-5c0-5.9-0.1-16.7-8.5-16.7
		c-8.4,0-8.5,10.9-8.5,16.7c0,1.4,0,3.2,0.1,5c0.4,5.6,2,11.8,8.3,11.8c1.7,0,3.1-0.3,4.4-1.4l2.3,3.4l2.8-2L224.9,111.5z
		 M221.7,107l-1.6-2.3l-2.6,2.1l2.7,3.9c-0.4,0.5-1.1,0.8-1.8,0.7c-2.5,0-3.5-3.2-3.8-7.7l0,0c-0.1-1.5-0.1-3.2-0.1-5
		c0-6.9,0.5-12.6,3.9-12.6s3.9,5.7,3.9,12.6c0,1.7-0.1,3.3-0.2,5l0,0c-0.1,1.1-0.2,2.3-0.3,3.3L221.7,107L221.7,107L221.7,107z"/>
	<path class="st0" d="M231.3,82.4v22.5c0,5.9,0.6,10.5,7.5,10.5c7.5,0,7.5-5.6,7.5-9.9V82.4h-4.3v24.4c-0.1,2.7-0.3,4.6-3.3,4.6
		c-1.8,0-3-0.9-3-5.1V82.4H231.3z"/>
	<polygon class="st0" points="251.4,82.4 251.4,115 263,115 263,111.2 255.7,111.2 255.7,100.2 262.2,100.2 262.2,96.4 255.7,96.4 
		255.7,86.2 263,86.2 263,82.4 	"/>
	<path class="st0" d="M117.9,131.7h-1.4v-11.4h1.6c3.5,0,4.6,1.2,4.6,3.3c0,2.4-1.8,3.3-4,3.3h-0.8V131.7z M117.9,125.7h0.4
		c1.5,0,3-0.3,3-2.1c0-1.8-1.7-2-3.1-2h-0.4L117.9,125.7L117.9,125.7z"/>
	<path class="st0" d="M128.8,128.9l-1.3,2.9H126l5.5-11.9l5.5,11.9h-1.5l-1.3-2.9H128.8z M131.5,122.9l-2.1,4.6h4.1L131.5,122.9z"/>
	<path class="st0" d="M149.5,131.7h-1.7l-3.3-4.8h-0.6v4.8h-1.4v-11.4h1.7c1-0.1,2.1,0.1,3,0.5c0.9,0.6,1.5,1.6,1.5,2.7
		c0.1,1.6-1.1,3-2.8,3.2L149.5,131.7z M143.8,125.7h0.4c1.5,0,3-0.3,3-2.1c0-1.8-1.7-2.1-3.1-2.1h-0.4V125.7z"/>
	<path class="st0" d="M156.5,131.7h-1.4v-11.4h1.4V131.7z"/>
	<path class="st0" d="M168.3,122.5c-0.3-0.7-1.1-1.1-1.8-1.1c-0.9,0-1.9,0.6-1.9,1.6c0,0.9,0.9,1.4,1.6,1.6l0.8,0.3
		c1.6,0.6,2.8,1.5,2.8,3.5c0,1.9-1.5,3.5-3.5,3.6c-0.1,0-0.1,0-0.2,0c-1.8,0-3.3-1.4-3.5-3.2l1.5-0.3c0,1.2,1,2.2,2.2,2.1
		c1.2-0.1,2.2-1,2.1-2.2c0-1.2-1-1.7-1.9-2.2l-0.8-0.3c-1.3-0.5-2.5-1.3-2.5-2.9c0-1.8,1.6-3,3.3-3c1.2-0.1,2.4,0.6,2.9,1.7
		L168.3,122.5z"/>
	<path class="st0" d="M265.9,87.5c0-3,2.4-5.5,5.5-5.5s5.5,2.4,5.5,5.5c0,3-2.4,5.5-5.5,5.5c0,0,0,0-0.1,0
		C268.3,92.9,265.9,90.6,265.9,87.5L265.9,87.5z M275.9,87.5c0-2.5-2.1-4.5-4.5-4.6c-2.5,0-4.5,2.1-4.6,4.5c0,2.5,2.1,4.5,4.5,4.6
		l0,0c2.5,0,4.5-2,4.5-4.4C275.8,87.6,275.8,87.5,275.9,87.5L275.9,87.5z M273.9,90.6h-1l-1.7-2.8h-1.2v2.8h-0.9v-6.1h2.7
		c0.5-0.1,1,0.1,1.5,0.3c0.4,0.3,0.7,0.8,0.7,1.3c0,1.2-0.9,1.7-1.9,1.7L273.9,90.6z M271,87.1c0.9,0,2.1,0.1,2.1-1.1
		c0-0.9-0.7-1-1.5-1H270v2.1H271z"/>
</g>
</svg>
