<?xml version="1.0" encoding="utf-8"?>
<!-- Generator: Adobe Illustrator 24.2.0, SVG Export Plug-In . SVG Version: 6.00 Build 0)  -->
<svg version="1.1" id="Ebene_1" xmlns="http://www.w3.org/2000/svg" xmlns:xlink="http://www.w3.org/1999/xlink" x="0px" y="0px"
	 viewBox="0 0 300 200" style="enable-background:new 0 0 300 200;" xml:space="preserve">
<style type="text/css">
	.st0{fill:#0A1227;}
	.st1{fill-rule:evenodd;clip-rule:evenodd;fill:#0A1227;}
	.st2{fill:url(#path58_2_);}
	.st3{fill-rule:evenodd;clip-rule:evenodd;fill:#194473;}
	.st4{fill:none;stroke:#194473;stroke-width:1.1801;stroke-miterlimit:5.3333;}
	.st5{fill-rule:evenodd;clip-rule:evenodd;}
	.st6{fill:#008948;}
	.st7{fill-rule:evenodd;clip-rule:evenodd;fill:#008948;}
	.st8{fill:#004E9E;}
	.st9{fill:#1A1A18;}
	.st10{fill:#FFFFFF;}
	.st11{fill:#76BC21;}
	.st12{fill:#1D1D1B;}
	.st13{fill-rule:evenodd;clip-rule:evenodd;fill:#1D1D1B;}
	.st14{fill:#E31513;}
	.st15{fill:#E60001;}
	.st16{fill:#333333;}
	.st17{fill:#BBBDC0;}
	.st18{fill:#1D3B6D;}
	.st19{fill-rule:evenodd;clip-rule:evenodd;fill:#1D3B6D;}
	.st20{fill:#FFFFFF;stroke:#BBBDC0;stroke-width:0.275;stroke-miterlimit:3.8637;}
	.st21{fill:#005B53;}
	.st22{fill:#FF6C0E;}
	.st23{fill:#134094;}
	.st24{fill:#D2022F;}
	.st25{fill:#9D9D9C;}
	.st26{fill:#93B894;}
	.st27{filter:url(#Adobe_OpacityMaskFilter);}
	.st28{fill-rule:evenodd;clip-rule:evenodd;fill:#FFFFFF;}
	.st29{mask:url(#logo-hagesued-b_2_);fill:#FF7200;}
	.st30{filter:url(#Adobe_OpacityMaskFilter_1_);}
	.st31{mask:url(#logo-hagesued-d_2_);fill:#7F3D39;}
	.st32{fill:#FEFEFE;}
	.st33{fill:#606060;}
	.st34{filter:url(#Adobe_OpacityMaskFilter_2_);}
	.st35{mask:url(#logo-hagesued-b_1_);fill:#606060;}
	.st36{fill:none;stroke:#000000;stroke-miterlimit:10;}
	.st37{fill:none;}
	.st38{clip-path:url(#SVGID_2_);fill:#444543;}
	.st39{clip-path:url(#SVGID_4_);}
	.st40{clip-path:url(#SVGID_6_);fill:#D0D0D0;}
	.st41{clip-path:url(#SVGID_8_);fill:#D0D0D0;}
	.st42{fill:#3F3E3C;}
	.st43{fill:#2374BA;}
	.st44{fill:#AEB2B5;}
	.st45{fill-rule:evenodd;clip-rule:evenodd;fill:#164194;}
	.st46{fill:#E30613;}
	.st47{fill-rule:evenodd;clip-rule:evenodd;fill:#DC911B;}
	.st48{fill:#DC911B;}
	.st49{fill:#FF0066;}
</style>
<g>
	<path class="st49" d="M96.3,108.1c0,4.1-0.8,6.5-2.5,8.1c-1.7,1.6-4.2,2.1-6.4,2.1c-2.1,0-4.4-0.5-5.9-1.5l0.8-2.5
		c1.2,0.8,3,1.4,5.2,1.4c3.3,0,5.7-1.7,5.7-6.2v-1.9h-0.1c-0.9,1.6-2.9,2.9-5.6,2.9c-4.4,0-7.5-3.7-7.5-8.6c0-6,3.9-9.3,8-9.3
		c3.1,0,4.7,1.6,5.5,3h0.1l0.1-2.7h2.8c-0.1,1.2-0.1,2.7-0.1,4.8V108.1z M93.1,100c0-0.5,0-1-0.2-1.4c-0.6-1.9-2.1-3.4-4.5-3.4
		c-3.1,0-5.2,2.6-5.2,6.7c0,3.5,1.8,6.3,5.2,6.3c2,0,3.8-1.2,4.4-3.3c0.2-0.5,0.3-1.2,0.3-1.7V100z"/>
	<path class="st49" d="M117.5,101.7c0,6.5-4.5,9.3-8.8,9.3c-4.7,0-8.4-3.5-8.4-9c0-5.9,3.9-9.3,8.7-9.3
		C114.1,92.7,117.5,96.4,117.5,101.7z M103.6,101.9c0,3.9,2.2,6.8,5.3,6.8c3.1,0,5.3-2.9,5.3-6.8c0-3-1.5-6.7-5.3-6.7
		C105.2,95.1,103.6,98.6,103.6,101.9z"/>
	<path class="st49" d="M121.6,97.8c0-1.9,0-3.3-0.1-4.8h2.8l0.2,2.9h0.1c0.9-1.6,2.9-3.3,5.8-3.3c2.4,0,6.2,1.5,6.2,7.5v10.5h-3.2
		v-10.1c0-2.8-1.1-5.2-4.1-5.2c-2.1,0-3.7,1.5-4.3,3.3c-0.1,0.4-0.2,0.9-0.2,1.5v10.6h-3.2V97.8z"/>
	<path class="st49" d="M156.9,84.9v21.3c0,1.6,0.1,3.3,0.1,4.5h-2.8l-0.1-3.1h-0.1c-0.9,2-3.1,3.5-5.9,3.5c-4.3,0-7.6-3.6-7.6-8.9
		c0-5.9,3.6-9.4,7.9-9.4c2.7,0,4.5,1.3,5.3,2.7h0.1V84.9H156.9z M153.7,100.2c0-0.4,0-0.9-0.1-1.3c-0.5-2-2.2-3.7-4.6-3.7
		c-3.3,0-5.3,2.9-5.3,6.8c0,3.6,1.8,6.5,5.2,6.5c2.1,0,4.1-1.5,4.7-3.8c0.1-0.4,0.1-0.9,0.1-1.4V100.2z"/>
	<path class="st49" d="M162.2,98.6c0-2.1,0-3.9-0.1-5.5h2.8l0.1,3.5h0.1c0.8-2.4,2.8-3.9,4.9-3.9c0.3,0,0.6,0,0.9,0.1v3
		c-0.3-0.1-0.7-0.1-1.1-0.1c-2.3,0-3.9,1.7-4.3,4.1c-0.1,0.4-0.1,1-0.1,1.5v9.4h-3.2V98.6z"/>
	<path class="st49" d="M189.7,101.7c0,6.5-4.5,9.3-8.8,9.3c-4.7,0-8.4-3.5-8.4-9c0-5.9,3.9-9.3,8.7-9.3
		C186.3,92.7,189.7,96.4,189.7,101.7z M175.7,101.9c0,3.9,2.2,6.8,5.3,6.8c3.1,0,5.3-2.9,5.3-6.8c0-3-1.5-6.7-5.3-6.7
		C177.4,95.1,175.7,98.6,175.7,101.9z"/>
	<path class="st49" d="M193.7,97.8c0-1.9-0.1-3.3-0.1-4.8h2.8l0.1,2.9h0.1c1-1.7,2.6-3.2,5.6-3.2c2.4,0,4.2,1.5,4.9,3.5h0.1
		c0.5-1,1.3-1.7,2-2.3c1.1-0.8,2.2-1.2,3.9-1.2c2.4,0,5.8,1.5,5.8,7.6v10.3h-3.1v-9.9c0-3.4-1.3-5.4-3.8-5.4c-1.9,0-3.2,1.3-3.8,2.9
		c-0.1,0.5-0.3,1-0.3,1.6v10.9h-3.1v-10.5c0-2.8-1.2-4.8-3.7-4.8c-2,0-3.5,1.6-4,3.2c-0.2,0.4-0.3,1-0.3,1.6v10.6h-3.1V97.8z"/>
</g>
</svg>
