<?xml version="1.0" encoding="utf-8"?>
<!-- Generator: Adobe Illustrator 24.2.0, SVG Export Plug-In . SVG Version: 6.00 Build 0)  -->
<svg version="1.1" id="Ebene_1" xmlns="http://www.w3.org/2000/svg" xmlns:xlink="http://www.w3.org/1999/xlink" x="0px" y="0px"
	 viewBox="0 0 300 200" style="enable-background:new 0 0 300 200;" xml:space="preserve">
<style type="text/css">
	.st0{fill:#0A1227;}
	.st1{fill-rule:evenodd;clip-rule:evenodd;fill:#0A1227;}
	.st2{fill:url(#path58_2_);}
	.st3{fill-rule:evenodd;clip-rule:evenodd;fill:#194473;}
	.st4{fill:none;stroke:#194473;stroke-width:1.1801;stroke-miterlimit:5.3333;}
	.st5{fill-rule:evenodd;clip-rule:evenodd;}
	.st6{fill:#008948;}
	.st7{fill-rule:evenodd;clip-rule:evenodd;fill:#008948;}
	.st8{fill:#004E9E;}
	.st9{fill:#1A1A18;}
	.st10{fill:#FFFFFF;}
	.st11{fill:#76BC21;}
	.st12{fill:#1D1D1B;}
	.st13{fill-rule:evenodd;clip-rule:evenodd;fill:#1D1D1B;}
	.st14{fill:#E31513;}
	.st15{fill:#E60001;}
	.st16{fill:#333333;}
	.st17{fill:#BBBDC0;}
	.st18{fill:#1D3B6D;}
	.st19{fill-rule:evenodd;clip-rule:evenodd;fill:#1D3B6D;}
	.st20{fill:#FFFFFF;stroke:#BBBDC0;stroke-width:0.275;stroke-miterlimit:3.8637;}
	.st21{fill:#005B53;}
	.st22{fill:#FF6C0E;}
	.st23{fill:#134094;}
	.st24{fill:#D2022F;}
	.st25{fill:#9D9D9C;}
	.st26{fill:#93B894;}
	.st27{filter:url(#Adobe_OpacityMaskFilter);}
	.st28{fill-rule:evenodd;clip-rule:evenodd;fill:#FFFFFF;}
	.st29{mask:url(#logo-hagesued-b_2_);fill:#FF7200;}
	.st30{filter:url(#Adobe_OpacityMaskFilter_1_);}
	.st31{mask:url(#logo-hagesued-d_2_);fill:#7F3D39;}
	.st32{fill:#FEFEFE;}
	.st33{fill:#606060;}
	.st34{filter:url(#Adobe_OpacityMaskFilter_2_);}
	.st35{mask:url(#logo-hagesued-b_1_);fill:#606060;}
	.st36{fill:none;stroke:#000000;stroke-miterlimit:10;}
	.st37{fill:none;}
	.st38{clip-path:url(#SVGID_2_);fill:#444543;}
	.st39{clip-path:url(#SVGID_4_);}
	.st40{clip-path:url(#SVGID_6_);fill:#D0D0D0;}
	.st41{clip-path:url(#SVGID_8_);fill:#D0D0D0;}
	.st42{fill:#3F3E3C;}
	.st43{fill:#2374BA;}
	.st44{fill:#AEB2B5;}
	.st45{fill-rule:evenodd;clip-rule:evenodd;fill:#164194;}
	.st46{fill:#E30613;}
	.st47{fill-rule:evenodd;clip-rule:evenodd;fill:#DC911B;}
	.st48{fill:#DC911B;}
	.st49{fill:#FF0066;}
</style>
<g id="Ebene_x0020_1_2_">
	<path id="path10_2_" class="st0" d="M197,80l15.6,39.8h-6.7l-2.6-6.7h-13.6l-2.9,6.7h-10.3l-8.8-13.2v13.2H161V83.5l12.1,0
		c4.1,0,10.6,3.1,10.5,11.2c-0.1,8.8-6.7,11-8.9,11.4c2.2,3.1,4.5,6.4,6.7,9.6L196.8,80L197,80L197,80z M167.6,99.8l5.4,0
		c3.4,0,4-2.7,4-5.1c0-2.6-1.1-4.6-4-4.6l-5.5,0V99.8L167.6,99.8z M192.4,106.6h8.3l-4-10.1L192.4,106.6L192.4,106.6z"/>
	<path id="path12_2_" class="st0" d="M60.4,119.6l-9.4,9.9l-7.9-29.2l-18-19.9l26,2.7l19.4,13.2l8.2,12.8L48.9,88.7l-9.6-1.2
		l27.5,29.9l2.4-7.4c3.3,3.3,8.1,4.8,12.7,3.3c4-1.2,7.4-5.3,8.2-9.3c0.9-4.7-0.7-9.1-4.3-12.2c-2.7-2.4-6.4-3.6-10.1-2.6
		c-2.6,0.7-5,1.9-6.9,4l-5.7-3.8c5-6.2,12.9-8.8,20.6-6.6c6.7,2.1,12.8,9,13.4,16c0.8,8.8-3.1,16.4-11.2,20.1c-3.8,1.8-9,2.6-13.2,1
		l-3.2,9.6L60.4,119.6L60.4,119.6z M53.2,119l3.1-4l-6-6.6L53.2,119L53.2,119z"/>
	<path id="path14_2_" class="st0" d="M46.3,92.2c0-1,0.8-1.8,1.8-1.8c1,0,1.8,0.8,1.8,1.8c0,1-0.8,1.8-1.8,1.8
		C47.1,94.1,46.3,93.2,46.3,92.2z"/>
	<polygon id="polygon16_2_" class="st0" points="220.5,124.3 198.8,70.5 205.7,70.5 220.5,107.3 230.2,83.5 237.2,83.5 	"/>
	<polygon id="polygon18_2_" class="st0" points="246.9,119.8 240.4,119.8 240.4,83.5 246.9,83.5 	"/>
	<polygon id="polygon20_2_" class="st0" points="274.9,90.1 265.8,90.1 265.8,119.8 259.3,119.8 259.3,90.1 250.4,90.1 250.4,83.5 
		274.9,83.5 	"/>
	<path id="path22_2_" class="st0" d="M137.6,100.8c0,5.7-0.8,12.3,6.3,12.3c6.9,0,6.2-6.5,6.2-12.3l0-17.3h6.5v23
		c0,4.8-3.4,13.2-12.7,13.2c-9.3,0-12.8-8.4-12.8-13.2l0-23l6.5,0C137.6,83.5,137.6,99.9,137.6,100.8L137.6,100.8z"/>
	<path id="path24_2_" class="st0" d="M111.7,113.2c-1.3,0.2-2.8,0.2-3.9,0.2l0-23.5c1.2,0,2.6,0,4,0.2c7.6,1.4,9.5,7.9,9.5,11.8
		C121.2,105.8,119.3,111.8,111.7,113.2L111.7,113.2z M107.5,83.5c-2.7,0-5.1,0-6.5,0v36.3c2.1,0,3.7,0,6,0
		c10.4,0,20.5-5.5,20.5-18.2C127.5,90.9,120.9,83.5,107.5,83.5L107.5,83.5z"/>
</g>
</svg>
