<?xml version="1.0" encoding="utf-8"?>
<!-- Generator: Adobe Illustrator 24.2.0, SVG Export Plug-In . SVG Version: 6.00 Build 0)  -->
<svg version="1.1" id="Ebene_1" xmlns="http://www.w3.org/2000/svg" xmlns:xlink="http://www.w3.org/1999/xlink" x="0px" y="0px"
	 viewBox="0 0 300 200" style="enable-background:new 0 0 300 200;" xml:space="preserve">
<style type="text/css">
	.st0{fill:#0A1227;}
	.st1{fill-rule:evenodd;clip-rule:evenodd;fill:#0A1227;}
	.st2{fill:url(#path58_2_);}
	.st3{fill-rule:evenodd;clip-rule:evenodd;fill:#194473;}
	.st4{fill:none;stroke:#194473;stroke-width:1.1801;stroke-miterlimit:5.3333;}
	.st5{fill-rule:evenodd;clip-rule:evenodd;}
	.st6{fill:#008948;}
	.st7{fill-rule:evenodd;clip-rule:evenodd;fill:#008948;}
	.st8{fill:#004E9E;}
	.st9{fill:#1A1A18;}
	.st10{fill:#FFFFFF;}
	.st11{fill:#76BC21;}
	.st12{fill:#1D1D1B;}
	.st13{fill-rule:evenodd;clip-rule:evenodd;fill:#1D1D1B;}
	.st14{fill:#E31513;}
	.st15{fill:#E60001;}
	.st16{fill:#333333;}
	.st17{fill:#BBBDC0;}
	.st18{fill:#1D3B6D;}
	.st19{fill-rule:evenodd;clip-rule:evenodd;fill:#1D3B6D;}
	.st20{fill:#FFFFFF;stroke:#BBBDC0;stroke-width:0.275;stroke-miterlimit:3.8637;}
	.st21{fill:#005B53;}
	.st22{fill:#FF6C0E;}
	.st23{fill:#134094;}
	.st24{fill:#D2022F;}
	.st25{fill:#9D9D9C;}
	.st26{fill:#93B894;}
	.st27{filter:url(#Adobe_OpacityMaskFilter);}
	.st28{fill-rule:evenodd;clip-rule:evenodd;fill:#FFFFFF;}
	.st29{mask:url(#logo-hagesued-b_2_);fill:#FF7200;}
	.st30{filter:url(#Adobe_OpacityMaskFilter_1_);}
	.st31{mask:url(#logo-hagesued-d_2_);fill:#7F3D39;}
	.st32{fill:#FEFEFE;}
	.st33{fill:#606060;}
	.st34{filter:url(#Adobe_OpacityMaskFilter_2_);}
	.st35{mask:url(#logo-hagesued-b_1_);fill:#606060;}
	.st36{fill:none;stroke:#000000;stroke-miterlimit:10;}
	.st37{fill:none;}
	.st38{clip-path:url(#SVGID_2_);fill:#444543;}
	.st39{clip-path:url(#SVGID_4_);}
	.st40{clip-path:url(#SVGID_6_);fill:#D0D0D0;}
	.st41{clip-path:url(#SVGID_8_);fill:#D0D0D0;}
	.st42{fill:#3F3E3C;}
	.st43{fill:#2374BA;}
	.st44{fill:#AEB2B5;}
	.st45{fill-rule:evenodd;clip-rule:evenodd;fill:#164194;}
	.st46{fill:#E30613;}
	.st47{fill-rule:evenodd;clip-rule:evenodd;fill:#DC911B;}
	.st48{fill:#DC911B;}
	.st49{fill:#FF0066;}
</style>
<g>
	<path class="st0" d="M63.6,100c0-13.4-10.9-24.3-24.2-24.3c-13.4,0-24.3,10.9-24.3,24.3c0,13.4,10.9,24.3,24.3,24.3
		C52.7,124.3,63.6,113.4,63.6,100 M26.8,90.8c5.3,2.4,9.5,6.7,11.7,12.1v19.8c-4.3-0.1-8.3-1.5-11.7-3.7V90.8z M38.2,77.3
		c-2.5,5.5-7.1,9.8-12.8,11.9V118c-5.3-4.2-8.8-10.7-8.8-18C16.6,87.8,26.1,77.9,38.2,77.3 M50.6,89.7c-4.9,2.4-9,6.4-11.4,11.3
		c-2.3-4.9-6.4-8.9-11.3-11.3c4.9-2.4,9-6.4,11.3-11.4C41.7,83.3,45.7,87.3,50.6,89.7 M62.1,100c0,7.3-3.5,13.9-8.8,18V89.2
		c-5.7-2.2-10.4-6.5-12.8-12C52.5,77.9,62.1,87.8,62.1,100"/>
	<path class="st0" d="M105.9,109.8h6.6l1.3-6.3h7.3l1.2,6.3h8l-6.7-31.3h-10.4L105.9,109.8z M117.6,85.2L117.6,85.2l2.4,12.7h-5.1
		L117.6,85.2z M133.5,78.5h11.8c5.9,0,10.5,2.7,10.5,8.9c0,3.3-2.2,6.1-5.2,7.2l5.2,15.2H148l-3.9-13.6h-2.6v13.5h-8V78.5z
		 M141.4,91.3h1.5c3,0,4.9-0.9,4.9-3.5c0-3.3-2.5-3.5-5.1-3.5h-1.3V91.3z M159.5,109.8h12.7c6.2,0,10.3-3.4,10.3-8.6
		c0-4.1-2.4-6.7-6.5-7.8v-0.1c3.3-0.7,5.9-3.5,5.9-7.4c0-4.3-3.5-7.5-9.2-7.5h-13.2L159.5,109.8L159.5,109.8z M167.4,96.2h2.9
		c2.5,0,4,1.5,4,3.9c0,3.2-2.3,4-4,4h-2.9V96.2z M167.4,84h2.8c1.8,0,3.8,0.5,3.8,3.5c0,1.9-1.1,3.4-4,3.4h-2.6V84z M191.7,78.5
		h10.4l6.7,31.3h-8l-1.2-6.3h-7.3l-1.3,6.3h-6.6L191.7,78.5z M193.4,97.9h5.1l-2.3-12.7H196L193.4,97.9z M72.9,122.1h215.2l2.8-9.3
		H72.9V122.1z M72.9,109.8H79v-24h0.1l5,24h4.8l5.4-23.1h0.1v23.1h7.9V78.5H91.5l-4,17.6h-0.1L84,78.5H72.9L72.9,109.8L72.9,109.8z
		 M225.6,89.5c0-2.1-0.5-5.8-3.4-5.8c-3.4,0-3.8,4.7-3.8,10.5c0,6.4,0.3,10.4,4,10.4c2.9,0,3.5-2.4,3.7-6.3L233,99
		c0,6.9-4.1,11.5-11,11.5c-9.6,0-12.2-8.1-12.2-16.3c0-7.5,2.5-16.3,12.2-16.3c7.6,0,11,5.1,11,11.6L225.6,89.5L225.6,89.5z
		 M235.7,109.8h7.9V97h6.2v12.8h7.9V78.5h-7.9v12.2h-6.2V78.5h-7.9V109.8z"/>
</g>
</svg>
