<?xml version="1.0" encoding="utf-8"?>
<!-- Generator: Adobe Illustrator 24.2.0, SVG Export Plug-In . SVG Version: 6.00 Build 0)  -->
<svg version="1.1" id="Ebene_1" xmlns="http://www.w3.org/2000/svg" xmlns:xlink="http://www.w3.org/1999/xlink" x="0px" y="0px"
	 viewBox="0 0 300 200" style="enable-background:new 0 0 300 200;" xml:space="preserve">
<style type="text/css">
	.st0{fill:#0A1227;}
	.st1{fill-rule:evenodd;clip-rule:evenodd;fill:#0A1227;}
	.st2{fill:url(#path58_2_);}
	.st3{fill-rule:evenodd;clip-rule:evenodd;fill:#194473;}
	.st4{fill:none;stroke:#194473;stroke-width:1.1801;stroke-miterlimit:5.3333;}
	.st5{fill-rule:evenodd;clip-rule:evenodd;}
	.st6{fill:#008948;}
	.st7{fill-rule:evenodd;clip-rule:evenodd;fill:#008948;}
	.st8{fill:#004E9E;}
	.st9{fill:#1A1A18;}
	.st10{fill:#FFFFFF;}
	.st11{fill:#76BC21;}
	.st12{fill:#1D1D1B;}
	.st13{fill-rule:evenodd;clip-rule:evenodd;fill:#1D1D1B;}
	.st14{fill:#E31513;}
	.st15{fill:#E60001;}
	.st16{fill:#333333;}
	.st17{fill:#BBBDC0;}
	.st18{fill:#1D3B6D;}
	.st19{fill-rule:evenodd;clip-rule:evenodd;fill:#1D3B6D;}
	.st20{fill:#FFFFFF;stroke:#BBBDC0;stroke-width:0.275;stroke-miterlimit:3.8637;}
	.st21{fill:#005B53;}
	.st22{fill:#FF6C0E;}
	.st23{fill:#134094;}
	.st24{fill:#D2022F;}
	.st25{fill:#9D9D9C;}
	.st26{fill:#93B894;}
	.st27{filter:url(#Adobe_OpacityMaskFilter);}
	.st28{fill-rule:evenodd;clip-rule:evenodd;fill:#FFFFFF;}
	.st29{mask:url(#logo-hagesued-b_2_);fill:#FF7200;}
	.st30{filter:url(#Adobe_OpacityMaskFilter_1_);}
	.st31{mask:url(#logo-hagesued-d_2_);fill:#7F3D39;}
	.st32{fill:#FEFEFE;}
	.st33{fill:#606060;}
	.st34{filter:url(#Adobe_OpacityMaskFilter_2_);}
	.st35{mask:url(#logo-hagesued-b_1_);fill:#606060;}
	.st36{fill:none;stroke:#000000;stroke-miterlimit:10;}
	.st37{fill:none;}
	.st38{clip-path:url(#SVGID_2_);fill:#444543;}
	.st39{clip-path:url(#SVGID_4_);}
	.st40{clip-path:url(#SVGID_6_);fill:#D0D0D0;}
	.st41{clip-path:url(#SVGID_8_);fill:#D0D0D0;}
	.st42{fill:#3F3E3C;}
	.st43{fill:#2374BA;}
	.st44{fill:#AEB2B5;}
	.st45{fill-rule:evenodd;clip-rule:evenodd;fill:#164194;}
	.st46{fill:#E30613;}
	.st47{fill-rule:evenodd;clip-rule:evenodd;fill:#DC911B;}
	.st48{fill:#DC911B;}
	.st49{fill:#FF0066;}
</style>
<g id="g5512_5_" transform="matrix(2.0661355,0,0,2.0661355,0,-4.1323115)">
	<g id="g24728_5_" transform="matrix(4.3916816,0,0,-4.3916816,379.3486,2.01011)">
		<path id="path24730_5_" class="st0" d="M-62.9-8.8v-3.5c0-0.2,0.1-0.3,0.3-0.4c0,0,1.1,0,1.1,0V-13c0,0,0-0.1-0.1-0.1h-1.9
			c-0.6,0-0.7,0.3-0.7,0.6V-9c0,0.2,0.1,0.2,0.3,0.2L-62.9-8.8"/>
	</g>
	<g id="g24732_5_" transform="matrix(4.3916816,0,0,-4.3916816,339.47168,2.01011)">
		<path id="path24734_5_" class="st0" d="M-55.9-8.8l0-4.1c0-0.2-0.1-0.2-0.2-0.2H-57V-9c0,0.1,0.1,0.2,0.2,0.2L-55.9-8.8"/>
	</g>
	<g id="g24736_5_" transform="matrix(4.3916816,0,0,-4.3916816,0,13.05386)">
		<path id="path24738_5_" class="st0" d="M3.2-6.9c0,0.3,0,0.6,0.5,0.6h2.4v-0.4c0,0,0-0.1-0.1-0.1l-1.4,0C4.4-6.8,4.3-6.8,4.3-7
			v-1.1H6l0-0.4c0,0,0-0.1-0.1-0.1H4.3v-1.7c0-0.2-0.1-0.2-0.3-0.2H3.2V-6.9"/>
	</g>
	<g id="g24740_5_" transform="matrix(4.3916816,0,0,-4.3916816,86.0146,2.00221)">
		<path id="path24742_5_" class="st0" d="M-11.8-8.8v-3.3c0-0.3,0-0.5,0.2-0.6c0.3-0.2,0.7-0.2,1,0c0.2,0.1,0.3,0.3,0.3,0.6V-9
			c0,0.1,0.1,0.2,0.2,0.2h0.9l0-3.2c0-0.7-0.5-1-0.9-1.2c-0.5-0.1-1.4-0.2-1.9,0c-0.6,0.2-0.9,0.6-0.9,1.1l0,3
			c0,0.1,0.1,0.2,0.2,0.2H-11.8"/>
	</g>
	<g id="g24744_5_" transform="matrix(4.3916816,0,0,-4.3916816,474.26296,2.01451)">
		<path id="path24746_5_" class="st0" d="M-79.4-8.8c-0.2,0-0.3-0.1-0.4-0.3l-0.7-3l0,0l-0.7,3.3h-1c-0.2,0-0.3-0.1-0.3-0.2v-4h0.4
			c0.1,0,0.1,0,0.1,0.1v3.4h0.1l0.9-3.5h0.6c0.2,0,0.3,0.1,0.4,0.3l0.8,3.2h0.1l0-3.5l0.8,0c0.2,0,0.3,0.1,0.3,0.3v4L-79.4-8.8"/>
	</g>
	<g id="g24748_5_" transform="matrix(4.3916816,0,0,-4.3916816,231.57952,45.55406)">
		<path id="path24750_5_" class="st0" d="M-37.1-1.2h-1.1v-2h0.9c0.2,0,0.2,0,0.2,0.2C-37.1-3-37.1-2.1-37.1-1.2"/>
	</g>
	<g id="g24752_5_" transform="matrix(4.3916816,0,0,-4.3916816,230.38322,29.92143)">
		<path id="path24754_5_" class="st0" d="M-36.9-3.9c0,0,0.1,0.1,0.1,0.1v1.4h-0.9c-0.2,0-0.2-0.1-0.2-0.2v-2.1L-36.9-3.9"/>
	</g>
	<g id="g24756_5_" transform="matrix(4.3916816,0,0,-4.3916816,160.01264,75.79827)">
		<path id="path24758_5_" class="st0" d="M-24.7,4c0.5,0.1,0.6,0.4,0.6,0.8v3c0,0.2,0.1,0.2,0.2,0.2h0.9V5.2c0-0.7-0.1-1-0.6-1.3
			c-0.2-0.2-0.6-0.3-1.4-0.3c-0.5,0-0.7,0-0.7,0c0,0-0.1,0-0.1,0.1V4C-25.4,4-25,4-24.7,4"/>
	</g>
	<g id="g24760_5_" transform="matrix(4.3916816,0,0,-4.3916816,262.67744,2.00221)">
		<path id="path24762_5_" class="st0" d="M-42.5-8.8c-0.5,0-0.5-0.3-0.5-0.6v-1.1c0,0,0,0,0,0l-0.8-0.6h0.8v-2h0.9
			c0.2,0,0.3,0.1,0.3,0.2v1.7h1.6c0,0,0.1,0,0.1,0.1v0.4h-1.7v1.1c0,0.2,0.1,0.3,0.3,0.3l1.4,0c0,0,0.1,0,0.1,0.1v0.4H-42.5"/>
	</g>
</g>
</svg>
