<?xml version="1.0" encoding="utf-8"?>
<!-- Generator: Adobe Illustrator 24.2.0, SVG Export Plug-In . SVG Version: 6.00 Build 0)  -->
<svg version="1.1" id="Ebene_1" xmlns="http://www.w3.org/2000/svg" xmlns:xlink="http://www.w3.org/1999/xlink" x="0px" y="0px"
	 viewBox="0 0 300 200" style="enable-background:new 0 0 300 200;" xml:space="preserve">
<style type="text/css">
	.st0{fill:#0A1227;}
	.st1{fill-rule:evenodd;clip-rule:evenodd;fill:#0A1227;}
	.st2{fill:url(#path58_2_);}
	.st3{fill-rule:evenodd;clip-rule:evenodd;fill:#194473;}
	.st4{fill:none;stroke:#194473;stroke-width:1.1801;stroke-miterlimit:5.3333;}
	.st5{fill-rule:evenodd;clip-rule:evenodd;}
	.st6{fill:#008948;}
	.st7{fill-rule:evenodd;clip-rule:evenodd;fill:#008948;}
	.st8{fill:#004E9E;}
	.st9{fill:#1A1A18;}
	.st10{fill:#FFFFFF;}
	.st11{fill:#76BC21;}
	.st12{fill:#1D1D1B;}
	.st13{fill-rule:evenodd;clip-rule:evenodd;fill:#1D1D1B;}
	.st14{fill:#E31513;}
	.st15{fill:#E60001;}
	.st16{fill:#333333;}
	.st17{fill:#BBBDC0;}
	.st18{fill:#1D3B6D;}
	.st19{fill-rule:evenodd;clip-rule:evenodd;fill:#1D3B6D;}
	.st20{fill:#FFFFFF;stroke:#BBBDC0;stroke-width:0.275;stroke-miterlimit:3.8637;}
	.st21{fill:#005B53;}
	.st22{fill:#FF6C0E;}
	.st23{fill:#134094;}
	.st24{fill:#D2022F;}
	.st25{fill:#9D9D9C;}
	.st26{fill:#93B894;}
	.st27{filter:url(#Adobe_OpacityMaskFilter);}
	.st28{fill-rule:evenodd;clip-rule:evenodd;fill:#FFFFFF;}
	.st29{mask:url(#logo-hagesued-b_2_);fill:#FF7200;}
	.st30{filter:url(#Adobe_OpacityMaskFilter_1_);}
	.st31{mask:url(#logo-hagesued-d_2_);fill:#7F3D39;}
	.st32{fill:#FEFEFE;}
	.st33{fill:#606060;}
	.st34{filter:url(#Adobe_OpacityMaskFilter_2_);}
	.st35{mask:url(#logo-hagesued-b_1_);fill:#606060;}
	.st36{fill:none;stroke:#000000;stroke-miterlimit:10;}
	.st37{fill:none;}
	.st38{clip-path:url(#SVGID_2_);fill:#444543;}
	.st39{clip-path:url(#SVGID_4_);}
	.st40{clip-path:url(#SVGID_6_);fill:#D0D0D0;}
	.st41{clip-path:url(#SVGID_8_);fill:#D0D0D0;}
	.st42{fill:#3F3E3C;}
	.st43{fill:#2374BA;}
	.st44{fill:#AEB2B5;}
	.st45{fill-rule:evenodd;clip-rule:evenodd;fill:#164194;}
	.st46{fill:#E30613;}
	.st47{fill-rule:evenodd;clip-rule:evenodd;fill:#DC911B;}
	.st48{fill:#DC911B;}
	.st49{fill:#FF0066;}
</style>
<g>
	<path class="st0" d="M50.7,125c0-16.6,0-33.2,0-49.8c0.1,0,0.1,0,0.2,0c0.1,0,0.2,0,0.3,0c6.9,0,13.9,0,20.8,0
		c1.8,0,3.6,0.2,5.3,0.6c5.6,1.3,9.9,4.4,13.1,9.1c1.9,2.7,3.1,5.8,3.7,9c0.5,2.1,0.7,4.3,0.6,6.5c0,3.9-0.6,7.6-2,11.2
		c-1.1,2.8-2.6,5.4-4.7,7.6c-2.6,2.7-5.8,4.5-9.5,5.3c-1.6,0.4-3.3,0.5-5,0.5c-7.5,0-15,0-22.6,0C50.9,125,50.8,125,50.7,125z
		 M63.9,114c0.1,0,0.2,0,0.3,0c2.1,0,4.1,0,6.2,0c1.4,0,2.8-0.2,4.1-0.6c2.1-0.6,3.9-1.7,5.3-3.5c1.2-1.5,1.9-3.3,2.4-5.2
		c0.3-1.4,0.4-2.7,0.5-4.1c0-1.7-0.1-3.4-0.6-5.1c-0.9-3.3-2.8-5.9-5.9-7.6c-2.2-1.2-4.5-1.8-7-1.8c-1.7-0.1-3.4,0-5.1,0
		c-0.1,0-0.1,0-0.2,0C63.9,95.4,63.9,104.7,63.9,114z"/>
	<path class="st0" d="M198.1,75.3c0,16.6,0,33.1,0,49.7c-4.2,0-8.3,0-12.5,0c0-2.2,0-4.4,0-6.7c-0.2,0-0.3,0-0.4,0
		c-3.2,0-6.4,0-9.6,0c-1.5,0-3.1,0-4.6,0c-0.2,0-0.4,0.1-0.5,0.3c-1.3,2.1-2.7,4.1-4,6.2c-0.1,0.2-0.3,0.3-0.5,0.3
		c-4.7,0-9.5,0-14.2,0c-0.1,0-0.2,0-0.3,0c0-0.2,0.1-0.3,0.2-0.4c1.8-2.6,3.6-5.3,5.3-7.9c9.3-13.7,18.6-27.4,27.9-41.1
		c0.2-0.2,0.3-0.3,0.6-0.3c4.1,0,8.2,0,12.3,0C197.8,75.3,197.9,75.3,198.1,75.3z M178.1,107c0.7,0.1,7.2,0,7.4,0
		c0.1-0.6,0-10.9,0-11.2C183.1,99.5,180.6,103.2,178.1,107z"/>
	<path class="st0" d="M202.8,75.2c0.2,0,0.3,0,0.4,0c4.6,0,9.2,0,13.8,0c0.3,0,0.4,0.1,0.5,0.3c2.9,4.5,5.8,9,8.7,13.5
		c0.1,0.1,0.1,0.2,0.2,0.4c0.1-0.1,0.2-0.2,0.2-0.3c3.1-4.6,6.3-9.1,9.4-13.7c0.2-0.2,0.3-0.3,0.6-0.3c2.1,0,4.3,0.1,6.4,0.1
		c2,0,4.1,0,6.1,0.1c0.1,0,0.1,0,0.2,0c0,0.1-0.1,0.2-0.1,0.3c-1.1,1.7-2.3,3.5-3.4,5.2c-4.1,6.2-8.2,12.5-12.3,18.7
		c-0.1,0.1-0.1,0.2-0.2,0.3c5.3,8.4,10.5,16.8,15.8,25.3c-0.1,0-0.2,0-0.3,0c-4.8,0-9.5,0-14.3,0c-0.2,0-0.3-0.1-0.5-0.3
		c-3.1-5-6.3-9.9-9.4-14.9c-0.1-0.1-0.1-0.2-0.2-0.3c-0.1,0.1-0.2,0.2-0.2,0.4c-3,4.9-6.1,9.8-9.1,14.8c0,0.1-0.1,0.1-0.1,0.2
		c-0.1,0.1-0.1,0.2-0.3,0.1c-0.1,0-0.2,0-0.2,0c-4.4,0-8.9,0-13.3,0c-0.1,0-0.3,0-0.5,0c0.1-0.1,0.1-0.2,0.2-0.3
		c3.6-5.7,7.2-11.4,10.7-17.1c1.9-3,3.7-5.9,5.6-8.9c0.1-0.2,0.1-0.4,0-0.6c-4.7-7.5-9.5-15-14.2-22.5
		C202.9,75.4,202.9,75.3,202.8,75.2z"/>
	<path class="st0" d="M110.7,86.1c0,2.8,0,5.5,0,8.3c4.8,0,9.7,0,14.5,0c0,3.6,0,7.2,0,10.8c-4.8,0-9.6,0-14.5,0c0,2.9,0,5.8,0,8.8
		c5.1,0,10.1,0,15.2,0c0,3.7,0,7.3,0,11c-9.5,0-18.9,0-28.4,0c0-16.6,0-33.2,0-49.8c0,0,0,0,0,0c0,0,0,0,0,0c0,0,0.1,0,0.1,0
		c9.1,0,18.1,0,27.2,0c0,0,0.1,0,0.1,0c0.1,0.2,0.1,10.5,0,10.9c-0.4,0-0.9,0-1.3,0c-0.4,0-0.9,0-1.3,0c-0.4,0-0.9,0-1.3,0
		c-0.4,0-0.9,0-1.3,0c-0.4,0-0.9,0-1.3,0c-0.4,0-0.9,0-1.3,0c-0.4,0-0.9,0-1.3,0c-0.4,0-0.9,0-1.3,0c-0.4,0-0.9,0-1.3,0
		c-0.4,0-0.9,0-1.3,0C111.6,86.1,111.1,86.1,110.7,86.1z"/>
	<path class="st0" d="M149.4,125c-4,0-8,0-12.1,0c0-2.6,0-5.2,0-7.7c0-2.6,0-5.2,0-7.8c0-2.6,0-5.2,0-7.8c0-2.6,0-5.2,0-7.8
		c0-2.6,0-5.2,0-7.8c-0.4,0-0.8,0-1.1,0c-0.4,0-0.8,0-1.1,0c-0.4,0-0.7,0-1.1,0c-0.4,0-0.8,0-1.1,0c-0.4,0-0.8,0-1.1,0s-0.8,0-1.1,0
		c-0.4,0-0.7,0-1.1,0c-0.4,0-0.8,0-1.1,0c-0.4,0-0.8,0-1.2,0c0-3.7,0-7.3,0-11c10.8,0,21.7,0,32.5,0c0,3.6,0,7.3,0,10.9
		c-3.4,0-6.8,0-10.2,0C149.4,99.1,149.4,112,149.4,125z"/>
</g>
</svg>
