<?xml version="1.0" encoding="utf-8"?>
<!-- Generator: Adobe Illustrator 24.2.0, SVG Export Plug-In . SVG Version: 6.00 Build 0)  -->
<svg version="1.1" id="Ebene_1" xmlns="http://www.w3.org/2000/svg" xmlns:xlink="http://www.w3.org/1999/xlink" x="0px" y="0px"
	 viewBox="0 0 300 200" style="enable-background:new 0 0 300 200;" xml:space="preserve">
<style type="text/css">
	.st0{fill:#0A1227;}
	.st1{fill-rule:evenodd;clip-rule:evenodd;fill:#0A1227;}
	.st2{fill:url(#path58_2_);}
	.st3{fill-rule:evenodd;clip-rule:evenodd;fill:#194473;}
	.st4{fill:none;stroke:#194473;stroke-width:1.1801;stroke-miterlimit:5.3333;}
	.st5{fill-rule:evenodd;clip-rule:evenodd;}
	.st6{fill:#008948;}
	.st7{fill-rule:evenodd;clip-rule:evenodd;fill:#008948;}
	.st8{fill:#004E9E;}
	.st9{fill:#1A1A18;}
	.st10{fill:#FFFFFF;}
	.st11{fill:#76BC21;}
	.st12{fill:#1D1D1B;}
	.st13{fill-rule:evenodd;clip-rule:evenodd;fill:#1D1D1B;}
	.st14{fill:#E31513;}
	.st15{fill:#E60001;}
	.st16{fill:#333333;}
	.st17{fill:#BBBDC0;}
	.st18{fill:#1D3B6D;}
	.st19{fill-rule:evenodd;clip-rule:evenodd;fill:#1D3B6D;}
	.st20{fill:#FFFFFF;stroke:#BBBDC0;stroke-width:0.275;stroke-miterlimit:3.8637;}
	.st21{fill:#005B53;}
	.st22{fill:#FF6C0E;}
	.st23{fill:#134094;}
	.st24{fill:#D2022F;}
	.st25{fill:#9D9D9C;}
	.st26{fill:#93B894;}
	.st27{filter:url(#Adobe_OpacityMaskFilter);}
	.st28{fill-rule:evenodd;clip-rule:evenodd;fill:#FFFFFF;}
	.st29{mask:url(#logo-hagesued-b_2_);fill:#FF7200;}
	.st30{filter:url(#Adobe_OpacityMaskFilter_1_);}
	.st31{mask:url(#logo-hagesued-d_2_);fill:#7F3D39;}
	.st32{fill:#FEFEFE;}
	.st33{fill:#606060;}
	.st34{filter:url(#Adobe_OpacityMaskFilter_2_);}
	.st35{mask:url(#logo-hagesued-b_1_);fill:#606060;}
	.st36{fill:none;stroke:#000000;stroke-miterlimit:10;}
	.st37{fill:none;}
	.st38{clip-path:url(#SVGID_2_);fill:#444543;}
	.st39{clip-path:url(#SVGID_4_);}
	.st40{clip-path:url(#SVGID_6_);fill:#D0D0D0;}
	.st41{clip-path:url(#SVGID_8_);fill:#D0D0D0;}
	.st42{fill:#3F3E3C;}
	.st43{fill:#2374BA;}
	.st44{fill:#AEB2B5;}
	.st45{fill-rule:evenodd;clip-rule:evenodd;fill:#164194;}
	.st46{fill:#E30613;}
	.st47{fill-rule:evenodd;clip-rule:evenodd;fill:#DC911B;}
	.st48{fill:#DC911B;}
	.st49{fill:#FF0066;}
</style>
<g>
	<path class="st0" d="M217.4,65.2H81.6L78,65.4L74.6,66l-3.3,0.8l-3.2,1.1l-2.9,1.5l-2.7,1.7l-2.6,2C52.3,79.2,47.8,90,48,99.8
		c-0.1,19.6,13.9,34.5,33.6,34.5h135.9l3.5-0.2l3.5-0.6l3.2-0.8l3.2-1.1l2.9-1.5l2.8-1.6l2.6-2.1c7.8-6.6,12.2-16.4,12-26.6
		C251.3,80.7,236.7,65.3,217.4,65.2z M236.8,124l-2.3,1.7l-2.6,1.6l-2.7,1.4l-2.8,1.1l-2.8,0.8l-3.2,0.3l-3,0.2H81.6
		C64.1,131,51.2,117,51.4,99.8c-0.1-9.2,3.9-17.9,10.8-24l2.4-1.8l2.5-1.6l2.7-1.5l2.7-1l2.9-0.8l3-0.5h139
		c17.3,0,30.4,14.1,30.4,31.1C247.8,109.1,243.8,117.9,236.8,124z"/>
	<path class="st0" d="M81.4,101.5c0,2-0.7,3.2-2.3,3c-1,0.1-2-0.1-2.9-0.6c-1.4-0.7-2.7-1.6-3.9-2.6L68,97.7v15.4
		c2.7,2.8,7.9,6,11.6,6.2h6.2c5.2-0.5,10.9-4.2,10.8-9.9V80.6H81.4V101.5z"/>
	<path class="st0" d="M125.1,80.6v23.1c0.1,3.6-8.8,3.7-8.8,0v-23h-14.6c0,0-0.1,16.7,0,26.5c0.1,13.4,12.3,11.9,13.1,12.3h10.8
		c0.3-0.2,14,0.6,14.1-12.5V80.7L125.1,80.6z"/>
	<path class="st0" d="M166.4,94.7l-9.1-14h-12.5V119c0,0,10.4,0.1,14.6,0c0.1-3.2-0.1-11.4-0.1-11.4l7.1,11.6l7.1-11.5V119h14.6
		V80.6H176C175.7,81,166.5,94.8,166.4,94.7z"/>
	<path class="st0" d="M231.2,99.9c0-7.9,1.2-20-18.6-20s-19.7,10.6-19.6,20.7c0.1,10.1-1.5,19.4,19.1,19.4S231.2,110.7,231.2,99.9z
		 M212.3,109c-4.8,0-4.5-5.7-4.5-9.1s-0.5-9.5,4.4-9.5c4.8,0,4.7,5.1,4.7,9.3S217.6,109,212.3,109z"/>
</g>
</svg>
