<?xml version="1.0" encoding="utf-8"?>
<!-- Generator: Adobe Illustrator 24.2.0, SVG Export Plug-In . SVG Version: 6.00 Build 0)  -->
<svg version="1.1" id="Ebene_1" xmlns="http://www.w3.org/2000/svg" xmlns:xlink="http://www.w3.org/1999/xlink" x="0px" y="0px"
	 viewBox="0 0 300 200" style="enable-background:new 0 0 300 200;" xml:space="preserve">
<style type="text/css">
	.st0{fill:#0A1227;}
	.st1{fill-rule:evenodd;clip-rule:evenodd;fill:#0A1227;}
	.st2{fill:url(#path58_2_);}
	.st3{fill-rule:evenodd;clip-rule:evenodd;fill:#194473;}
	.st4{fill:none;stroke:#194473;stroke-width:1.1801;stroke-miterlimit:5.3333;}
	.st5{fill-rule:evenodd;clip-rule:evenodd;}
	.st6{fill:#008948;}
	.st7{fill-rule:evenodd;clip-rule:evenodd;fill:#008948;}
	.st8{fill:#004E9E;}
	.st9{fill:#1A1A18;}
	.st10{fill:#FFFFFF;}
	.st11{fill:#76BC21;}
	.st12{fill:#1D1D1B;}
	.st13{fill-rule:evenodd;clip-rule:evenodd;fill:#1D1D1B;}
	.st14{fill:#E31513;}
	.st15{fill:#E60001;}
	.st16{fill:#333333;}
	.st17{fill:#BBBDC0;}
	.st18{fill:#1D3B6D;}
	.st19{fill-rule:evenodd;clip-rule:evenodd;fill:#1D3B6D;}
	.st20{fill:#FFFFFF;stroke:#BBBDC0;stroke-width:0.275;stroke-miterlimit:3.8637;}
	.st21{fill:#005B53;}
	.st22{fill:#FF6C0E;}
	.st23{fill:#134094;}
	.st24{fill:#D2022F;}
	.st25{fill:#9D9D9C;}
	.st26{fill:#93B894;}
	.st27{filter:url(#Adobe_OpacityMaskFilter);}
	.st28{fill-rule:evenodd;clip-rule:evenodd;fill:#FFFFFF;}
	.st29{mask:url(#logo-hagesued-b_2_);fill:#FF7200;}
	.st30{filter:url(#Adobe_OpacityMaskFilter_1_);}
	.st31{mask:url(#logo-hagesued-d_2_);fill:#7F3D39;}
	.st32{fill:#FEFEFE;}
	.st33{fill:#606060;}
	.st34{filter:url(#Adobe_OpacityMaskFilter_2_);}
	.st35{mask:url(#logo-hagesued-b_1_);fill:#606060;}
	.st36{fill:none;stroke:#000000;stroke-miterlimit:10;}
	.st37{fill:none;}
	.st38{clip-path:url(#SVGID_2_);fill:#444543;}
	.st39{clip-path:url(#SVGID_4_);}
	.st40{clip-path:url(#SVGID_6_);fill:#D0D0D0;}
	.st41{clip-path:url(#SVGID_8_);fill:#D0D0D0;}
	.st42{fill:#3F3E3C;}
	.st43{fill:#2374BA;}
	.st44{fill:#AEB2B5;}
	.st45{fill-rule:evenodd;clip-rule:evenodd;fill:#164194;}
	.st46{fill:#E30613;}
	.st47{fill-rule:evenodd;clip-rule:evenodd;fill:#DC911B;}
	.st48{fill:#DC911B;}
	.st49{fill:#FF0066;}
</style>
<g>
	<g>
		<path class="st0" d="M116.8,125.3c-0.6-0.1-1.3-0.2-1.9-0.2c-2.7-0.3-5.1-1.3-7.4-2.6c-2.1-1.3-4.2-2.5-6.3-3.9
			c-0.7-0.5-1.4-1-2.1-1.6c-0.4-0.3-0.4-0.3-0.1-0.7c1.9-2.3,3.7-4.5,5.6-6.8c0.4-0.5,0.9-1,1.3-1.5c0.1-0.2,0.2-0.2,0.4-0.1
			c1.6,1.1,3.2,2,4.9,2.8c1.3,0.6,2.6,0.8,4,0.5c1.4-0.3,2-1.3,1.7-2.7c-0.3-1.3-0.9-2.5-1.6-3.6c-1.5-2.3-3-4.6-4.6-6.8
			c-1.2-1.8-2.2-3.7-2.6-5.9c-0.2-1.3-0.2-2.7,0-4c0.2-1.2,0.3-2.3,0.6-3.5c0.4-1.7,1.4-3.2,2.6-4.5c2.7-3,6.2-4.6,10.2-5.2
			c1.3-0.2,2.5-0.3,3.8-0.3c3.4,0,6.7,0.8,9.8,2.3c3.3,1.7,6.5,3.4,9.8,5.1c0.2,0.1,0.3,0.2,0.2,0.5c-1.5,2.8-3,5.5-4.5,8.3
			c0,0.1-0.1,0.2-0.1,0.3c-0.3,0.6-0.2,0.5-0.7,0.2c-1.4-0.8-2.7-1.6-4.1-2.3c-1.4-0.7-2.9-1.4-4.5-1.5c-1.5-0.1-2.5,1.1-2.4,2.4
			c0.1,1.3,0.7,2.5,1.5,3.6c0.8,1.2,1.8,2.4,2.7,3.5c1.5,2,2.9,4.2,3.7,6.6c0.5,1.5,0.9,3.1,1,4.8c0.1,1.9,0.1,3.7-0.3,5.5
			c-0.4,1.8-1.3,3.4-2.5,4.8c-2.9,3.3-6.6,5-10.8,6c-1.1,0.3-2.3,0.3-3.4,0.5c-0.1,0-0.1,0-0.2,0C119.2,125.3,118,125.3,116.8,125.3
			z"/>
		<path class="st0" d="M171.9,75.6c-0.9,2.7-1.8,5.4-2.7,8c0,0,0,0,0,0c0.1-0.1,0.1-0.1,0.2-0.2c1.4-1.4,2.8-2.8,4.2-4.2
			c1.2-1.2,2.4-2.4,3.7-3.5c0.1-0.1,0.3-0.2,0.5-0.2c6.1,0,12.3,0,18.4,0c0.1,0,0.2,0,0.3,0c0,0.1-0.1,0.1-0.1,0.2
			c-1.2,1.1-2.3,2.3-3.5,3.4c-1.3,1.3-2.6,2.5-3.9,3.8c-1.2,1.2-2.4,2.3-3.6,3.5c-1.3,1.2-2.6,2.5-3.9,3.7c-1.2,1.2-2.5,2.4-3.7,3.6
			c-1.4,1.3-2.7,2.6-4.1,3.9c-0.2,0.2-0.2,0.3-0.1,0.5c0.9,2.8,1.8,5.6,2.6,8.4c0.9,3,1.9,6,2.8,9c0,0.1,0.1,0.2,0.1,0.4
			c0.1-0.1,0.2-0.2,0.3-0.2c1.7-1.7,3.4-3.4,5.1-5.1c3-3,6-6.1,9.1-9.1c3.2-3.2,6.4-6.5,9.6-9.7c3.1-3.1,6.1-6.2,9.2-9.3
			c2.2-2.2,4.4-4.5,6.6-6.7c0.2-0.2,0.4-0.3,0.7-0.3c3.6,0,7.2,0,10.8,0c0.5,0,0.5,0,0.5,0.5c0,15.9,0,31.8,0,47.6
			c0,0.4,0,0.5-0.5,0.5c-6.2,0-12.5,0-18.7,0c-0.5,0-0.5,0-0.5-0.5c0-0.6,0-1.1,0-1.7c0-0.2-0.1-0.3-0.3-0.3c-0.1,0-0.1,0-0.2,0
			c-5.7,0-11.5,0-17.2,0c-0.3,0-0.6,0.1-0.8,0.3c-0.6,0.6-1.2,1.3-1.8,1.9c-0.2,0.2-0.4,0.3-0.6,0.3c-8.5,0-16.9,0-25.4,0
			c-0.3,0-0.4-0.1-0.5-0.4c-1.5-4.1-2.9-8.2-4.4-12.3c0-0.1-0.1-0.1-0.1-0.3c-0.1,0.2-0.1,0.3-0.2,0.4c-1.4,4.1-2.7,8.1-4,12.2
			c-0.1,0.3-0.3,0.5-0.6,0.5c-5.7,0-11.5,0-17.2,0c-0.1,0-0.2,0-0.2,0c-0.2,0-0.3-0.1-0.2-0.3c0-0.1,0.1-0.2,0.1-0.3
			c0.9-2.6,1.7-5.1,2.6-7.7c2.1-6.2,4.1-12.4,6.2-18.6c2.1-6.1,4.1-12.3,6.2-18.4c0.3-1,0.7-2,1-3c0.1-0.3,0.2-0.3,0.5-0.3
			c5.8,0,11.6,0,17.4,0C171.6,75.6,171.8,75.6,171.9,75.6z M211.5,103.3c-2.9,3-5.8,5.8-8.7,8.8c0.2,0,0.3,0,0.4,0
			c2.6,0,5.3,0,7.9,0c0.4,0,0.4,0,0.4-0.4c0-2.7,0-5.3,0-8C211.5,103.6,211.5,103.5,211.5,103.3z"/>
		<path class="st0" d="M107.8,75.6c0,0.1-0.1,0.3-0.1,0.4c-1.1,3.3-2.2,6.6-3.3,9.9c-0.1,0.3-0.3,0.4-0.6,0.4c-4,0-7.9,0-11.9,0
			c-0.4,0-0.5,0.1-0.6,0.5c-0.6,2.1-1.3,4.2-2,6.3c0,0.1-0.1,0.3-0.1,0.5c0.2,0,0.3,0,0.5,0c3.8,0,7.6,0,11.4,0c0.1,0,0.2,0,0.3,0
			c0.3,0,0.4,0.1,0.3,0.3c0,0.1,0,0.1-0.1,0.2c-1.2,3.4-2.3,6.8-3.5,10.3c-0.1,0.2-0.2,0.5-0.2,0.7c-0.2,0.5-0.2,0.5-0.7,0.5
			c-1.7,0-3.4,0-5.1,0c-2.2,0-4.5,0-6.7,0c-0.3,0-0.5,0.1-0.6,0.4c-0.8,2.2-1.6,4.5-2.5,6.7c-0.1,0.3-0.1,0.4,0.3,0.4
			c4,0,8.1,0,12.1,0c0.1,0,0.3,0,0.5,0c0,0.2-0.1,0.3-0.1,0.4c-1.2,3.5-2.3,7-3.5,10.5c-0.1,0.3-0.2,0.4-0.5,0.4
			c-10.9,0-21.7,0-32.6,0c-0.4,0-0.4,0-0.3-0.4c1.9-5.7,3.8-11.4,5.7-17.1c0.9-2.8,1.9-5.5,2.8-8.3c1-3,2-6.1,3.1-9.1
			c1-3,2-5.9,3-8.9c0.5-1.5,1-2.9,1.5-4.4c0.1-0.3,0.2-0.3,0.5-0.3c10.9,0,21.8,0,32.6,0C107.6,75.6,107.7,75.6,107.8,75.6z"/>
		<path class="st0" d="M240.5,75.9c2.5-0.1,5.2,2,5.2,5.3c0,3.2-2.4,5.4-5.3,5.3c-2.9,0-5.2-2.4-5.2-5.4
			C235.2,78.1,237.8,75.8,240.5,75.9z M244.7,81.2c0-0.8-0.2-1.6-0.6-2.3c-1.2-2.2-4.1-2.8-6.1-1.3c-1.8,1.4-2.3,4.1-1.1,6
			c0.9,1.5,2.6,2.2,4.1,2C243.2,85.2,244.7,83.4,244.7,81.2z"/>
	</g>
	<path class="st0" d="M241.6,81.3c0.6,0.3,0.7,0.8,0.9,1.3c0.1,0.5,0.2,1,0.3,1.6c-0.3,0-0.6,0-0.9,0c-0.1,0-0.2-0.2-0.2-0.3
		c-0.1-0.4-0.2-0.8-0.3-1.2c-0.2-0.8-0.9-1.3-1.7-1c-0.1,0-0.1,0.2-0.1,0.3c0,0.6,0,1.2,0,1.8c0,0.4,0,0.4-0.4,0.4
		c-0.6,0-0.6,0-0.6-0.6c0-1.6,0-3.3,0-4.9c0-0.3,0.1-0.4,0.4-0.4c0.9-0.1,1.8-0.2,2.7,0.1c0.9,0.3,1.3,1,1,1.9
		c-0.1,0.4-0.4,0.7-0.7,0.9C241.8,81.2,241.7,81.3,241.6,81.3z M239.5,80c0,0.2,0,0.5,0,0.7c0,0.1,0.1,0.2,0.2,0.2
		c0.4,0,0.8,0,1.2-0.1c0.4-0.1,0.6-0.4,0.6-0.8c0-0.4-0.2-0.8-0.6-0.9c-0.4-0.1-0.8-0.1-1.2-0.1c-0.1,0-0.2,0.1-0.2,0.2
		C239.5,79.5,239.5,79.8,239.5,80z"/>
</g>
</svg>
