<?xml version="1.0" encoding="utf-8"?>
<!-- Generator: Adobe Illustrator 24.2.0, SVG Export Plug-In . SVG Version: 6.00 Build 0)  -->
<svg version="1.1" id="Ebene_1" xmlns="http://www.w3.org/2000/svg" xmlns:xlink="http://www.w3.org/1999/xlink" x="0px" y="0px"
	 viewBox="0 0 300 200" style="enable-background:new 0 0 300 200;" xml:space="preserve">
<style type="text/css">
	.st0{fill:#0A1227;}
	.st1{fill-rule:evenodd;clip-rule:evenodd;fill:#0A1227;}
	.st2{fill:url(#path58_2_);}
	.st3{fill-rule:evenodd;clip-rule:evenodd;fill:#194473;}
	.st4{fill:none;stroke:#194473;stroke-width:1.1801;stroke-miterlimit:5.3333;}
	.st5{fill-rule:evenodd;clip-rule:evenodd;}
	.st6{fill:#008948;}
	.st7{fill-rule:evenodd;clip-rule:evenodd;fill:#008948;}
	.st8{fill:#004E9E;}
	.st9{fill:#1A1A18;}
	.st10{fill:#FFFFFF;}
	.st11{fill:#76BC21;}
	.st12{fill:#1D1D1B;}
	.st13{fill-rule:evenodd;clip-rule:evenodd;fill:#1D1D1B;}
	.st14{fill:#E31513;}
	.st15{fill:#E60001;}
	.st16{fill:#333333;}
	.st17{fill:#BBBDC0;}
	.st18{fill:#1D3B6D;}
	.st19{fill-rule:evenodd;clip-rule:evenodd;fill:#1D3B6D;}
	.st20{fill:#FFFFFF;stroke:#BBBDC0;stroke-width:0.275;stroke-miterlimit:3.8637;}
	.st21{fill:#005B53;}
	.st22{fill:#FF6C0E;}
	.st23{fill:#134094;}
	.st24{fill:#D2022F;}
	.st25{fill:#9D9D9C;}
	.st26{fill:#93B894;}
	.st27{filter:url(#Adobe_OpacityMaskFilter);}
	.st28{fill-rule:evenodd;clip-rule:evenodd;fill:#FFFFFF;}
	.st29{mask:url(#logo-hagesued-b_2_);fill:#FF7200;}
	.st30{filter:url(#Adobe_OpacityMaskFilter_1_);}
	.st31{mask:url(#logo-hagesued-d_2_);fill:#7F3D39;}
	.st32{fill:#FEFEFE;}
	.st33{fill:#606060;}
	.st34{filter:url(#Adobe_OpacityMaskFilter_2_);}
	.st35{mask:url(#logo-hagesued-b_1_);fill:#606060;}
	.st36{fill:none;stroke:#000000;stroke-miterlimit:10;}
	.st37{fill:none;}
	.st38{clip-path:url(#SVGID_2_);fill:#444543;}
	.st39{clip-path:url(#SVGID_4_);}
	.st40{clip-path:url(#SVGID_6_);fill:#D0D0D0;}
	.st41{clip-path:url(#SVGID_8_);fill:#D0D0D0;}
	.st42{fill:#3F3E3C;}
	.st43{fill:#2374BA;}
	.st44{fill:#AEB2B5;}
	.st45{fill-rule:evenodd;clip-rule:evenodd;fill:#164194;}
	.st46{fill:#E30613;}
	.st47{fill-rule:evenodd;clip-rule:evenodd;fill:#DC911B;}
	.st48{fill:#DC911B;}
	.st49{fill:#FF0066;}
</style>
<g>
	<path class="st49" d="M99,88.9v4.2h4.6v2.4H99v9.5c0,2.2,0.6,3.4,2.4,3.4c0.9,0,1.4-0.1,1.9-0.2l0.1,2.4c-0.6,0.2-1.6,0.4-2.8,0.4
		c-1.5,0-2.7-0.5-3.5-1.3c-0.9-1-1.2-2.5-1.2-4.6v-9.6h-2.7v-2.4h2.7v-3.3L99,88.9z"/>
	<path class="st49" d="M108.8,102.5c0.1,4.3,2.8,6.1,6,6.1c2.3,0,3.7-0.4,4.9-0.9l0.6,2.3c-1.1,0.5-3.1,1.1-5.9,1.1
		c-5.4,0-8.7-3.6-8.7-8.9s3.1-9.5,8.3-9.5c5.8,0,7.3,5,7.3,8.3c0,0.7,0,1.1-0.1,1.5H108.8z M118.1,100.2c0-2-0.8-5.2-4.4-5.2
		c-3.3,0-4.7,2.9-4.9,5.2H118.1z"/>
	<path class="st49" d="M137.7,110c-0.8,0.4-2.7,1-5.1,1c-5.3,0-8.8-3.6-8.8-9c0-5.4,3.7-9.4,9.4-9.4c1.9,0,3.6,0.5,4.4,0.9l-0.7,2.4
		c-0.8-0.4-2-0.8-3.7-0.8c-4,0-6.2,3-6.2,6.7c0,4.1,2.6,6.6,6.1,6.6c1.8,0,3-0.4,3.9-0.8L137.7,110z"/>
	<path class="st49" d="M141.5,84.9h3.2v11h0.1c0.5-0.9,1.3-1.7,2.3-2.3c0.9-0.5,2.1-0.9,3.3-0.9c2.4,0,6.1,1.5,6.1,7.5v10.5h-3.2
		v-10.1c0-2.8-1.1-5.2-4.1-5.2c-2.1,0-3.7,1.5-4.3,3.2c-0.2,0.5-0.2,0.9-0.2,1.5v10.6h-3.2V84.9z"/>
	<path class="st49" d="M163.4,102.5c0.1,4.3,2.8,6.1,6,6.1c2.3,0,3.7-0.4,4.9-0.9l0.6,2.3c-1.1,0.5-3.1,1.1-5.9,1.1
		c-5.4,0-8.7-3.6-8.7-8.9s3.1-9.5,8.3-9.5c5.8,0,7.3,5,7.3,8.3c0,0.7,0,1.1-0.1,1.5H163.4z M172.8,100.2c0-2-0.8-5.2-4.4-5.2
		c-3.3,0-4.7,2.9-4.9,5.2H172.8z"/>
	<path class="st49" d="M179.8,97.8c0-1.9-0.1-3.3-0.1-4.8h2.8l0.1,2.9h0.1c1-1.7,2.6-3.2,5.6-3.2c2.4,0,4.2,1.5,4.9,3.5h0.1
		c0.5-1,1.3-1.7,2-2.3c1.1-0.8,2.2-1.2,3.9-1.2c2.4,0,5.8,1.5,5.8,7.6v10.3h-3.1v-9.9c0-3.4-1.3-5.4-3.8-5.4c-1.9,0-3.2,1.3-3.8,2.9
		c-0.1,0.5-0.3,1-0.3,1.6v10.9h-3.1v-10.5c0-2.8-1.2-4.8-3.7-4.8c-2,0-3.5,1.6-4,3.2c-0.2,0.4-0.3,1-0.3,1.6v10.6h-3.1V97.8z"/>
</g>
</svg>
